<?xml version="1.0" encoding="utf-8" standalone="no"?>
<!DOCTYPE svg PUBLIC "-//W3C//DTD SVG 1.1//EN"
  "http://www.w3.org/Graphics/SVG/1.1/DTD/svg11.dtd">
<svg xmlns:xlink="http://www.w3.org/1999/xlink" width="891.184675pt" height="428.84025pt" viewBox="0 0 891.184675 428.84025" xmlns="http://www.w3.org/2000/svg" version="1.1">
 <metadata>
  <rdf:RDF xmlns:dc="http://purl.org/dc/elements/1.1/" xmlns:cc="http://creativecommons.org/ns#" xmlns:rdf="http://www.w3.org/1999/02/22-rdf-syntax-ns#">
   <cc:Work>
    <dc:type rdf:resource="http://purl.org/dc/dcmitype/StillImage"/>
    <dc:date>2026-04-02T08:44:57.667559</dc:date>
    <dc:format>image/svg+xml</dc:format>
    <dc:creator>
     <cc:Agent>
      <dc:title>Matplotlib v3.10.8, https://matplotlib.org/</dc:title>
     </cc:Agent>
    </dc:creator>
   </cc:Work>
  </rdf:RDF>
 </metadata>
 <defs>
  <style type="text/css">*{stroke-linejoin: round; stroke-linecap: butt}</style>
 </defs>
 <g id="figure_1">
  <g id="patch_1">
   <path d="M 0 428.84025 
L 891.184675 428.84025 
L 891.184675 0 
L 0 0 
z
" style="fill: #ffffff"/>
  </g>
  <g id="axes_1">
   <g id="patch_2">
    <path d="M 300.730688 356.818302 
C 277.302473 373.988194 249.567913 384.334047 220.618371 386.702685 
C 191.668829 389.071323 162.621406 383.371347 136.713802 370.238089 
C 110.806197 357.104831 89.03813 337.045076 73.835924 312.294735 
C 58.633718 287.544395 50.583994 259.058531 50.583994 230.01225 
C 50.583994 200.965969 58.633718 172.480105 73.835924 147.729765 
C 89.03813 122.979424 110.806197 102.919669 136.713802 89.786411 
C 162.621406 76.653153 191.668829 70.953177 220.618371 73.321815 
C 249.567913 75.690453 277.302473 86.036306 300.730688 103.206198 
C 276.823356 83.994013 247.963204 71.92894 217.495485 68.409472 
C 187.027766 64.890005 156.176989 70.057592 128.519147 83.313245 
C 100.861305 96.568899 77.507978 117.379868 61.166108 143.333902 
C 44.824238 169.287935 36.150612 199.34193 36.150612 230.01225 
C 36.150612 260.68257 44.824238 290.736565 61.166108 316.690598 
C 77.507978 342.644632 100.861305 363.455601 128.519147 376.711255 
C 156.176989 389.966908 187.027766 395.134495 217.495485 391.615028 
C 247.963204 388.09556 276.823356 376.030487 300.730688 356.818302 
" clip-path="url(#p5a59651954)" style="fill: #ff0000; opacity: 0.4"/>
   </g>
   <g id="patch_3">
    <path d="M 300.730688 103.206198 
C 319.700042 118.450172 335.009261 137.758188 345.527005 159.703397 
C 356.044748 181.648607 361.505388 205.676779 361.505388 230.01225 
C 361.505388 254.347721 356.044748 278.375893 345.527005 300.321103 
C 335.009261 322.266312 319.700042 341.574328 300.730688 356.818302 
C 320.652535 342.21813 336.856192 323.126641 348.02387 301.09648 
C 359.191548 279.066319 365.012069 254.71134 365.012069 230.01225 
C 365.012069 205.31316 359.191548 180.958181 348.02387 158.92802 
C 336.856192 136.897859 320.652535 117.80637 300.730688 103.206198 
" clip-path="url(#p5a59651954)" style="fill: #008000; opacity: 0.4"/>
   </g>
   <g id="patch_4">
    <path d="M 300.730688 356.818302 
C 319.700042 341.574328 335.009261 322.266312 345.527005 300.321103 
C 356.044748 278.375893 361.505388 254.347721 361.505388 230.01225 
C 361.505388 205.676779 356.044748 181.648607 345.527005 159.703397 
C 335.009261 137.758188 319.700042 118.450172 300.730688 103.206198 
C 277.302473 86.036306 249.567913 75.690453 220.618371 73.321815 
C 191.668829 70.953177 162.621406 76.653153 136.713802 89.786411 
C 110.806197 102.919669 89.03813 122.979424 73.835924 147.729765 
C 58.633718 172.480105 50.583994 200.965969 50.583994 230.01225 
C 50.583994 259.058531 58.633718 287.544395 73.835924 312.294735 
C 89.03813 337.045076 110.806197 357.104831 136.713802 370.238089 
C 162.621406 383.371347 191.668829 389.071323 220.618371 386.702685 
C 249.567913 384.334047 277.302473 373.988194 300.730688 356.818302 
" clip-path="url(#p5a59651954)" style="fill: #b25900; opacity: 0.4"/>
   </g>
   <g id="text_1">
    <text style="font-size: 8px; font-family: 'Arial'; text-anchor: middle" x="43.367303" y="232.080375" transform="rotate(-0 43.367303 232.080375)">1215</text>
   </g>
   <g id="text_2">
    <text style="font-size: 8px; font-family: 'Arial'; text-anchor: middle" x="363.258729" y="232.080375" transform="rotate(-0 363.258729 232.080375)">133</text>
   </g>
   <g id="text_3">
    <text style="font-size: 8px; font-family: 'Arial'; text-anchor: middle" x="206.044691" y="232.080375" transform="rotate(-0 206.044691 232.080375)">15169</text>
   </g>
   <g id="text_4">
    <text style="font-size: 9.6px; font-family: 'Arial'; text-anchor: end" x="198.828" y="415.55571" transform="rotate(-0 198.828 415.55571)">Lysate</text>
   </g>
   <g id="text_5">
    <text style="font-size: 9.6px; font-family: 'Arial'; text-anchor: start" x="207.798031" y="410.092359" transform="rotate(-0 207.798031 410.092359)">NTVE</text>
   </g>
   <g id="text_6">
    <text style="font-weight: 700; font-size: 14px; font-family: 'Arial'" transform="translate(59.261184 17.391562)">Minimap: Genes Detected in All Replicates</text>
    <text style="font-weight: 700; font-size: 14px; font-family: 'Arial'" transform="translate(110.916809 32.38425)">(TPM &gt; 0 in all 3 replicates)</text>
   </g>
  </g>
  <g id="axes_2">
   <g id="patch_5">
    <path d="M 798.265898 350.344086 
C 775.454628 369.137359 747.762875 381.062309 718.434596 384.721985 
C 689.106318 388.381661 659.333274 383.627353 632.603234 371.016003 
C 605.873195 358.404654 583.27234 338.448728 567.448252 313.485968 
C 551.624164 288.523208 543.219858 259.567979 543.219858 230.01225 
C 543.219858 200.456521 551.624164 171.501292 567.448252 146.538532 
C 583.27234 121.575772 605.873195 101.619846 632.603234 89.008497 
C 659.333274 76.397147 689.106318 71.642839 718.434596 75.302515 
C 747.762875 78.962191 775.454628 90.887141 798.265898 109.680414 
C 774.952461 88.46952 745.969703 74.484084 714.85857 69.432767 
C 683.747437 64.381449 651.82871 68.478697 623.002031 81.22393 
C 594.175352 93.969164 569.664519 114.821303 552.464123 141.232755 
C 535.263728 167.644207 526.103988 198.493709 526.103988 230.01225 
C 526.103988 261.530791 535.263728 292.380293 552.464123 318.791745 
C 569.664519 345.203197 594.175352 366.055336 623.002031 378.80057 
C 651.82871 391.545803 683.747437 395.643051 714.85857 390.591733 
C 745.969703 385.540416 774.952461 371.55498 798.265898 350.344086 
" clip-path="url(#pe6b9b4129f)" style="fill: #ff0000; opacity: 0.4"/>
   </g>
   <g id="patch_6">
    <path d="M 798.265898 109.680414 
C 815.023706 124.926904 828.413283 143.507231 837.574617 164.227983 
C 846.735951 184.948735 851.468607 207.356575 851.468607 230.01225 
C 851.468607 252.667925 846.735951 275.075765 837.574617 295.796517 
C 828.413283 316.517269 815.023706 335.097596 798.265898 350.344086 
C 816.019449 335.717662 830.318016 317.341887 840.133174 296.538437 
C 849.948333 275.734987 855.038984 253.014877 855.038984 230.01225 
C 855.038984 207.009623 849.948333 184.289513 840.133174 163.486063 
C 830.318016 142.682613 816.019449 124.306838 798.265898 109.680414 
" clip-path="url(#pe6b9b4129f)" style="fill: #008000; opacity: 0.4"/>
   </g>
   <g id="patch_7">
    <path d="M 798.265898 350.344086 
C 815.023706 335.097596 828.413283 316.517269 837.574617 295.796517 
C 846.735951 275.075765 851.468607 252.667925 851.468607 230.01225 
C 851.468607 207.356575 846.735951 184.948735 837.574617 164.227983 
C 828.413283 143.507231 815.023706 124.926904 798.265898 109.680414 
C 775.454628 90.887141 747.762875 78.962191 718.434596 75.302515 
C 689.106318 71.642839 659.333274 76.397147 632.603234 89.008497 
C 605.873195 101.619846 583.27234 121.575772 567.448252 146.538532 
C 551.624164 171.501292 543.219858 200.456521 543.219858 230.01225 
C 543.219858 259.567979 551.624164 288.523208 567.448252 313.485968 
C 583.27234 338.448728 605.873195 358.404654 632.603234 371.016003 
C 659.333274 383.627353 689.106318 388.381661 718.434596 384.721985 
C 747.762875 381.062309 775.454628 369.137359 798.265898 350.344086 
" clip-path="url(#pe6b9b4129f)" style="fill: #b25900; opacity: 0.4"/>
   </g>
   <g id="text_7">
    <text style="font-size: 8px; font-family: 'Arial'; text-anchor: middle" x="534.661923" y="232.080375" transform="rotate(-0 534.661923 232.080375)">1423</text>
   </g>
   <g id="text_8">
    <text style="font-size: 8px; font-family: 'Arial'; text-anchor: middle" x="853.253796" y="232.080375" transform="rotate(-0 853.253796 232.080375)">123</text>
   </g>
   <g id="text_9">
    <text style="font-size: 8px; font-family: 'Arial'; text-anchor: middle" x="697.344232" y="232.080375" transform="rotate(-0 697.344232 232.080375)">14522</text>
   </g>
   <g id="text_10">
    <text style="font-size: 9.6px; font-family: 'Arial'; text-anchor: end" x="688.786297" y="415.495653" transform="rotate(-0 688.786297 415.495653)">Lysate</text>
   </g>
   <g id="text_11">
    <text style="font-size: 9.6px; font-family: 'Arial'; text-anchor: start" x="699.129421" y="408.722907" transform="rotate(-0 699.129421 408.722907)">NTVE</text>
   </g>
   <g id="text_12">
    <text style="font-weight: 700; font-size: 14px; font-family: 'Arial'" transform="translate(559.100549 17.391562)">STAR: Genes Detected in All Replicates</text>
    <text style="font-weight: 700; font-size: 14px; font-family: 'Arial'" transform="translate(600.906955 32.38425)">(TPM &gt; 0 in all 3 replicates)</text>
   </g>
  </g>
 </g>
 <defs>
  <clipPath id="p5a59651954">
   <rect x="7.2" y="38.38425" width="386.76268" height="383.256"/>
  </clipPath>
  <clipPath id="pe6b9b4129f">
   <rect x="497.158297" y="38.38425" width="386.826377" height="383.256"/>
  </clipPath>
 </defs>
</svg>
