<?xml version="1.0" encoding="utf-8" standalone="no"?>
<!DOCTYPE svg PUBLIC "-//W3C//DTD SVG 1.1//EN"
  "http://www.w3.org/Graphics/SVG/1.1/DTD/svg11.dtd">
<svg xmlns:xlink="http://www.w3.org/1999/xlink" width="249.63pt" height="250.2995pt" viewBox="0 0 249.63 250.2995" xmlns="http://www.w3.org/2000/svg" version="1.1">
 <metadata>
  <rdf:RDF xmlns:dc="http://purl.org/dc/elements/1.1/" xmlns:cc="http://creativecommons.org/ns#" xmlns:rdf="http://www.w3.org/1999/02/22-rdf-syntax-ns#">
   <cc:Work>
    <dc:type rdf:resource="http://purl.org/dc/dcmitype/StillImage"/>
    <dc:date>2026-04-07T12:39:35.883508</dc:date>
    <dc:format>image/svg+xml</dc:format>
    <dc:creator>
     <cc:Agent>
      <dc:title>Matplotlib v3.9.0, https://matplotlib.org/</dc:title>
     </cc:Agent>
    </dc:creator>
   </cc:Work>
  </rdf:RDF>
 </metadata>
 <defs>
  <style type="text/css">*{stroke-linejoin: round; stroke-linecap: butt}</style>
 </defs>
 <g id="figure_1">
  <g id="patch_1">
   <path d="M 0 250.2995 
L 249.63 250.2995 
L 249.63 0 
L 0 0 
z
" style="fill: #ffffff"/>
  </g>
  <g id="axes_1">
   <g id="patch_2">
    <path d="M 38.665 216.6145 
L 239.885 216.6145 
L 239.885 20.4945 
L 38.665 20.4945 
z
" style="fill: #ffffff"/>
   </g>
   <g id="PolyCollection_1">
    <defs>
     <path id="m62dd3f1490" d="M 39.000367 -57.031644 
L 39.000367 -52.751395 
L 39.6711 -52.439475 
L 40.341833 -51.95197 
L 41.012567 -51.651998 
L 41.6833 -51.382259 
L 42.354033 -50.750604 
L 43.024767 -50.685468 
L 43.6955 -50.549112 
L 44.366233 -50.696276 
L 45.036967 -50.771628 
L 45.7077 -50.619705 
L 46.378433 -50.134313 
L 47.049167 -50.293592 
L 47.7199 -50.286162 
L 48.390633 -50.381558 
L 49.061367 -50.563371 
L 49.7321 -50.292198 
L 50.402833 -49.994521 
L 51.073567 -49.781192 
L 51.7443 -49.621828 
L 52.415033 -49.591581 
L 53.085767 -49.8326 
L 53.7565 -49.741 
L 54.427233 -49.534712 
L 55.097967 -49.656203 
L 55.7687 -49.735775 
L 56.439433 -49.647946 
L 57.110167 -49.766798 
L 57.7809 -49.898935 
L 58.451633 -49.942382 
L 59.122367 -49.854656 
L 59.7931 -49.791657 
L 60.463833 -49.541904 
L 61.134567 -49.439497 
L 61.8053 -49.175512 
L 62.476033 -49.065568 
L 63.146767 -48.97224 
L 63.8175 -48.920503 
L 64.488233 -48.672296 
L 65.158967 -48.386779 
L 65.8297 -48.334254 
L 66.500433 -48.194298 
L 67.171167 -48.414835 
L 67.8419 -48.724873 
L 68.512633 -48.995341 
L 69.183367 -49.007767 
L 69.8541 -49.309665 
L 70.524833 -49.474497 
L 71.195567 -49.694202 
L 71.8663 -50.119242 
L 72.537033 -50.303678 
L 73.207767 -50.385432 
L 73.8785 -50.297452 
L 74.549233 -50.280672 
L 75.219967 -50.140308 
L 75.8907 -50.172347 
L 76.561433 -49.999375 
L 77.232167 -49.82267 
L 77.9029 -50.089379 
L 78.573633 -50.095654 
L 79.244367 -50.197423 
L 79.9151 -50.32244 
L 80.585833 -50.545419 
L 81.256567 -50.414374 
L 81.9273 -50.334522 
L 82.598033 -50.300069 
L 83.268767 -50.257443 
L 83.9395 -50.074431 
L 84.610233 -49.925408 
L 85.280967 -50.044081 
L 85.9517 -50.004472 
L 86.622433 -50.16873 
L 87.293167 -50.381762 
L 87.9639 -50.725661 
L 88.634633 -50.813019 
L 89.305367 -50.904954 
L 89.9761 -50.949947 
L 90.646833 -51.286805 
L 91.317567 -51.571882 
L 91.9883 -51.801819 
L 92.659033 -52.152233 
L 93.329767 -52.137276 
L 94.0005 -52.203096 
L 94.671233 -52.057076 
L 95.341967 -52.321371 
L 96.0127 -52.92315 
L 96.683433 -53.230355 
L 97.354167 -53.277551 
L 98.0249 -53.454974 
L 98.695633 -53.48668 
L 99.366367 -53.37586 
L 100.0371 -53.620456 
L 100.707833 -53.888278 
L 101.378567 -54.314774 
L 102.0493 -54.643891 
L 102.720033 -54.745397 
L 103.390767 -54.897924 
L 104.0615 -55.079092 
L 104.732233 -55.310121 
L 105.402967 -55.336814 
L 106.0737 -55.626487 
L 106.744433 -55.71128 
L 107.415167 -55.797087 
L 108.0859 -55.896092 
L 108.756633 -56.03286 
L 109.427367 -55.984174 
L 110.0981 -56.094129 
L 110.768833 -55.971133 
L 111.439567 -55.901472 
L 112.1103 -56.052714 
L 112.781033 -56.137115 
L 113.451767 -56.317613 
L 114.1225 -56.234572 
L 114.793233 -56.146331 
L 115.463967 -56.456035 
L 116.1347 -57.160524 
L 116.805433 -57.361873 
L 117.476167 -57.762532 
L 118.1469 -58.256768 
L 118.817633 -58.493012 
L 119.488367 -58.548158 
L 120.1591 -58.571858 
L 120.829833 -58.806898 
L 121.500567 -59.000641 
L 122.1713 -58.54137 
L 122.842033 -58.312919 
L 123.512767 -58.401849 
L 124.1835 -58.519574 
L 124.854233 -58.702645 
L 125.524967 -58.788897 
L 126.1957 -58.85945 
L 126.866433 -59.159158 
L 127.537167 -59.197835 
L 128.2079 -59.234508 
L 128.878633 -59.554362 
L 129.549367 -59.509173 
L 130.2201 -59.357633 
L 130.890833 -59.297629 
L 131.561567 -59.368826 
L 132.2323 -59.497623 
L 132.903033 -59.631939 
L 133.573767 -60.03496 
L 134.2445 -60.438675 
L 134.915233 -60.678527 
L 135.585967 -60.760355 
L 136.2567 -61.026266 
L 136.927433 -61.416393 
L 137.598167 -62.120806 
L 138.2689 -62.697543 
L 138.939633 -63.026941 
L 139.610367 -63.415101 
L 140.2811 -63.626245 
L 140.951833 -63.830207 
L 141.622567 -64.092414 
L 142.2933 -64.457687 
L 142.964033 -64.730067 
L 143.634767 -64.866066 
L 144.3055 -64.995057 
L 144.976233 -65.179143 
L 145.646967 -65.432865 
L 146.3177 -65.86254 
L 146.988433 -66.166838 
L 147.659167 -66.212696 
L 148.3299 -66.614826 
L 149.000633 -66.934312 
L 149.671367 -67.31745 
L 150.3421 -67.969802 
L 151.012833 -68.313119 
L 151.683567 -68.706114 
L 152.3543 -69.081836 
L 153.025033 -69.436132 
L 153.695767 -69.853422 
L 154.3665 -70.532137 
L 155.037233 -71.296113 
L 155.707967 -71.978064 
L 156.3787 -72.168119 
L 157.049433 -72.274984 
L 157.720167 -72.671018 
L 158.3909 -72.752419 
L 159.061633 -73.014456 
L 159.732367 -73.326735 
L 160.4031 -73.622853 
L 161.073833 -73.576077 
L 161.744567 -73.822769 
L 162.4153 -73.681973 
L 163.086033 -73.707588 
L 163.756767 -74.289345 
L 164.4275 -74.853563 
L 165.098233 -75.226847 
L 165.768967 -75.935308 
L 166.4397 -76.482153 
L 167.110433 -76.942079 
L 167.781167 -77.670818 
L 168.4519 -78.579676 
L 169.122633 -79.521861 
L 169.793367 -80.393666 
L 170.4641 -81.191873 
L 171.134833 -81.436226 
L 171.805567 -82.2141 
L 172.4763 -82.650527 
L 173.147033 -83.340642 
L 173.817767 -83.833405 
L 174.4885 -84.556778 
L 175.159233 -84.840267 
L 175.829967 -85.218626 
L 176.5007 -86.136176 
L 177.171433 -86.555724 
L 177.842167 -87.983517 
L 178.5129 -88.579675 
L 179.183633 -89.396981 
L 179.854367 -90.623378 
L 180.5251 -91.868095 
L 181.195833 -93.101517 
L 181.866567 -94.380585 
L 182.5373 -95.865522 
L 183.208033 -97.405567 
L 183.878767 -99.525041 
L 184.5495 -101.245592 
L 185.220233 -103.236031 
L 185.890967 -104.905512 
L 186.5617 -106.310416 
L 187.232433 -108.054955 
L 187.903167 -109.281389 
L 188.5739 -111.193068 
L 189.244633 -113.335521 
L 189.915367 -114.869033 
L 190.5861 -116.538489 
L 191.256833 -118.347653 
L 191.927567 -119.785798 
L 192.5983 -121.361554 
L 193.269033 -123.315181 
L 193.939767 -125.21306 
L 194.6105 -126.625379 
L 195.281233 -128.021802 
L 195.951967 -129.940726 
L 196.6227 -131.538714 
L 197.293433 -133.349752 
L 197.964167 -134.913395 
L 198.6349 -137.300796 
L 199.305633 -138.930034 
L 199.976367 -141.16778 
L 200.6471 -143.314998 
L 201.317833 -145.892005 
L 201.988567 -148.289282 
L 202.6593 -151.1454 
L 203.330033 -154.450249 
L 204.000767 -157.11545 
L 204.6715 -159.903166 
L 205.342233 -161.965348 
L 206.012967 -163.763082 
L 206.6837 -165.961464 
L 207.354433 -167.068873 
L 208.025167 -168.917069 
L 208.6959 -170.225043 
L 209.366633 -171.418292 
L 210.037367 -172.237025 
L 210.7081 -173.29683 
L 211.378833 -174.685055 
L 212.049567 -176.219633 
L 212.7203 -177.745735 
L 213.391033 -178.786736 
L 214.061767 -180.892056 
L 214.7325 -182.127498 
L 215.403233 -183.710973 
L 216.073967 -185.418689 
L 216.7447 -186.776059 
L 217.415433 -187.196737 
L 218.086167 -187.592338 
L 218.7569 -188.089107 
L 219.427633 -188.575207 
L 220.098367 -189.370426 
L 220.7691 -189.583238 
L 221.439833 -189.439571 
L 222.110567 -189.458356 
L 222.7813 -188.325123 
L 223.452033 -188.229396 
L 224.122767 -187.808119 
L 224.7935 -187.851671 
L 225.464233 -188.560222 
L 226.134967 -189.238383 
L 226.8057 -190.291621 
L 227.476433 -190.622633 
L 228.147167 -191.13453 
L 228.8179 -192.370667 
L 229.488633 -194.691137 
L 230.159367 -196.151703 
L 230.8301 -198.317794 
L 231.500833 -198.376166 
L 232.171567 -195.538968 
L 232.8423 -192.126471 
L 233.513033 -182.522994 
L 234.183767 -167.938905 
L 234.8545 -152.59172 
L 235.525233 -135.331481 
L 236.195967 -118.323986 
L 236.8667 -101.166411 
L 237.537433 -83.710218 
L 238.208167 -67.427371 
L 238.8789 -54.30553 
L 239.549633 -41.54199 
L 239.549633 -43.123329 
L 239.549633 -43.123329 
L 238.8789 -56.957813 
L 238.208167 -70.80543 
L 237.537433 -87.82057 
L 236.8667 -105.983136 
L 236.195967 -123.80766 
L 235.525233 -141.462836 
L 234.8545 -159.37209 
L 234.183767 -175.199768 
L 233.513033 -190.166111 
L 232.8423 -199.939354 
L 232.171567 -203.350238 
L 231.500833 -206.179827 
L 230.8301 -206.12993 
L 230.159367 -203.875688 
L 229.488633 -202.300048 
L 228.8179 -199.788546 
L 228.147167 -198.464539 
L 227.476433 -197.895826 
L 226.8057 -197.49911 
L 226.134967 -196.283886 
L 225.464233 -195.538439 
L 224.7935 -194.678452 
L 224.122767 -194.598746 
L 223.452033 -195.011064 
L 222.7813 -195.041618 
L 222.110567 -196.249339 
L 221.439833 -196.196327 
L 220.7691 -196.306957 
L 220.098367 -196.065194 
L 219.427633 -195.200001 
L 218.7569 -194.745275 
L 218.086167 -194.247784 
L 217.415433 -193.807547 
L 216.7447 -193.381436 
L 216.073967 -191.97933 
L 215.403233 -190.184035 
L 214.7325 -188.51505 
L 214.061767 -187.212875 
L 213.391033 -185.029604 
L 212.7203 -183.96198 
L 212.049567 -182.352342 
L 211.378833 -180.742691 
L 210.7081 -179.371624 
L 210.037367 -178.317364 
L 209.366633 -177.523374 
L 208.6959 -176.310491 
L 208.025167 -175.021046 
L 207.354433 -173.126298 
L 206.6837 -172.033475 
L 206.012967 -169.815947 
L 205.342233 -167.954959 
L 204.6715 -165.799158 
L 204.000767 -162.913366 
L 203.330033 -160.209076 
L 202.6593 -156.801082 
L 201.988567 -153.812783 
L 201.317833 -151.256874 
L 200.6471 -148.577915 
L 199.976367 -146.363418 
L 199.305633 -144.102985 
L 198.6349 -142.404255 
L 197.964167 -139.886533 
L 197.293433 -138.288232 
L 196.6227 -136.429377 
L 195.951967 -134.770295 
L 195.281233 -132.801066 
L 194.6105 -131.402798 
L 193.939767 -129.990984 
L 193.269033 -127.985513 
L 192.5983 -125.997666 
L 191.927567 -124.423049 
L 191.256833 -122.946809 
L 190.5861 -121.056659 
L 189.915367 -119.327941 
L 189.244633 -117.7202 
L 188.5739 -115.474156 
L 187.903167 -113.552608 
L 187.232433 -112.356069 
L 186.5617 -110.54513 
L 185.890967 -109.061348 
L 185.220233 -107.322177 
L 184.5495 -105.227338 
L 183.878767 -103.436109 
L 183.208033 -101.213759 
L 182.5373 -99.606911 
L 181.866567 -98.040649 
L 181.195833 -96.781294 
L 180.5251 -95.523196 
L 179.854367 -94.227293 
L 179.183633 -92.95797 
L 178.5129 -92.098431 
L 177.842167 -91.495996 
L 177.171433 -90.012917 
L 176.5007 -89.543745 
L 175.829967 -88.522495 
L 175.159233 -88.176877 
L 174.4885 -87.891125 
L 173.817767 -87.104343 
L 173.147033 -86.609995 
L 172.4763 -85.924798 
L 171.805567 -85.487136 
L 171.134833 -84.684327 
L 170.4641 -84.455219 
L 169.793367 -83.673888 
L 169.122633 -82.782742 
L 168.4519 -81.801473 
L 167.781167 -80.838879 
L 167.110433 -80.068193 
L 166.4397 -79.603736 
L 165.768967 -79.027356 
L 165.098233 -78.29984 
L 164.4275 -77.907522 
L 163.756767 -77.287797 
L 163.086033 -76.673303 
L 162.4153 -76.650942 
L 161.744567 -76.816441 
L 161.073833 -76.564607 
L 160.4031 -76.637008 
L 159.732367 -76.368469 
L 159.061633 -76.07601 
L 158.3909 -75.793414 
L 157.720167 -75.704392 
L 157.049433 -75.280282 
L 156.3787 -75.181986 
L 155.707967 -74.981342 
L 155.037233 -74.251772 
L 154.3665 -73.429341 
L 153.695767 -72.707807 
L 153.025033 -72.288385 
L 152.3543 -71.93454 
L 151.683567 -71.549458 
L 151.012833 -71.141326 
L 150.3421 -70.796192 
L 149.671367 -70.121176 
L 149.000633 -69.715973 
L 148.3299 -69.381072 
L 147.659167 -68.970333 
L 146.988433 -68.937166 
L 146.3177 -68.636818 
L 145.646967 -68.224 
L 144.976233 -67.961482 
L 144.3055 -67.796429 
L 143.634767 -67.695927 
L 142.964033 -67.551435 
L 142.2933 -67.298473 
L 141.622567 -66.907309 
L 140.951833 -66.6176 
L 140.2811 -66.409303 
L 139.610367 -66.183556 
L 138.939633 -65.762588 
L 138.2689 -65.432652 
L 137.598167 -64.845717 
L 136.927433 -64.009953 
L 136.2567 -63.600459 
L 135.585967 -63.327827 
L 134.915233 -63.261837 
L 134.2445 -63.001257 
L 133.573767 -62.522746 
L 132.903033 -62.091092 
L 132.2323 -61.991804 
L 131.561567 -61.839015 
L 130.890833 -61.78684 
L 130.2201 -61.899272 
L 129.549367 -62.135903 
L 128.878633 -62.241855 
L 128.2079 -61.91923 
L 127.537167 -61.925992 
L 126.866433 -61.898785 
L 126.1957 -61.521952 
L 125.524967 -61.408665 
L 124.854233 -61.277803 
L 124.1835 -60.995317 
L 123.512767 -60.855415 
L 122.842033 -60.713157 
L 122.1713 -61.023265 
L 121.500567 -61.599964 
L 120.829833 -61.386253 
L 120.1591 -61.150032 
L 119.488367 -61.171488 
L 118.817633 -61.144009 
L 118.1469 -60.943796 
L 117.476167 -60.440408 
L 116.805433 -60.007285 
L 116.1347 -59.849694 
L 115.463967 -59.082417 
L 114.793233 -58.712411 
L 114.1225 -58.867711 
L 113.451767 -58.918116 
L 112.781033 -58.684272 
L 112.1103 -58.614247 
L 111.439567 -58.444786 
L 110.768833 -58.518543 
L 110.0981 -58.616911 
L 109.427367 -58.473015 
L 108.756633 -58.540683 
L 108.0859 -58.406904 
L 107.415167 -58.349115 
L 106.744433 -58.294485 
L 106.0737 -58.243057 
L 105.402967 -57.927345 
L 104.732233 -57.883333 
L 104.0615 -57.649174 
L 103.390767 -57.44115 
L 102.720033 -57.30071 
L 102.0493 -57.088058 
L 101.378567 -56.721133 
L 100.707833 -56.263887 
L 100.0371 -55.976194 
L 99.366367 -55.718334 
L 98.695633 -55.889087 
L 98.0249 -55.863687 
L 97.354167 -55.604603 
L 96.683433 -55.562997 
L 96.0127 -55.243204 
L 95.341967 -54.602381 
L 94.671233 -54.314778 
L 94.0005 -54.429915 
L 93.329767 -54.34052 
L 92.659033 -54.374287 
L 91.9883 -53.992953 
L 91.317567 -53.734168 
L 90.646833 -53.429114 
L 89.9761 -53.033315 
L 89.305367 -52.9925 
L 88.634633 -52.892389 
L 87.9639 -52.7979 
L 87.293167 -52.414179 
L 86.622433 -52.169463 
L 85.9517 -52.053264 
L 85.280967 -52.112867 
L 84.610233 -52.010817 
L 83.9395 -52.194812 
L 83.268767 -52.421025 
L 82.598033 -52.500601 
L 81.9273 -52.637588 
L 81.256567 -52.723815 
L 80.585833 -52.871417 
L 79.9151 -52.608807 
L 79.244367 -52.46079 
L 78.573633 -52.317241 
L 77.9029 -52.310642 
L 77.232167 -51.975601 
L 76.561433 -52.10278 
L 75.8907 -52.333198 
L 75.219967 -52.30894 
L 74.549233 -52.469667 
L 73.8785 -52.476788 
L 73.207767 -52.583021 
L 72.537033 -52.494921 
L 71.8663 -52.280958 
L 71.195567 -51.812435 
L 70.524833 -51.548854 
L 69.8541 -51.339601 
L 69.183367 -51.040952 
L 68.512633 -51.05289 
L 67.8419 -50.733452 
L 67.171167 -50.390536 
L 66.500433 -50.14325 
L 65.8297 -50.344326 
L 65.158967 -50.434995 
L 64.488233 -50.79254 
L 63.8175 -51.093796 
L 63.146767 -51.172922 
L 62.476033 -51.277278 
L 61.8053 -51.462935 
L 61.134567 -51.826757 
L 60.463833 -51.978973 
L 59.7931 -52.244777 
L 59.122367 -52.287597 
L 58.451633 -52.426717 
L 57.7809 -52.342455 
L 57.110167 -52.197119 
L 56.439433 -52.053792 
L 55.7687 -52.182085 
L 55.097967 -52.069768 
L 54.427233 -51.946991 
L 53.7565 -52.186605 
L 53.085767 -52.267014 
L 52.415033 -51.997147 
L 51.7443 -52.034221 
L 51.073567 -52.250405 
L 50.402833 -52.514653 
L 49.7321 -52.815028 
L 49.061367 -53.179579 
L 48.390633 -52.996209 
L 47.7199 -52.880352 
L 47.049167 -52.916441 
L 46.378433 -52.759404 
L 45.7077 -53.419269 
L 45.036967 -53.67032 
L 44.366233 -53.600006 
L 43.6955 -53.425029 
L 43.024767 -53.626997 
L 42.354033 -53.718658 
L 41.6833 -54.613471 
L 41.012567 -54.974273 
L 40.341833 -55.452443 
L 39.6711 -56.512761 
L 39.000367 -57.031644 
z
" style="stroke: #bbe5f0; stroke-opacity: 0.2"/>
    </defs>
    <g clip-path="url(#p377912cb59)">
     <use xlink:href="#m62dd3f1490" x="0" y="250.2995" style="fill: #bbe5f0; fill-opacity: 0.2; stroke: #bbe5f0; stroke-opacity: 0.2"/>
    </g>
   </g>
   <g id="PolyCollection_2">
    <defs>
     <path id="m664268431b" d="M 39.000367 -54.671624 
L 39.000367 -50.458569 
L 39.6711 -50.028646 
L 40.341833 -49.883135 
L 41.012567 -49.972453 
L 41.6833 -49.84165 
L 42.354033 -49.720203 
L 43.024767 -49.628755 
L 43.6955 -49.308688 
L 44.366233 -48.955353 
L 45.036967 -49.087429 
L 45.7077 -48.822268 
L 46.378433 -48.758612 
L 47.049167 -48.655796 
L 47.7199 -48.483569 
L 48.390633 -48.537716 
L 49.061367 -48.591477 
L 49.7321 -48.53296 
L 50.402833 -48.614754 
L 51.073567 -48.687742 
L 51.7443 -48.642027 
L 52.415033 -48.618576 
L 53.085767 -48.648291 
L 53.7565 -48.614565 
L 54.427233 -48.517681 
L 55.097967 -48.591749 
L 55.7687 -48.662785 
L 56.439433 -48.470951 
L 57.110167 -48.379002 
L 57.7809 -48.23915 
L 58.451633 -48.240437 
L 59.122367 -48.253915 
L 59.7931 -48.39082 
L 60.463833 -48.278187 
L 61.134567 -48.346828 
L 61.8053 -48.055283 
L 62.476033 -47.901185 
L 63.146767 -47.836524 
L 63.8175 -47.766189 
L 64.488233 -47.755418 
L 65.158967 -47.606427 
L 65.8297 -47.480537 
L 66.500433 -47.397979 
L 67.171167 -47.518142 
L 67.8419 -47.550804 
L 68.512633 -47.837046 
L 69.183367 -47.880502 
L 69.8541 -48.037839 
L 70.524833 -48.086124 
L 71.195567 -48.097435 
L 71.8663 -48.213764 
L 72.537033 -48.323207 
L 73.207767 -48.389037 
L 73.8785 -48.322152 
L 74.549233 -48.376016 
L 75.219967 -48.244872 
L 75.8907 -48.242103 
L 76.561433 -48.389404 
L 77.232167 -48.537419 
L 77.9029 -48.820562 
L 78.573633 -48.82688 
L 79.244367 -48.888955 
L 79.9151 -48.953661 
L 80.585833 -49.102102 
L 81.256567 -49.091814 
L 81.9273 -49.217533 
L 82.598033 -49.136945 
L 83.268767 -49.159024 
L 83.9395 -49.042856 
L 84.610233 -48.99806 
L 85.280967 -49.33459 
L 85.9517 -49.590181 
L 86.622433 -49.642611 
L 87.293167 -49.795331 
L 87.9639 -49.922283 
L 88.634633 -49.9654 
L 89.305367 -50.019254 
L 89.9761 -50.156395 
L 90.646833 -50.444794 
L 91.317567 -50.571928 
L 91.9883 -50.620617 
L 92.659033 -50.753262 
L 93.329767 -50.948127 
L 94.0005 -51.003736 
L 94.671233 -51.033788 
L 95.341967 -51.132583 
L 96.0127 -51.347849 
L 96.683433 -51.451862 
L 97.354167 -51.574213 
L 98.0249 -51.836551 
L 98.695633 -51.87216 
L 99.366367 -51.710304 
L 100.0371 -51.741773 
L 100.707833 -51.897581 
L 101.378567 -52.235975 
L 102.0493 -52.497233 
L 102.720033 -52.674528 
L 103.390767 -52.730367 
L 104.0615 -52.693083 
L 104.732233 -52.95418 
L 105.402967 -53.172672 
L 106.0737 -53.451013 
L 106.744433 -53.554228 
L 107.415167 -53.771474 
L 108.0859 -54.010601 
L 108.756633 -54.286735 
L 109.427367 -54.297823 
L 110.0981 -54.334956 
L 110.768833 -54.451619 
L 111.439567 -54.286075 
L 112.1103 -54.322172 
L 112.781033 -54.272762 
L 113.451767 -54.666855 
L 114.1225 -54.758468 
L 114.793233 -54.76774 
L 115.463967 -54.723221 
L 116.1347 -54.974362 
L 116.805433 -55.269854 
L 117.476167 -55.667272 
L 118.1469 -56.023432 
L 118.817633 -56.203855 
L 119.488367 -56.097579 
L 120.1591 -56.114346 
L 120.829833 -56.275566 
L 121.500567 -56.555015 
L 122.1713 -56.835768 
L 122.842033 -56.828879 
L 123.512767 -56.823644 
L 124.1835 -56.770468 
L 124.854233 -56.793088 
L 125.524967 -56.889894 
L 126.1957 -57.189293 
L 126.866433 -57.448317 
L 127.537167 -57.780454 
L 128.2079 -57.780916 
L 128.878633 -57.701105 
L 129.549367 -58.008326 
L 130.2201 -58.235349 
L 130.890833 -58.340448 
L 131.561567 -58.543788 
L 132.2323 -58.752903 
L 132.903033 -58.6663 
L 133.573767 -58.868694 
L 134.2445 -58.943575 
L 134.915233 -59.272347 
L 135.585967 -59.487112 
L 136.2567 -59.666604 
L 136.927433 -59.855672 
L 137.598167 -60.479063 
L 138.2689 -60.980399 
L 138.939633 -61.258397 
L 139.610367 -61.528788 
L 140.2811 -61.508563 
L 140.951833 -61.603673 
L 141.622567 -61.854269 
L 142.2933 -62.046182 
L 142.964033 -62.295341 
L 143.634767 -62.533476 
L 144.3055 -62.704496 
L 144.976233 -62.769093 
L 145.646967 -63.169933 
L 146.3177 -63.711599 
L 146.988433 -64.156447 
L 147.659167 -64.542888 
L 148.3299 -64.861469 
L 149.000633 -65.176013 
L 149.671367 -65.589153 
L 150.3421 -65.992537 
L 151.012833 -66.222479 
L 151.683567 -66.671357 
L 152.3543 -67.164849 
L 153.025033 -67.595205 
L 153.695767 -68.037406 
L 154.3665 -68.64193 
L 155.037233 -69.23706 
L 155.707967 -69.820827 
L 156.3787 -70.124017 
L 157.049433 -70.447451 
L 157.720167 -70.894004 
L 158.3909 -71.330326 
L 159.061633 -71.825576 
L 159.732367 -72.336106 
L 160.4031 -72.893803 
L 161.073833 -73.227468 
L 161.744567 -73.664193 
L 162.4153 -74.127164 
L 163.086033 -74.236105 
L 163.756767 -74.629248 
L 164.4275 -75.062789 
L 165.098233 -75.805435 
L 165.768967 -76.301316 
L 166.4397 -76.706706 
L 167.110433 -77.061143 
L 167.781167 -77.670922 
L 168.4519 -78.348236 
L 169.122633 -78.970551 
L 169.793367 -79.84729 
L 170.4641 -80.688513 
L 171.134833 -80.969559 
L 171.805567 -81.405983 
L 172.4763 -82.053161 
L 173.147033 -82.528157 
L 173.817767 -83.253062 
L 174.4885 -84.087005 
L 175.159233 -84.662005 
L 175.829967 -85.383273 
L 176.5007 -86.235002 
L 177.171433 -86.873985 
L 177.842167 -88.10122 
L 178.5129 -89.028007 
L 179.183633 -89.985549 
L 179.854367 -90.875711 
L 180.5251 -91.963271 
L 181.195833 -93.369933 
L 181.866567 -94.733638 
L 182.5373 -96.218169 
L 183.208033 -97.618836 
L 183.878767 -98.953097 
L 184.5495 -100.481637 
L 185.220233 -101.975358 
L 185.890967 -103.453902 
L 186.5617 -105.009595 
L 187.232433 -106.600827 
L 187.903167 -107.874417 
L 188.5739 -109.351069 
L 189.244633 -111.308563 
L 189.915367 -113.085037 
L 190.5861 -114.874687 
L 191.256833 -116.266046 
L 191.927567 -117.670491 
L 192.5983 -119.496791 
L 193.269033 -121.021973 
L 193.939767 -122.846746 
L 194.6105 -124.96866 
L 195.281233 -126.848605 
L 195.951967 -128.481307 
L 196.6227 -130.618185 
L 197.293433 -133.031579 
L 197.964167 -135.686538 
L 198.6349 -138.556606 
L 199.305633 -140.682512 
L 199.976367 -143.279897 
L 200.6471 -146.17157 
L 201.317833 -149.007565 
L 201.988567 -152.380043 
L 202.6593 -156.14783 
L 203.330033 -159.391317 
L 204.000767 -162.732826 
L 204.6715 -165.488847 
L 205.342233 -167.609134 
L 206.012967 -169.70605 
L 206.6837 -171.607041 
L 207.354433 -173.171235 
L 208.025167 -175.393937 
L 208.6959 -176.780081 
L 209.366633 -177.989292 
L 210.037367 -179.597557 
L 210.7081 -180.64787 
L 211.378833 -182.541944 
L 212.049567 -183.780822 
L 212.7203 -185.804473 
L 213.391033 -188.160742 
L 214.061767 -190.737126 
L 214.7325 -191.31739 
L 215.403233 -192.163138 
L 216.073967 -193.731809 
L 216.7447 -194.722848 
L 217.415433 -195.87499 
L 218.086167 -196.877781 
L 218.7569 -197.615403 
L 219.427633 -197.120804 
L 220.098367 -197.122528 
L 220.7691 -197.533875 
L 221.439833 -198.308294 
L 222.110567 -198.326611 
L 222.7813 -197.630346 
L 223.452033 -197.562779 
L 224.122767 -197.298427 
L 224.7935 -196.900134 
L 225.464233 -197.794053 
L 226.134967 -199.035474 
L 226.8057 -200.102486 
L 227.476433 -200.80673 
L 228.147167 -200.148286 
L 228.8179 -201.675418 
L 229.488633 -203.613705 
L 230.159367 -205.063097 
L 230.8301 -206.858417 
L 231.500833 -206.652687 
L 232.171567 -204.39137 
L 232.8423 -200.800447 
L 233.513033 -191.249442 
L 234.183767 -175.905575 
L 234.8545 -159.627389 
L 235.525233 -141.699526 
L 236.195967 -123.61096 
L 236.8667 -105.696823 
L 237.537433 -88.009465 
L 238.208167 -70.558665 
L 238.8789 -56.191998 
L 239.549633 -42.216388 
L 239.549633 -43.949622 
L 239.549633 -43.949622 
L 238.8789 -59.358661 
L 238.208167 -74.53747 
L 237.537433 -92.851982 
L 236.8667 -111.332548 
L 236.195967 -129.957781 
L 235.525233 -148.864478 
L 234.8545 -167.533152 
L 234.183767 -184.364318 
L 233.513033 -200.07348 
L 232.8423 -209.723678 
L 232.171567 -213.316609 
L 231.500833 -215.610693 
L 230.8301 -215.743666 
L 230.159367 -213.781678 
L 229.488633 -212.198734 
L 228.8179 -210.027017 
L 228.147167 -208.319877 
L 227.476433 -209.02303 
L 226.8057 -208.175717 
L 226.134967 -206.892362 
L 225.464233 -205.508031 
L 224.7935 -204.501823 
L 224.122767 -204.883698 
L 223.452033 -205.109169 
L 222.7813 -205.139564 
L 222.110567 -205.874725 
L 221.439833 -205.792931 
L 220.7691 -204.975171 
L 220.098367 -204.458643 
L 219.427633 -204.450861 
L 218.7569 -204.924942 
L 218.086167 -204.133479 
L 217.415433 -203.074919 
L 216.7447 -201.909454 
L 216.073967 -200.89004 
L 215.403233 -199.230644 
L 214.7325 -198.359497 
L 214.061767 -197.776123 
L 213.391033 -195.092101 
L 212.7203 -192.533875 
L 212.049567 -190.426974 
L 211.378833 -189.193309 
L 210.7081 -187.240001 
L 210.037367 -186.20713 
L 209.366633 -184.536163 
L 208.6959 -183.404233 
L 208.025167 -182.063336 
L 207.354433 -179.778281 
L 206.6837 -178.262988 
L 206.012967 -176.320322 
L 205.342233 -174.104069 
L 204.6715 -171.931067 
L 204.000767 -169.065031 
L 203.330033 -165.54868 
L 202.6593 -162.227432 
L 201.988567 -158.300919 
L 201.317833 -154.762619 
L 200.6471 -151.841134 
L 199.976367 -148.795796 
L 199.305633 -146.093452 
L 198.6349 -143.935957 
L 197.964167 -140.954306 
L 197.293433 -138.156581 
L 196.6227 -135.593571 
L 195.951967 -133.324687 
L 195.281233 -131.655856 
L 194.6105 -129.688941 
L 193.939767 -127.500313 
L 193.269033 -125.568304 
L 192.5983 -124.084468 
L 191.927567 -122.198736 
L 191.256833 -120.762983 
L 190.5861 -119.396214 
L 189.915367 -117.533603 
L 189.244633 -115.666718 
L 188.5739 -113.671881 
L 187.903167 -112.20946 
L 187.232433 -110.918192 
L 186.5617 -109.234156 
L 185.890967 -107.664193 
L 185.220233 -106.114119 
L 184.5495 -104.535625 
L 183.878767 -102.922787 
L 183.208033 -101.563202 
L 182.5373 -100.096873 
L 181.866567 -98.518745 
L 181.195833 -97.05122 
L 180.5251 -95.557743 
L 179.854367 -94.435826 
L 179.183633 -93.538196 
L 178.5129 -92.565615 
L 177.842167 -91.669377 
L 177.171433 -90.417721 
L 176.5007 -89.780264 
L 175.829967 -88.890803 
L 175.159233 -88.096381 
L 174.4885 -87.545228 
L 173.817767 -86.655036 
L 173.147033 -85.908846 
L 172.4763 -85.429864 
L 171.805567 -84.750796 
L 171.134833 -84.362419 
L 170.4641 -84.128433 
L 169.793367 -83.242609 
L 169.122633 -82.354831 
L 168.4519 -81.727766 
L 167.781167 -81.10156 
L 167.110433 -80.416437 
L 166.4397 -80.093562 
L 165.768967 -79.671263 
L 165.098233 -79.116238 
L 164.4275 -78.221276 
L 163.756767 -77.776492 
L 163.086033 -77.314454 
L 162.4153 -77.207849 
L 161.744567 -76.654933 
L 161.073833 -76.187697 
L 160.4031 -75.850836 
L 159.732367 -75.241476 
L 159.061633 -74.711258 
L 158.3909 -74.246373 
L 157.720167 -73.790317 
L 157.049433 -73.315501 
L 156.3787 -72.989629 
L 155.707967 -72.699006 
L 155.037233 -72.060633 
L 154.3665 -71.415846 
L 153.695767 -70.773162 
L 153.025033 -70.310121 
L 152.3543 -69.865691 
L 151.683567 -69.297297 
L 151.012833 -68.843131 
L 150.3421 -68.615224 
L 149.671367 -68.199788 
L 149.000633 -67.762971 
L 148.3299 -67.442845 
L 147.659167 -67.160707 
L 146.988433 -66.753245 
L 146.3177 -66.273423 
L 145.646967 -65.685435 
L 144.976233 -65.228628 
L 144.3055 -65.22914 
L 143.634767 -65.066007 
L 142.964033 -64.838203 
L 142.2933 -64.59797 
L 141.622567 -64.403921 
L 140.951833 -64.111727 
L 140.2811 -64.027665 
L 139.610367 -64.093467 
L 138.939633 -63.817528 
L 138.2689 -63.512969 
L 137.598167 -62.976149 
L 136.927433 -62.286859 
L 136.2567 -62.086199 
L 135.585967 -61.884551 
L 134.915233 -61.670909 
L 134.2445 -61.307047 
L 133.573767 -61.237264 
L 132.903033 -61.019841 
L 132.2323 -61.172758 
L 131.561567 -60.984814 
L 130.890833 -60.811709 
L 130.2201 -60.720914 
L 129.549367 -60.492306 
L 128.878633 -60.15895 
L 128.2079 -60.245354 
L 127.537167 -60.254788 
L 126.866433 -59.909011 
L 126.1957 -59.690947 
L 125.524967 -59.31444 
L 124.854233 -59.192392 
L 124.1835 -59.189564 
L 123.512767 -59.244868 
L 122.842033 -59.237098 
L 122.1713 -59.287612 
L 121.500567 -59.03154 
L 120.829833 -58.751026 
L 120.1591 -58.511701 
L 119.488367 -58.531654 
L 118.817633 -58.79503 
L 118.1469 -58.690082 
L 117.476167 -58.295984 
L 116.805433 -57.85812 
L 116.1347 -57.517972 
L 115.463967 -57.212497 
L 114.793233 -57.2655 
L 114.1225 -57.226055 
L 113.451767 -57.071803 
L 112.781033 -56.540745 
L 112.1103 -56.696447 
L 111.439567 -56.687556 
L 110.768833 -56.890041 
L 110.0981 -56.796581 
L 109.427367 -56.762537 
L 108.756633 -56.762014 
L 108.0859 -56.478265 
L 107.415167 -56.225635 
L 106.744433 -55.914463 
L 106.0737 -55.792121 
L 105.402967 -55.501826 
L 104.732233 -55.251699 
L 104.0615 -54.930371 
L 103.390767 -54.976688 
L 102.720033 -55.050421 
L 102.0493 -54.848155 
L 101.378567 -54.563591 
L 100.707833 -54.179152 
L 100.0371 -54.029551 
L 99.366367 -54.002332 
L 98.695633 -54.220732 
L 98.0249 -54.098128 
L 97.354167 -53.730248 
L 96.683433 -53.624385 
L 96.0127 -53.553291 
L 95.341967 -53.336665 
L 94.671233 -53.234923 
L 94.0005 -53.218447 
L 93.329767 -53.129236 
L 92.659033 -52.912809 
L 91.9883 -52.716006 
L 91.317567 -52.655974 
L 90.646833 -52.511482 
L 89.9761 -52.180288 
L 89.305367 -52.001765 
L 88.634633 -51.973686 
L 87.9639 -51.951647 
L 87.293167 -51.816612 
L 86.622433 -51.669699 
L 85.9517 -51.591408 
L 85.280967 -51.298596 
L 84.610233 -50.892365 
L 83.9395 -50.97465 
L 83.268767 -51.126669 
L 82.598033 -51.105299 
L 81.9273 -51.239208 
L 81.256567 -51.149352 
L 80.585833 -51.196547 
L 79.9151 -50.965505 
L 79.244367 -50.893908 
L 78.573633 -50.839319 
L 77.9029 -50.837155 
L 77.232167 -50.550288 
L 76.561433 -50.404032 
L 75.8907 -50.203946 
L 75.219967 -50.173321 
L 74.549233 -50.334413 
L 73.8785 -50.285181 
L 73.207767 -50.35771 
L 72.537033 -50.262054 
L 71.8663 -50.112039 
L 71.195567 -49.959282 
L 70.524833 -49.936286 
L 69.8541 -49.876854 
L 69.183367 -49.737253 
L 68.512633 -49.685546 
L 67.8419 -49.349112 
L 67.171167 -49.339178 
L 66.500433 -49.19779 
L 65.8297 -49.307928 
L 65.158967 -49.452206 
L 64.488233 -49.66822 
L 63.8175 -49.714807 
L 63.146767 -49.810252 
L 62.476033 -49.905019 
L 61.8053 -50.101334 
L 61.134567 -50.464348 
L 60.463833 -50.418076 
L 59.7931 -50.562522 
L 59.122367 -50.395659 
L 58.451633 -50.35516 
L 57.7809 -50.383361 
L 57.110167 -50.559412 
L 56.439433 -50.683871 
L 55.7687 -50.939501 
L 55.097967 -50.877074 
L 54.427233 -50.79298 
L 53.7565 -50.944651 
L 53.085767 -50.998993 
L 52.415033 -50.986528 
L 51.7443 -51.029171 
L 51.073567 -51.092726 
L 50.402833 -51.107336 
L 49.7321 -50.987492 
L 49.061367 -51.092816 
L 48.390633 -51.053782 
L 47.7199 -50.998041 
L 47.049167 -51.358191 
L 46.378433 -51.54611 
L 45.7077 -51.691374 
L 45.036967 -52.055731 
L 44.366233 -51.886903 
L 43.6955 -52.409292 
L 43.024767 -53.066956 
L 42.354033 -53.121432 
L 41.6833 -53.334216 
L 41.012567 -53.430946 
L 40.341833 -53.336965 
L 39.6711 -53.69783 
L 39.000367 -54.671624 
z
" style="stroke: #4ecdc4; stroke-opacity: 0.2"/>
    </defs>
    <g clip-path="url(#p377912cb59)">
     <use xlink:href="#m664268431b" x="0" y="250.2995" style="fill: #4ecdc4; fill-opacity: 0.2; stroke: #4ecdc4; stroke-opacity: 0.2"/>
    </g>
   </g>
   <g id="PolyCollection_3">
    <defs>
     <path id="m68dcde7698" d="M 39.000367 -63.179538 
L 39.000367 -58.15851 
L 39.6711 -57.903753 
L 40.341833 -57.217943 
L 41.012567 -56.914484 
L 41.6833 -56.738591 
L 42.354033 -56.314936 
L 43.024767 -55.787106 
L 43.6955 -55.513726 
L 44.366233 -55.351053 
L 45.036967 -55.488579 
L 45.7077 -55.597362 
L 46.378433 -55.646852 
L 47.049167 -55.832743 
L 47.7199 -56.157609 
L 48.390633 -56.000849 
L 49.061367 -55.813586 
L 49.7321 -55.862471 
L 50.402833 -56.017245 
L 51.073567 -55.779671 
L 51.7443 -55.629229 
L 52.415033 -55.46155 
L 53.085767 -55.301058 
L 53.7565 -55.029517 
L 54.427233 -54.721006 
L 55.097967 -54.590611 
L 55.7687 -54.585797 
L 56.439433 -54.364558 
L 57.110167 -53.991153 
L 57.7809 -54.03319 
L 58.451633 -54.094463 
L 59.122367 -53.997966 
L 59.7931 -53.865875 
L 60.463833 -53.806797 
L 61.134567 -53.725585 
L 61.8053 -53.43909 
L 62.476033 -53.293372 
L 63.146767 -53.296002 
L 63.8175 -53.450149 
L 64.488233 -53.602199 
L 65.158967 -53.416261 
L 65.8297 -53.423332 
L 66.500433 -53.517526 
L 67.171167 -53.630066 
L 67.8419 -53.811203 
L 68.512633 -54.068511 
L 69.183367 -54.15587 
L 69.8541 -54.143999 
L 70.524833 -54.15028 
L 71.195567 -54.144352 
L 71.8663 -54.453316 
L 72.537033 -54.471151 
L 73.207767 -54.421633 
L 73.8785 -54.458996 
L 74.549233 -54.53854 
L 75.219967 -54.449235 
L 75.8907 -54.559877 
L 76.561433 -54.541194 
L 77.232167 -54.594044 
L 77.9029 -54.492823 
L 78.573633 -54.384882 
L 79.244367 -54.378423 
L 79.9151 -54.551684 
L 80.585833 -54.593655 
L 81.256567 -54.370913 
L 81.9273 -54.421672 
L 82.598033 -54.362497 
L 83.268767 -54.357042 
L 83.9395 -54.202305 
L 84.610233 -54.196009 
L 85.280967 -54.306111 
L 85.9517 -54.555891 
L 86.622433 -54.555271 
L 87.293167 -54.719592 
L 87.9639 -54.899657 
L 88.634633 -54.936967 
L 89.305367 -54.932448 
L 89.9761 -55.01252 
L 90.646833 -55.257998 
L 91.317567 -55.462731 
L 91.9883 -55.839922 
L 92.659033 -56.009308 
L 93.329767 -56.020006 
L 94.0005 -55.917162 
L 94.671233 -56.135652 
L 95.341967 -56.335395 
L 96.0127 -56.657566 
L 96.683433 -56.822893 
L 97.354167 -56.78855 
L 98.0249 -56.859827 
L 98.695633 -56.802902 
L 99.366367 -56.945159 
L 100.0371 -57.045663 
L 100.707833 -57.311754 
L 101.378567 -57.625175 
L 102.0493 -57.960804 
L 102.720033 -58.230675 
L 103.390767 -58.243582 
L 104.0615 -58.121452 
L 104.732233 -58.130106 
L 105.402967 -58.295971 
L 106.0737 -58.256338 
L 106.744433 -58.387571 
L 107.415167 -58.413501 
L 108.0859 -58.629687 
L 108.756633 -58.798105 
L 109.427367 -58.781374 
L 110.0981 -59.056984 
L 110.768833 -59.375185 
L 111.439567 -59.654122 
L 112.1103 -59.86232 
L 112.781033 -59.890723 
L 113.451767 -59.833933 
L 114.1225 -60.081713 
L 114.793233 -60.126712 
L 115.463967 -60.053487 
L 116.1347 -60.201171 
L 116.805433 -60.440714 
L 117.476167 -60.717823 
L 118.1469 -60.885163 
L 118.817633 -61.034039 
L 119.488367 -61.082213 
L 120.1591 -61.44752 
L 120.829833 -61.652737 
L 121.500567 -61.904346 
L 122.1713 -61.894496 
L 122.842033 -62.093589 
L 123.512767 -62.298457 
L 124.1835 -62.546007 
L 124.854233 -62.873545 
L 125.524967 -63.140913 
L 126.1957 -63.43965 
L 126.866433 -63.880359 
L 127.537167 -64.13385 
L 128.2079 -64.21855 
L 128.878633 -64.426667 
L 129.549367 -64.547641 
L 130.2201 -64.589193 
L 130.890833 -64.390237 
L 131.561567 -64.336667 
L 132.2323 -64.406954 
L 132.903033 -64.407466 
L 133.573767 -64.443183 
L 134.2445 -64.533765 
L 134.915233 -64.660035 
L 135.585967 -64.84807 
L 136.2567 -65.073927 
L 136.927433 -65.266218 
L 137.598167 -65.532949 
L 138.2689 -65.928426 
L 138.939633 -66.23856 
L 139.610367 -66.695074 
L 140.2811 -66.751049 
L 140.951833 -67.009323 
L 141.622567 -67.36177 
L 142.2933 -67.680061 
L 142.964033 -68.145371 
L 143.634767 -68.533708 
L 144.3055 -69.00712 
L 144.976233 -69.243991 
L 145.646967 -69.545765 
L 146.3177 -69.887014 
L 146.988433 -70.649813 
L 147.659167 -70.89335 
L 148.3299 -71.258423 
L 149.000633 -71.299866 
L 149.671367 -71.370305 
L 150.3421 -71.665749 
L 151.012833 -72.07204 
L 151.683567 -72.612136 
L 152.3543 -72.804405 
L 153.025033 -73.080077 
L 153.695767 -73.366036 
L 154.3665 -73.912109 
L 155.037233 -74.374786 
L 155.707967 -75.152867 
L 156.3787 -75.811574 
L 157.049433 -76.03207 
L 157.720167 -76.047069 
L 158.3909 -76.299317 
L 159.061633 -77.003575 
L 159.732367 -77.41442 
L 160.4031 -77.856081 
L 161.073833 -78.129327 
L 161.744567 -78.401838 
L 162.4153 -78.280862 
L 163.086033 -78.408831 
L 163.756767 -78.954925 
L 164.4275 -79.20562 
L 165.098233 -79.539789 
L 165.768967 -79.863332 
L 166.4397 -80.091158 
L 167.110433 -80.424702 
L 167.781167 -80.64815 
L 168.4519 -81.287933 
L 169.122633 -82.241169 
L 169.793367 -83.001339 
L 170.4641 -83.486783 
L 171.134833 -84.058697 
L 171.805567 -84.581333 
L 172.4763 -85.263725 
L 173.147033 -86.000007 
L 173.817767 -86.540166 
L 174.4885 -87.054426 
L 175.159233 -87.482972 
L 175.829967 -87.723885 
L 176.5007 -88.135204 
L 177.171433 -88.550821 
L 177.842167 -89.434198 
L 178.5129 -90.084594 
L 179.183633 -90.567155 
L 179.854367 -91.653919 
L 180.5251 -92.755792 
L 181.195833 -93.693082 
L 181.866567 -94.839847 
L 182.5373 -96.16135 
L 183.208033 -97.497821 
L 183.878767 -99.077734 
L 184.5495 -100.322102 
L 185.220233 -101.698471 
L 185.890967 -103.126564 
L 186.5617 -104.513728 
L 187.232433 -105.853685 
L 187.903167 -107.062034 
L 188.5739 -108.458018 
L 189.244633 -110.209113 
L 189.915367 -111.706192 
L 190.5861 -113.346109 
L 191.256833 -114.71139 
L 191.927567 -115.989799 
L 192.5983 -117.420808 
L 193.269033 -118.733952 
L 193.939767 -120.245995 
L 194.6105 -121.724929 
L 195.281233 -123.196009 
L 195.951967 -124.112172 
L 196.6227 -126.132612 
L 197.293433 -128.092082 
L 197.964167 -129.794641 
L 198.6349 -131.884062 
L 199.305633 -133.814161 
L 199.976367 -135.947044 
L 200.6471 -138.490765 
L 201.317833 -141.365756 
L 201.988567 -143.961507 
L 202.6593 -146.737429 
L 203.330033 -149.935912 
L 204.000767 -152.692135 
L 204.6715 -155.139251 
L 205.342233 -157.417765 
L 206.012967 -159.939962 
L 206.6837 -161.82799 
L 207.354433 -163.308821 
L 208.025167 -164.430769 
L 208.6959 -165.054453 
L 209.366633 -166.041222 
L 210.037367 -166.792394 
L 210.7081 -167.560637 
L 211.378833 -168.513208 
L 212.049567 -169.470804 
L 212.7203 -170.774136 
L 213.391033 -171.6118 
L 214.061767 -173.189691 
L 214.7325 -174.685329 
L 215.403233 -176.21981 
L 216.073967 -176.947691 
L 216.7447 -177.538619 
L 217.415433 -177.367204 
L 218.086167 -177.672832 
L 218.7569 -177.502106 
L 219.427633 -176.667246 
L 220.098367 -177.298289 
L 220.7691 -177.234899 
L 221.439833 -176.988145 
L 222.110567 -176.237983 
L 222.7813 -175.721585 
L 223.452033 -175.356382 
L 224.122767 -175.568396 
L 224.7935 -175.708421 
L 225.464233 -176.356036 
L 226.134967 -177.231754 
L 226.8057 -177.989249 
L 227.476433 -177.943038 
L 228.147167 -177.843256 
L 228.8179 -177.568998 
L 229.488633 -178.220405 
L 230.159367 -178.429368 
L 230.8301 -178.954419 
L 231.500833 -177.84508 
L 232.171567 -175.38881 
L 232.8423 -170.749826 
L 233.513033 -161.647208 
L 234.183767 -149.533918 
L 234.8545 -135.58415 
L 235.525233 -121.194543 
L 236.195967 -106.588522 
L 236.8667 -91.70615 
L 237.537433 -77.198199 
L 238.208167 -63.347458 
L 238.8789 -51.823697 
L 239.549633 -40.812704 
L 239.549633 -42.167474 
L 239.549633 -42.167474 
L 238.8789 -54.153318 
L 238.208167 -66.345625 
L 237.537433 -80.93501 
L 236.8667 -96.093296 
L 236.195967 -111.544187 
L 235.525233 -126.744506 
L 234.8545 -141.677588 
L 234.183767 -156.131073 
L 233.513033 -168.504136 
L 232.8423 -177.82061 
L 232.171567 -182.528683 
L 231.500833 -184.975593 
L 230.8301 -186.068726 
L 230.159367 -185.445183 
L 229.488633 -185.138886 
L 228.8179 -184.420233 
L 228.147167 -184.661474 
L 227.476433 -184.730707 
L 226.8057 -184.649537 
L 226.134967 -183.788604 
L 225.464233 -182.771671 
L 224.7935 -182.002498 
L 224.122767 -181.764861 
L 223.452033 -181.455881 
L 222.7813 -181.765509 
L 222.110567 -182.257213 
L 221.439833 -183.004312 
L 220.7691 -183.269903 
L 220.098367 -183.305527 
L 219.427633 -182.644197 
L 218.7569 -183.545236 
L 218.086167 -183.743286 
L 217.415433 -183.44876 
L 216.7447 -183.604462 
L 216.073967 -182.982615 
L 215.403233 -182.182586 
L 214.7325 -180.495541 
L 214.061767 -178.845907 
L 213.391033 -177.208422 
L 212.7203 -176.288153 
L 212.049567 -174.909386 
L 211.378833 -173.89498 
L 210.7081 -172.926786 
L 210.037367 -172.180658 
L 209.366633 -171.510339 
L 208.6959 -170.591679 
L 208.025167 -170.024238 
L 207.354433 -168.903988 
L 206.6837 -167.398355 
L 206.012967 -165.478536 
L 205.342233 -162.843866 
L 204.6715 -160.483132 
L 204.000767 -157.916587 
L 203.330033 -154.984061 
L 202.6593 -151.71006 
L 201.988567 -148.869465 
L 201.317833 -146.173991 
L 200.6471 -143.184442 
L 199.976367 -140.516241 
L 199.305633 -138.3069 
L 198.6349 -136.316887 
L 197.964167 -134.148598 
L 197.293433 -132.371386 
L 196.6227 -130.307553 
L 195.951967 -128.18929 
L 195.281233 -127.366798 
L 194.6105 -125.859302 
L 193.939767 -124.338618 
L 193.269033 -122.798925 
L 192.5983 -121.485438 
L 191.927567 -120.046556 
L 191.256833 -118.726227 
L 190.5861 -117.318912 
L 189.915367 -115.567554 
L 189.244633 -113.997857 
L 188.5739 -112.196233 
L 187.903167 -110.804451 
L 187.232433 -109.592484 
L 186.5617 -108.148199 
L 185.890967 -106.696157 
L 185.220233 -105.20476 
L 184.5495 -103.756522 
L 183.878767 -102.491696 
L 183.208033 -100.836706 
L 182.5373 -99.427074 
L 181.866567 -98.027234 
L 181.195833 -96.880778 
L 180.5251 -95.951414 
L 179.854367 -94.809964 
L 179.183633 -93.678703 
L 178.5129 -93.195951 
L 177.842167 -92.653447 
L 177.171433 -91.766748 
L 176.5007 -91.362306 
L 175.829967 -90.942636 
L 175.159233 -90.748189 
L 174.4885 -90.258529 
L 173.817767 -89.694037 
L 173.147033 -89.129468 
L 172.4763 -88.241604 
L 171.805567 -87.507805 
L 171.134833 -87.000756 
L 170.4641 -86.449514 
L 169.793367 -85.994653 
L 169.122633 -85.216774 
L 168.4519 -84.207099 
L 167.781167 -83.555068 
L 167.110433 -83.400499 
L 166.4397 -83.060328 
L 165.768967 -82.80997 
L 165.098233 -82.434302 
L 164.4275 -82.015788 
L 163.756767 -81.691649 
L 163.086033 -81.108575 
L 162.4153 -80.966276 
L 161.744567 -81.105495 
L 161.073833 -80.808476 
L 160.4031 -80.527988 
L 159.732367 -80.07431 
L 159.061633 -79.680695 
L 158.3909 -78.954298 
L 157.720167 -78.698069 
L 157.049433 -78.768706 
L 156.3787 -78.607964 
L 155.707967 -77.906702 
L 155.037233 -77.08649 
L 154.3665 -76.592194 
L 153.695767 -76.023791 
L 153.025033 -75.74022 
L 152.3543 -75.480177 
L 151.683567 -75.267818 
L 151.012833 -74.669033 
L 150.3421 -74.24067 
L 149.671367 -73.945224 
L 149.000633 -73.874788 
L 148.3299 -73.830659 
L 147.659167 -73.453921 
L 146.988433 -73.223999 
L 146.3177 -72.376299 
L 145.646967 -71.985916 
L 144.976233 -71.63244 
L 144.3055 -71.384339 
L 143.634767 -70.89079 
L 142.964033 -70.467043 
L 142.2933 -69.97331 
L 141.622567 -69.628609 
L 140.951833 -69.258358 
L 140.2811 -68.995805 
L 139.610367 -68.961711 
L 138.939633 -68.499194 
L 138.2689 -68.190859 
L 137.598167 -67.805109 
L 136.927433 -67.521692 
L 136.2567 -67.314954 
L 135.585967 -67.064548 
L 134.915233 -66.906993 
L 134.2445 -66.801645 
L 133.573767 -66.689144 
L 132.903033 -66.690109 
L 132.2323 -66.694529 
L 131.561567 -66.66151 
L 130.890833 -66.758234 
L 130.2201 -67.005604 
L 129.549367 -67.010127 
L 128.878633 -66.894335 
L 128.2079 -66.680856 
L 127.537167 -66.624946 
L 126.866433 -66.345802 
L 126.1957 -65.833518 
L 125.524967 -65.475389 
L 124.854233 -65.162557 
L 124.1835 -64.801741 
L 123.512767 -64.530118 
L 122.842033 -64.299951 
L 122.1713 -64.085567 
L 121.500567 -64.142786 
L 120.829833 -63.89993 
L 120.1591 -63.709136 
L 119.488367 -63.345454 
L 118.817633 -63.335053 
L 118.1469 -63.202613 
L 117.476167 -63.045799 
L 116.805433 -62.727558 
L 116.1347 -62.481157 
L 115.463967 -62.329538 
L 114.793233 -62.410575 
L 114.1225 -62.361975 
L 113.451767 -62.080419 
L 112.781033 -62.151702 
L 112.1103 -62.128621 
L 111.439567 -61.892204 
L 110.768833 -61.599448 
L 110.0981 -61.253277 
L 109.427367 -60.948623 
L 108.756633 -60.979778 
L 108.0859 -60.799939 
L 107.415167 -60.572114 
L 106.744433 -60.53651 
L 106.0737 -60.418164 
L 105.402967 -60.479293 
L 104.732233 -60.305198 
L 104.0615 -60.31892 
L 103.390767 -60.523224 
L 102.720033 -60.534066 
L 102.0493 -60.23394 
L 101.378567 -59.861616 
L 100.707833 -59.483709 
L 100.0371 -59.184062 
L 99.366367 -59.097764 
L 98.695633 -58.949506 
L 98.0249 -58.988328 
L 97.354167 -58.881282 
L 96.683433 -58.938874 
L 96.0127 -58.784739 
L 95.341967 -58.425225 
L 94.671233 -58.20199 
L 94.0005 -57.965211 
L 93.329767 -58.111571 
L 92.659033 -58.143961 
L 91.9883 -57.947624 
L 91.317567 -57.524517 
L 90.646833 -57.367453 
L 89.9761 -57.109447 
L 89.305367 -57.012647 
L 88.634633 -57.032772 
L 87.9639 -56.980467 
L 87.293167 -56.735978 
L 86.622433 -56.550472 
L 85.9517 -56.571274 
L 85.280967 -56.248856 
L 84.610233 -56.106689 
L 83.9395 -56.104671 
L 83.268767 -56.316323 
L 82.598033 -56.318601 
L 81.9273 -56.401199 
L 81.256567 -56.384224 
L 80.585833 -56.653913 
L 79.9151 -56.647657 
L 79.244367 -56.43027 
L 78.573633 -56.415264 
L 77.9029 -56.558804 
L 77.232167 -56.692465 
L 76.561433 -56.616425 
L 75.8907 -56.593326 
L 75.219967 -56.476238 
L 74.549233 -56.576757 
L 73.8785 -56.529616 
L 73.207767 -56.519973 
L 72.537033 -56.590504 
L 71.8663 -56.614442 
L 71.195567 -56.231006 
L 70.524833 -56.26786 
L 69.8541 -56.304524 
L 69.183367 -56.326977 
L 68.512633 -56.232891 
L 67.8419 -55.903598 
L 67.171167 -55.655129 
L 66.500433 -55.526268 
L 65.8297 -55.396186 
L 65.158967 -55.347377 
L 64.488233 -55.546409 
L 63.8175 -55.347448 
L 63.146767 -55.176918 
L 62.476033 -55.176844 
L 61.8053 -55.396545 
L 61.134567 -55.751921 
L 60.463833 -55.911303 
L 59.7931 -55.950373 
L 59.122367 -56.118264 
L 58.451633 -56.258972 
L 57.7809 -56.218656 
L 57.110167 -56.188527 
L 56.439433 -56.652245 
L 55.7687 -56.878822 
L 55.097967 -56.89819 
L 54.427233 -57.058715 
L 53.7565 -57.463549 
L 53.085767 -57.784908 
L 52.415033 -57.968725 
L 51.7443 -58.189843 
L 51.073567 -58.393713 
L 50.402833 -58.657311 
L 49.7321 -58.458869 
L 49.061367 -58.413187 
L 48.390633 -58.638873 
L 47.7199 -58.803897 
L 47.049167 -58.402584 
L 46.378433 -58.197886 
L 45.7077 -58.166586 
L 45.036967 -58.06378 
L 44.366233 -57.946297 
L 43.6955 -58.148207 
L 43.024767 -58.454307 
L 42.354033 -59.199227 
L 41.6833 -59.749071 
L 41.012567 -60.274366 
L 40.341833 -60.917492 
L 39.6711 -62.171487 
L 39.000367 -63.179538 
z
" style="stroke: #9faed5; stroke-opacity: 0.2"/>
    </defs>
    <g clip-path="url(#p377912cb59)">
     <use xlink:href="#m68dcde7698" x="0" y="250.2995" style="fill: #9faed5; fill-opacity: 0.2; stroke: #9faed5; stroke-opacity: 0.2"/>
    </g>
   </g>
   <g id="PolyCollection_4">
    <defs>
     <path id="m3937238101" d="M 39.000367 -58.146044 
L 39.000367 -51.514553 
L 39.6711 -51.111528 
L 40.341833 -50.551657 
L 41.012567 -49.98954 
L 41.6833 -49.876662 
L 42.354033 -49.892575 
L 43.024767 -49.609846 
L 43.6955 -49.443677 
L 44.366233 -49.466158 
L 45.036967 -49.264808 
L 45.7077 -49.04063 
L 46.378433 -49.146842 
L 47.049167 -49.304659 
L 47.7199 -49.408982 
L 48.390633 -49.411142 
L 49.061367 -49.525788 
L 49.7321 -49.626003 
L 50.402833 -49.712847 
L 51.073567 -49.732395 
L 51.7443 -49.553449 
L 52.415033 -49.571927 
L 53.085767 -49.47587 
L 53.7565 -49.342425 
L 54.427233 -49.273221 
L 55.097967 -49.385184 
L 55.7687 -49.439313 
L 56.439433 -49.085979 
L 57.110167 -48.79008 
L 57.7809 -48.727767 
L 58.451633 -48.729659 
L 59.122367 -48.693425 
L 59.7931 -48.690446 
L 60.463833 -48.539777 
L 61.134567 -48.499442 
L 61.8053 -48.333673 
L 62.476033 -48.31053 
L 63.146767 -48.4383 
L 63.8175 -48.621903 
L 64.488233 -48.476931 
L 65.158967 -48.320584 
L 65.8297 -48.245355 
L 66.500433 -48.299642 
L 67.171167 -48.315007 
L 67.8419 -48.407335 
L 68.512633 -48.619195 
L 69.183367 -48.634863 
L 69.8541 -48.526447 
L 70.524833 -48.508653 
L 71.195567 -48.606472 
L 71.8663 -48.675108 
L 72.537033 -48.90943 
L 73.207767 -48.8205 
L 73.8785 -48.770574 
L 74.549233 -48.77116 
L 75.219967 -48.930677 
L 75.8907 -48.959037 
L 76.561433 -48.962115 
L 77.232167 -49.044095 
L 77.9029 -49.145084 
L 78.573633 -49.287961 
L 79.244367 -49.187521 
L 79.9151 -49.293084 
L 80.585833 -49.54669 
L 81.256567 -49.704193 
L 81.9273 -49.905533 
L 82.598033 -49.947842 
L 83.268767 -50.083885 
L 83.9395 -50.189752 
L 84.610233 -50.270883 
L 85.280967 -50.292053 
L 85.9517 -50.345491 
L 86.622433 -50.364522 
L 87.293167 -50.480824 
L 87.9639 -50.577763 
L 88.634633 -50.481794 
L 89.305367 -50.436864 
L 89.9761 -50.612207 
L 90.646833 -50.671202 
L 91.317567 -50.817375 
L 91.9883 -50.867654 
L 92.659033 -50.951297 
L 93.329767 -51.08234 
L 94.0005 -51.008506 
L 94.671233 -50.917677 
L 95.341967 -50.860759 
L 96.0127 -51.037253 
L 96.683433 -51.070261 
L 97.354167 -51.114625 
L 98.0249 -51.287272 
L 98.695633 -51.493861 
L 99.366367 -51.597429 
L 100.0371 -51.76919 
L 100.707833 -52.231443 
L 101.378567 -52.798611 
L 102.0493 -53.127019 
L 102.720033 -53.371447 
L 103.390767 -53.495911 
L 104.0615 -53.444267 
L 104.732233 -53.647908 
L 105.402967 -53.788529 
L 106.0737 -53.98069 
L 106.744433 -54.061616 
L 107.415167 -54.071272 
L 108.0859 -54.130406 
L 108.756633 -54.333776 
L 109.427367 -54.352504 
L 110.0981 -54.483594 
L 110.768833 -54.58905 
L 111.439567 -54.42227 
L 112.1103 -54.421971 
L 112.781033 -54.510426 
L 113.451767 -54.723927 
L 114.1225 -54.775149 
L 114.793233 -54.915852 
L 115.463967 -54.849954 
L 116.1347 -55.116711 
L 116.805433 -55.404277 
L 117.476167 -55.554228 
L 118.1469 -55.891688 
L 118.817633 -56.081407 
L 119.488367 -56.124222 
L 120.1591 -56.263901 
L 120.829833 -56.324472 
L 121.500567 -56.290966 
L 122.1713 -56.463548 
L 122.842033 -56.307842 
L 123.512767 -56.31304 
L 124.1835 -56.440185 
L 124.854233 -56.780203 
L 125.524967 -56.800274 
L 126.1957 -56.890925 
L 126.866433 -57.01588 
L 127.537167 -57.499195 
L 128.2079 -57.821525 
L 128.878633 -57.92097 
L 129.549367 -58.257764 
L 130.2201 -58.363001 
L 130.890833 -58.465242 
L 131.561567 -58.483666 
L 132.2323 -58.641861 
L 132.903033 -58.756469 
L 133.573767 -59.11956 
L 134.2445 -59.088988 
L 134.915233 -58.999558 
L 135.585967 -59.153385 
L 136.2567 -59.471655 
L 136.927433 -59.734072 
L 137.598167 -60.005275 
L 138.2689 -60.500854 
L 138.939633 -60.92266 
L 139.610367 -61.16231 
L 140.2811 -61.410699 
L 140.951833 -61.70935 
L 141.622567 -62.149149 
L 142.2933 -62.446051 
L 142.964033 -62.539355 
L 143.634767 -62.583893 
L 144.3055 -62.679923 
L 144.976233 -62.92283 
L 145.646967 -63.250909 
L 146.3177 -63.590377 
L 146.988433 -63.905715 
L 147.659167 -64.110037 
L 148.3299 -64.337409 
L 149.000633 -64.595412 
L 149.671367 -64.984015 
L 150.3421 -65.476797 
L 151.012833 -65.830542 
L 151.683567 -66.041702 
L 152.3543 -66.314127 
L 153.025033 -66.69284 
L 153.695767 -67.011389 
L 154.3665 -67.562458 
L 155.037233 -68.390834 
L 155.707967 -69.024476 
L 156.3787 -69.53114 
L 157.049433 -69.877207 
L 157.720167 -70.474117 
L 158.3909 -71.045563 
L 159.061633 -71.565892 
L 159.732367 -72.079308 
L 160.4031 -72.615445 
L 161.073833 -72.694934 
L 161.744567 -73.019404 
L 162.4153 -72.979888 
L 163.086033 -73.308928 
L 163.756767 -73.804437 
L 164.4275 -74.012076 
L 165.098233 -74.303954 
L 165.768967 -74.819376 
L 166.4397 -75.347995 
L 167.110433 -76.031969 
L 167.781167 -76.869162 
L 168.4519 -77.570463 
L 169.122633 -78.122261 
L 169.793367 -78.848364 
L 170.4641 -79.549157 
L 171.134833 -80.212076 
L 171.805567 -81.011368 
L 172.4763 -81.612995 
L 173.147033 -82.384438 
L 173.817767 -82.653221 
L 174.4885 -83.184236 
L 175.159233 -83.348818 
L 175.829967 -83.88701 
L 176.5007 -84.978891 
L 177.171433 -85.691452 
L 177.842167 -86.690626 
L 178.5129 -87.396018 
L 179.183633 -88.326761 
L 179.854367 -89.578455 
L 180.5251 -90.782438 
L 181.195833 -92.108925 
L 181.866567 -93.523452 
L 182.5373 -94.826928 
L 183.208033 -96.028789 
L 183.878767 -97.623311 
L 184.5495 -99.210637 
L 185.220233 -100.924045 
L 185.890967 -102.512275 
L 186.5617 -103.871263 
L 187.232433 -106.055223 
L 187.903167 -108.07132 
L 188.5739 -109.927822 
L 189.244633 -112.047472 
L 189.915367 -113.764943 
L 190.5861 -115.055808 
L 191.256833 -116.601418 
L 191.927567 -117.935521 
L 192.5983 -119.430407 
L 193.269033 -120.892909 
L 193.939767 -122.156611 
L 194.6105 -123.149786 
L 195.281233 -124.961997 
L 195.951967 -126.877891 
L 196.6227 -128.903114 
L 197.293433 -131.684538 
L 197.964167 -133.599386 
L 198.6349 -136.251648 
L 199.305633 -138.63474 
L 199.976367 -141.315559 
L 200.6471 -144.132395 
L 201.317833 -146.863443 
L 201.988567 -150.161941 
L 202.6593 -153.341064 
L 203.330033 -156.828433 
L 204.000767 -159.402947 
L 204.6715 -162.773114 
L 205.342233 -165.756863 
L 206.012967 -168.449917 
L 206.6837 -170.81639 
L 207.354433 -172.817129 
L 208.025167 -175.171321 
L 208.6959 -176.364301 
L 209.366633 -177.584913 
L 210.037367 -178.502651 
L 210.7081 -179.764996 
L 211.378833 -180.651482 
L 212.049567 -181.947788 
L 212.7203 -183.368992 
L 213.391033 -185.097522 
L 214.061767 -187.583928 
L 214.7325 -188.692113 
L 215.403233 -190.35987 
L 216.073967 -191.211359 
L 216.7447 -192.766798 
L 217.415433 -194.159463 
L 218.086167 -196.169472 
L 218.7569 -196.669428 
L 219.427633 -197.488112 
L 220.098367 -198.694042 
L 220.7691 -198.228757 
L 221.439833 -199.005954 
L 222.110567 -199.944827 
L 222.7813 -200.319721 
L 223.452033 -200.668539 
L 224.122767 -201.365107 
L 224.7935 -202.111106 
L 225.464233 -203.131037 
L 226.134967 -203.83076 
L 226.8057 -205.024079 
L 227.476433 -205.909346 
L 228.147167 -206.653239 
L 228.8179 -207.4114 
L 229.488633 -210.271435 
L 230.159367 -212.216345 
L 230.8301 -213.226759 
L 231.500833 -213.159901 
L 232.171567 -211.305581 
L 232.8423 -207.470462 
L 233.513033 -196.483867 
L 234.183767 -180.551913 
L 234.8545 -163.754347 
L 235.525233 -145.422232 
L 236.195967 -126.522726 
L 236.8667 -107.568651 
L 237.537433 -88.824928 
L 238.208167 -70.655044 
L 238.8789 -55.521249 
L 239.549633 -42.103891 
L 239.549633 -43.606324 
L 239.549633 -43.606324 
L 238.8789 -58.003146 
L 238.208167 -73.881929 
L 237.537433 -92.945033 
L 236.8667 -112.455984 
L 236.195967 -132.051842 
L 235.525233 -151.587919 
L 234.8545 -170.525664 
L 234.183767 -187.778926 
L 233.513033 -204.067255 
L 232.8423 -215.25127 
L 232.171567 -219.053844 
L 231.500833 -220.805367 
L 230.8301 -220.796444 
L 230.159367 -219.668689 
L 229.488633 -217.60294 
L 228.8179 -214.606437 
L 228.147167 -213.784083 
L 227.476433 -212.928133 
L 226.8057 -212.012061 
L 226.134967 -210.716661 
L 225.464233 -209.926615 
L 224.7935 -208.76127 
L 224.122767 -207.898945 
L 223.452033 -207.165057 
L 222.7813 -206.780897 
L 222.110567 -206.395427 
L 221.439833 -205.318043 
L 220.7691 -204.455494 
L 220.098367 -204.980847 
L 219.427633 -203.728011 
L 218.7569 -202.902994 
L 218.086167 -202.420572 
L 217.415433 -200.346303 
L 216.7447 -198.893914 
L 216.073967 -197.28831 
L 215.403233 -196.396474 
L 214.7325 -194.586328 
L 214.061767 -193.439604 
L 213.391033 -190.888741 
L 212.7203 -189.034093 
L 212.049567 -187.60863 
L 211.378833 -186.292562 
L 210.7081 -185.454254 
L 210.037367 -184.202407 
L 209.366633 -183.30879 
L 208.6959 -182.154462 
L 208.025167 -180.965121 
L 207.354433 -178.592821 
L 206.6837 -176.546263 
L 206.012967 -174.103658 
L 205.342233 -171.329101 
L 204.6715 -168.213889 
L 204.000767 -164.671911 
L 203.330033 -162.028093 
L 202.6593 -158.463158 
L 201.988567 -155.205808 
L 201.317833 -151.757584 
L 200.6471 -148.954326 
L 199.976367 -146.029444 
L 199.305633 -143.268963 
L 198.6349 -140.827452 
L 197.964167 -138.093529 
L 197.293433 -136.123443 
L 196.6227 -133.203906 
L 195.951967 -131.135624 
L 195.281233 -129.152321 
L 194.6105 -127.281237 
L 193.939767 -126.338911 
L 193.269033 -125.092486 
L 192.5983 -123.591818 
L 191.927567 -122.071851 
L 191.256833 -120.701357 
L 190.5861 -119.130912 
L 189.915367 -117.857315 
L 189.244633 -116.102248 
L 188.5739 -113.87045 
L 187.903167 -111.962416 
L 187.232433 -109.856708 
L 186.5617 -107.562856 
L 185.890967 -106.139342 
L 185.220233 -104.51043 
L 184.5495 -102.707821 
L 183.878767 -101.043264 
L 183.208033 -99.389861 
L 182.5373 -98.139224 
L 181.866567 -96.801734 
L 181.195833 -95.330229 
L 180.5251 -93.959414 
L 179.854367 -92.707088 
L 179.183633 -91.367976 
L 178.5129 -90.382246 
L 177.842167 -89.741892 
L 177.171433 -88.769507 
L 176.5007 -88.048216 
L 175.829967 -86.908114 
L 175.159233 -86.35477 
L 174.4885 -86.214401 
L 173.817767 -85.663546 
L 173.147033 -85.410389 
L 172.4763 -84.579559 
L 171.805567 -83.953578 
L 171.134833 -83.110161 
L 170.4641 -82.380064 
L 169.793367 -81.658907 
L 169.122633 -80.930193 
L 168.4519 -80.383173 
L 167.781167 -79.665786 
L 167.110433 -78.79137 
L 166.4397 -78.074063 
L 165.768967 -77.574302 
L 165.098233 -77.046647 
L 164.4275 -76.768108 
L 163.756767 -76.582831 
L 163.086033 -76.078732 
L 162.4153 -75.664722 
L 161.744567 -75.713544 
L 161.073833 -75.388879 
L 160.4031 -75.364196 
L 159.732367 -74.79459 
L 159.061633 -74.263427 
L 158.3909 -73.707585 
L 157.720167 -73.086843 
L 157.049433 -72.463301 
L 156.3787 -72.171806 
L 155.707967 -71.666298 
L 155.037233 -70.986365 
L 154.3665 -70.011802 
L 153.695767 -69.418923 
L 153.025033 -69.094308 
L 152.3543 -68.68916 
L 151.683567 -68.419717 
L 151.012833 -68.212855 
L 150.3421 -67.904497 
L 149.671367 -67.420579 
L 149.000633 -67.025383 
L 148.3299 -66.764619 
L 147.659167 -66.546857 
L 146.988433 -66.370576 
L 146.3177 -66.067789 
L 145.646967 -65.720351 
L 144.976233 -65.301167 
L 144.3055 -65.066823 
L 143.634767 -64.979093 
L 142.964033 -64.993583 
L 142.2933 -64.895529 
L 141.622567 -64.557605 
L 140.951833 -64.058364 
L 140.2811 -63.75756 
L 139.610367 -63.483342 
L 138.939633 -63.234703 
L 138.2689 -62.710305 
L 137.598167 -62.18652 
L 136.927433 -61.899436 
L 136.2567 -61.609115 
L 135.585967 -61.267532 
L 134.915233 -61.136184 
L 134.2445 -61.268011 
L 133.573767 -61.358668 
L 132.903033 -60.958874 
L 132.2323 -60.873939 
L 131.561567 -60.766246 
L 130.890833 -60.782076 
L 130.2201 -60.706733 
L 129.549367 -60.651487 
L 128.878633 -60.313449 
L 128.2079 -60.182872 
L 127.537167 -59.791282 
L 126.866433 -59.272753 
L 126.1957 -59.15056 
L 125.524967 -59.077417 
L 124.854233 -59.026901 
L 124.1835 -58.645927 
L 123.512767 -58.490604 
L 122.842033 -58.446472 
L 122.1713 -58.611723 
L 121.500567 -58.455631 
L 120.829833 -58.507507 
L 120.1591 -58.463501 
L 119.488367 -58.351857 
L 118.817633 -58.365766 
L 118.1469 -58.216236 
L 117.476167 -57.853287 
L 116.805433 -57.709541 
L 116.1347 -57.420876 
L 115.463967 -57.081482 
L 114.793233 -57.128797 
L 114.1225 -57.008965 
L 113.451767 -56.950532 
L 112.781033 -56.613481 
L 112.1103 -56.549459 
L 111.439567 -56.542482 
L 110.768833 -56.75125 
L 110.0981 -56.637264 
L 109.427367 -56.507565 
L 108.756633 -56.51722 
L 108.0859 -56.32431 
L 107.415167 -56.3179 
L 106.744433 -56.300447 
L 106.0737 -56.250452 
L 105.402967 -56.082838 
L 104.732233 -55.902231 
L 104.0615 -55.672583 
L 103.390767 -55.779664 
L 102.720033 -55.613938 
L 102.0493 -55.34581 
L 101.378567 -54.980322 
L 100.707833 -54.289647 
L 100.0371 -53.758211 
L 99.366367 -53.593507 
L 98.695633 -53.496849 
L 98.0249 -53.216233 
L 97.354167 -52.977824 
L 96.683433 -52.935728 
L 96.0127 -52.926837 
L 95.341967 -52.720331 
L 94.671233 -52.819143 
L 94.0005 -52.912257 
L 93.329767 -52.995049 
L 92.659033 -52.853644 
L 91.9883 -52.762704 
L 91.317567 -52.7304 
L 90.646833 -52.579271 
L 89.9761 -52.52989 
L 89.305367 -52.369934 
L 88.634633 -52.476277 
L 87.9639 -52.629849 
L 87.293167 -52.543787 
L 86.622433 -52.411145 
L 85.9517 -52.427472 
L 85.280967 -52.3542 
L 84.610233 -52.279707 
L 83.9395 -52.194466 
L 83.268767 -52.045146 
L 82.598033 -51.861405 
L 81.9273 -51.832558 
L 81.256567 -51.667504 
L 80.585833 -51.524051 
L 79.9151 -51.235984 
L 79.244367 -51.140078 
L 78.573633 -51.306389 
L 77.9029 -51.155913 
L 77.232167 -51.055099 
L 76.561433 -50.966167 
L 75.8907 -50.948079 
L 75.219967 -50.882005 
L 74.549233 -50.623997 
L 73.8785 -50.640923 
L 73.207767 -50.719517 
L 72.537033 -50.864432 
L 71.8663 -50.561363 
L 71.195567 -50.49444 
L 70.524833 -50.378361 
L 69.8541 -50.410218 
L 69.183367 -50.579662 
L 68.512633 -50.585783 
L 67.8419 -50.347314 
L 67.171167 -50.212705 
L 66.500433 -50.151085 
L 65.8297 -50.053656 
L 65.158967 -50.128803 
L 64.488233 -50.302476 
L 63.8175 -50.494 
L 63.146767 -50.230577 
L 62.476033 -50.097993 
L 61.8053 -50.121856 
L 61.134567 -50.334262 
L 60.463833 -50.391209 
L 59.7931 -50.54926 
L 59.122367 -50.565119 
L 58.451633 -50.604602 
L 57.7809 -50.637876 
L 57.110167 -50.727611 
L 56.439433 -51.07613 
L 55.7687 -51.607762 
L 55.097967 -51.606347 
L 54.427233 -51.465592 
L 53.7565 -51.547167 
L 53.085767 -51.715455 
L 52.415033 -51.856694 
L 51.7443 -51.862392 
L 51.073567 -52.086611 
L 50.402833 -52.099263 
L 49.7321 -51.947321 
L 49.061367 -51.789382 
L 48.390633 -51.683708 
L 47.7199 -51.744871 
L 47.049167 -51.647481 
L 46.378433 -51.496901 
L 45.7077 -51.39711 
L 45.036967 -51.707492 
L 44.366233 -52.063416 
L 43.6955 -52.114849 
L 43.024767 -52.391738 
L 42.354033 -52.869938 
L 41.6833 -52.843605 
L 41.012567 -53.042918 
L 40.341833 -54.073268 
L 39.6711 -55.519994 
L 39.000367 -58.146044 
z
" style="stroke: #f2d4e2; stroke-opacity: 0.2"/>
    </defs>
    <g clip-path="url(#p377912cb59)">
     <use xlink:href="#m3937238101" x="0" y="250.2995" style="fill: #f2d4e2; fill-opacity: 0.2; stroke: #f2d4e2; stroke-opacity: 0.2"/>
    </g>
   </g>
   <g id="matplotlib.axis_1">
    <g id="xtick_1">
     <g id="line2d_1">
      <path d="M 38.665 216.6145 
L 38.665 20.4945 
" clip-path="url(#p377912cb59)" style="fill: none; stroke-dasharray: 2.96,1.28; stroke-dashoffset: 0; stroke: #b0b0b0; stroke-opacity: 0.3; stroke-width: 0.8"/>
     </g>
     <g id="line2d_2">
      <defs>
       <path id="m90203c9369" d="M 0 0 
L 0 3.5 
" style="stroke: #000000; stroke-width: 0.8"/>
      </defs>
      <g>
       <use xlink:href="#m90203c9369" x="38.665" y="216.6145" style="stroke: #000000; stroke-width: 0.8"/>
      </g>
     </g>
     <g id="text_1">
      <text style="font: 8px 'DejaVu Sans', 'Bitstream Vera Sans', 'Computer Modern Sans Serif', 'Lucida Grande', 'Verdana', 'Geneva', 'Lucid', 'Arial', 'Helvetica', 'Avant Garde', sans-serif; text-anchor: middle" x="38.665" y="229.69325" transform="rotate(-0 38.665 229.69325)">−3000</text>
     </g>
    </g>
    <g id="xtick_2">
     <g id="line2d_3">
      <path d="M 72.201667 216.6145 
L 72.201667 20.4945 
" clip-path="url(#p377912cb59)" style="fill: none; stroke-dasharray: 2.96,1.28; stroke-dashoffset: 0; stroke: #b0b0b0; stroke-opacity: 0.3; stroke-width: 0.8"/>
     </g>
     <g id="line2d_4">
      <g>
       <use xlink:href="#m90203c9369" x="72.201667" y="216.6145" style="stroke: #000000; stroke-width: 0.8"/>
      </g>
     </g>
     <g id="text_2">
      <text style="font: 8px 'DejaVu Sans', 'Bitstream Vera Sans', 'Computer Modern Sans Serif', 'Lucida Grande', 'Verdana', 'Geneva', 'Lucid', 'Arial', 'Helvetica', 'Avant Garde', sans-serif; text-anchor: middle" x="72.201667" y="229.69325" transform="rotate(-0 72.201667 229.69325)">−2500</text>
     </g>
    </g>
    <g id="xtick_3">
     <g id="line2d_5">
      <path d="M 105.738333 216.6145 
L 105.738333 20.4945 
" clip-path="url(#p377912cb59)" style="fill: none; stroke-dasharray: 2.96,1.28; stroke-dashoffset: 0; stroke: #b0b0b0; stroke-opacity: 0.3; stroke-width: 0.8"/>
     </g>
     <g id="line2d_6">
      <g>
       <use xlink:href="#m90203c9369" x="105.738333" y="216.6145" style="stroke: #000000; stroke-width: 0.8"/>
      </g>
     </g>
     <g id="text_3">
      <text style="font: 8px 'DejaVu Sans', 'Bitstream Vera Sans', 'Computer Modern Sans Serif', 'Lucida Grande', 'Verdana', 'Geneva', 'Lucid', 'Arial', 'Helvetica', 'Avant Garde', sans-serif; text-anchor: middle" x="105.738333" y="229.69325" transform="rotate(-0 105.738333 229.69325)">−2000</text>
     </g>
    </g>
    <g id="xtick_4">
     <g id="line2d_7">
      <path d="M 139.275 216.6145 
L 139.275 20.4945 
" clip-path="url(#p377912cb59)" style="fill: none; stroke-dasharray: 2.96,1.28; stroke-dashoffset: 0; stroke: #b0b0b0; stroke-opacity: 0.3; stroke-width: 0.8"/>
     </g>
     <g id="line2d_8">
      <g>
       <use xlink:href="#m90203c9369" x="139.275" y="216.6145" style="stroke: #000000; stroke-width: 0.8"/>
      </g>
     </g>
     <g id="text_4">
      <text style="font: 8px 'DejaVu Sans', 'Bitstream Vera Sans', 'Computer Modern Sans Serif', 'Lucida Grande', 'Verdana', 'Geneva', 'Lucid', 'Arial', 'Helvetica', 'Avant Garde', sans-serif; text-anchor: middle" x="139.275" y="229.69325" transform="rotate(-0 139.275 229.69325)">−1500</text>
     </g>
    </g>
    <g id="xtick_5">
     <g id="line2d_9">
      <path d="M 172.811667 216.6145 
L 172.811667 20.4945 
" clip-path="url(#p377912cb59)" style="fill: none; stroke-dasharray: 2.96,1.28; stroke-dashoffset: 0; stroke: #b0b0b0; stroke-opacity: 0.3; stroke-width: 0.8"/>
     </g>
     <g id="line2d_10">
      <g>
       <use xlink:href="#m90203c9369" x="172.811667" y="216.6145" style="stroke: #000000; stroke-width: 0.8"/>
      </g>
     </g>
     <g id="text_5">
      <text style="font: 8px 'DejaVu Sans', 'Bitstream Vera Sans', 'Computer Modern Sans Serif', 'Lucida Grande', 'Verdana', 'Geneva', 'Lucid', 'Arial', 'Helvetica', 'Avant Garde', sans-serif; text-anchor: middle" x="172.811667" y="229.69325" transform="rotate(-0 172.811667 229.69325)">−1000</text>
     </g>
    </g>
    <g id="xtick_6">
     <g id="line2d_11">
      <path d="M 206.348333 216.6145 
L 206.348333 20.4945 
" clip-path="url(#p377912cb59)" style="fill: none; stroke-dasharray: 2.96,1.28; stroke-dashoffset: 0; stroke: #b0b0b0; stroke-opacity: 0.3; stroke-width: 0.8"/>
     </g>
     <g id="line2d_12">
      <g>
       <use xlink:href="#m90203c9369" x="206.348333" y="216.6145" style="stroke: #000000; stroke-width: 0.8"/>
      </g>
     </g>
     <g id="text_6">
      <text style="font: 8px 'DejaVu Sans', 'Bitstream Vera Sans', 'Computer Modern Sans Serif', 'Lucida Grande', 'Verdana', 'Geneva', 'Lucid', 'Arial', 'Helvetica', 'Avant Garde', sans-serif; text-anchor: middle" x="206.348333" y="229.69325" transform="rotate(-0 206.348333 229.69325)">−500</text>
     </g>
    </g>
    <g id="xtick_7">
     <g id="line2d_13">
      <path d="M 239.885 216.6145 
L 239.885 20.4945 
" clip-path="url(#p377912cb59)" style="fill: none; stroke-dasharray: 2.96,1.28; stroke-dashoffset: 0; stroke: #b0b0b0; stroke-opacity: 0.3; stroke-width: 0.8"/>
     </g>
     <g id="line2d_14">
      <g>
       <use xlink:href="#m90203c9369" x="239.885" y="216.6145" style="stroke: #000000; stroke-width: 0.8"/>
      </g>
     </g>
     <g id="text_7">
      <text style="font: 8px 'DejaVu Sans', 'Bitstream Vera Sans', 'Computer Modern Sans Serif', 'Lucida Grande', 'Verdana', 'Geneva', 'Lucid', 'Arial', 'Helvetica', 'Avant Garde', sans-serif; text-anchor: middle" x="239.885" y="229.69325" transform="rotate(-0 239.885 229.69325)">0</text>
     </g>
    </g>
    <g id="text_8">
     <text style="font: 8px 'DejaVu Sans', 'Bitstream Vera Sans', 'Computer Modern Sans Serif', 'Lucida Grande', 'Verdana', 'Geneva', 'Lucid', 'Arial', 'Helvetica', 'Avant Garde', sans-serif; text-anchor: middle" x="139.275" y="241.43575" transform="rotate(-0 139.275 241.43575)">Transcript Distance from TES (bp)</text>
    </g>
   </g>
   <g id="matplotlib.axis_2">
    <g id="ytick_1">
     <g id="line2d_15">
      <path d="M 38.665 216.6145 
L 239.885 216.6145 
" clip-path="url(#p377912cb59)" style="fill: none; stroke-dasharray: 2.96,1.28; stroke-dashoffset: 0; stroke: #b0b0b0; stroke-opacity: 0.3; stroke-width: 0.8"/>
     </g>
     <g id="line2d_16">
      <defs>
       <path id="mb89535a76c" d="M 0 0 
L -3.5 0 
" style="stroke: #000000; stroke-width: 0.8"/>
      </defs>
      <g>
       <use xlink:href="#mb89535a76c" x="38.665" y="216.6145" style="stroke: #000000; stroke-width: 0.8"/>
      </g>
     </g>
     <g id="text_9">
      <text style="font: 8px 'DejaVu Sans', 'Bitstream Vera Sans', 'Computer Modern Sans Serif', 'Lucida Grande', 'Verdana', 'Geneva', 'Lucid', 'Arial', 'Helvetica', 'Avant Garde', sans-serif; text-anchor: end" x="31.665" y="219.653875" transform="rotate(-0 31.665 219.653875)">0.0</text>
     </g>
    </g>
    <g id="ytick_2">
     <g id="line2d_17">
      <path d="M 38.665 189.046343 
L 239.885 189.046343 
" clip-path="url(#p377912cb59)" style="fill: none; stroke-dasharray: 2.96,1.28; stroke-dashoffset: 0; stroke: #b0b0b0; stroke-opacity: 0.3; stroke-width: 0.8"/>
     </g>
     <g id="line2d_18">
      <g>
       <use xlink:href="#mb89535a76c" x="38.665" y="189.046343" style="stroke: #000000; stroke-width: 0.8"/>
      </g>
     </g>
     <g id="text_10">
      <text style="font: 8px 'DejaVu Sans', 'Bitstream Vera Sans', 'Computer Modern Sans Serif', 'Lucida Grande', 'Verdana', 'Geneva', 'Lucid', 'Arial', 'Helvetica', 'Avant Garde', sans-serif; text-anchor: end" x="31.665" y="192.085718" transform="rotate(-0 31.665 192.085718)">0.5</text>
     </g>
    </g>
    <g id="ytick_3">
     <g id="line2d_19">
      <path d="M 38.665 161.478186 
L 239.885 161.478186 
" clip-path="url(#p377912cb59)" style="fill: none; stroke-dasharray: 2.96,1.28; stroke-dashoffset: 0; stroke: #b0b0b0; stroke-opacity: 0.3; stroke-width: 0.8"/>
     </g>
     <g id="line2d_20">
      <g>
       <use xlink:href="#mb89535a76c" x="38.665" y="161.478186" style="stroke: #000000; stroke-width: 0.8"/>
      </g>
     </g>
     <g id="text_11">
      <text style="font: 8px 'DejaVu Sans', 'Bitstream Vera Sans', 'Computer Modern Sans Serif', 'Lucida Grande', 'Verdana', 'Geneva', 'Lucid', 'Arial', 'Helvetica', 'Avant Garde', sans-serif; text-anchor: end" x="31.665" y="164.517561" transform="rotate(-0 31.665 164.517561)">1.0</text>
     </g>
    </g>
    <g id="ytick_4">
     <g id="line2d_21">
      <path d="M 38.665 133.91003 
L 239.885 133.91003 
" clip-path="url(#p377912cb59)" style="fill: none; stroke-dasharray: 2.96,1.28; stroke-dashoffset: 0; stroke: #b0b0b0; stroke-opacity: 0.3; stroke-width: 0.8"/>
     </g>
     <g id="line2d_22">
      <g>
       <use xlink:href="#mb89535a76c" x="38.665" y="133.91003" style="stroke: #000000; stroke-width: 0.8"/>
      </g>
     </g>
     <g id="text_12">
      <text style="font: 8px 'DejaVu Sans', 'Bitstream Vera Sans', 'Computer Modern Sans Serif', 'Lucida Grande', 'Verdana', 'Geneva', 'Lucid', 'Arial', 'Helvetica', 'Avant Garde', sans-serif; text-anchor: end" x="31.665" y="136.949405" transform="rotate(-0 31.665 136.949405)">1.5</text>
     </g>
    </g>
    <g id="ytick_5">
     <g id="line2d_23">
      <path d="M 38.665 106.341873 
L 239.885 106.341873 
" clip-path="url(#p377912cb59)" style="fill: none; stroke-dasharray: 2.96,1.28; stroke-dashoffset: 0; stroke: #b0b0b0; stroke-opacity: 0.3; stroke-width: 0.8"/>
     </g>
     <g id="line2d_24">
      <g>
       <use xlink:href="#mb89535a76c" x="38.665" y="106.341873" style="stroke: #000000; stroke-width: 0.8"/>
      </g>
     </g>
     <g id="text_13">
      <text style="font: 8px 'DejaVu Sans', 'Bitstream Vera Sans', 'Computer Modern Sans Serif', 'Lucida Grande', 'Verdana', 'Geneva', 'Lucid', 'Arial', 'Helvetica', 'Avant Garde', sans-serif; text-anchor: end" x="31.665" y="109.381248" transform="rotate(-0 31.665 109.381248)">2.0</text>
     </g>
    </g>
    <g id="ytick_6">
     <g id="line2d_25">
      <path d="M 38.665 78.773716 
L 239.885 78.773716 
" clip-path="url(#p377912cb59)" style="fill: none; stroke-dasharray: 2.96,1.28; stroke-dashoffset: 0; stroke: #b0b0b0; stroke-opacity: 0.3; stroke-width: 0.8"/>
     </g>
     <g id="line2d_26">
      <g>
       <use xlink:href="#mb89535a76c" x="38.665" y="78.773716" style="stroke: #000000; stroke-width: 0.8"/>
      </g>
     </g>
     <g id="text_14">
      <text style="font: 8px 'DejaVu Sans', 'Bitstream Vera Sans', 'Computer Modern Sans Serif', 'Lucida Grande', 'Verdana', 'Geneva', 'Lucid', 'Arial', 'Helvetica', 'Avant Garde', sans-serif; text-anchor: end" x="31.665" y="81.813091" transform="rotate(-0 31.665 81.813091)">2.5</text>
     </g>
    </g>
    <g id="ytick_7">
     <g id="line2d_27">
      <path d="M 38.665 51.205559 
L 239.885 51.205559 
" clip-path="url(#p377912cb59)" style="fill: none; stroke-dasharray: 2.96,1.28; stroke-dashoffset: 0; stroke: #b0b0b0; stroke-opacity: 0.3; stroke-width: 0.8"/>
     </g>
     <g id="line2d_28">
      <g>
       <use xlink:href="#mb89535a76c" x="38.665" y="51.205559" style="stroke: #000000; stroke-width: 0.8"/>
      </g>
     </g>
     <g id="text_15">
      <text style="font: 8px 'DejaVu Sans', 'Bitstream Vera Sans', 'Computer Modern Sans Serif', 'Lucida Grande', 'Verdana', 'Geneva', 'Lucid', 'Arial', 'Helvetica', 'Avant Garde', sans-serif; text-anchor: end" x="31.665" y="54.244934" transform="rotate(-0 31.665 54.244934)">3.0</text>
     </g>
    </g>
    <g id="ytick_8">
     <g id="line2d_29">
      <path d="M 38.665 23.637402 
L 239.885 23.637402 
" clip-path="url(#p377912cb59)" style="fill: none; stroke-dasharray: 2.96,1.28; stroke-dashoffset: 0; stroke: #b0b0b0; stroke-opacity: 0.3; stroke-width: 0.8"/>
     </g>
     <g id="line2d_30">
      <g>
       <use xlink:href="#mb89535a76c" x="38.665" y="23.637402" style="stroke: #000000; stroke-width: 0.8"/>
      </g>
     </g>
     <g id="text_16">
      <text style="font: 8px 'DejaVu Sans', 'Bitstream Vera Sans', 'Computer Modern Sans Serif', 'Lucida Grande', 'Verdana', 'Geneva', 'Lucid', 'Arial', 'Helvetica', 'Avant Garde', sans-serif; text-anchor: end" x="31.665" y="26.676777" transform="rotate(-0 31.665 26.676777)">3.5</text>
     </g>
    </g>
    <g id="text_17">
     <text style="font: 8px 'DejaVu Sans', 'Bitstream Vera Sans', 'Computer Modern Sans Serif', 'Lucida Grande', 'Verdana', 'Geneva', 'Lucid', 'Arial', 'Helvetica', 'Avant Garde', sans-serif; text-anchor: middle" x="13.27875" y="118.5545" transform="rotate(-90 13.27875 118.5545)">Mean Normalized Coverage</text>
    </g>
   </g>
   <g id="line2d_31">
    <path d="M 39.000367 195.407981 
L 39.6711 195.823382 
L 40.341833 196.597294 
L 41.6833 197.301635 
L 42.354033 198.064869 
L 43.6955 198.312429 
L 45.036967 198.078526 
L 45.7077 198.280013 
L 46.378433 198.852642 
L 47.049167 198.694483 
L 47.7199 198.716243 
L 49.061367 198.428025 
L 51.073567 199.283701 
L 51.7443 199.471476 
L 52.415033 199.505136 
L 53.085767 199.249693 
L 53.7565 199.335697 
L 54.427233 199.558649 
L 55.7687 199.34057 
L 56.439433 199.448631 
L 58.451633 199.114951 
L 61.134567 199.666373 
L 61.8053 199.980277 
L 63.146767 200.226919 
L 63.8175 200.29235 
L 65.158967 200.888613 
L 66.500433 201.130726 
L 67.8419 200.570337 
L 68.512633 200.275384 
L 69.183367 200.27514 
L 70.524833 199.787824 
L 71.195567 199.546182 
L 71.8663 199.0994 
L 73.207767 198.815273 
L 75.219967 199.074876 
L 75.8907 199.046727 
L 77.232167 199.400364 
L 77.9029 199.099489 
L 78.573633 199.093053 
L 79.9151 198.833877 
L 80.585833 198.591082 
L 82.598033 198.899165 
L 83.268767 198.960266 
L 84.610233 199.331387 
L 85.280967 199.221026 
L 85.9517 199.270632 
L 87.293167 198.90153 
L 87.9639 198.53772 
L 89.9761 198.307869 
L 91.317567 197.646475 
L 91.9883 197.402114 
L 92.659033 197.03624 
L 94.671233 197.113573 
L 95.341967 196.837624 
L 96.0127 196.216323 
L 96.683433 195.902824 
L 97.354167 195.858423 
L 98.0249 195.640169 
L 98.695633 195.611617 
L 99.366367 195.752403 
L 100.707833 195.223418 
L 102.0493 194.433525 
L 105.402967 193.667421 
L 106.0737 193.364728 
L 110.0981 192.94398 
L 111.439567 193.126371 
L 113.451767 192.681635 
L 114.793233 192.870129 
L 115.463967 192.530274 
L 116.1347 191.794391 
L 116.805433 191.614921 
L 118.817633 190.480989 
L 120.1591 190.438555 
L 121.500567 189.999198 
L 122.1713 190.517183 
L 122.842033 190.786462 
L 124.1835 190.542054 
L 124.854233 190.309276 
L 126.1957 190.108799 
L 126.866433 189.770529 
L 128.2079 189.722631 
L 128.878633 189.401392 
L 129.549367 189.476962 
L 130.890833 189.757265 
L 132.2323 189.554786 
L 132.903033 189.437985 
L 134.2445 188.579534 
L 134.915233 188.329318 
L 135.585967 188.255409 
L 136.2567 187.986137 
L 136.927433 187.586327 
L 137.598167 186.816239 
L 138.2689 186.234403 
L 140.2811 185.281726 
L 141.622567 184.799638 
L 142.964033 184.158749 
L 144.976233 183.729187 
L 145.646967 183.471067 
L 146.988433 182.747498 
L 147.659167 182.707986 
L 149.671367 181.580187 
L 150.3421 180.916503 
L 153.025033 179.437241 
L 153.695767 179.018885 
L 155.707967 176.819797 
L 157.049433 176.521867 
L 157.720167 176.111795 
L 158.3909 176.026584 
L 160.4031 175.16957 
L 161.073833 175.229158 
L 161.744567 174.979895 
L 162.4153 175.133043 
L 163.086033 175.109055 
L 164.4275 173.918957 
L 165.098233 173.536157 
L 166.4397 172.256555 
L 167.110433 171.794364 
L 167.781167 171.044652 
L 170.4641 167.475954 
L 171.134833 167.239223 
L 171.805567 166.448882 
L 172.4763 166.011838 
L 173.147033 165.324181 
L 173.817767 164.830626 
L 174.4885 164.075549 
L 175.829967 163.428939 
L 176.5007 162.45954 
L 177.171433 162.01518 
L 177.842167 160.559744 
L 178.5129 159.960447 
L 179.183633 159.122024 
L 181.866567 154.088883 
L 183.208033 150.989837 
L 183.878767 148.818925 
L 187.232433 140.093988 
L 187.903167 138.882501 
L 190.5861 131.501926 
L 191.256833 129.652269 
L 192.5983 126.61989 
L 193.939767 122.697478 
L 195.281233 119.888066 
L 196.6227 116.315455 
L 197.964167 112.899536 
L 198.6349 110.446974 
L 199.305633 108.78299 
L 201.317833 101.725061 
L 201.988567 99.248468 
L 204.6715 87.448338 
L 206.6837 81.302031 
L 207.354433 80.201915 
L 208.025167 78.330443 
L 209.366633 75.828667 
L 210.037367 75.022305 
L 210.7081 73.965273 
L 212.049567 71.013513 
L 212.7203 69.445642 
L 213.391033 68.39133 
L 214.061767 66.247035 
L 214.7325 64.978226 
L 216.7447 60.220753 
L 219.427633 58.411896 
L 220.098367 57.58169 
L 220.7691 57.354402 
L 221.439833 57.481551 
L 222.110567 57.445653 
L 222.7813 58.616129 
L 223.452033 58.67927 
L 224.122767 59.096067 
L 224.7935 59.034438 
L 226.134967 57.538366 
L 226.8057 56.404134 
L 227.476433 56.04027 
L 228.147167 55.499966 
L 228.8179 54.219894 
L 229.488633 51.803907 
L 230.159367 50.285804 
L 230.8301 48.075638 
L 231.500833 48.021504 
L 232.171567 50.854897 
L 232.8423 54.266588 
L 233.513033 63.954948 
L 234.8545 94.317595 
L 238.208167 181.1831 
L 239.549633 207.966841 
L 239.549633 207.966841 
" clip-path="url(#p377912cb59)" style="fill: none; stroke: #bbe5f0; stroke-width: 2.5; stroke-linecap: square"/>
   </g>
   <g id="line2d_32">
    <path d="M 39.000367 197.734403 
L 39.6711 198.436262 
L 40.341833 198.68945 
L 41.012567 198.597801 
L 43.024767 198.951645 
L 44.366233 199.878372 
L 45.036967 199.72792 
L 45.7077 200.042679 
L 47.049167 200.292506 
L 47.7199 200.558695 
L 49.061367 200.457354 
L 49.7321 200.539274 
L 51.073567 200.409266 
L 54.427233 200.644169 
L 55.7687 200.498357 
L 57.110167 200.830293 
L 57.7809 200.988245 
L 59.122367 200.974713 
L 59.7931 200.822829 
L 60.463833 200.951369 
L 61.134567 200.893912 
L 61.8053 201.221191 
L 63.146767 201.476112 
L 67.171167 201.87084 
L 67.8419 201.849542 
L 68.512633 201.538204 
L 71.195567 201.271142 
L 73.207767 200.926126 
L 73.8785 200.995834 
L 74.549233 200.944286 
L 75.219967 201.090404 
L 75.8907 201.076475 
L 78.573633 200.466401 
L 79.9151 200.339917 
L 80.585833 200.150176 
L 81.256567 200.178917 
L 81.9273 200.071129 
L 82.598033 200.178378 
L 83.268767 200.156654 
L 84.610233 200.354288 
L 85.9517 199.708706 
L 87.293167 199.493529 
L 88.634633 199.329957 
L 89.305367 199.288991 
L 89.9761 199.131158 
L 90.646833 198.821362 
L 94.0005 198.188408 
L 95.341967 198.064876 
L 96.0127 197.84893 
L 97.354167 197.647269 
L 98.0249 197.33216 
L 98.695633 197.253054 
L 99.366367 197.443182 
L 100.0371 197.413838 
L 100.707833 197.261133 
L 102.0493 196.626806 
L 102.720033 196.437026 
L 104.0615 196.487773 
L 106.0737 195.677933 
L 106.744433 195.565154 
L 108.756633 194.775125 
L 110.0981 194.733732 
L 110.768833 194.62867 
L 111.439567 194.812684 
L 112.1103 194.79019 
L 112.781033 194.892746 
L 113.451767 194.430171 
L 114.793233 194.28288 
L 115.463967 194.331641 
L 116.805433 193.735513 
L 118.1469 192.942743 
L 118.817633 192.800058 
L 119.488367 192.984884 
L 120.1591 192.986477 
L 121.500567 192.506222 
L 122.1713 192.23781 
L 124.854233 192.30676 
L 125.524967 192.197333 
L 127.537167 191.281879 
L 128.878633 191.369473 
L 130.2201 190.821369 
L 131.561567 190.535199 
L 132.2323 190.336669 
L 132.903033 190.45643 
L 133.573767 190.246521 
L 134.2445 190.174189 
L 134.915233 189.827872 
L 136.927433 189.228235 
L 138.2689 188.052816 
L 139.610367 187.488372 
L 140.2811 187.531386 
L 140.951833 187.4418 
L 142.964033 186.732728 
L 144.3055 186.332682 
L 144.976233 186.30064 
L 145.646967 185.871816 
L 146.988433 184.844654 
L 148.3299 184.147343 
L 149.671367 183.40503 
L 150.3421 182.995619 
L 151.012833 182.766695 
L 153.695767 180.894216 
L 155.707967 179.039583 
L 157.049433 178.418024 
L 159.732367 176.510709 
L 160.4031 175.927181 
L 161.744567 175.139937 
L 162.4153 174.631994 
L 163.086033 174.52422 
L 164.4275 173.657467 
L 165.098233 172.838664 
L 166.4397 171.899366 
L 167.110433 171.56071 
L 169.122633 169.636809 
L 170.4641 167.891027 
L 171.134833 167.633511 
L 171.805567 167.22111 
L 172.4763 166.557987 
L 173.147033 166.080999 
L 177.171433 161.653647 
L 177.842167 160.414202 
L 179.854367 157.643732 
L 180.5251 156.538993 
L 185.890967 144.740452 
L 187.903167 140.257562 
L 188.5739 138.788025 
L 190.5861 133.16405 
L 191.927567 130.364887 
L 192.5983 128.50887 
L 193.269033 127.004362 
L 195.951967 119.396503 
L 197.293433 114.70542 
L 201.317833 98.414408 
L 204.6715 81.589543 
L 206.6837 75.364486 
L 207.354433 73.824742 
L 208.025167 71.570864 
L 210.7081 66.355565 
L 211.378833 64.431874 
L 212.049567 63.195602 
L 212.7203 61.130326 
L 214.061767 56.042875 
L 214.7325 55.461056 
L 215.403233 54.602609 
L 216.073967 52.988576 
L 218.7569 49.029327 
L 219.427633 49.513667 
L 220.098367 49.508914 
L 220.7691 49.044977 
L 221.439833 48.248888 
L 222.110567 48.198832 
L 222.7813 48.914545 
L 223.452033 48.963526 
L 224.122767 49.208438 
L 224.7935 49.598522 
L 225.464233 48.648458 
L 226.8057 46.160398 
L 227.476433 45.38462 
L 228.147167 46.065418 
L 228.8179 44.448283 
L 229.488633 42.39328 
L 230.159367 40.877112 
L 230.8301 38.998458 
L 231.500833 39.16781 
L 232.171567 41.445511 
L 232.8423 45.037437 
L 233.513033 54.638039 
L 234.8545 86.719229 
L 238.208167 177.751433 
L 239.549633 207.216495 
L 239.549633 207.216495 
" clip-path="url(#p377912cb59)" style="fill: none; stroke: #4ecdc4; stroke-width: 2.5; stroke-linecap: square"/>
   </g>
   <g id="line2d_33">
    <path d="M 39.000367 189.630476 
L 39.6711 190.26188 
L 40.341833 191.231783 
L 43.6955 193.468533 
L 44.366233 193.650825 
L 47.049167 193.181836 
L 47.7199 192.818747 
L 49.061367 193.186113 
L 49.7321 193.13883 
L 50.402833 192.962222 
L 51.7443 193.389964 
L 53.7565 194.052967 
L 54.427233 194.40964 
L 55.097967 194.555099 
L 55.7687 194.567191 
L 56.439433 194.791099 
L 57.110167 195.20966 
L 58.451633 195.122783 
L 61.134567 195.560747 
L 61.8053 195.881683 
L 62.476033 196.064392 
L 63.146767 196.06304 
L 64.488233 195.725196 
L 65.158967 195.917681 
L 66.500433 195.777603 
L 67.8419 195.4421 
L 68.512633 195.148799 
L 69.8541 195.075238 
L 71.195567 195.111821 
L 71.8663 194.765621 
L 76.561433 194.720691 
L 77.232167 194.656245 
L 78.573633 194.899427 
L 79.244367 194.895154 
L 79.9151 194.699829 
L 80.585833 194.675716 
L 81.256567 194.921931 
L 82.598033 194.958951 
L 83.268767 194.962817 
L 83.9395 195.146012 
L 84.610233 195.148151 
L 85.280967 195.022016 
L 85.9517 194.735918 
L 86.622433 194.746629 
L 88.634633 194.314631 
L 89.9761 194.238516 
L 92.659033 193.222866 
L 93.329767 193.233711 
L 94.0005 193.358314 
L 96.683433 192.418616 
L 97.354167 192.464584 
L 98.0249 192.375423 
L 98.695633 192.423296 
L 100.707833 191.901769 
L 102.720033 190.91713 
L 103.390767 190.916097 
L 104.0615 191.079314 
L 104.732233 191.081848 
L 105.402967 190.911868 
L 106.0737 190.962249 
L 110.0981 190.144369 
L 111.439567 189.526337 
L 112.1103 189.304029 
L 113.451767 189.342324 
L 114.1225 189.077656 
L 114.793233 189.030857 
L 115.463967 189.107988 
L 116.805433 188.715364 
L 117.476167 188.417689 
L 118.817633 188.114954 
L 119.488367 188.085667 
L 120.1591 187.721172 
L 121.500567 187.275934 
L 122.1713 187.309469 
L 124.1835 186.625626 
L 127.537167 184.920102 
L 128.2079 184.849797 
L 129.549367 184.520616 
L 130.2201 184.502102 
L 130.890833 184.725265 
L 131.561567 184.800411 
L 134.915233 184.515986 
L 136.927433 183.905545 
L 138.2689 183.239857 
L 138.939633 182.930623 
L 139.610367 182.471107 
L 140.2811 182.426073 
L 141.622567 181.80431 
L 142.2933 181.472814 
L 144.3055 180.103771 
L 145.646967 179.53366 
L 146.3177 179.167844 
L 146.988433 178.362594 
L 147.659167 178.125864 
L 148.3299 177.754959 
L 149.671367 177.641735 
L 150.3421 177.346291 
L 151.012833 176.928964 
L 151.683567 176.359523 
L 153.025033 175.889351 
L 153.695767 175.604587 
L 155.037233 174.568862 
L 156.3787 173.089731 
L 157.049433 172.899112 
L 157.720167 172.926931 
L 158.3909 172.672693 
L 159.061633 171.957365 
L 161.073833 170.830599 
L 161.744567 170.545833 
L 162.4153 170.675931 
L 163.086033 170.540797 
L 163.756767 169.976213 
L 165.098233 169.312455 
L 167.110433 168.3869 
L 167.781167 168.197891 
L 168.4519 167.551984 
L 169.122633 166.570529 
L 169.793367 165.801504 
L 171.134833 164.769774 
L 171.805567 164.254931 
L 173.817767 162.182398 
L 175.159233 161.183919 
L 175.829967 160.966239 
L 177.171433 160.140716 
L 177.842167 159.255678 
L 179.183633 158.176571 
L 182.5373 152.505288 
L 185.890967 145.38814 
L 187.903167 141.366258 
L 188.5739 139.972375 
L 189.915367 136.662627 
L 190.5861 134.966989 
L 195.281233 125.018097 
L 195.951967 124.148769 
L 197.293433 120.067766 
L 197.964167 118.32788 
L 200.6471 109.461897 
L 204.000767 94.995139 
L 206.012967 87.590251 
L 206.6837 85.686328 
L 207.354433 84.193095 
L 208.025167 83.071996 
L 208.6959 82.476434 
L 209.366633 81.523719 
L 210.7081 80.055788 
L 212.049567 78.109405 
L 212.7203 76.768355 
L 213.391033 75.889389 
L 215.403233 71.098302 
L 216.7447 69.72796 
L 217.415433 69.891518 
L 218.086167 69.591441 
L 218.7569 69.775829 
L 219.427633 70.643779 
L 220.098367 69.997592 
L 220.7691 70.047099 
L 221.439833 70.303271 
L 222.110567 71.051902 
L 222.7813 71.555953 
L 223.452033 71.893368 
L 224.7935 71.44404 
L 225.464233 70.735646 
L 226.8057 68.980107 
L 228.147167 69.047135 
L 228.8179 69.304884 
L 229.488633 68.619855 
L 230.159367 68.362225 
L 230.8301 67.787928 
L 231.500833 68.889164 
L 232.171567 71.340754 
L 232.8423 76.014282 
L 233.513033 85.223828 
L 234.8545 111.668631 
L 238.8789 197.310993 
L 239.549633 208.809411 
L 239.549633 208.809411 
" clip-path="url(#p377912cb59)" style="fill: none; stroke: #9faed5; stroke-width: 2.5; stroke-linecap: square"/>
   </g>
   <g id="line2d_34">
    <path d="M 39.000367 195.469201 
L 39.6711 196.983739 
L 40.341833 197.987038 
L 41.012567 198.783271 
L 41.6833 198.939366 
L 42.354033 198.918243 
L 43.024767 199.298708 
L 43.6955 199.520237 
L 44.366233 199.534713 
L 45.7077 200.08063 
L 50.402833 199.393445 
L 51.073567 199.389997 
L 51.7443 199.591579 
L 52.415033 199.585189 
L 54.427233 199.930093 
L 55.7687 199.775962 
L 57.110167 200.540654 
L 59.122367 200.670228 
L 59.7931 200.679647 
L 61.8053 201.071735 
L 62.476033 201.095238 
L 63.8175 200.741549 
L 65.8297 201.149995 
L 67.8419 200.922176 
L 68.512633 200.697011 
L 69.183367 200.692237 
L 69.8541 200.831168 
L 70.524833 200.855993 
L 71.8663 200.681264 
L 72.537033 200.412569 
L 73.8785 200.593752 
L 74.549233 200.601922 
L 75.219967 200.393159 
L 77.9029 200.149002 
L 78.573633 200.002325 
L 79.244367 200.1357 
L 79.9151 200.034966 
L 80.585833 199.764129 
L 83.9395 199.107391 
L 85.9517 198.913019 
L 86.622433 198.911667 
L 87.9639 198.695694 
L 89.305367 198.896101 
L 90.646833 198.674264 
L 91.9883 198.484321 
L 93.329767 198.260806 
L 95.341967 198.508955 
L 96.0127 198.317455 
L 97.354167 198.253276 
L 100.0371 197.535799 
L 102.0493 196.063086 
L 103.390767 195.661713 
L 104.0615 195.741075 
L 106.0737 195.183929 
L 110.768833 194.62935 
L 111.439567 194.817124 
L 112.781033 194.737546 
L 113.451767 194.462271 
L 115.463967 194.333782 
L 116.805433 193.742591 
L 117.476167 193.595743 
L 118.1469 193.245538 
L 118.817633 193.075914 
L 119.488367 193.06146 
L 120.829833 192.88351 
L 121.500567 192.926202 
L 122.1713 192.761864 
L 122.842033 192.922343 
L 123.512767 192.897678 
L 124.1835 192.756444 
L 124.854233 192.395948 
L 126.1957 192.278758 
L 126.866433 192.155184 
L 127.537167 191.654261 
L 128.2079 191.297302 
L 128.878633 191.18229 
L 129.549367 190.844874 
L 132.903033 190.441829 
L 133.573767 190.060386 
L 134.915233 190.231629 
L 135.585967 190.089041 
L 138.2689 188.69392 
L 138.939633 188.220819 
L 140.951833 187.415643 
L 141.622567 186.946123 
L 142.2933 186.62871 
L 144.976233 186.187502 
L 146.988433 185.161354 
L 149.000633 184.489102 
L 151.012833 183.277801 
L 152.3543 182.797856 
L 154.3665 181.51237 
L 155.037233 180.610901 
L 156.3787 179.448027 
L 157.049433 179.129246 
L 159.061633 177.384841 
L 160.4031 176.30968 
L 161.073833 176.257593 
L 161.744567 175.933026 
L 162.4153 175.977195 
L 163.086033 175.60567 
L 163.756767 175.105866 
L 165.098233 174.6242 
L 166.4397 173.588471 
L 167.781167 172.032026 
L 173.147033 166.402087 
L 173.817767 166.141117 
L 174.4885 165.600182 
L 175.159233 165.447706 
L 175.829967 164.901938 
L 176.5007 163.785947 
L 177.171433 163.06902 
L 177.842167 162.083241 
L 178.5129 161.410368 
L 179.183633 160.452131 
L 183.208033 152.590175 
L 186.5617 144.582441 
L 187.903167 140.282632 
L 189.915367 134.488371 
L 190.5861 133.20614 
L 192.5983 128.788388 
L 193.939767 126.051739 
L 194.6105 125.083988 
L 196.6227 119.24599 
L 197.293433 116.395509 
L 197.964167 114.453043 
L 201.317833 100.988986 
L 203.330033 90.871237 
L 204.000767 88.262071 
L 205.342233 81.756518 
L 206.6837 76.618173 
L 208.025167 72.231279 
L 209.366633 69.852648 
L 210.037367 68.946971 
L 210.7081 67.689875 
L 211.378833 66.827478 
L 212.7203 64.097957 
L 213.391033 62.306369 
L 214.061767 59.787734 
L 214.7325 58.660279 
L 215.403233 56.921328 
L 216.073967 56.049665 
L 217.415433 53.046617 
L 218.086167 51.004478 
L 218.7569 50.513289 
L 219.427633 49.691439 
L 220.098367 48.462056 
L 220.7691 48.957375 
L 221.439833 48.137501 
L 222.110567 47.129373 
L 223.452033 46.382702 
L 224.7935 44.863312 
L 225.464233 43.770674 
L 226.134967 43.02579 
L 226.8057 41.78143 
L 228.147167 40.080839 
L 228.8179 39.290582 
L 229.488633 36.362312 
L 230.159367 34.356983 
L 230.8301 33.287898 
L 231.500833 33.316866 
L 232.171567 35.119788 
L 232.8423 38.938634 
L 233.513033 50.023939 
L 234.8545 83.159495 
L 238.8789 193.537303 
L 239.549633 207.444393 
L 239.549633 207.444393 
" clip-path="url(#p377912cb59)" style="fill: none; stroke: #f2d4e2; stroke-width: 2.5; stroke-linecap: square"/>
   </g>
   <g id="line2d_35">
    <path d="M 239.885 216.6145 
L 239.885 20.4945 
" clip-path="url(#p377912cb59)" style="fill: none; stroke-dasharray: 3.7,1.6; stroke-dashoffset: 0; stroke: #ff0000; stroke-opacity: 0.5"/>
   </g>
   <g id="patch_3">
    <path d="M 38.665 216.6145 
L 38.665 20.4945 
" style="fill: none; stroke: #000000; stroke-width: 0.8; stroke-linejoin: miter; stroke-linecap: square"/>
   </g>
   <g id="patch_4">
    <path d="M 239.885 216.6145 
L 239.885 20.4945 
" style="fill: none; stroke: #000000; stroke-width: 0.8; stroke-linejoin: miter; stroke-linecap: square"/>
   </g>
   <g id="patch_5">
    <path d="M 38.665 216.6145 
L 239.885 216.6145 
" style="fill: none; stroke: #000000; stroke-width: 0.8; stroke-linejoin: miter; stroke-linecap: square"/>
   </g>
   <g id="patch_6">
    <path d="M 38.665 20.4945 
L 239.885 20.4945 
" style="fill: none; stroke: #000000; stroke-width: 0.8; stroke-linejoin: miter; stroke-linecap: square"/>
   </g>
   <g id="text_18">
    <text style="font: 9.6px 'DejaVu Sans', 'Bitstream Vera Sans', 'Computer Modern Sans Serif', 'Lucida Grande', 'Verdana', 'Geneva', 'Lucid', 'Arial', 'Helvetica', 'Avant Garde', sans-serif; text-anchor: middle" x="139.275" y="14.4945" transform="rotate(-0 139.275 14.4945)">SPAM: SN coverage (TES-aligned)</text>
   </g>
   <g id="legend_1">
    <g id="patch_7">
     <path d="M 43.565 77.467938 
L 148.453437 77.467938 
Q 149.853437 77.467938 149.853437 76.067937 
L 149.853437 25.3945 
Q 149.853437 23.9945 148.453437 23.9945 
L 43.565 23.9945 
Q 42.165 23.9945 42.165 25.3945 
L 42.165 76.067937 
Q 42.165 77.467938 43.565 77.467938 
z
" style="fill: #ffffff; opacity: 0.95; stroke: #cccccc; stroke-linejoin: miter"/>
    </g>
    <g id="line2d_36">
     <path d="M 44.965 29.663406 
L 51.965 29.663406 
L 58.965 29.663406 
" style="fill: none; stroke: #bbe5f0; stroke-width: 2.5; stroke-linecap: square"/>
    </g>
    <g id="text_19">
     <text style="font: 7px 'DejaVu Sans', 'Bitstream Vera Sans', 'Computer Modern Sans Serif', 'Lucida Grande', 'Verdana', 'Geneva', 'Lucid', 'Arial', 'Helvetica', 'Avant Garde', sans-serif; text-anchor: start" x="64.565" y="32.113406" transform="rotate(-0 64.565 32.113406)">NTVE-SN</text>
    </g>
    <g id="line2d_37">
     <path d="M 44.965 39.938094 
L 51.965 39.938094 
L 58.965 39.938094 
" style="fill: none; stroke: #4ecdc4; stroke-width: 2.5; stroke-linecap: square"/>
    </g>
    <g id="text_20">
     <text style="font: 7px 'DejaVu Sans', 'Bitstream Vera Sans', 'Computer Modern Sans Serif', 'Lucida Grande', 'Verdana', 'Geneva', 'Lucid', 'Arial', 'Helvetica', 'Avant Garde', sans-serif; text-anchor: start" x="64.565" y="42.388094" transform="rotate(-0 64.565 42.388094)">HIV-gag:sPAM2 (NC)-SN</text>
    </g>
    <g id="line2d_38">
     <path d="M 44.965 50.212781 
L 51.965 50.212781 
L 58.965 50.212781 
" style="fill: none; stroke: #9faed5; stroke-width: 2.5; stroke-linecap: square"/>
    </g>
    <g id="text_21">
     <text style="font: 7px 'DejaVu Sans', 'Bitstream Vera Sans', 'Computer Modern Sans Serif', 'Lucida Grande', 'Verdana', 'Geneva', 'Lucid', 'Arial', 'Helvetica', 'Avant Garde', sans-serif; text-anchor: start" x="64.565" y="52.662781" transform="rotate(-0 64.565 52.662781)">HIV-gag WT-SN</text>
    </g>
    <g id="line2d_39">
     <path d="M 44.965 60.487469 
L 51.965 60.487469 
L 58.965 60.487469 
" style="fill: none; stroke: #f2d4e2; stroke-width: 2.5; stroke-linecap: square"/>
    </g>
    <g id="text_22">
     <text style="font: 7px 'DejaVu Sans', 'Bitstream Vera Sans', 'Computer Modern Sans Serif', 'Lucida Grande', 'Verdana', 'Geneva', 'Lucid', 'Arial', 'Helvetica', 'Avant Garde', sans-serif; text-anchor: start" x="64.565" y="62.937469" transform="rotate(-0 64.565 62.937469)">mini-gag:PABP-SN</text>
    </g>
    <g id="line2d_40">
     <path d="M 44.965 70.762156 
L 51.965 70.762156 
L 58.965 70.762156 
" style="fill: none; stroke-dasharray: 3.7,1.6; stroke-dashoffset: 0; stroke: #ff0000; stroke-opacity: 0.5"/>
    </g>
    <g id="text_23">
     <text style="font: 7px 'DejaVu Sans', 'Bitstream Vera Sans', 'Computer Modern Sans Serif', 'Lucida Grande', 'Verdana', 'Geneva', 'Lucid', 'Arial', 'Helvetica', 'Avant Garde', sans-serif; text-anchor: start" x="64.565" y="73.212156" transform="rotate(-0 64.565 73.212156)">TES</text>
    </g>
   </g>
  </g>
 </g>
 <defs>
  <clipPath id="p377912cb59">
   <rect x="38.665" y="20.4945" width="201.22" height="196.12"/>
  </clipPath>
 </defs>
</svg>
