<?xml version="1.0" encoding="utf-8" standalone="no"?>
<!DOCTYPE svg PUBLIC "-//W3C//DTD SVG 1.1//EN"
  "http://www.w3.org/Graphics/SVG/1.1/DTD/svg11.dtd">
<svg xmlns:xlink="http://www.w3.org/1999/xlink" width="249.63pt" height="250.2995pt" viewBox="0 0 249.63 250.2995" xmlns="http://www.w3.org/2000/svg" version="1.1">
 <metadata>
  <rdf:RDF xmlns:dc="http://purl.org/dc/elements/1.1/" xmlns:cc="http://creativecommons.org/ns#" xmlns:rdf="http://www.w3.org/1999/02/22-rdf-syntax-ns#">
   <cc:Work>
    <dc:type rdf:resource="http://purl.org/dc/dcmitype/StillImage"/>
    <dc:date>2026-04-07T12:07:46.692019</dc:date>
    <dc:format>image/svg+xml</dc:format>
    <dc:creator>
     <cc:Agent>
      <dc:title>Matplotlib v3.9.0, https://matplotlib.org/</dc:title>
     </cc:Agent>
    </dc:creator>
   </cc:Work>
  </rdf:RDF>
 </metadata>
 <defs>
  <style type="text/css">*{stroke-linejoin: round; stroke-linecap: butt}</style>
 </defs>
 <g id="figure_1">
  <g id="patch_1">
   <path d="M 0 250.2995 
L 249.63 250.2995 
L 249.63 0 
L 0 0 
z
" style="fill: #ffffff"/>
  </g>
  <g id="axes_1">
   <g id="patch_2">
    <path d="M 38.665 216.6145 
L 239.885 216.6145 
L 239.885 20.4945 
L 38.665 20.4945 
z
" style="fill: #ffffff"/>
   </g>
   <g id="PolyCollection_1">
    <defs>
     <path id="mb6bf2e5b1e" d="M 39.000367 -107.244072 
L 39.000367 -83.987694 
L 39.6711 -74.60869 
L 40.341833 -70.87128 
L 41.012567 -68.258168 
L 41.6833 -66.347009 
L 42.354033 -64.180367 
L 43.024767 -62.656019 
L 43.6955 -62.070731 
L 44.366233 -61.761433 
L 45.036967 -61.670133 
L 45.7077 -61.745594 
L 46.378433 -61.39352 
L 47.049167 -61.539471 
L 47.7199 -62.236433 
L 48.390633 -62.17699 
L 49.061367 -61.701548 
L 49.7321 -61.920023 
L 50.402833 -62.30724 
L 51.073567 -61.582573 
L 51.7443 -60.908177 
L 52.415033 -60.292544 
L 53.085767 -59.946596 
L 53.7565 -59.217621 
L 54.427233 -58.722021 
L 55.097967 -58.40411 
L 55.7687 -58.234612 
L 56.439433 -57.514235 
L 57.110167 -56.648228 
L 57.7809 -55.981776 
L 58.451633 -55.952097 
L 59.122367 -55.741818 
L 59.7931 -55.538255 
L 60.463833 -55.00693 
L 61.134567 -54.677964 
L 61.8053 -54.413186 
L 62.476033 -54.745316 
L 63.146767 -54.95519 
L 63.8175 -55.32962 
L 64.488233 -55.890853 
L 65.158967 -55.912101 
L 65.8297 -55.674648 
L 66.500433 -55.50891 
L 67.171167 -55.624207 
L 67.8419 -55.794499 
L 68.512633 -55.664335 
L 69.183367 -55.19025 
L 69.8541 -55.262235 
L 70.524833 -55.280268 
L 71.195567 -55.225991 
L 71.8663 -55.162007 
L 72.537033 -55.408918 
L 73.207767 -55.946607 
L 73.8785 -56.323162 
L 74.549233 -56.592853 
L 75.219967 -56.929638 
L 75.8907 -57.040239 
L 76.561433 -56.962287 
L 77.232167 -56.882676 
L 77.9029 -56.966496 
L 78.573633 -56.729696 
L 79.244367 -56.421118 
L 79.9151 -56.435207 
L 80.585833 -56.087023 
L 81.256567 -55.971872 
L 81.9273 -56.765478 
L 82.598033 -57.068026 
L 83.268767 -57.101346 
L 83.9395 -56.718665 
L 84.610233 -56.798258 
L 85.280967 -57.081226 
L 85.9517 -57.89592 
L 86.622433 -58.117718 
L 87.293167 -57.93023 
L 87.9639 -58.176894 
L 88.634633 -58.477161 
L 89.305367 -58.644692 
L 89.9761 -59.048296 
L 90.646833 -59.345781 
L 91.317567 -59.357626 
L 91.9883 -59.484867 
L 92.659033 -59.688782 
L 93.329767 -59.807872 
L 94.0005 -59.580922 
L 94.671233 -59.567187 
L 95.341967 -59.535665 
L 96.0127 -59.658593 
L 96.683433 -59.75957 
L 97.354167 -60.102318 
L 98.0249 -60.590987 
L 98.695633 -60.916764 
L 99.366367 -61.172812 
L 100.0371 -61.296835 
L 100.707833 -61.87697 
L 101.378567 -61.910995 
L 102.0493 -62.075764 
L 102.720033 -62.188909 
L 103.390767 -62.1821 
L 104.0615 -61.988925 
L 104.732233 -62.510027 
L 105.402967 -62.708287 
L 106.0737 -62.783099 
L 106.744433 -62.491795 
L 107.415167 -62.792653 
L 108.0859 -63.59974 
L 108.756633 -63.556714 
L 109.427367 -63.843172 
L 110.0981 -64.049382 
L 110.768833 -64.40517 
L 111.439567 -64.360859 
L 112.1103 -64.475504 
L 112.781033 -64.582227 
L 113.451767 -65.304184 
L 114.1225 -65.466024 
L 114.793233 -65.833191 
L 115.463967 -66.249928 
L 116.1347 -66.776959 
L 116.805433 -67.002085 
L 117.476167 -66.98227 
L 118.1469 -67.395775 
L 118.817633 -68.082218 
L 119.488367 -68.011344 
L 120.1591 -67.758668 
L 120.829833 -68.144822 
L 121.500567 -67.702087 
L 122.1713 -67.591764 
L 122.842033 -68.063252 
L 123.512767 -68.445282 
L 124.1835 -69.448918 
L 124.854233 -69.612029 
L 125.524967 -69.244206 
L 126.1957 -69.797839 
L 126.866433 -69.955024 
L 127.537167 -70.758981 
L 128.2079 -70.774456 
L 128.878633 -70.877657 
L 129.549367 -70.842334 
L 130.2201 -70.709025 
L 130.890833 -70.11461 
L 131.561567 -70.541785 
L 132.2323 -71.425504 
L 132.903033 -70.976874 
L 133.573767 -71.364814 
L 134.2445 -71.729226 
L 134.915233 -71.752972 
L 135.585967 -71.771717 
L 136.2567 -71.724949 
L 136.927433 -71.386855 
L 137.598167 -72.195004 
L 138.2689 -72.432217 
L 138.939633 -72.694247 
L 139.610367 -73.305282 
L 140.2811 -73.800517 
L 140.951833 -73.433706 
L 141.622567 -73.629655 
L 142.2933 -74.700737 
L 142.964033 -75.255941 
L 143.634767 -75.597355 
L 144.3055 -75.366987 
L 144.976233 -75.510452 
L 145.646967 -75.555026 
L 146.3177 -76.066729 
L 146.988433 -76.681494 
L 147.659167 -77.400715 
L 148.3299 -78.000794 
L 149.000633 -77.595578 
L 149.671367 -78.060761 
L 150.3421 -78.222427 
L 151.012833 -78.118539 
L 151.683567 -78.467142 
L 152.3543 -78.445163 
L 153.025033 -79.230855 
L 153.695767 -79.503734 
L 154.3665 -80.779754 
L 155.037233 -81.557037 
L 155.707967 -82.822932 
L 156.3787 -83.167577 
L 157.049433 -84.014348 
L 157.720167 -85.358619 
L 158.3909 -86.55371 
L 159.061633 -88.031844 
L 159.732367 -88.334399 
L 160.4031 -88.827971 
L 161.073833 -89.341649 
L 161.744567 -89.961221 
L 162.4153 -90.178775 
L 163.086033 -90.7341 
L 163.756767 -91.294882 
L 164.4275 -92.147108 
L 165.098233 -91.967461 
L 165.768967 -92.112374 
L 166.4397 -93.537145 
L 167.110433 -94.567838 
L 167.781167 -94.740798 
L 168.4519 -95.627865 
L 169.122633 -96.283291 
L 169.793367 -97.355605 
L 170.4641 -98.427239 
L 171.134833 -97.832608 
L 171.805567 -98.453522 
L 172.4763 -98.775551 
L 173.147033 -98.459315 
L 173.817767 -99.049454 
L 174.4885 -99.382824 
L 175.159233 -98.957779 
L 175.829967 -99.152661 
L 176.5007 -100.430931 
L 177.171433 -101.159762 
L 177.842167 -102.849358 
L 178.5129 -103.92771 
L 179.183633 -104.141765 
L 179.854367 -105.390281 
L 180.5251 -106.924425 
L 181.195833 -109.071895 
L 181.866567 -111.096796 
L 182.5373 -112.971612 
L 183.208033 -115.052431 
L 183.878767 -116.126832 
L 184.5495 -116.991943 
L 185.220233 -118.159695 
L 185.890967 -120.386269 
L 186.5617 -121.759262 
L 187.232433 -123.063983 
L 187.903167 -124.682693 
L 188.5739 -126.776981 
L 189.244633 -128.86361 
L 189.915367 -129.920654 
L 190.5861 -130.643955 
L 191.256833 -132.495231 
L 191.927567 -134.450916 
L 192.5983 -135.489555 
L 193.269033 -136.965334 
L 193.939767 -138.416345 
L 194.6105 -140.19347 
L 195.281233 -141.693745 
L 195.951967 -142.986604 
L 196.6227 -144.782862 
L 197.293433 -147.401234 
L 197.964167 -149.489622 
L 198.6349 -152.601185 
L 199.305633 -155.434903 
L 199.976367 -158.302353 
L 200.6471 -161.220361 
L 201.317833 -163.662583 
L 201.988567 -166.335108 
L 202.6593 -170.551833 
L 203.330033 -175.609435 
L 204.000767 -179.151305 
L 204.6715 -181.370998 
L 205.342233 -183.991038 
L 206.012967 -186.27954 
L 206.6837 -188.306251 
L 207.354433 -190.486266 
L 208.025167 -192.77386 
L 208.6959 -193.494818 
L 209.366633 -193.47949 
L 210.037367 -193.920114 
L 210.7081 -195.507085 
L 211.378833 -197.357095 
L 212.049567 -198.17363 
L 212.7203 -199.157177 
L 213.391033 -200.538045 
L 214.061767 -202.19466 
L 214.7325 -203.210132 
L 215.403233 -205.620389 
L 216.073967 -208.034845 
L 216.7447 -208.919432 
L 217.415433 -209.475025 
L 218.086167 -210.000777 
L 218.7569 -210.751111 
L 219.427633 -210.804899 
L 220.098367 -210.313259 
L 220.7691 -209.307479 
L 221.439833 -209.287814 
L 222.110567 -207.411844 
L 222.7813 -203.946235 
L 223.452033 -201.507225 
L 224.122767 -200.01433 
L 224.7935 -198.746378 
L 225.464233 -196.429947 
L 226.134967 -195.366 
L 226.8057 -193.884278 
L 227.476433 -190.926379 
L 228.147167 -187.677916 
L 228.8179 -185.572433 
L 229.488633 -186.424565 
L 230.159367 -187.105255 
L 230.8301 -187.265025 
L 231.500833 -186.478577 
L 232.171567 -183.102619 
L 232.8423 -179.344697 
L 233.513033 -170.937474 
L 234.183767 -158.198833 
L 234.8545 -144.410214 
L 235.525233 -129.362984 
L 236.195967 -113.051732 
L 236.8667 -96.759149 
L 237.537433 -81.100629 
L 238.208167 -65.92741 
L 238.8789 -53.855158 
L 239.549633 -41.219506 
L 239.549633 -43.364281 
L 239.549633 -43.364281 
L 238.8789 -57.451634 
L 238.208167 -70.376555 
L 237.537433 -86.497075 
L 236.8667 -102.974244 
L 236.195967 -120.07437 
L 235.525233 -137.296297 
L 234.8545 -153.151617 
L 234.183767 -167.578426 
L 233.513033 -180.716583 
L 232.8423 -189.336032 
L 232.171567 -193.10009 
L 231.500833 -196.555995 
L 230.8301 -197.277265 
L 230.159367 -197.032468 
L 229.488633 -196.242682 
L 228.8179 -195.325417 
L 228.147167 -197.509572 
L 227.476433 -200.895814 
L 226.8057 -203.902713 
L 226.134967 -205.388279 
L 225.464233 -206.381675 
L 224.7935 -208.736493 
L 224.122767 -209.945321 
L 223.452033 -211.368726 
L 222.7813 -213.820236 
L 222.110567 -217.440469 
L 221.439833 -219.314936 
L 220.7691 -219.275799 
L 220.098367 -220.313979 
L 219.427633 -220.797628 
L 218.7569 -220.637478 
L 218.086167 -219.816769 
L 217.415433 -219.211769 
L 216.7447 -218.62761 
L 216.073967 -217.645845 
L 215.403233 -215.077057 
L 214.7325 -212.628701 
L 214.061767 -211.527004 
L 213.391033 -209.732129 
L 212.7203 -208.30899 
L 212.049567 -207.23384 
L 211.378833 -206.346305 
L 210.7081 -204.414288 
L 210.037367 -202.762509 
L 209.366633 -202.393917 
L 208.6959 -202.525943 
L 208.025167 -201.794742 
L 207.354433 -199.409827 
L 206.6837 -197.160785 
L 206.012967 -195.137249 
L 205.342233 -192.842221 
L 204.6715 -190.187243 
L 204.000767 -187.89384 
L 203.330033 -184.199803 
L 202.6593 -178.847627 
L 201.988567 -174.445097 
L 201.317833 -171.684313 
L 200.6471 -169.183247 
L 199.976367 -166.137134 
L 199.305633 -163.121244 
L 198.6349 -160.212143 
L 197.964167 -156.953334 
L 197.293433 -154.798351 
L 196.6227 -152.099589 
L 195.951967 -150.225001 
L 195.281233 -148.88853 
L 194.6105 -147.357836 
L 193.939767 -145.584807 
L 193.269033 -144.125073 
L 192.5983 -142.594794 
L 191.927567 -141.57611 
L 191.256833 -139.523921 
L 190.5861 -137.595086 
L 189.915367 -136.953483 
L 189.244633 -135.830319 
L 188.5739 -133.732076 
L 187.903167 -131.536712 
L 187.232433 -129.880693 
L 186.5617 -128.516449 
L 185.890967 -127.089545 
L 185.220233 -124.767882 
L 184.5495 -123.527085 
L 183.878767 -122.606787 
L 183.208033 -121.487215 
L 182.5373 -119.290788 
L 181.866567 -117.364768 
L 181.195833 -115.271343 
L 180.5251 -112.991572 
L 179.854367 -111.374559 
L 179.183633 -110.059159 
L 178.5129 -109.872278 
L 177.842167 -108.791276 
L 177.171433 -107.040979 
L 176.5007 -106.246695 
L 175.829967 -104.785269 
L 175.159233 -104.664603 
L 174.4885 -105.201309 
L 173.817767 -104.902799 
L 173.147033 -104.268087 
L 172.4763 -104.631589 
L 171.805567 -104.360057 
L 171.134833 -103.782135 
L 170.4641 -104.479658 
L 169.793367 -103.314728 
L 169.122633 -102.239954 
L 168.4519 -101.546021 
L 167.781167 -100.621696 
L 167.110433 -100.511571 
L 166.4397 -99.371263 
L 165.768967 -97.76574 
L 165.098233 -97.609513 
L 164.4275 -97.828515 
L 163.756767 -96.895579 
L 163.086033 -96.360459 
L 162.4153 -95.76052 
L 161.744567 -95.579301 
L 161.073833 -94.91319 
L 160.4031 -94.362901 
L 159.732367 -93.828332 
L 159.061633 -93.553827 
L 158.3909 -92.006122 
L 157.720167 -90.774346 
L 157.049433 -89.30231 
L 156.3787 -88.370735 
L 155.707967 -88.025632 
L 155.037233 -86.668865 
L 154.3665 -85.870703 
L 153.695767 -84.484761 
L 153.025033 -84.147738 
L 152.3543 -83.306083 
L 151.683567 -83.408587 
L 151.012833 -83.099138 
L 150.3421 -83.309313 
L 149.671367 -83.156101 
L 149.000633 -82.674751 
L 148.3299 -83.106833 
L 147.659167 -82.403275 
L 146.988433 -81.640647 
L 146.3177 -80.942607 
L 145.646967 -80.420777 
L 144.976233 -80.450715 
L 144.3055 -80.34167 
L 143.634767 -80.625554 
L 142.964033 -80.266566 
L 142.2933 -79.679124 
L 141.622567 -78.50747 
L 140.951833 -78.281859 
L 140.2811 -78.693619 
L 139.610367 -78.140355 
L 138.939633 -77.468422 
L 138.2689 -77.136053 
L 137.598167 -76.876583 
L 136.927433 -76.023432 
L 136.2567 -76.472423 
L 135.585967 -76.551534 
L 134.915233 -76.577364 
L 134.2445 -76.562513 
L 133.573767 -76.168667 
L 132.903033 -75.827369 
L 132.2323 -76.35869 
L 131.561567 -75.375076 
L 130.890833 -74.928161 
L 130.2201 -75.606765 
L 129.549367 -75.788459 
L 128.878633 -75.915092 
L 128.2079 -75.795351 
L 127.537167 -75.739747 
L 126.866433 -74.859453 
L 126.1957 -74.749174 
L 125.524967 -74.18284 
L 124.854233 -74.618936 
L 124.1835 -74.371843 
L 123.512767 -73.167253 
L 122.842033 -72.763598 
L 122.1713 -72.249572 
L 121.500567 -72.391675 
L 120.829833 -72.910234 
L 120.1591 -72.541861 
L 119.488367 -72.843662 
L 118.817633 -72.937437 
L 118.1469 -72.135809 
L 117.476167 -71.626185 
L 116.805433 -71.679295 
L 116.1347 -71.377831 
L 115.463967 -70.78871 
L 114.793233 -70.303952 
L 114.1225 -69.957265 
L 113.451767 -69.783955 
L 112.781033 -69.002905 
L 112.1103 -68.948197 
L 111.439567 -68.842677 
L 110.768833 -68.97329 
L 110.0981 -68.697784 
L 109.427367 -68.469773 
L 108.756633 -68.215364 
L 108.0859 -68.232215 
L 107.415167 -67.376914 
L 106.744433 -66.966201 
L 106.0737 -67.315588 
L 105.402967 -67.175791 
L 104.732233 -66.988879 
L 104.0615 -66.365337 
L 103.390767 -66.685795 
L 102.720033 -66.742499 
L 102.0493 -66.640302 
L 101.378567 -66.517252 
L 100.707833 -66.540482 
L 100.0371 -65.877831 
L 99.366367 -65.749639 
L 98.695633 -65.441915 
L 98.0249 -65.016602 
L 97.354167 -64.448599 
L 96.683433 -64.031949 
L 96.0127 -63.939276 
L 95.341967 -63.795329 
L 94.671233 -63.799879 
L 94.0005 -63.788117 
L 93.329767 -64.042704 
L 92.659033 -63.901914 
L 91.9883 -63.683643 
L 91.317567 -63.677265 
L 90.646833 -63.717557 
L 89.9761 -63.442488 
L 89.305367 -62.992359 
L 88.634633 -62.775436 
L 87.9639 -62.448265 
L 87.293167 -62.105532 
L 86.622433 -62.348142 
L 85.9517 -62.059727 
L 85.280967 -61.136238 
L 84.610233 -60.791417 
L 83.9395 -60.671433 
L 83.268767 -61.063995 
L 82.598033 -61.053898 
L 81.9273 -60.711066 
L 81.256567 -59.771068 
L 80.585833 -59.913658 
L 79.9151 -60.35859 
L 79.244367 -60.373573 
L 78.573633 -60.720456 
L 77.9029 -60.989295 
L 77.232167 -60.92001 
L 76.561433 -60.948835 
L 75.8907 -61.066655 
L 75.219967 -60.919187 
L 74.549233 -60.504531 
L 73.8785 -60.219669 
L 73.207767 -59.846513 
L 72.537033 -59.232199 
L 71.8663 -58.957794 
L 71.195567 -59.09182 
L 70.524833 -59.153679 
L 69.8541 -59.204156 
L 69.183367 -59.162691 
L 68.512633 -59.765011 
L 67.8419 -59.951908 
L 67.171167 -59.674373 
L 66.500433 -59.548666 
L 65.8297 -59.702679 
L 65.158967 -59.913473 
L 64.488233 -59.958861 
L 63.8175 -59.338 
L 63.146767 -58.885682 
L 62.476033 -58.647082 
L 61.8053 -58.248516 
L 61.134567 -58.570528 
L 60.463833 -58.956111 
L 59.7931 -59.640275 
L 59.122367 -59.902585 
L 58.451633 -60.184557 
L 57.7809 -60.197254 
L 57.110167 -60.94632 
L 56.439433 -61.906593 
L 55.7687 -62.75965 
L 55.097967 -62.977533 
L 54.427233 -63.368945 
L 53.7565 -63.948583 
L 53.085767 -64.876684 
L 52.415033 -65.335782 
L 51.7443 -66.147173 
L 51.073567 -67.045187 
L 50.402833 -67.969338 
L 49.7321 -67.556279 
L 49.061367 -67.308252 
L 48.390633 -67.905193 
L 47.7199 -67.94551 
L 47.049167 -67.13791 
L 46.378433 -66.956878 
L 45.7077 -67.409749 
L 45.036967 -67.357067 
L 44.366233 -67.53782 
L 43.6955 -67.958745 
L 43.024767 -68.666858 
L 42.354033 -70.760177 
L 41.6833 -73.903249 
L 41.012567 -76.341385 
L 40.341833 -80.508453 
L 39.6711 -86.761526 
L 39.000367 -107.244072 
z
" style="stroke: #bbe5f0; stroke-opacity: 0.2"/>
    </defs>
    <g clip-path="url(#pcf416b9ef8)">
     <use xlink:href="#mb6bf2e5b1e" x="0" y="250.2995" style="fill: #bbe5f0; fill-opacity: 0.2; stroke: #bbe5f0; stroke-opacity: 0.2"/>
    </g>
   </g>
   <g id="PolyCollection_2">
    <defs>
     <path id="m8d5162daa4" d="M 39.000367 -108.346598 
L 39.000367 -85.147137 
L 39.6711 -75.604395 
L 40.341833 -71.988195 
L 41.012567 -69.555452 
L 41.6833 -65.078116 
L 42.354033 -62.411031 
L 43.024767 -62.186474 
L 43.6955 -61.44621 
L 44.366233 -61.527455 
L 45.036967 -60.916875 
L 45.7077 -60.746179 
L 46.378433 -60.893431 
L 47.049167 -61.289164 
L 47.7199 -61.093668 
L 48.390633 -60.826878 
L 49.061367 -60.146571 
L 49.7321 -59.236622 
L 50.402833 -58.756568 
L 51.073567 -58.080635 
L 51.7443 -57.580332 
L 52.415033 -57.016273 
L 53.085767 -56.566001 
L 53.7565 -56.084916 
L 54.427233 -56.047124 
L 55.097967 -56.260784 
L 55.7687 -56.592167 
L 56.439433 -56.436286 
L 57.110167 -56.282107 
L 57.7809 -56.611015 
L 58.451633 -56.182446 
L 59.122367 -56.11176 
L 59.7931 -56.003922 
L 60.463833 -55.804943 
L 61.134567 -55.960604 
L 61.8053 -55.690526 
L 62.476033 -55.269392 
L 63.146767 -55.211875 
L 63.8175 -55.435859 
L 64.488233 -55.577577 
L 65.158967 -55.86896 
L 65.8297 -56.063262 
L 66.500433 -56.230816 
L 67.171167 -56.123711 
L 67.8419 -55.725356 
L 68.512633 -55.948675 
L 69.183367 -56.213537 
L 69.8541 -56.438583 
L 70.524833 -56.765569 
L 71.195567 -56.547795 
L 71.8663 -56.415331 
L 72.537033 -56.450834 
L 73.207767 -56.541149 
L 73.8785 -56.651022 
L 74.549233 -57.156266 
L 75.219967 -57.24074 
L 75.8907 -57.149874 
L 76.561433 -56.926124 
L 77.232167 -56.898572 
L 77.9029 -56.917649 
L 78.573633 -56.953131 
L 79.244367 -56.941613 
L 79.9151 -56.671723 
L 80.585833 -56.768119 
L 81.256567 -56.781259 
L 81.9273 -57.153576 
L 82.598033 -57.364495 
L 83.268767 -57.194662 
L 83.9395 -56.698422 
L 84.610233 -56.879205 
L 85.280967 -57.47766 
L 85.9517 -57.555066 
L 86.622433 -57.807685 
L 87.293167 -57.917478 
L 87.9639 -58.028236 
L 88.634633 -57.690965 
L 89.305367 -57.867862 
L 89.9761 -58.077668 
L 90.646833 -58.802736 
L 91.317567 -59.167526 
L 91.9883 -58.844572 
L 92.659033 -58.902797 
L 93.329767 -58.781824 
L 94.0005 -58.754726 
L 94.671233 -59.00473 
L 95.341967 -59.059658 
L 96.0127 -59.483291 
L 96.683433 -60.183578 
L 97.354167 -60.806962 
L 98.0249 -61.143875 
L 98.695633 -61.483538 
L 99.366367 -61.739415 
L 100.0371 -62.071533 
L 100.707833 -62.167457 
L 101.378567 -62.184434 
L 102.0493 -62.414573 
L 102.720033 -61.911758 
L 103.390767 -61.758519 
L 104.0615 -61.318228 
L 104.732233 -61.176952 
L 105.402967 -61.217697 
L 106.0737 -61.692675 
L 106.744433 -62.484583 
L 107.415167 -63.398647 
L 108.0859 -63.872979 
L 108.756633 -64.175527 
L 109.427367 -64.618139 
L 110.0981 -65.305774 
L 110.768833 -65.231563 
L 111.439567 -65.323257 
L 112.1103 -65.750107 
L 112.781033 -66.089346 
L 113.451767 -66.242292 
L 114.1225 -66.35926 
L 114.793233 -66.916618 
L 115.463967 -67.143324 
L 116.1347 -67.35395 
L 116.805433 -67.420798 
L 117.476167 -67.981515 
L 118.1469 -68.028617 
L 118.817633 -67.990367 
L 119.488367 -68.049146 
L 120.1591 -68.272539 
L 120.829833 -68.282281 
L 121.500567 -68.232534 
L 122.1713 -67.8308 
L 122.842033 -68.23073 
L 123.512767 -68.660975 
L 124.1835 -69.045323 
L 124.854233 -69.578861 
L 125.524967 -69.870857 
L 126.1957 -69.801191 
L 126.866433 -69.784289 
L 127.537167 -70.389459 
L 128.2079 -71.131898 
L 128.878633 -71.290801 
L 129.549367 -71.296652 
L 130.2201 -71.232184 
L 130.890833 -70.799831 
L 131.561567 -70.693096 
L 132.2323 -71.139451 
L 132.903033 -71.305777 
L 133.573767 -72.158438 
L 134.2445 -72.191154 
L 134.915233 -71.721521 
L 135.585967 -71.66517 
L 136.2567 -72.239729 
L 136.927433 -72.799156 
L 137.598167 -73.22254 
L 138.2689 -73.954779 
L 138.939633 -73.829153 
L 139.610367 -73.501266 
L 140.2811 -73.349657 
L 140.951833 -73.652867 
L 141.622567 -74.356748 
L 142.2933 -75.046712 
L 142.964033 -75.338851 
L 143.634767 -75.393772 
L 144.3055 -75.887905 
L 144.976233 -75.788855 
L 145.646967 -76.818806 
L 146.3177 -77.950975 
L 146.988433 -78.694623 
L 147.659167 -79.51981 
L 148.3299 -79.719371 
L 149.000633 -79.742711 
L 149.671367 -79.795631 
L 150.3421 -80.532469 
L 151.012833 -80.658467 
L 151.683567 -80.965667 
L 152.3543 -80.921698 
L 153.025033 -80.829691 
L 153.695767 -81.514724 
L 154.3665 -81.892089 
L 155.037233 -82.51761 
L 155.707967 -83.474306 
L 156.3787 -83.351023 
L 157.049433 -83.443581 
L 157.720167 -84.461334 
L 158.3909 -85.190899 
L 159.061633 -85.939606 
L 159.732367 -86.979808 
L 160.4031 -87.718253 
L 161.073833 -88.500797 
L 161.744567 -89.248392 
L 162.4153 -89.606347 
L 163.086033 -90.567284 
L 163.756767 -91.383886 
L 164.4275 -92.237492 
L 165.098233 -92.951378 
L 165.768967 -94.243708 
L 166.4397 -95.045474 
L 167.110433 -95.638701 
L 167.781167 -95.808174 
L 168.4519 -96.771921 
L 169.122633 -97.171391 
L 169.793367 -97.786194 
L 170.4641 -98.620228 
L 171.134833 -98.618005 
L 171.805567 -97.990187 
L 172.4763 -97.449456 
L 173.147033 -98.236947 
L 173.817767 -98.930803 
L 174.4885 -99.841863 
L 175.159233 -100.52826 
L 175.829967 -100.506194 
L 176.5007 -101.008996 
L 177.171433 -101.828134 
L 177.842167 -102.725627 
L 178.5129 -104.515852 
L 179.183633 -105.304305 
L 179.854367 -106.381284 
L 180.5251 -106.852994 
L 181.195833 -107.762822 
L 181.866567 -109.183065 
L 182.5373 -110.681082 
L 183.208033 -111.896114 
L 183.878767 -113.360153 
L 184.5495 -115.103724 
L 185.220233 -116.323897 
L 185.890967 -117.830112 
L 186.5617 -118.595538 
L 187.232433 -120.617126 
L 187.903167 -122.082007 
L 188.5739 -123.239512 
L 189.244633 -125.519244 
L 189.915367 -127.627095 
L 190.5861 -129.60266 
L 191.256833 -130.950654 
L 191.927567 -132.152537 
L 192.5983 -134.338173 
L 193.269033 -136.682711 
L 193.939767 -138.441988 
L 194.6105 -139.128387 
L 195.281233 -140.630889 
L 195.951967 -141.771967 
L 196.6227 -143.736106 
L 197.293433 -145.662959 
L 197.964167 -148.077975 
L 198.6349 -150.022049 
L 199.305633 -152.777783 
L 199.976367 -154.816374 
L 200.6471 -157.131917 
L 201.317833 -160.384544 
L 201.988567 -163.421268 
L 202.6593 -166.295435 
L 203.330033 -168.916224 
L 204.000767 -171.935923 
L 204.6715 -174.024953 
L 205.342233 -176.812049 
L 206.012967 -179.086416 
L 206.6837 -181.604732 
L 207.354433 -184.734544 
L 208.025167 -187.514913 
L 208.6959 -189.687875 
L 209.366633 -191.314493 
L 210.037367 -192.669439 
L 210.7081 -194.698317 
L 211.378833 -196.177862 
L 212.049567 -197.423096 
L 212.7203 -198.553205 
L 213.391033 -199.795226 
L 214.061767 -201.778505 
L 214.7325 -202.940363 
L 215.403233 -204.329052 
L 216.073967 -205.570525 
L 216.7447 -206.828544 
L 217.415433 -206.701116 
L 218.086167 -207.853945 
L 218.7569 -207.226234 
L 219.427633 -206.088132 
L 220.098367 -206.889162 
L 220.7691 -205.986738 
L 221.439833 -205.464789 
L 222.110567 -204.36392 
L 222.7813 -202.604315 
L 223.452033 -202.598918 
L 224.122767 -201.663588 
L 224.7935 -199.501608 
L 225.464233 -199.576037 
L 226.134967 -199.084023 
L 226.8057 -197.764575 
L 227.476433 -194.954371 
L 228.147167 -191.980217 
L 228.8179 -189.503283 
L 229.488633 -189.183322 
L 230.159367 -187.022441 
L 230.8301 -186.195041 
L 231.500833 -185.697803 
L 232.171567 -181.742775 
L 232.8423 -177.309338 
L 233.513033 -168.439014 
L 234.183767 -154.141897 
L 234.8545 -140.012006 
L 235.525233 -125.558232 
L 236.195967 -110.444146 
L 236.8667 -94.811245 
L 237.537433 -79.304585 
L 238.208167 -64.453131 
L 238.8789 -51.82359 
L 239.549633 -40.650186 
L 239.549633 -42.314352 
L 239.549633 -42.314352 
L 238.8789 -54.827178 
L 238.208167 -68.678118 
L 237.537433 -84.597464 
L 236.8667 -101.074938 
L 236.195967 -117.615455 
L 235.525233 -133.472724 
L 234.8545 -148.647326 
L 234.183767 -163.464115 
L 233.513033 -178.26419 
L 232.8423 -187.381592 
L 232.171567 -191.772944 
L 231.500833 -195.882444 
L 230.8301 -196.272608 
L 230.159367 -197.109809 
L 229.488633 -199.346042 
L 228.8179 -199.640765 
L 228.147167 -202.193695 
L 227.476433 -205.314144 
L 226.8057 -208.277455 
L 226.134967 -209.6161 
L 225.464233 -210.039003 
L 224.7935 -209.890559 
L 224.122767 -212.029415 
L 223.452033 -212.912509 
L 222.7813 -212.798674 
L 222.110567 -214.483521 
L 221.439833 -215.483093 
L 220.7691 -215.927941 
L 220.098367 -216.86198 
L 219.427633 -215.986296 
L 218.7569 -217.166304 
L 218.086167 -217.828136 
L 217.415433 -216.519333 
L 216.7447 -216.671818 
L 216.073967 -215.368424 
L 215.403233 -214.042476 
L 214.7325 -212.536505 
L 214.061767 -211.281092 
L 213.391033 -209.186241 
L 212.7203 -207.894729 
L 212.049567 -206.670929 
L 211.378833 -205.405685 
L 210.7081 -203.882274 
L 210.037367 -201.835192 
L 209.366633 -200.50305 
L 208.6959 -198.798779 
L 208.025167 -196.612904 
L 207.354433 -193.775192 
L 206.6837 -190.537796 
L 206.012967 -187.966355 
L 205.342233 -185.599127 
L 204.6715 -182.694194 
L 204.000767 -180.544046 
L 203.330033 -177.398823 
L 202.6593 -174.740645 
L 201.988567 -171.701686 
L 201.317833 -168.573067 
L 200.6471 -165.117015 
L 199.976367 -162.718433 
L 199.305633 -160.617929 
L 198.6349 -157.77535 
L 197.964167 -155.745205 
L 197.293433 -153.104029 
L 196.6227 -151.166392 
L 195.951967 -149.191144 
L 195.281233 -148.075562 
L 194.6105 -146.547084 
L 193.939767 -145.82536 
L 193.269033 -143.99631 
L 192.5983 -141.603149 
L 191.927567 -139.314334 
L 191.256833 -138.099967 
L 190.5861 -136.729948 
L 189.915367 -134.580293 
L 189.244633 -132.390185 
L 188.5739 -130.111409 
L 187.903167 -128.999426 
L 187.232433 -127.471242 
L 186.5617 -125.337257 
L 185.890967 -124.567386 
L 185.220233 -122.955239 
L 184.5495 -121.688171 
L 183.878767 -119.855514 
L 183.208033 -118.284445 
L 182.5373 -117.027814 
L 181.866567 -115.405046 
L 181.195833 -113.911427 
L 180.5251 -112.96759 
L 179.854367 -112.476287 
L 179.183633 -111.346929 
L 178.5129 -110.582916 
L 177.842167 -108.699669 
L 177.171433 -107.842067 
L 176.5007 -106.976193 
L 175.829967 -106.501113 
L 175.159233 -106.557708 
L 174.4885 -105.860912 
L 173.817767 -104.9132 
L 173.147033 -104.173705 
L 172.4763 -103.284486 
L 171.805567 -103.981009 
L 171.134833 -104.75961 
L 170.4641 -104.800754 
L 169.793367 -103.959213 
L 169.122633 -103.294509 
L 168.4519 -102.844858 
L 167.781167 -101.820205 
L 167.110433 -101.700877 
L 166.4397 -101.105293 
L 165.768967 -100.168871 
L 165.098233 -98.705167 
L 164.4275 -98.01667 
L 163.756767 -97.136459 
L 163.086033 -96.313869 
L 162.4153 -95.293694 
L 161.744567 -94.961865 
L 161.073833 -94.101912 
L 160.4031 -93.242345 
L 159.732367 -92.475744 
L 159.061633 -91.41434 
L 158.3909 -90.652073 
L 157.720167 -89.902821 
L 157.049433 -88.794493 
L 156.3787 -88.742895 
L 155.707967 -88.888958 
L 155.037233 -87.853192 
L 154.3665 -87.164737 
L 153.695767 -86.776337 
L 153.025033 -86.068484 
L 152.3543 -86.223824 
L 151.683567 -86.412055 
L 151.012833 -86.1297 
L 150.3421 -86.093271 
L 149.671367 -85.280689 
L 149.000633 -85.247203 
L 148.3299 -85.227289 
L 147.659167 -84.989599 
L 146.988433 -84.144737 
L 146.3177 -83.263222 
L 145.646967 -81.97526 
L 144.976233 -80.848986 
L 144.3055 -80.957545 
L 143.634767 -80.441511 
L 142.964033 -80.295297 
L 142.2933 -79.991629 
L 141.622567 -79.223238 
L 140.951833 -78.420086 
L 140.2811 -78.099542 
L 139.610367 -78.318639 
L 138.939633 -78.7002 
L 138.2689 -78.890893 
L 137.598167 -78.110333 
L 136.927433 -77.720763 
L 136.2567 -77.133769 
L 135.585967 -76.537941 
L 134.915233 -76.583954 
L 134.2445 -77.173361 
L 133.573767 -77.097165 
L 132.903033 -76.139118 
L 132.2323 -76.135057 
L 131.561567 -75.667229 
L 130.890833 -75.770865 
L 130.2201 -76.342966 
L 129.549367 -76.466133 
L 128.878633 -76.501982 
L 128.2079 -76.308062 
L 127.537167 -75.543368 
L 126.866433 -74.707834 
L 126.1957 -74.75195 
L 125.524967 -74.835591 
L 124.854233 -74.412528 
L 124.1835 -73.777628 
L 123.512767 -73.352521 
L 122.842033 -72.908866 
L 122.1713 -72.464138 
L 121.500567 -72.944703 
L 120.829833 -73.012915 
L 120.1591 -73.01944 
L 119.488367 -72.810609 
L 118.817633 -72.810195 
L 118.1469 -72.858043 
L 117.476167 -72.858996 
L 116.805433 -72.297549 
L 116.1347 -72.291309 
L 115.463967 -72.038415 
L 114.793233 -71.800675 
L 114.1225 -71.191254 
L 113.451767 -71.029768 
L 112.781033 -70.8855 
L 112.1103 -70.531547 
L 111.439567 -70.101503 
L 110.768833 -70.096347 
L 110.0981 -70.192424 
L 109.427367 -69.456596 
L 108.756633 -68.980522 
L 108.0859 -68.680752 
L 107.415167 -68.13967 
L 106.744433 -67.095499 
L 106.0737 -66.116156 
L 105.402967 -65.573547 
L 104.732233 -65.487856 
L 104.0615 -65.6881 
L 103.390767 -66.279661 
L 102.720033 -66.487573 
L 102.0493 -67.074907 
L 101.378567 -66.973467 
L 100.707833 -66.999141 
L 100.0371 -66.923266 
L 99.366367 -66.576503 
L 98.695633 -66.281956 
L 98.0249 -65.795439 
L 97.354167 -65.336247 
L 96.683433 -64.634089 
L 96.0127 -63.771662 
L 95.341967 -63.320494 
L 94.671233 -63.300475 
L 94.0005 -62.92452 
L 93.329767 -62.940977 
L 92.659033 -63.064908 
L 91.9883 -62.997283 
L 91.317567 -63.393305 
L 90.646833 -63.100644 
L 89.9761 -62.328662 
L 89.305367 -62.057874 
L 88.634633 -61.878697 
L 87.9639 -62.281211 
L 87.293167 -62.18779 
L 86.622433 -62.116189 
L 85.9517 -61.811568 
L 85.280967 -61.687235 
L 84.610233 -60.984189 
L 83.9395 -60.818186 
L 83.268767 -61.444937 
L 82.598033 -61.658078 
L 81.9273 -61.43004 
L 81.256567 -61.001988 
L 80.585833 -60.996499 
L 79.9151 -60.845635 
L 79.244367 -61.148105 
L 78.573633 -61.136335 
L 77.9029 -61.044682 
L 77.232167 -61.001362 
L 76.561433 -61.019758 
L 75.8907 -61.399205 
L 75.219967 -61.428632 
L 74.549233 -61.310962 
L 73.8785 -60.747799 
L 73.207767 -60.526004 
L 72.537033 -60.450682 
L 71.8663 -60.433085 
L 71.195567 -60.606227 
L 70.524833 -60.925072 
L 69.8541 -60.653401 
L 69.183367 -60.519835 
L 68.512633 -60.288892 
L 67.8419 -60.061369 
L 67.171167 -60.530204 
L 66.500433 -60.700847 
L 65.8297 -60.424121 
L 65.158967 -60.080611 
L 64.488233 -59.680125 
L 63.8175 -59.574133 
L 63.146767 -59.322125 
L 62.476033 -59.459897 
L 61.8053 -59.92533 
L 61.134567 -60.202157 
L 60.463833 -60.053232 
L 59.7931 -60.338247 
L 59.122367 -60.509061 
L 58.451633 -60.635542 
L 57.7809 -61.17087 
L 57.110167 -60.738799 
L 56.439433 -60.84232 
L 55.7687 -61.040932 
L 55.097967 -60.718295 
L 54.427233 -60.543593 
L 53.7565 -60.615503 
L 53.085767 -61.162269 
L 52.415033 -61.737964 
L 51.7443 -62.428992 
L 51.073567 -63.043803 
L 50.402833 -63.844801 
L 49.7321 -64.485915 
L 49.061367 -65.568921 
L 48.390633 -66.383097 
L 47.7199 -66.725 
L 47.049167 -66.99993 
L 46.378433 -66.559566 
L 45.7077 -66.463286 
L 45.036967 -66.643214 
L 44.366233 -67.469132 
L 43.6955 -67.457031 
L 43.024767 -68.304379 
L 42.354033 -69.010796 
L 41.6833 -72.574216 
L 41.012567 -78.98259 
L 40.341833 -82.789478 
L 39.6711 -88.255033 
L 39.000367 -108.346598 
z
" style="stroke: #ff6b6b; stroke-opacity: 0.2"/>
    </defs>
    <g clip-path="url(#pcf416b9ef8)">
     <use xlink:href="#m8d5162daa4" x="0" y="250.2995" style="fill: #ff6b6b; fill-opacity: 0.2; stroke: #ff6b6b; stroke-opacity: 0.2"/>
    </g>
   </g>
   <g id="PolyCollection_3">
    <defs>
     <path id="mad7fb6a2c7" d="M 39.000367 -100.332881 
L 39.000367 -78.831844 
L 39.6711 -71.049911 
L 40.341833 -69.332463 
L 41.012567 -66.806152 
L 41.6833 -64.131824 
L 42.354033 -62.382767 
L 43.024767 -61.085206 
L 43.6955 -59.629408 
L 44.366233 -59.952857 
L 45.036967 -59.711052 
L 45.7077 -59.364386 
L 46.378433 -59.422003 
L 47.049167 -58.988347 
L 47.7199 -59.639763 
L 48.390633 -59.297549 
L 49.061367 -58.840529 
L 49.7321 -58.879995 
L 50.402833 -59.328372 
L 51.073567 -58.173176 
L 51.7443 -57.594818 
L 52.415033 -57.531375 
L 53.085767 -57.698503 
L 53.7565 -57.614111 
L 54.427233 -56.820966 
L 55.097967 -56.852758 
L 55.7687 -56.952046 
L 56.439433 -56.396921 
L 57.110167 -55.716509 
L 57.7809 -55.423333 
L 58.451633 -55.269973 
L 59.122367 -55.504478 
L 59.7931 -55.228387 
L 60.463833 -55.142468 
L 61.134567 -55.501742 
L 61.8053 -55.427722 
L 62.476033 -55.1415 
L 63.146767 -54.997805 
L 63.8175 -54.902774 
L 64.488233 -55.147627 
L 65.158967 -55.017614 
L 65.8297 -54.594346 
L 66.500433 -54.455399 
L 67.171167 -54.557568 
L 67.8419 -54.554342 
L 68.512633 -54.850739 
L 69.183367 -55.401486 
L 69.8541 -55.958974 
L 70.524833 -56.28369 
L 71.195567 -56.721492 
L 71.8663 -56.991769 
L 72.537033 -57.026018 
L 73.207767 -57.348805 
L 73.8785 -57.222974 
L 74.549233 -56.883095 
L 75.219967 -56.529226 
L 75.8907 -56.316481 
L 76.561433 -56.090059 
L 77.232167 -56.08992 
L 77.9029 -56.104057 
L 78.573633 -56.221752 
L 79.244367 -56.41725 
L 79.9151 -56.459515 
L 80.585833 -56.64603 
L 81.256567 -56.966699 
L 81.9273 -56.996367 
L 82.598033 -56.91362 
L 83.268767 -57.404537 
L 83.9395 -57.591491 
L 84.610233 -57.674843 
L 85.280967 -57.823923 
L 85.9517 -58.361748 
L 86.622433 -58.199701 
L 87.293167 -57.750884 
L 87.9639 -57.796735 
L 88.634633 -57.890747 
L 89.305367 -57.841149 
L 89.9761 -57.727188 
L 90.646833 -57.206668 
L 91.317567 -56.961733 
L 91.9883 -56.936777 
L 92.659033 -56.958373 
L 93.329767 -57.260453 
L 94.0005 -57.686669 
L 94.671233 -57.815931 
L 95.341967 -58.34594 
L 96.0127 -59.328781 
L 96.683433 -59.703778 
L 97.354167 -60.198017 
L 98.0249 -60.793552 
L 98.695633 -61.243612 
L 99.366367 -61.537653 
L 100.0371 -62.118704 
L 100.707833 -62.532615 
L 101.378567 -62.676176 
L 102.0493 -62.399859 
L 102.720033 -62.52577 
L 103.390767 -62.078733 
L 104.0615 -61.535856 
L 104.732233 -61.306664 
L 105.402967 -61.385174 
L 106.0737 -61.984893 
L 106.744433 -61.898016 
L 107.415167 -61.875092 
L 108.0859 -62.420839 
L 108.756633 -63.008756 
L 109.427367 -63.044007 
L 110.0981 -63.415261 
L 110.768833 -64.316628 
L 111.439567 -64.874864 
L 112.1103 -64.821421 
L 112.781033 -64.475161 
L 113.451767 -64.193063 
L 114.1225 -64.810619 
L 114.793233 -65.147458 
L 115.463967 -65.406221 
L 116.1347 -65.374707 
L 116.805433 -65.248273 
L 117.476167 -65.616202 
L 118.1469 -65.414086 
L 118.817633 -66.008107 
L 119.488367 -66.970551 
L 120.1591 -67.502088 
L 120.829833 -67.366279 
L 121.500567 -67.086175 
L 122.1713 -67.156053 
L 122.842033 -67.723773 
L 123.512767 -67.813488 
L 124.1835 -68.56018 
L 124.854233 -69.322899 
L 125.524967 -69.444046 
L 126.1957 -68.960098 
L 126.866433 -69.092314 
L 127.537167 -69.662029 
L 128.2079 -69.653804 
L 128.878633 -69.523343 
L 129.549367 -69.05871 
L 130.2201 -69.586538 
L 130.890833 -69.600006 
L 131.561567 -69.774254 
L 132.2323 -69.844727 
L 132.903033 -69.910179 
L 133.573767 -70.796568 
L 134.2445 -70.849402 
L 134.915233 -71.649773 
L 135.585967 -72.084255 
L 136.2567 -72.123773 
L 136.927433 -72.26236 
L 137.598167 -72.857327 
L 138.2689 -72.908605 
L 138.939633 -73.067088 
L 139.610367 -73.444214 
L 140.2811 -72.911144 
L 140.951833 -73.211301 
L 141.622567 -73.595634 
L 142.2933 -73.870173 
L 142.964033 -74.399783 
L 143.634767 -74.039765 
L 144.3055 -73.464085 
L 144.976233 -73.848884 
L 145.646967 -75.040434 
L 146.3177 -75.996741 
L 146.988433 -76.577351 
L 147.659167 -76.838064 
L 148.3299 -76.956036 
L 149.000633 -77.211129 
L 149.671367 -77.340934 
L 150.3421 -78.066703 
L 151.012833 -78.884712 
L 151.683567 -78.927765 
L 152.3543 -79.529737 
L 153.025033 -79.254083 
L 153.695767 -79.697001 
L 154.3665 -80.853339 
L 155.037233 -82.329791 
L 155.707967 -83.524872 
L 156.3787 -84.161078 
L 157.049433 -84.713042 
L 157.720167 -85.531775 
L 158.3909 -86.235896 
L 159.061633 -87.213241 
L 159.732367 -88.975351 
L 160.4031 -90.343728 
L 161.073833 -90.55005 
L 161.744567 -90.716985 
L 162.4153 -90.882769 
L 163.086033 -91.444213 
L 163.756767 -91.639802 
L 164.4275 -92.108136 
L 165.098233 -92.630839 
L 165.768967 -92.764806 
L 166.4397 -93.411186 
L 167.110433 -93.288278 
L 167.781167 -93.480571 
L 168.4519 -93.726711 
L 169.122633 -94.253929 
L 169.793367 -94.940715 
L 170.4641 -96.025748 
L 171.134833 -97.133476 
L 171.805567 -96.719654 
L 172.4763 -97.032855 
L 173.147033 -97.901698 
L 173.817767 -98.329143 
L 174.4885 -98.272256 
L 175.159233 -99.024184 
L 175.829967 -99.374137 
L 176.5007 -99.932747 
L 177.171433 -100.725648 
L 177.842167 -101.653682 
L 178.5129 -103.105505 
L 179.183633 -103.662932 
L 179.854367 -104.344025 
L 180.5251 -105.338943 
L 181.195833 -106.722444 
L 181.866567 -108.915563 
L 182.5373 -110.798678 
L 183.208033 -112.319331 
L 183.878767 -114.641205 
L 184.5495 -115.795801 
L 185.220233 -117.026592 
L 185.890967 -119.072258 
L 186.5617 -120.758154 
L 187.232433 -122.589277 
L 187.903167 -124.85931 
L 188.5739 -126.34273 
L 189.244633 -128.305846 
L 189.915367 -130.044946 
L 190.5861 -131.455395 
L 191.256833 -133.352516 
L 191.927567 -135.239348 
L 192.5983 -136.934273 
L 193.269033 -139.135876 
L 193.939767 -140.064312 
L 194.6105 -142.177822 
L 195.281233 -143.969976 
L 195.951967 -145.572168 
L 196.6227 -147.665135 
L 197.293433 -150.286559 
L 197.964167 -151.454518 
L 198.6349 -153.861995 
L 199.305633 -155.933566 
L 199.976367 -158.740279 
L 200.6471 -161.948016 
L 201.317833 -165.582014 
L 201.988567 -168.584984 
L 202.6593 -172.283911 
L 203.330033 -175.236306 
L 204.000767 -177.619342 
L 204.6715 -181.205952 
L 205.342233 -183.55919 
L 206.012967 -185.132037 
L 206.6837 -186.248107 
L 207.354433 -188.056379 
L 208.025167 -189.177802 
L 208.6959 -190.311771 
L 209.366633 -191.337479 
L 210.037367 -192.740634 
L 210.7081 -193.796931 
L 211.378833 -194.282837 
L 212.049567 -196.315651 
L 212.7203 -197.73571 
L 213.391033 -199.605832 
L 214.061767 -200.617377 
L 214.7325 -200.310569 
L 215.403233 -200.516359 
L 216.073967 -201.324191 
L 216.7447 -201.706378 
L 217.415433 -201.508812 
L 218.086167 -201.212714 
L 218.7569 -200.826065 
L 219.427633 -199.64096 
L 220.098367 -198.601671 
L 220.7691 -197.722201 
L 221.439833 -197.683364 
L 222.110567 -197.764545 
L 222.7813 -195.447187 
L 223.452033 -193.841988 
L 224.122767 -192.809634 
L 224.7935 -191.960354 
L 225.464233 -191.186662 
L 226.134967 -191.085419 
L 226.8057 -191.323006 
L 227.476433 -190.787947 
L 228.147167 -189.777157 
L 228.8179 -187.887987 
L 229.488633 -189.888412 
L 230.159367 -191.491291 
L 230.8301 -192.376613 
L 231.500833 -192.121674 
L 232.171567 -190.30864 
L 232.8423 -187.768763 
L 233.513033 -178.647384 
L 234.183767 -164.101714 
L 234.8545 -148.893554 
L 235.525233 -133.088572 
L 236.195967 -116.90616 
L 236.8667 -100.200975 
L 237.537433 -84.534607 
L 238.208167 -69.046448 
L 238.8789 -54.943653 
L 239.549633 -41.682506 
L 239.549633 -43.884945 
L 239.549633 -43.884945 
L 238.8789 -58.583894 
L 238.208167 -73.813836 
L 237.537433 -90.240968 
L 236.8667 -106.698094 
L 236.195967 -124.266908 
L 235.525233 -141.342048 
L 234.8545 -157.953351 
L 234.183767 -173.820293 
L 233.513033 -188.839844 
L 232.8423 -198.197518 
L 232.171567 -200.743343 
L 231.500833 -202.55687 
L 230.8301 -202.74151 
L 230.159367 -201.698795 
L 229.488633 -199.976752 
L 228.8179 -197.828045 
L 228.147167 -199.800525 
L 227.476433 -200.849045 
L 226.8057 -201.33446 
L 226.134967 -201.053032 
L 225.464233 -201.056738 
L 224.7935 -201.833706 
L 224.122767 -202.642364 
L 223.452033 -203.596522 
L 222.7813 -205.173442 
L 222.110567 -207.488328 
L 221.439833 -207.303156 
L 220.7691 -207.238835 
L 220.098367 -208.101593 
L 219.427633 -209.199085 
L 218.7569 -210.369893 
L 218.086167 -210.766625 
L 217.415433 -211.096495 
L 216.7447 -211.350655 
L 216.073967 -210.891846 
L 215.403233 -210.025148 
L 214.7325 -209.752382 
L 214.061767 -210.015276 
L 213.391033 -208.916009 
L 212.7203 -206.922253 
L 212.049567 -205.396145 
L 211.378833 -203.246072 
L 210.7081 -202.846827 
L 210.037367 -201.797434 
L 209.366633 -200.323584 
L 208.6959 -199.279457 
L 208.025167 -198.169337 
L 207.354433 -196.995101 
L 206.6837 -195.146566 
L 206.012967 -194.098108 
L 205.342233 -192.424781 
L 204.6715 -189.918655 
L 204.000767 -186.183819 
L 203.330033 -183.773492 
L 202.6593 -180.772391 
L 201.988567 -176.935276 
L 201.317833 -173.894876 
L 200.6471 -170.047189 
L 199.976367 -166.695589 
L 199.305633 -163.861741 
L 198.6349 -161.757428 
L 197.964167 -159.301384 
L 197.293433 -158.113247 
L 196.6227 -155.405588 
L 195.951967 -153.238636 
L 195.281233 -151.544831 
L 194.6105 -149.674492 
L 193.939767 -147.509203 
L 193.269033 -146.495226 
L 192.5983 -144.206777 
L 191.927567 -142.449156 
L 191.256833 -140.47626 
L 190.5861 -138.53194 
L 189.915367 -137.1658 
L 189.244633 -135.401586 
L 188.5739 -133.485352 
L 187.903167 -131.933513 
L 187.232433 -129.615359 
L 186.5617 -127.694039 
L 185.890967 -125.872284 
L 185.220233 -123.674062 
L 184.5495 -122.369926 
L 183.878767 -121.125194 
L 183.208033 -118.625728 
L 182.5373 -117.038096 
L 181.866567 -115.03199 
L 181.195833 -112.819802 
L 180.5251 -111.42019 
L 179.854367 -110.406527 
L 179.183633 -109.725093 
L 178.5129 -109.197332 
L 177.842167 -107.716367 
L 177.171433 -106.709933 
L 176.5007 -105.904894 
L 175.829967 -105.3817 
L 175.159233 -105.041083 
L 174.4885 -104.258755 
L 173.817767 -104.399188 
L 173.147033 -103.990494 
L 172.4763 -103.098012 
L 171.805567 -102.824454 
L 171.134833 -103.319182 
L 170.4641 -102.116895 
L 169.793367 -100.939824 
L 169.122633 -100.220651 
L 168.4519 -99.647161 
L 167.781167 -99.408371 
L 167.110433 -99.192253 
L 166.4397 -99.371222 
L 165.768967 -98.680547 
L 165.098233 -98.556169 
L 164.4275 -98.090698 
L 163.756767 -97.602977 
L 163.086033 -97.461399 
L 162.4153 -96.831536 
L 161.744567 -96.619529 
L 161.073833 -96.412855 
L 160.4031 -96.184314 
L 159.732367 -94.681564 
L 159.061633 -92.784599 
L 158.3909 -91.788075 
L 157.720167 -91.083424 
L 157.049433 -90.239039 
L 156.3787 -89.669258 
L 155.707967 -89.022734 
L 155.037233 -87.744673 
L 154.3665 -86.160718 
L 153.695767 -84.856132 
L 153.025033 -84.457383 
L 152.3543 -84.801604 
L 151.683567 -84.160202 
L 151.012833 -84.1953 
L 150.3421 -83.314257 
L 149.671367 -82.585151 
L 149.000633 -82.45791 
L 148.3299 -82.252052 
L 147.659167 -82.186351 
L 146.988433 -81.871493 
L 146.3177 -81.261848 
L 145.646967 -80.156831 
L 144.976233 -78.816223 
L 144.3055 -78.43139 
L 143.634767 -79.100954 
L 142.964033 -79.559983 
L 142.2933 -78.960866 
L 141.622567 -78.585102 
L 140.951833 -78.2005 
L 140.2811 -77.848593 
L 139.610367 -78.447007 
L 138.939633 -78.087082 
L 138.2689 -77.94075 
L 137.598167 -77.887217 
L 136.927433 -77.25673 
L 136.2567 -77.153873 
L 135.585967 -77.119893 
L 134.915233 -76.679597 
L 134.2445 -75.832047 
L 133.573767 -75.77487 
L 132.903033 -74.812375 
L 132.2323 -74.771333 
L 131.561567 -74.678389 
L 130.890833 -74.468807 
L 130.2201 -74.43303 
L 129.549367 -73.855798 
L 128.878633 -74.420495 
L 128.2079 -74.653044 
L 127.537167 -74.613765 
L 126.866433 -73.996638 
L 126.1957 -73.807998 
L 125.524967 -74.362508 
L 124.854233 -74.265343 
L 124.1835 -73.449456 
L 123.512767 -72.640319 
L 122.842033 -72.584987 
L 122.1713 -71.983779 
L 121.500567 -71.945955 
L 120.829833 -72.277195 
L 120.1591 -72.47896 
L 119.488367 -71.875753 
L 118.817633 -70.795252 
L 118.1469 -70.144947 
L 117.476167 -70.293904 
L 116.805433 -69.838851 
L 116.1347 -69.941997 
L 115.463967 -70.038251 
L 114.793233 -69.775362 
L 114.1225 -69.399778 
L 113.451767 -68.737753 
L 112.781033 -69.104884 
L 112.1103 -69.459838 
L 111.439567 -69.532188 
L 110.768833 -68.939966 
L 110.0981 -67.928246 
L 109.427367 -67.515074 
L 108.756633 -67.538233 
L 108.0859 -66.895883 
L 107.415167 -66.277117 
L 106.744433 -66.349519 
L 106.0737 -66.503886 
L 105.402967 -65.773166 
L 104.732233 -65.751562 
L 104.0615 -66.024322 
L 103.390767 -66.696427 
L 102.720033 -67.194949 
L 102.0493 -67.083441 
L 101.378567 -67.468751 
L 100.707833 -67.339748 
L 100.0371 -66.862381 
L 99.366367 -66.300685 
L 98.695633 -65.94971 
L 98.0249 -65.476267 
L 97.354167 -64.778853 
L 96.683433 -64.203072 
L 96.0127 -63.786586 
L 95.341967 -62.661134 
L 94.671233 -62.064349 
L 94.0005 -61.848181 
L 93.329767 -61.334178 
L 92.659033 -60.947007 
L 91.9883 -60.924726 
L 91.317567 -61.010287 
L 90.646833 -61.326322 
L 89.9761 -62.000788 
L 89.305367 -62.111019 
L 88.634633 -62.201676 
L 87.9639 -62.173712 
L 87.293167 -62.11528 
L 86.622433 -62.562512 
L 85.9517 -62.813805 
L 85.280967 -62.217368 
L 84.610233 -62.033757 
L 83.9395 -61.961972 
L 83.268767 -61.76702 
L 82.598033 -61.214301 
L 81.9273 -61.288312 
L 81.256567 -61.279744 
L 80.585833 -60.846684 
L 79.9151 -60.543741 
L 79.244367 -60.462187 
L 78.573633 -60.225546 
L 77.9029 -60.088092 
L 77.232167 -60.078921 
L 76.561433 -59.99761 
L 75.8907 -60.291248 
L 75.219967 -60.512141 
L 74.549233 -60.979183 
L 73.8785 -61.415041 
L 73.207767 -61.599896 
L 72.537033 -61.295861 
L 71.8663 -61.290839 
L 71.195567 -61.011568 
L 70.524833 -60.516295 
L 69.8541 -60.185385 
L 69.183367 -59.555387 
L 68.512633 -58.89279 
L 67.8419 -58.555098 
L 67.171167 -58.567978 
L 66.500433 -58.412606 
L 65.8297 -58.55541 
L 65.158967 -59.048786 
L 64.488233 -59.230081 
L 63.8175 -59.01974 
L 63.146767 -59.226634 
L 62.476033 -59.434197 
L 61.8053 -59.791744 
L 61.134567 -59.952155 
L 60.463833 -59.510525 
L 59.7931 -59.608196 
L 59.122367 -59.986989 
L 58.451633 -59.721815 
L 57.7809 -59.890488 
L 57.110167 -60.188743 
L 56.439433 -61.006982 
L 55.7687 -61.65459 
L 55.097967 -61.520839 
L 54.427233 -61.522027 
L 53.7565 -62.565735 
L 53.085767 -62.709602 
L 52.415033 -62.494476 
L 51.7443 -62.608517 
L 51.073567 -63.29738 
L 50.402833 -64.790632 
L 49.7321 -64.215819 
L 49.061367 -64.207516 
L 48.390633 -64.750601 
L 47.7199 -65.087519 
L 47.049167 -64.353165 
L 46.378433 -64.893325 
L 45.7077 -64.97218 
L 45.036967 -65.377056 
L 44.366233 -65.714353 
L 43.6955 -65.482628 
L 43.024767 -67.414204 
L 42.354033 -69.200361 
L 41.6833 -71.680441 
L 41.012567 -75.686988 
L 40.341833 -79.695043 
L 39.6711 -82.505103 
L 39.000367 -100.332881 
z
" style="stroke: #9faed5; stroke-opacity: 0.2"/>
    </defs>
    <g clip-path="url(#pcf416b9ef8)">
     <use xlink:href="#mad7fb6a2c7" x="0" y="250.2995" style="fill: #9faed5; fill-opacity: 0.2; stroke: #9faed5; stroke-opacity: 0.2"/>
    </g>
   </g>
   <g id="PolyCollection_4">
    <defs>
     <path id="m0abb09d77e" d="M 39.000367 -102.088353 
L 39.000367 -82.395748 
L 39.6711 -77.824401 
L 40.341833 -72.339624 
L 41.012567 -70.553593 
L 41.6833 -68.717727 
L 42.354033 -67.097846 
L 43.024767 -66.169604 
L 43.6955 -65.05421 
L 44.366233 -64.078378 
L 45.036967 -63.138185 
L 45.7077 -62.586203 
L 46.378433 -62.370079 
L 47.049167 -62.633107 
L 47.7199 -61.975468 
L 48.390633 -61.409295 
L 49.061367 -60.271045 
L 49.7321 -60.264089 
L 50.402833 -60.330575 
L 51.073567 -59.926884 
L 51.7443 -59.600438 
L 52.415033 -59.947001 
L 53.085767 -59.668999 
L 53.7565 -58.832613 
L 54.427233 -58.560683 
L 55.097967 -58.269144 
L 55.7687 -58.47434 
L 56.439433 -57.790143 
L 57.110167 -57.187114 
L 57.7809 -56.809439 
L 58.451633 -55.836651 
L 59.122367 -55.071506 
L 59.7931 -54.628418 
L 60.463833 -54.351502 
L 61.134567 -54.008685 
L 61.8053 -53.9756 
L 62.476033 -53.969141 
L 63.146767 -54.250062 
L 63.8175 -54.182334 
L 64.488233 -54.319993 
L 65.158967 -54.692788 
L 65.8297 -54.78102 
L 66.500433 -54.949634 
L 67.171167 -54.938432 
L 67.8419 -54.766818 
L 68.512633 -54.910542 
L 69.183367 -55.140315 
L 69.8541 -54.999715 
L 70.524833 -55.410602 
L 71.195567 -55.937785 
L 71.8663 -56.217335 
L 72.537033 -56.214776 
L 73.207767 -56.098744 
L 73.8785 -56.172734 
L 74.549233 -56.403372 
L 75.219967 -56.515166 
L 75.8907 -56.763764 
L 76.561433 -56.7295 
L 77.232167 -56.407116 
L 77.9029 -56.405343 
L 78.573633 -56.780091 
L 79.244367 -56.910319 
L 79.9151 -56.921199 
L 80.585833 -57.107648 
L 81.256567 -57.494383 
L 81.9273 -57.188618 
L 82.598033 -56.840102 
L 83.268767 -56.62318 
L 83.9395 -56.029061 
L 84.610233 -55.858147 
L 85.280967 -56.244004 
L 85.9517 -56.456611 
L 86.622433 -56.648843 
L 87.293167 -56.420539 
L 87.9639 -56.545471 
L 88.634633 -56.627936 
L 89.305367 -56.983526 
L 89.9761 -57.207964 
L 90.646833 -58.093944 
L 91.317567 -58.331341 
L 91.9883 -57.964035 
L 92.659033 -58.232549 
L 93.329767 -58.430574 
L 94.0005 -58.620003 
L 94.671233 -59.077748 
L 95.341967 -59.640569 
L 96.0127 -60.222732 
L 96.683433 -60.470742 
L 97.354167 -60.702411 
L 98.0249 -61.687557 
L 98.695633 -62.13736 
L 99.366367 -62.408059 
L 100.0371 -62.83222 
L 100.707833 -62.99126 
L 101.378567 -62.728257 
L 102.0493 -62.360241 
L 102.720033 -62.434977 
L 103.390767 -62.991135 
L 104.0615 -62.818743 
L 104.732233 -61.857411 
L 105.402967 -61.763836 
L 106.0737 -62.110092 
L 106.744433 -62.580089 
L 107.415167 -62.959083 
L 108.0859 -63.590587 
L 108.756633 -63.974926 
L 109.427367 -64.231613 
L 110.0981 -64.199652 
L 110.768833 -63.921022 
L 111.439567 -64.637746 
L 112.1103 -65.310362 
L 112.781033 -65.37367 
L 113.451767 -65.990913 
L 114.1225 -66.224143 
L 114.793233 -66.451746 
L 115.463967 -66.463011 
L 116.1347 -66.541407 
L 116.805433 -66.986085 
L 117.476167 -67.576635 
L 118.1469 -67.918974 
L 118.817633 -68.126629 
L 119.488367 -68.709904 
L 120.1591 -69.127205 
L 120.829833 -69.049983 
L 121.500567 -69.159209 
L 122.1713 -69.884835 
L 122.842033 -70.196684 
L 123.512767 -70.110206 
L 124.1835 -70.230522 
L 124.854233 -71.010353 
L 125.524967 -71.303306 
L 126.1957 -71.093044 
L 126.866433 -70.626927 
L 127.537167 -69.952462 
L 128.2079 -69.73985 
L 128.878633 -69.522359 
L 129.549367 -69.615087 
L 130.2201 -69.689935 
L 130.890833 -69.23305 
L 131.561567 -68.881633 
L 132.2323 -69.124043 
L 132.903033 -70.266781 
L 133.573767 -70.97255 
L 134.2445 -71.235342 
L 134.915233 -71.808924 
L 135.585967 -72.066758 
L 136.2567 -72.601055 
L 136.927433 -72.58137 
L 137.598167 -73.426172 
L 138.2689 -73.749744 
L 138.939633 -73.765762 
L 139.610367 -74.206356 
L 140.2811 -74.5915 
L 140.951833 -75.450239 
L 141.622567 -75.754677 
L 142.2933 -76.233637 
L 142.964033 -76.408387 
L 143.634767 -76.656881 
L 144.3055 -76.807992 
L 144.976233 -77.520131 
L 145.646967 -77.990724 
L 146.3177 -78.171841 
L 146.988433 -78.311142 
L 147.659167 -78.184064 
L 148.3299 -78.693524 
L 149.000633 -78.701548 
L 149.671367 -78.530919 
L 150.3421 -79.290164 
L 151.012833 -79.833035 
L 151.683567 -79.93527 
L 152.3543 -79.992412 
L 153.025033 -80.284178 
L 153.695767 -81.198283 
L 154.3665 -82.455566 
L 155.037233 -83.308887 
L 155.707967 -84.499544 
L 156.3787 -85.560933 
L 157.049433 -85.678737 
L 157.720167 -85.853957 
L 158.3909 -87.486084 
L 159.061633 -89.261329 
L 159.732367 -89.89687 
L 160.4031 -89.996657 
L 161.073833 -90.043313 
L 161.744567 -90.443928 
L 162.4153 -90.986553 
L 163.086033 -91.607944 
L 163.756767 -92.070121 
L 164.4275 -92.047911 
L 165.098233 -91.894158 
L 165.768967 -92.088299 
L 166.4397 -92.598964 
L 167.110433 -93.04923 
L 167.781167 -93.746807 
L 168.4519 -94.338051 
L 169.122633 -94.664085 
L 169.793367 -95.151862 
L 170.4641 -95.923608 
L 171.134833 -96.909871 
L 171.805567 -97.593038 
L 172.4763 -97.780399 
L 173.147033 -98.880327 
L 173.817767 -99.769274 
L 174.4885 -99.972554 
L 175.159233 -99.831399 
L 175.829967 -100.893373 
L 176.5007 -102.638421 
L 177.171433 -103.17611 
L 177.842167 -103.925263 
L 178.5129 -104.705314 
L 179.183633 -104.717917 
L 179.854367 -105.766979 
L 180.5251 -106.977424 
L 181.195833 -108.634853 
L 181.866567 -111.401554 
L 182.5373 -113.395581 
L 183.208033 -114.286083 
L 183.878767 -115.396362 
L 184.5495 -116.931913 
L 185.220233 -118.814078 
L 185.890967 -119.971535 
L 186.5617 -121.232924 
L 187.232433 -122.912621 
L 187.903167 -124.221654 
L 188.5739 -124.539238 
L 189.244633 -126.204802 
L 189.915367 -128.295583 
L 190.5861 -130.543609 
L 191.256833 -132.396767 
L 191.927567 -133.32448 
L 192.5983 -134.932788 
L 193.269033 -136.540285 
L 193.939767 -137.748423 
L 194.6105 -139.244674 
L 195.281233 -140.832013 
L 195.951967 -142.456865 
L 196.6227 -143.957406 
L 197.293433 -146.347053 
L 197.964167 -148.841539 
L 198.6349 -152.037998 
L 199.305633 -155.719544 
L 199.976367 -159.267307 
L 200.6471 -161.771596 
L 201.317833 -164.348167 
L 201.988567 -167.961449 
L 202.6593 -172.02787 
L 203.330033 -175.902992 
L 204.000767 -178.063035 
L 204.6715 -180.149733 
L 205.342233 -181.712613 
L 206.012967 -183.543147 
L 206.6837 -185.112787 
L 207.354433 -187.174985 
L 208.025167 -189.279329 
L 208.6959 -190.014738 
L 209.366633 -189.383621 
L 210.037367 -189.641775 
L 210.7081 -191.363843 
L 211.378833 -192.632846 
L 212.049567 -193.043494 
L 212.7203 -193.656802 
L 213.391033 -194.528257 
L 214.061767 -195.227772 
L 214.7325 -195.652984 
L 215.403233 -196.227512 
L 216.073967 -196.770519 
L 216.7447 -197.178323 
L 217.415433 -196.727665 
L 218.086167 -196.350107 
L 218.7569 -194.285465 
L 219.427633 -192.123752 
L 220.098367 -190.551283 
L 220.7691 -189.562656 
L 221.439833 -188.68146 
L 222.110567 -187.308791 
L 222.7813 -186.868951 
L 223.452033 -185.897987 
L 224.122767 -184.694342 
L 224.7935 -184.05431 
L 225.464233 -184.244319 
L 226.134967 -185.209274 
L 226.8057 -185.145687 
L 227.476433 -185.304077 
L 228.147167 -185.511638 
L 228.8179 -185.062736 
L 229.488633 -186.634366 
L 230.159367 -188.040616 
L 230.8301 -190.132046 
L 231.500833 -190.345703 
L 232.171567 -189.239394 
L 232.8423 -186.243091 
L 233.513033 -177.460671 
L 234.183767 -163.227285 
L 234.8545 -148.894095 
L 235.525233 -133.544673 
L 236.195967 -116.940514 
L 236.8667 -99.645654 
L 237.537433 -83.072714 
L 238.208167 -67.555493 
L 238.8789 -54.262783 
L 239.549633 -41.604746 
L 239.549633 -43.718265 
L 239.549633 -43.718265 
L 238.8789 -57.666602 
L 238.208167 -71.980196 
L 237.537433 -88.498454 
L 236.8667 -105.95098 
L 236.195967 -124.219332 
L 235.525233 -141.769655 
L 234.8545 -157.843392 
L 234.183767 -172.795002 
L 233.513033 -187.521726 
L 232.8423 -196.52466 
L 232.171567 -199.521799 
L 231.500833 -200.634253 
L 230.8301 -200.318548 
L 230.159367 -197.99832 
L 229.488633 -196.596392 
L 228.8179 -194.949133 
L 228.147167 -195.454546 
L 227.476433 -195.234433 
L 226.8057 -194.964982 
L 226.134967 -195.015576 
L 225.464233 -193.866882 
L 224.7935 -193.548103 
L 224.122767 -194.144243 
L 223.452033 -195.355694 
L 222.7813 -196.355422 
L 222.110567 -196.684914 
L 221.439833 -198.058567 
L 220.7691 -198.829071 
L 220.098367 -199.754281 
L 219.427633 -201.409056 
L 218.7569 -203.597148 
L 218.086167 -205.701902 
L 217.415433 -206.093179 
L 216.7447 -206.589589 
L 216.073967 -206.107395 
L 215.403233 -205.524707 
L 214.7325 -204.903645 
L 214.061767 -204.365458 
L 213.391033 -203.563371 
L 212.7203 -202.657579 
L 212.049567 -202.003039 
L 211.378833 -201.580249 
L 210.7081 -200.279636 
L 210.037367 -198.50717 
L 209.366633 -198.338538 
L 208.6959 -199.07499 
L 208.025167 -198.390773 
L 207.354433 -196.183227 
L 206.6837 -193.961122 
L 206.012967 -192.36222 
L 205.342233 -190.440698 
L 204.6715 -188.783645 
L 204.000767 -186.568414 
L 203.330033 -184.37104 
L 202.6593 -180.273891 
L 201.988567 -176.035112 
L 201.317833 -172.342523 
L 200.6471 -169.70937 
L 199.976367 -167.188494 
L 199.305633 -163.555204 
L 198.6349 -159.733415 
L 197.964167 -156.390254 
L 197.293433 -153.875522 
L 196.6227 -151.355765 
L 195.951967 -149.832018 
L 195.281233 -148.182785 
L 194.6105 -146.49223 
L 193.939767 -144.863773 
L 193.269033 -143.648862 
L 192.5983 -142.017079 
L 191.927567 -140.338926 
L 191.256833 -139.402771 
L 190.5861 -137.52611 
L 189.915367 -135.11766 
L 189.244633 -132.962375 
L 188.5739 -131.294632 
L 187.903167 -131.050587 
L 187.232433 -129.730061 
L 186.5617 -128.001814 
L 185.890967 -126.745976 
L 185.220233 -125.504692 
L 184.5495 -123.506987 
L 183.878767 -121.85603 
L 183.208033 -120.660732 
L 182.5373 -119.734815 
L 181.866567 -117.58455 
L 181.195833 -114.679444 
L 180.5251 -112.940065 
L 179.854367 -111.62807 
L 179.183633 -110.559968 
L 178.5129 -110.662982 
L 177.842167 -109.991571 
L 177.171433 -109.285649 
L 176.5007 -108.742203 
L 175.829967 -106.850666 
L 175.159233 -105.788261 
L 174.4885 -105.978865 
L 173.817767 -105.831742 
L 173.147033 -104.852373 
L 172.4763 -103.636738 
L 171.805567 -103.536116 
L 171.134833 -102.831135 
L 170.4641 -101.780349 
L 169.793367 -100.960717 
L 169.122633 -100.496599 
L 168.4519 -100.047844 
L 167.781167 -99.467285 
L 167.110433 -98.810405 
L 166.4397 -98.311261 
L 165.768967 -97.711539 
L 165.098233 -97.515355 
L 164.4275 -97.733035 
L 163.756767 -97.783415 
L 163.086033 -97.295858 
L 162.4153 -96.622844 
L 161.744567 -96.054864 
L 161.073833 -95.635995 
L 160.4031 -95.564208 
L 159.732367 -95.552449 
L 159.061633 -94.898181 
L 158.3909 -92.939764 
L 157.720167 -91.202627 
L 157.049433 -91.037165 
L 156.3787 -91.017328 
L 155.707967 -89.885555 
L 155.037233 -88.646106 
L 154.3665 -87.674706 
L 153.695767 -86.357886 
L 153.025033 -85.390701 
L 152.3543 -85.143032 
L 151.683567 -85.128519 
L 151.012833 -85.007369 
L 150.3421 -84.40749 
L 149.671367 -83.579942 
L 149.000633 -83.773713 
L 148.3299 -83.804905 
L 147.659167 -83.247461 
L 146.988433 -83.431559 
L 146.3177 -83.198435 
L 145.646967 -83.036318 
L 144.976233 -82.612776 
L 144.3055 -81.931057 
L 143.634767 -81.773202 
L 142.964033 -81.532578 
L 142.2933 -81.374078 
L 141.622567 -80.841868 
L 140.951833 -80.545831 
L 140.2811 -79.601911 
L 139.610367 -79.132766 
L 138.939633 -78.659542 
L 138.2689 -78.678399 
L 137.598167 -78.338121 
L 136.927433 -77.431264 
L 136.2567 -77.519042 
L 135.585967 -76.954758 
L 134.915233 -76.69322 
L 134.2445 -76.077295 
L 133.573767 -75.747492 
L 132.903033 -74.975536 
L 132.2323 -73.73399 
L 131.561567 -73.449042 
L 130.890833 -73.944777 
L 130.2201 -74.520941 
L 129.549367 -74.406698 
L 128.878633 -74.392543 
L 128.2079 -74.703728 
L 127.537167 -74.978193 
L 126.866433 -75.768551 
L 126.1957 -76.312443 
L 125.524967 -76.540324 
L 124.854233 -76.132064 
L 124.1835 -75.187143 
L 123.512767 -75.183892 
L 122.842033 -75.341868 
L 122.1713 -74.997761 
L 121.500567 -74.088395 
L 120.829833 -73.957129 
L 120.1591 -74.069629 
L 119.488367 -73.621724 
L 118.817633 -72.968617 
L 118.1469 -72.784772 
L 117.476167 -72.424576 
L 116.805433 -71.765456 
L 116.1347 -71.292753 
L 115.463967 -71.268079 
L 114.793233 -71.228238 
L 114.1225 -70.926865 
L 113.451767 -70.710424 
L 112.781033 -69.999184 
L 112.1103 -69.895327 
L 111.439567 -69.07364 
L 110.768833 -68.308832 
L 110.0981 -68.670696 
L 109.427367 -68.746437 
L 108.756633 -68.517424 
L 108.0859 -68.102729 
L 107.415167 -67.427669 
L 106.744433 -67.022156 
L 106.0737 -66.580527 
L 105.402967 -66.24962 
L 104.732233 -66.344972 
L 104.0615 -67.389768 
L 103.390767 -67.659524 
L 102.720033 -67.063276 
L 102.0493 -67.029848 
L 101.378567 -67.513639 
L 100.707833 -67.798717 
L 100.0371 -67.59697 
L 99.366367 -67.125059 
L 98.695633 -66.779232 
L 98.0249 -66.247616 
L 97.354167 -65.114447 
L 96.683433 -64.821633 
L 96.0127 -64.517266 
L 95.341967 -63.829912 
L 94.671233 -63.242405 
L 94.0005 -62.724109 
L 93.329767 -62.572599 
L 92.659033 -62.331679 
L 91.9883 -61.977474 
L 91.317567 -62.380499 
L 90.646833 -62.142196 
L 89.9761 -61.203977 
L 89.305367 -60.936207 
L 88.634633 -60.505899 
L 87.9639 -60.47889 
L 87.293167 -60.348788 
L 86.622433 -60.657583 
L 85.9517 -60.510227 
L 85.280967 -60.303448 
L 84.610233 -59.893436 
L 83.9395 -60.066026 
L 83.268767 -60.728501 
L 82.598033 -60.894681 
L 81.9273 -61.325882 
L 81.256567 -61.613041 
L 80.585833 -61.169669 
L 79.9151 -60.998151 
L 79.244367 -60.972442 
L 78.573633 -60.73401 
L 77.9029 -60.279487 
L 77.232167 -60.235344 
L 76.561433 -60.66785 
L 75.8907 -60.696613 
L 75.219967 -60.385524 
L 74.549233 -60.302982 
L 73.8785 -60.06282 
L 73.207767 -59.961772 
L 72.537033 -60.146676 
L 71.8663 -60.269015 
L 71.195567 -59.965125 
L 70.524833 -59.39207 
L 69.8541 -58.987277 
L 69.183367 -59.285976 
L 68.512633 -59.04937 
L 67.8419 -58.918565 
L 67.171167 -59.215597 
L 66.500433 -59.223123 
L 65.8297 -58.981009 
L 65.158967 -58.82837 
L 64.488233 -58.396557 
L 63.8175 -58.207805 
L 63.146767 -58.25982 
L 62.476033 -57.928558 
L 61.8053 -57.990072 
L 61.134567 -58.061593 
L 60.463833 -58.437143 
L 59.7931 -58.797036 
L 59.122367 -59.337814 
L 58.451633 -60.28961 
L 57.7809 -61.400457 
L 57.110167 -61.792303 
L 56.439433 -62.433432 
L 55.7687 -63.192182 
L 55.097967 -62.960164 
L 54.427233 -63.353274 
L 53.7565 -63.686953 
L 53.085767 -64.755089 
L 52.415033 -65.131605 
L 51.7443 -64.762653 
L 51.073567 -65.119708 
L 50.402833 -65.61668 
L 49.7321 -65.557426 
L 49.061367 -65.634002 
L 48.390633 -67.028778 
L 47.7199 -67.784707 
L 47.049167 -68.656971 
L 46.378433 -68.350453 
L 45.7077 -68.64647 
L 45.036967 -69.315422 
L 44.366233 -70.478706 
L 43.6955 -71.730762 
L 43.024767 -73.119407 
L 42.354033 -74.277477 
L 41.6833 -76.577964 
L 41.012567 -79.370338 
L 40.341833 -82.608172 
L 39.6711 -91.869358 
L 39.000367 -102.088353 
z
" style="stroke: #f2d4e2; stroke-opacity: 0.2"/>
    </defs>
    <g clip-path="url(#pcf416b9ef8)">
     <use xlink:href="#m0abb09d77e" x="0" y="250.2995" style="fill: #f2d4e2; fill-opacity: 0.2; stroke: #f2d4e2; stroke-opacity: 0.2"/>
    </g>
   </g>
   <g id="matplotlib.axis_1">
    <g id="xtick_1">
     <g id="line2d_1">
      <path d="M 38.665 216.6145 
L 38.665 20.4945 
" clip-path="url(#pcf416b9ef8)" style="fill: none; stroke-dasharray: 2.96,1.28; stroke-dashoffset: 0; stroke: #b0b0b0; stroke-opacity: 0.3; stroke-width: 0.8"/>
     </g>
     <g id="line2d_2">
      <defs>
       <path id="m88d70242f3" d="M 0 0 
L 0 3.5 
" style="stroke: #000000; stroke-width: 0.8"/>
      </defs>
      <g>
       <use xlink:href="#m88d70242f3" x="38.665" y="216.6145" style="stroke: #000000; stroke-width: 0.8"/>
      </g>
     </g>
     <g id="text_1">
      <text style="font: 8px 'DejaVu Sans', 'Bitstream Vera Sans', 'Computer Modern Sans Serif', 'Lucida Grande', 'Verdana', 'Geneva', 'Lucid', 'Arial', 'Helvetica', 'Avant Garde', sans-serif; text-anchor: middle" x="38.665" y="229.69325" transform="rotate(-0 38.665 229.69325)">−3000</text>
     </g>
    </g>
    <g id="xtick_2">
     <g id="line2d_3">
      <path d="M 72.201667 216.6145 
L 72.201667 20.4945 
" clip-path="url(#pcf416b9ef8)" style="fill: none; stroke-dasharray: 2.96,1.28; stroke-dashoffset: 0; stroke: #b0b0b0; stroke-opacity: 0.3; stroke-width: 0.8"/>
     </g>
     <g id="line2d_4">
      <g>
       <use xlink:href="#m88d70242f3" x="72.201667" y="216.6145" style="stroke: #000000; stroke-width: 0.8"/>
      </g>
     </g>
     <g id="text_2">
      <text style="font: 8px 'DejaVu Sans', 'Bitstream Vera Sans', 'Computer Modern Sans Serif', 'Lucida Grande', 'Verdana', 'Geneva', 'Lucid', 'Arial', 'Helvetica', 'Avant Garde', sans-serif; text-anchor: middle" x="72.201667" y="229.69325" transform="rotate(-0 72.201667 229.69325)">−2500</text>
     </g>
    </g>
    <g id="xtick_3">
     <g id="line2d_5">
      <path d="M 105.738333 216.6145 
L 105.738333 20.4945 
" clip-path="url(#pcf416b9ef8)" style="fill: none; stroke-dasharray: 2.96,1.28; stroke-dashoffset: 0; stroke: #b0b0b0; stroke-opacity: 0.3; stroke-width: 0.8"/>
     </g>
     <g id="line2d_6">
      <g>
       <use xlink:href="#m88d70242f3" x="105.738333" y="216.6145" style="stroke: #000000; stroke-width: 0.8"/>
      </g>
     </g>
     <g id="text_3">
      <text style="font: 8px 'DejaVu Sans', 'Bitstream Vera Sans', 'Computer Modern Sans Serif', 'Lucida Grande', 'Verdana', 'Geneva', 'Lucid', 'Arial', 'Helvetica', 'Avant Garde', sans-serif; text-anchor: middle" x="105.738333" y="229.69325" transform="rotate(-0 105.738333 229.69325)">−2000</text>
     </g>
    </g>
    <g id="xtick_4">
     <g id="line2d_7">
      <path d="M 139.275 216.6145 
L 139.275 20.4945 
" clip-path="url(#pcf416b9ef8)" style="fill: none; stroke-dasharray: 2.96,1.28; stroke-dashoffset: 0; stroke: #b0b0b0; stroke-opacity: 0.3; stroke-width: 0.8"/>
     </g>
     <g id="line2d_8">
      <g>
       <use xlink:href="#m88d70242f3" x="139.275" y="216.6145" style="stroke: #000000; stroke-width: 0.8"/>
      </g>
     </g>
     <g id="text_4">
      <text style="font: 8px 'DejaVu Sans', 'Bitstream Vera Sans', 'Computer Modern Sans Serif', 'Lucida Grande', 'Verdana', 'Geneva', 'Lucid', 'Arial', 'Helvetica', 'Avant Garde', sans-serif; text-anchor: middle" x="139.275" y="229.69325" transform="rotate(-0 139.275 229.69325)">−1500</text>
     </g>
    </g>
    <g id="xtick_5">
     <g id="line2d_9">
      <path d="M 172.811667 216.6145 
L 172.811667 20.4945 
" clip-path="url(#pcf416b9ef8)" style="fill: none; stroke-dasharray: 2.96,1.28; stroke-dashoffset: 0; stroke: #b0b0b0; stroke-opacity: 0.3; stroke-width: 0.8"/>
     </g>
     <g id="line2d_10">
      <g>
       <use xlink:href="#m88d70242f3" x="172.811667" y="216.6145" style="stroke: #000000; stroke-width: 0.8"/>
      </g>
     </g>
     <g id="text_5">
      <text style="font: 8px 'DejaVu Sans', 'Bitstream Vera Sans', 'Computer Modern Sans Serif', 'Lucida Grande', 'Verdana', 'Geneva', 'Lucid', 'Arial', 'Helvetica', 'Avant Garde', sans-serif; text-anchor: middle" x="172.811667" y="229.69325" transform="rotate(-0 172.811667 229.69325)">−1000</text>
     </g>
    </g>
    <g id="xtick_6">
     <g id="line2d_11">
      <path d="M 206.348333 216.6145 
L 206.348333 20.4945 
" clip-path="url(#pcf416b9ef8)" style="fill: none; stroke-dasharray: 2.96,1.28; stroke-dashoffset: 0; stroke: #b0b0b0; stroke-opacity: 0.3; stroke-width: 0.8"/>
     </g>
     <g id="line2d_12">
      <g>
       <use xlink:href="#m88d70242f3" x="206.348333" y="216.6145" style="stroke: #000000; stroke-width: 0.8"/>
      </g>
     </g>
     <g id="text_6">
      <text style="font: 8px 'DejaVu Sans', 'Bitstream Vera Sans', 'Computer Modern Sans Serif', 'Lucida Grande', 'Verdana', 'Geneva', 'Lucid', 'Arial', 'Helvetica', 'Avant Garde', sans-serif; text-anchor: middle" x="206.348333" y="229.69325" transform="rotate(-0 206.348333 229.69325)">−500</text>
     </g>
    </g>
    <g id="xtick_7">
     <g id="line2d_13">
      <path d="M 239.885 216.6145 
L 239.885 20.4945 
" clip-path="url(#pcf416b9ef8)" style="fill: none; stroke-dasharray: 2.96,1.28; stroke-dashoffset: 0; stroke: #b0b0b0; stroke-opacity: 0.3; stroke-width: 0.8"/>
     </g>
     <g id="line2d_14">
      <g>
       <use xlink:href="#m88d70242f3" x="239.885" y="216.6145" style="stroke: #000000; stroke-width: 0.8"/>
      </g>
     </g>
     <g id="text_7">
      <text style="font: 8px 'DejaVu Sans', 'Bitstream Vera Sans', 'Computer Modern Sans Serif', 'Lucida Grande', 'Verdana', 'Geneva', 'Lucid', 'Arial', 'Helvetica', 'Avant Garde', sans-serif; text-anchor: middle" x="239.885" y="229.69325" transform="rotate(-0 239.885 229.69325)">0</text>
     </g>
    </g>
    <g id="text_8">
     <text style="font: 8px 'DejaVu Sans', 'Bitstream Vera Sans', 'Computer Modern Sans Serif', 'Lucida Grande', 'Verdana', 'Geneva', 'Lucid', 'Arial', 'Helvetica', 'Avant Garde', sans-serif; text-anchor: middle" x="139.275" y="241.43575" transform="rotate(-0 139.275 241.43575)">Transcript Distance from TES (bp)</text>
    </g>
   </g>
   <g id="matplotlib.axis_2">
    <g id="ytick_1">
     <g id="line2d_15">
      <path d="M 38.665 216.6145 
L 239.885 216.6145 
" clip-path="url(#pcf416b9ef8)" style="fill: none; stroke-dasharray: 2.96,1.28; stroke-dashoffset: 0; stroke: #b0b0b0; stroke-opacity: 0.3; stroke-width: 0.8"/>
     </g>
     <g id="line2d_16">
      <defs>
       <path id="m0e0c350577" d="M 0 0 
L -3.5 0 
" style="stroke: #000000; stroke-width: 0.8"/>
      </defs>
      <g>
       <use xlink:href="#m0e0c350577" x="38.665" y="216.6145" style="stroke: #000000; stroke-width: 0.8"/>
      </g>
     </g>
     <g id="text_9">
      <text style="font: 8px 'DejaVu Sans', 'Bitstream Vera Sans', 'Computer Modern Sans Serif', 'Lucida Grande', 'Verdana', 'Geneva', 'Lucid', 'Arial', 'Helvetica', 'Avant Garde', sans-serif; text-anchor: end" x="31.665" y="219.653875" transform="rotate(-0 31.665 219.653875)">0.0</text>
     </g>
    </g>
    <g id="ytick_2">
     <g id="line2d_17">
      <path d="M 38.665 181.349285 
L 239.885 181.349285 
" clip-path="url(#pcf416b9ef8)" style="fill: none; stroke-dasharray: 2.96,1.28; stroke-dashoffset: 0; stroke: #b0b0b0; stroke-opacity: 0.3; stroke-width: 0.8"/>
     </g>
     <g id="line2d_18">
      <g>
       <use xlink:href="#m0e0c350577" x="38.665" y="181.349285" style="stroke: #000000; stroke-width: 0.8"/>
      </g>
     </g>
     <g id="text_10">
      <text style="font: 8px 'DejaVu Sans', 'Bitstream Vera Sans', 'Computer Modern Sans Serif', 'Lucida Grande', 'Verdana', 'Geneva', 'Lucid', 'Arial', 'Helvetica', 'Avant Garde', sans-serif; text-anchor: end" x="31.665" y="184.38866" transform="rotate(-0 31.665 184.38866)">0.5</text>
     </g>
    </g>
    <g id="ytick_3">
     <g id="line2d_19">
      <path d="M 38.665 146.08407 
L 239.885 146.08407 
" clip-path="url(#pcf416b9ef8)" style="fill: none; stroke-dasharray: 2.96,1.28; stroke-dashoffset: 0; stroke: #b0b0b0; stroke-opacity: 0.3; stroke-width: 0.8"/>
     </g>
     <g id="line2d_20">
      <g>
       <use xlink:href="#m0e0c350577" x="38.665" y="146.08407" style="stroke: #000000; stroke-width: 0.8"/>
      </g>
     </g>
     <g id="text_11">
      <text style="font: 8px 'DejaVu Sans', 'Bitstream Vera Sans', 'Computer Modern Sans Serif', 'Lucida Grande', 'Verdana', 'Geneva', 'Lucid', 'Arial', 'Helvetica', 'Avant Garde', sans-serif; text-anchor: end" x="31.665" y="149.123445" transform="rotate(-0 31.665 149.123445)">1.0</text>
     </g>
    </g>
    <g id="ytick_4">
     <g id="line2d_21">
      <path d="M 38.665 110.818855 
L 239.885 110.818855 
" clip-path="url(#pcf416b9ef8)" style="fill: none; stroke-dasharray: 2.96,1.28; stroke-dashoffset: 0; stroke: #b0b0b0; stroke-opacity: 0.3; stroke-width: 0.8"/>
     </g>
     <g id="line2d_22">
      <g>
       <use xlink:href="#m0e0c350577" x="38.665" y="110.818855" style="stroke: #000000; stroke-width: 0.8"/>
      </g>
     </g>
     <g id="text_12">
      <text style="font: 8px 'DejaVu Sans', 'Bitstream Vera Sans', 'Computer Modern Sans Serif', 'Lucida Grande', 'Verdana', 'Geneva', 'Lucid', 'Arial', 'Helvetica', 'Avant Garde', sans-serif; text-anchor: end" x="31.665" y="113.85823" transform="rotate(-0 31.665 113.85823)">1.5</text>
     </g>
    </g>
    <g id="ytick_5">
     <g id="line2d_23">
      <path d="M 38.665 75.55364 
L 239.885 75.55364 
" clip-path="url(#pcf416b9ef8)" style="fill: none; stroke-dasharray: 2.96,1.28; stroke-dashoffset: 0; stroke: #b0b0b0; stroke-opacity: 0.3; stroke-width: 0.8"/>
     </g>
     <g id="line2d_24">
      <g>
       <use xlink:href="#m0e0c350577" x="38.665" y="75.55364" style="stroke: #000000; stroke-width: 0.8"/>
      </g>
     </g>
     <g id="text_13">
      <text style="font: 8px 'DejaVu Sans', 'Bitstream Vera Sans', 'Computer Modern Sans Serif', 'Lucida Grande', 'Verdana', 'Geneva', 'Lucid', 'Arial', 'Helvetica', 'Avant Garde', sans-serif; text-anchor: end" x="31.665" y="78.593015" transform="rotate(-0 31.665 78.593015)">2.0</text>
     </g>
    </g>
    <g id="ytick_6">
     <g id="line2d_25">
      <path d="M 38.665 40.288426 
L 239.885 40.288426 
" clip-path="url(#pcf416b9ef8)" style="fill: none; stroke-dasharray: 2.96,1.28; stroke-dashoffset: 0; stroke: #b0b0b0; stroke-opacity: 0.3; stroke-width: 0.8"/>
     </g>
     <g id="line2d_26">
      <g>
       <use xlink:href="#m0e0c350577" x="38.665" y="40.288426" style="stroke: #000000; stroke-width: 0.8"/>
      </g>
     </g>
     <g id="text_14">
      <text style="font: 8px 'DejaVu Sans', 'Bitstream Vera Sans', 'Computer Modern Sans Serif', 'Lucida Grande', 'Verdana', 'Geneva', 'Lucid', 'Arial', 'Helvetica', 'Avant Garde', sans-serif; text-anchor: end" x="31.665" y="43.327801" transform="rotate(-0 31.665 43.327801)">2.5</text>
     </g>
    </g>
    <g id="text_15">
     <text style="font: 8px 'DejaVu Sans', 'Bitstream Vera Sans', 'Computer Modern Sans Serif', 'Lucida Grande', 'Verdana', 'Geneva', 'Lucid', 'Arial', 'Helvetica', 'Avant Garde', sans-serif; text-anchor: middle" x="13.27875" y="118.5545" transform="rotate(-90 13.27875 118.5545)">Mean Normalized Coverage</text>
    </g>
   </g>
   <g id="line2d_27">
    <path d="M 39.000367 154.683617 
L 39.6711 169.614392 
L 40.341833 174.609634 
L 41.012567 177.999723 
L 41.6833 180.174371 
L 42.354033 182.829228 
L 43.024767 184.638062 
L 43.6955 185.284762 
L 44.366233 185.649873 
L 45.036967 185.7859 
L 45.7077 185.721829 
L 46.378433 186.124301 
L 47.049167 185.960809 
L 47.7199 185.208528 
L 48.390633 185.258409 
L 49.061367 185.7946 
L 49.7321 185.561349 
L 50.402833 185.161211 
L 52.415033 187.485337 
L 53.085767 187.88786 
L 53.7565 188.716398 
L 54.427233 189.254017 
L 55.097967 189.608679 
L 55.7687 189.802369 
L 57.7809 192.209985 
L 58.451633 192.231173 
L 59.7931 192.710235 
L 60.463833 193.317979 
L 61.8053 193.968649 
L 62.476033 193.603301 
L 63.146767 193.379064 
L 63.8175 192.96569 
L 64.488233 192.374643 
L 65.158967 192.386713 
L 66.500433 192.770712 
L 67.8419 192.426297 
L 68.512633 192.584827 
L 69.183367 193.12303 
L 70.524833 193.082526 
L 71.8663 193.239599 
L 72.537033 192.978942 
L 73.207767 192.40294 
L 75.219967 191.375088 
L 75.8907 191.246053 
L 77.232167 191.398157 
L 77.9029 191.321605 
L 79.244367 191.902155 
L 79.9151 191.902602 
L 80.585833 192.299159 
L 81.256567 192.42803 
L 81.9273 191.561228 
L 82.598033 191.238538 
L 83.268767 191.21683 
L 83.9395 191.604451 
L 84.610233 191.504662 
L 85.280967 191.190768 
L 85.9517 190.321677 
L 86.622433 190.06657 
L 87.293167 190.281619 
L 90.646833 188.767831 
L 91.9883 188.715245 
L 93.329767 188.374212 
L 94.0005 188.61498 
L 95.341967 188.634003 
L 96.683433 188.40374 
L 97.354167 188.024041 
L 98.0249 187.495706 
L 99.366367 186.838274 
L 100.0371 186.712167 
L 100.707833 186.090774 
L 101.378567 186.085376 
L 102.720033 185.833796 
L 103.390767 185.865552 
L 104.0615 186.122369 
L 104.732233 185.550047 
L 106.0737 185.250157 
L 106.744433 185.570502 
L 107.415167 185.214717 
L 108.0859 184.383522 
L 108.756633 184.413461 
L 110.768833 183.61027 
L 111.439567 183.697732 
L 112.781033 183.506934 
L 113.451767 182.755431 
L 114.1225 182.587856 
L 115.463967 181.780181 
L 116.1347 181.222105 
L 116.805433 180.95881 
L 117.476167 180.995273 
L 118.1469 180.533708 
L 118.817633 179.789673 
L 119.488367 179.871997 
L 120.1591 180.149235 
L 120.829833 179.771972 
L 121.500567 180.252619 
L 122.1713 180.378832 
L 123.512767 179.493233 
L 124.1835 178.38912 
L 124.854233 178.184017 
L 125.524967 178.585977 
L 126.1957 178.025994 
L 126.866433 177.892261 
L 127.537167 177.050136 
L 129.549367 176.984103 
L 130.2201 177.141605 
L 130.890833 177.778114 
L 131.561567 177.34107 
L 132.2323 176.407403 
L 132.903033 176.897378 
L 134.2445 176.15363 
L 136.2567 176.200814 
L 136.927433 176.594357 
L 137.598167 175.763707 
L 138.939633 175.218165 
L 140.2811 174.052432 
L 140.951833 174.441718 
L 141.622567 174.230938 
L 142.2933 173.109569 
L 142.964033 172.538246 
L 143.634767 172.188046 
L 144.3055 172.445171 
L 144.976233 172.318916 
L 145.646967 172.311599 
L 146.988433 171.138429 
L 148.3299 169.745687 
L 149.000633 170.164336 
L 149.671367 169.691069 
L 150.3421 169.53363 
L 151.012833 169.690661 
L 151.683567 169.361636 
L 152.3543 169.423877 
L 153.025033 168.610204 
L 153.695767 168.305253 
L 154.3665 166.974271 
L 155.037233 166.186549 
L 155.707967 164.875218 
L 156.3787 164.530344 
L 157.049433 163.641171 
L 159.061633 159.506665 
L 159.732367 159.218135 
L 161.073833 158.17208 
L 161.744567 157.529239 
L 162.4153 157.329853 
L 163.756767 156.204269 
L 164.4275 155.311688 
L 165.098233 155.511013 
L 165.768967 155.360443 
L 166.4397 153.845296 
L 167.110433 152.759796 
L 167.781167 152.618253 
L 168.4519 151.712557 
L 169.122633 151.037878 
L 170.4641 148.846052 
L 171.134833 149.492129 
L 171.805567 148.892711 
L 172.4763 148.59593 
L 173.147033 148.935799 
L 173.817767 148.323373 
L 174.4885 148.007434 
L 175.159233 148.488309 
L 175.829967 148.330535 
L 176.5007 146.960687 
L 177.171433 146.199129 
L 177.842167 144.479183 
L 178.5129 143.399506 
L 179.183633 143.199038 
L 179.854367 141.91708 
L 180.5251 140.341502 
L 181.866567 136.068718 
L 183.208033 132.029677 
L 185.220233 128.835711 
L 185.890967 126.561593 
L 187.903167 122.189798 
L 189.244633 117.952536 
L 189.915367 116.862432 
L 190.5861 116.179979 
L 191.927567 112.285987 
L 192.5983 111.257325 
L 195.951967 103.693697 
L 196.6227 101.858275 
L 197.293433 99.199707 
L 197.964167 97.078022 
L 199.305633 91.021426 
L 201.317833 82.626052 
L 201.988567 79.909397 
L 202.6593 75.59977 
L 203.330033 70.394881 
L 204.000767 66.776927 
L 205.342233 61.88287 
L 208.025167 53.015199 
L 208.6959 52.289119 
L 209.366633 52.362796 
L 210.037367 51.958188 
L 211.378833 48.4478 
L 212.7203 46.566416 
L 213.391033 45.164413 
L 214.061767 43.438668 
L 214.7325 42.380083 
L 216.073967 37.459155 
L 216.7447 36.525979 
L 218.086167 35.390727 
L 218.7569 34.605205 
L 219.427633 34.498237 
L 220.098367 34.985881 
L 220.7691 36.007861 
L 221.439833 35.998125 
L 222.110567 37.873343 
L 222.7813 41.416264 
L 223.452033 43.861524 
L 224.7935 46.558064 
L 225.464233 48.893689 
L 226.134967 49.92236 
L 226.8057 51.406004 
L 228.8179 59.850575 
L 230.159367 58.230639 
L 230.8301 58.028355 
L 231.500833 58.782214 
L 232.8423 65.959136 
L 233.513033 74.472472 
L 234.8545 101.518584 
L 236.8667 150.432804 
L 238.208167 182.147518 
L 239.549633 208.007607 
L 239.549633 208.007607 
" clip-path="url(#pcf416b9ef8)" style="fill: none; stroke: #bbe5f0; stroke-width: 2.5; stroke-linecap: square"/>
   </g>
   <g id="line2d_28">
    <path d="M 39.000367 153.552632 
L 39.6711 168.369786 
L 40.341833 172.910663 
L 41.012567 176.030479 
L 41.6833 181.473334 
L 42.354033 184.588586 
L 43.024767 185.054074 
L 43.6955 185.847879 
L 44.366233 185.801207 
L 45.036967 186.519456 
L 45.7077 186.694768 
L 46.378433 186.573001 
L 47.049167 186.154953 
L 48.390633 186.694512 
L 49.061367 187.441754 
L 49.7321 188.438232 
L 50.402833 188.998815 
L 51.073567 189.737281 
L 53.7565 191.94929 
L 54.427233 192.004142 
L 55.097967 191.80996 
L 55.7687 191.482951 
L 57.110167 191.789047 
L 57.7809 191.408558 
L 58.451633 191.890506 
L 59.7931 192.128416 
L 60.463833 192.370413 
L 61.134567 192.21812 
L 61.8053 192.491572 
L 62.476033 192.934856 
L 63.146767 193.0325 
L 66.500433 191.833668 
L 67.171167 191.972542 
L 67.8419 192.406137 
L 70.524833 191.454179 
L 71.8663 191.875292 
L 73.207767 191.765923 
L 73.8785 191.60009 
L 74.549233 191.065886 
L 75.219967 190.964814 
L 75.8907 191.024961 
L 76.561433 191.326559 
L 77.9029 191.318334 
L 79.244367 191.254641 
L 79.9151 191.540821 
L 80.585833 191.417191 
L 81.256567 191.407877 
L 81.9273 191.007692 
L 82.598033 190.788213 
L 83.268767 190.9797 
L 83.9395 191.541196 
L 84.610233 191.367803 
L 85.280967 190.717052 
L 85.9517 190.616183 
L 86.622433 190.337563 
L 87.9639 190.144776 
L 88.634633 190.514669 
L 89.9761 190.096335 
L 90.646833 189.34781 
L 91.317567 189.019084 
L 91.9883 189.378573 
L 92.659033 189.315647 
L 94.0005 189.459877 
L 94.671233 189.146898 
L 95.341967 189.109424 
L 96.0127 188.672023 
L 97.354167 187.227896 
L 99.366367 186.141541 
L 100.0371 185.8021 
L 102.0493 185.55476 
L 102.720033 186.099835 
L 103.390767 186.28041 
L 104.0615 186.796336 
L 104.732233 186.967096 
L 105.402967 186.903878 
L 106.0737 186.395085 
L 107.415167 184.530342 
L 108.0859 184.022635 
L 108.756633 183.721475 
L 109.427367 183.262132 
L 110.0981 182.550401 
L 110.768833 182.635545 
L 111.439567 182.58712 
L 112.781033 181.812077 
L 114.1225 181.524243 
L 114.793233 180.940853 
L 116.1347 180.476871 
L 116.805433 180.440327 
L 117.476167 179.879244 
L 119.488367 179.869622 
L 120.1591 179.653511 
L 121.500567 179.710882 
L 122.1713 180.152031 
L 124.1835 178.888025 
L 124.854233 178.303805 
L 125.524967 177.946276 
L 126.866433 178.053438 
L 128.2079 176.57952 
L 128.878633 176.403108 
L 130.2201 176.511925 
L 130.890833 177.014152 
L 131.561567 177.119338 
L 132.2323 176.662246 
L 132.903033 176.577052 
L 133.573767 175.671698 
L 134.2445 175.617243 
L 134.915233 176.146763 
L 135.585967 176.197944 
L 136.927433 175.039541 
L 137.598167 174.633063 
L 138.2689 173.876664 
L 138.939633 174.034823 
L 139.610367 174.389548 
L 140.2811 174.5749 
L 140.951833 174.263024 
L 142.2933 172.78033 
L 142.964033 172.482426 
L 143.634767 172.381858 
L 144.3055 171.876775 
L 144.976233 171.98058 
L 146.988433 168.87982 
L 147.659167 168.044795 
L 148.3299 167.82617 
L 149.671367 167.76134 
L 150.3421 166.98663 
L 151.012833 166.905417 
L 151.683567 166.610639 
L 153.025033 166.850413 
L 153.695767 166.15397 
L 154.3665 165.771087 
L 155.037233 165.114099 
L 155.707967 164.117868 
L 156.3787 164.252541 
L 157.049433 164.180463 
L 157.720167 163.117422 
L 159.061633 161.622527 
L 159.732367 160.571724 
L 161.744567 158.194372 
L 162.4153 157.84948 
L 163.756767 156.039327 
L 165.098233 154.471228 
L 165.768967 153.093211 
L 166.4397 152.224117 
L 167.110433 151.629711 
L 167.781167 151.48531 
L 168.4519 150.491111 
L 169.122633 150.06655 
L 169.793367 149.426796 
L 170.4641 148.589009 
L 171.134833 148.610692 
L 172.4763 149.932529 
L 175.159233 146.756516 
L 175.829967 146.795847 
L 176.5007 146.306905 
L 177.842167 144.586852 
L 178.5129 142.750116 
L 179.183633 141.973883 
L 179.854367 140.870715 
L 180.5251 140.389208 
L 181.195833 139.462375 
L 183.878767 133.691666 
L 184.5495 131.903552 
L 185.220233 130.659932 
L 185.890967 129.100751 
L 186.5617 128.333103 
L 187.232433 126.255316 
L 187.903167 124.758784 
L 188.5739 123.624039 
L 190.5861 117.133196 
L 191.927567 114.566065 
L 193.939767 108.165826 
L 194.6105 107.461764 
L 195.281233 105.946275 
L 195.951967 104.817945 
L 197.293433 100.916006 
L 197.964167 98.38791 
L 198.6349 96.400801 
L 199.305633 93.601644 
L 200.6471 89.175034 
L 201.988567 82.738023 
L 204.000767 74.059516 
L 204.6715 71.939926 
L 205.342233 69.093912 
L 206.6837 64.228236 
L 208.025167 58.235591 
L 208.6959 56.056173 
L 209.366633 54.390728 
L 210.037367 53.047184 
L 210.7081 51.009205 
L 212.049567 48.252487 
L 213.391033 45.808767 
L 214.061767 43.769701 
L 214.7325 42.561066 
L 216.073967 39.830026 
L 216.7447 38.549319 
L 217.415433 38.689276 
L 218.086167 37.458459 
L 218.7569 38.103231 
L 219.427633 39.262286 
L 220.098367 38.423929 
L 220.7691 39.342161 
L 221.439833 39.825559 
L 222.110567 40.875779 
L 222.7813 42.598006 
L 223.452033 42.543787 
L 224.122767 43.452999 
L 224.7935 45.603417 
L 225.464233 45.49198 
L 226.134967 45.949439 
L 226.8057 47.278485 
L 228.8179 55.727476 
L 229.488633 56.034818 
L 230.159367 58.233375 
L 230.8301 59.065676 
L 231.500833 59.509376 
L 232.8423 67.954035 
L 233.513033 76.947898 
L 236.195967 136.2697 
L 238.208167 183.733876 
L 239.549633 208.817231 
L 239.549633 208.817231 
" clip-path="url(#pcf416b9ef8)" style="fill: none; stroke: #ff6b6b; stroke-width: 2.5; stroke-linecap: square"/>
   </g>
   <g id="line2d_29">
    <path d="M 39.000367 160.717138 
L 39.6711 173.521993 
L 40.341833 175.785747 
L 41.6833 182.393368 
L 42.354033 184.507936 
L 43.6955 187.743482 
L 44.366233 187.465895 
L 45.7077 188.131217 
L 46.378433 188.141836 
L 47.049167 188.628744 
L 47.7199 187.935859 
L 48.390633 188.275425 
L 49.061367 188.775477 
L 49.7321 188.751593 
L 50.402833 188.239998 
L 51.073567 189.564222 
L 51.7443 190.197832 
L 52.415033 190.286574 
L 53.085767 190.095448 
L 53.7565 190.209577 
L 54.427233 191.128004 
L 55.7687 190.996182 
L 57.110167 192.346874 
L 57.7809 192.64259 
L 58.451633 192.803606 
L 59.122367 192.553767 
L 59.7931 192.881208 
L 60.463833 192.973004 
L 61.134567 192.572551 
L 61.8053 192.689767 
L 62.476033 193.011652 
L 63.8175 193.338243 
L 64.488233 193.110646 
L 65.158967 193.2663 
L 65.8297 193.724622 
L 66.500433 193.865497 
L 67.171167 193.736727 
L 67.8419 193.74478 
L 68.512633 193.427735 
L 69.8541 192.227321 
L 70.524833 191.899507 
L 71.195567 191.43297 
L 71.8663 191.158196 
L 72.537033 191.138561 
L 73.207767 190.82515 
L 73.8785 190.980492 
L 75.219967 191.778817 
L 76.561433 192.255665 
L 78.573633 192.075851 
L 79.244367 191.859781 
L 79.9151 191.797872 
L 80.585833 191.553143 
L 81.256567 191.176279 
L 82.598033 191.23554 
L 83.268767 190.713721 
L 84.610233 190.4452 
L 85.280967 190.278854 
L 85.9517 189.711724 
L 86.622433 189.918393 
L 87.293167 190.366418 
L 88.634633 190.253289 
L 89.9761 190.435512 
L 90.646833 191.033005 
L 91.317567 191.31349 
L 92.659033 191.34681 
L 93.329767 191.002184 
L 94.0005 190.532075 
L 94.671233 190.35936 
L 95.341967 189.795963 
L 96.0127 188.741816 
L 96.683433 188.346075 
L 98.695633 186.702839 
L 99.366367 186.380331 
L 100.707833 185.363319 
L 101.378567 185.227037 
L 102.0493 185.55785 
L 102.720033 185.439141 
L 104.732233 186.770387 
L 105.402967 186.72033 
L 106.0737 186.055111 
L 107.415167 186.223395 
L 108.756633 185.026006 
L 109.427367 185.019959 
L 110.0981 184.627747 
L 110.768833 183.671203 
L 111.439567 183.095974 
L 112.1103 183.158871 
L 113.451767 183.834092 
L 114.1225 183.194301 
L 115.463967 182.577264 
L 116.805433 182.755938 
L 117.476167 182.344447 
L 118.1469 182.519983 
L 118.817633 181.897821 
L 119.488367 180.876348 
L 120.1591 180.308976 
L 120.829833 180.477763 
L 121.500567 180.783435 
L 122.1713 180.729584 
L 122.842033 180.14512 
L 123.512767 180.072597 
L 124.854233 178.505379 
L 125.524967 178.396223 
L 126.1957 178.915452 
L 126.866433 178.755024 
L 127.537167 178.161603 
L 128.2079 178.146076 
L 128.878633 178.327581 
L 129.549367 178.842246 
L 130.2201 178.289716 
L 130.890833 178.265093 
L 132.2323 177.99147 
L 132.903033 177.938223 
L 133.573767 177.013781 
L 134.2445 176.958776 
L 134.915233 176.134815 
L 135.585967 175.697426 
L 136.927433 175.539955 
L 137.598167 174.927228 
L 138.939633 174.722415 
L 139.610367 174.353889 
L 140.2811 174.919631 
L 142.2933 173.883981 
L 142.964033 173.319617 
L 143.634767 173.729141 
L 144.3055 174.351762 
L 144.976233 173.966946 
L 146.3177 171.670205 
L 146.988433 171.075078 
L 147.659167 170.787293 
L 148.3299 170.695456 
L 149.671367 170.336457 
L 151.012833 168.759494 
L 151.683567 168.755517 
L 152.3543 168.133829 
L 153.025033 168.443767 
L 153.695767 168.022934 
L 154.3665 166.792471 
L 155.037233 165.262268 
L 155.707967 164.025697 
L 157.720167 161.991901 
L 158.3909 161.287514 
L 159.061633 160.30058 
L 159.732367 158.471043 
L 160.4031 157.035479 
L 162.4153 156.442347 
L 163.086033 155.846694 
L 163.756767 155.67811 
L 165.098233 154.705996 
L 165.768967 154.576823 
L 166.4397 153.908296 
L 167.110433 154.059234 
L 168.4519 153.612564 
L 169.122633 153.06221 
L 169.793367 152.359231 
L 171.134833 150.073171 
L 171.805567 150.527446 
L 172.4763 150.234067 
L 173.147033 149.353404 
L 173.817767 148.935334 
L 174.4885 149.033995 
L 175.159233 148.266866 
L 175.829967 147.921582 
L 176.5007 147.38068 
L 177.842167 145.614475 
L 178.5129 144.148081 
L 179.854367 142.924224 
L 180.5251 141.919934 
L 181.195833 140.528377 
L 182.5373 136.381113 
L 183.208033 134.82697 
L 183.878767 132.4163 
L 185.220233 129.949173 
L 186.5617 126.073404 
L 187.232433 124.197182 
L 187.903167 121.903088 
L 188.5739 120.385459 
L 189.915367 116.694127 
L 190.5861 115.305833 
L 193.269033 107.483949 
L 193.939767 106.512742 
L 195.281233 102.542096 
L 195.951967 100.894098 
L 196.6227 98.764139 
L 197.293433 96.099597 
L 197.964167 94.921549 
L 199.976367 87.581566 
L 201.988567 77.53937 
L 202.6593 73.771349 
L 203.330033 70.794601 
L 204.000767 68.397919 
L 204.6715 64.737197 
L 205.342233 62.307514 
L 206.012967 60.684428 
L 206.6837 59.602164 
L 207.354433 57.77376 
L 210.7081 51.977621 
L 211.378833 51.535046 
L 212.049567 49.443602 
L 212.7203 47.970518 
L 213.391033 46.03858 
L 214.061767 44.983174 
L 214.7325 45.268024 
L 215.403233 45.028747 
L 216.073967 44.191482 
L 216.7447 43.770984 
L 218.086167 44.30983 
L 218.7569 44.701521 
L 220.098367 46.947868 
L 220.7691 47.818982 
L 221.439833 47.80624 
L 222.110567 47.673064 
L 222.7813 49.989185 
L 223.452033 51.580245 
L 224.7935 53.40247 
L 225.464233 54.1778 
L 226.134967 54.230275 
L 226.8057 53.970767 
L 227.476433 54.481004 
L 228.147167 55.510659 
L 228.8179 57.441484 
L 229.488633 55.366918 
L 230.159367 53.704457 
L 230.8301 52.740438 
L 231.500833 52.960228 
L 232.171567 54.773508 
L 232.8423 57.316359 
L 233.513033 66.555886 
L 235.525233 113.08419 
L 238.8789 193.535727 
L 239.549633 207.515774 
L 239.549633 207.515774 
" clip-path="url(#pcf416b9ef8)" style="fill: none; stroke: #9faed5; stroke-width: 2.5; stroke-linecap: square"/>
   </g>
   <g id="line2d_30">
    <path d="M 39.000367 158.05745 
L 40.341833 172.825602 
L 41.6833 177.651655 
L 42.354033 179.611838 
L 43.024767 180.654995 
L 44.366233 183.020958 
L 45.036967 184.072696 
L 45.7077 184.683164 
L 46.378433 184.939234 
L 47.049167 184.654461 
L 48.390633 186.080464 
L 49.061367 187.346976 
L 50.402833 187.325872 
L 51.7443 188.117955 
L 52.415033 187.760197 
L 53.085767 188.087456 
L 53.7565 189.039717 
L 55.097967 189.684846 
L 55.7687 189.466239 
L 57.110167 190.809792 
L 57.7809 191.194552 
L 59.122367 193.09484 
L 59.7931 193.586773 
L 61.134567 194.264361 
L 62.476033 194.35065 
L 63.146767 194.044559 
L 63.8175 194.104431 
L 64.488233 193.941225 
L 65.158967 193.538921 
L 67.171167 193.222486 
L 67.8419 193.456808 
L 69.183367 193.086354 
L 69.8541 193.306004 
L 70.524833 192.898164 
L 71.195567 192.348045 
L 71.8663 192.056325 
L 73.8785 192.181723 
L 74.549233 191.946323 
L 75.219967 191.849155 
L 75.8907 191.569312 
L 76.561433 191.600825 
L 77.232167 191.97827 
L 77.9029 191.957085 
L 78.573633 191.54245 
L 79.244367 191.358119 
L 79.9151 191.339825 
L 80.585833 191.160842 
L 81.256567 190.745788 
L 83.268767 191.623659 
L 83.9395 192.251956 
L 84.610233 192.423708 
L 85.280967 192.025774 
L 86.622433 191.646287 
L 87.293167 191.914836 
L 88.634633 191.732582 
L 89.305367 191.339633 
L 89.9761 191.09353 
L 90.646833 190.18143 
L 91.317567 189.94358 
L 91.9883 190.328745 
L 93.329767 189.797914 
L 94.0005 189.627444 
L 95.341967 188.564259 
L 96.0127 187.929501 
L 97.354167 187.391071 
L 98.0249 186.331914 
L 98.695633 185.841204 
L 99.366367 185.532941 
L 100.0371 185.084905 
L 100.707833 184.904511 
L 101.378567 185.178552 
L 102.0493 185.604456 
L 102.720033 185.550373 
L 103.390767 184.974171 
L 104.0615 185.195245 
L 104.732233 186.198308 
L 105.402967 186.292772 
L 106.744433 185.498378 
L 107.415167 185.106124 
L 108.0859 184.452842 
L 108.756633 184.053325 
L 109.427367 183.810475 
L 110.0981 183.864326 
L 110.768833 184.184573 
L 112.1103 182.696655 
L 112.781033 182.613073 
L 113.451767 181.948831 
L 114.793233 181.459508 
L 116.1347 181.38242 
L 116.805433 180.92373 
L 117.476167 180.298895 
L 118.1469 179.947627 
L 118.817633 179.751877 
L 119.488367 179.133686 
L 120.1591 178.701083 
L 120.829833 178.795944 
L 121.500567 178.675698 
L 122.1713 177.858202 
L 122.842033 177.530224 
L 123.512767 177.652451 
L 124.1835 177.590667 
L 124.854233 176.728292 
L 125.524967 176.377685 
L 126.1957 176.596757 
L 126.866433 177.101761 
L 127.537167 177.834173 
L 128.878633 178.342049 
L 130.2201 178.194062 
L 131.561567 179.134162 
L 132.2323 178.870484 
L 132.903033 177.678341 
L 133.573767 176.939479 
L 134.2445 176.643182 
L 134.915233 176.048428 
L 135.585967 175.788742 
L 136.2567 175.239451 
L 136.927433 175.293183 
L 137.598167 174.417354 
L 138.2689 174.085429 
L 138.939633 174.086848 
L 140.2811 173.202794 
L 140.951833 172.301465 
L 141.622567 172.001227 
L 142.2933 171.495643 
L 144.3055 170.929975 
L 144.976233 170.233047 
L 145.646967 169.785979 
L 146.988433 169.42815 
L 147.659167 169.583738 
L 148.3299 169.050285 
L 149.000633 169.061869 
L 149.671367 169.244069 
L 150.3421 168.450673 
L 151.012833 167.879298 
L 153.025033 167.462061 
L 153.695767 166.521415 
L 154.3665 165.234364 
L 155.037233 164.322003 
L 156.3787 162.01037 
L 157.720167 161.771208 
L 159.061633 158.219745 
L 159.732367 157.57484 
L 161.073833 157.459846 
L 161.744567 157.050104 
L 163.756767 155.372732 
L 164.4275 155.409027 
L 165.098233 155.594744 
L 165.768967 155.399581 
L 169.122633 152.719158 
L 169.793367 152.24321 
L 170.4641 151.447522 
L 171.134833 150.428997 
L 171.805567 149.734923 
L 172.4763 149.590932 
L 173.147033 148.43315 
L 173.817767 147.498992 
L 174.4885 147.323791 
L 175.159233 147.48967 
L 175.829967 146.42748 
L 176.5007 144.609188 
L 177.171433 144.06862 
L 178.5129 142.615352 
L 179.183633 142.660558 
L 180.5251 140.340756 
L 181.195833 138.642352 
L 181.866567 135.806448 
L 182.5373 133.734302 
L 183.208033 132.826092 
L 183.878767 131.673304 
L 184.5495 130.08005 
L 185.220233 128.140115 
L 186.5617 125.682131 
L 187.232433 123.978159 
L 187.903167 122.663379 
L 188.5739 122.382565 
L 189.244633 120.715911 
L 191.256833 114.399731 
L 191.927567 113.467797 
L 193.269033 110.204926 
L 193.939767 108.993402 
L 196.6227 102.642915 
L 197.964167 97.683604 
L 199.305633 90.662126 
L 199.976367 87.0716 
L 201.317833 81.954155 
L 202.6593 74.14862 
L 203.330033 70.162484 
L 204.6715 65.832811 
L 206.6837 60.762546 
L 208.025167 56.464449 
L 208.6959 55.754636 
L 209.366633 56.438421 
L 210.037367 56.225027 
L 210.7081 54.477761 
L 211.378833 53.192952 
L 212.049567 52.776233 
L 212.7203 52.14231 
L 214.061767 50.502885 
L 215.403233 49.42339 
L 216.7447 48.415544 
L 218.086167 49.273495 
L 219.427633 53.533096 
L 220.098367 55.146718 
L 221.439833 56.929487 
L 222.110567 58.302647 
L 222.7813 58.687314 
L 223.452033 59.67266 
L 224.122767 60.880208 
L 224.7935 61.498294 
L 225.464233 61.243899 
L 226.134967 60.187075 
L 226.8057 60.244166 
L 228.147167 59.816408 
L 228.8179 60.293566 
L 230.159367 57.280032 
L 230.8301 55.074203 
L 231.500833 54.809522 
L 232.171567 55.918904 
L 232.8423 58.915625 
L 233.513033 67.808301 
L 235.525233 112.642336 
L 238.208167 180.531656 
L 239.549633 207.637994 
L 239.549633 207.637994 
" clip-path="url(#pcf416b9ef8)" style="fill: none; stroke: #f2d4e2; stroke-width: 2.5; stroke-linecap: square"/>
   </g>
   <g id="line2d_31">
    <path d="M 239.885 216.6145 
L 239.885 20.4945 
" clip-path="url(#pcf416b9ef8)" style="fill: none; stroke-dasharray: 3.7,1.6; stroke-dashoffset: 0; stroke: #ff0000; stroke-opacity: 0.5"/>
   </g>
   <g id="patch_3">
    <path d="M 38.665 216.6145 
L 38.665 20.4945 
" style="fill: none; stroke: #000000; stroke-width: 0.8; stroke-linejoin: miter; stroke-linecap: square"/>
   </g>
   <g id="patch_4">
    <path d="M 239.885 216.6145 
L 239.885 20.4945 
" style="fill: none; stroke: #000000; stroke-width: 0.8; stroke-linejoin: miter; stroke-linecap: square"/>
   </g>
   <g id="patch_5">
    <path d="M 38.665 216.6145 
L 239.885 216.6145 
" style="fill: none; stroke: #000000; stroke-width: 0.8; stroke-linejoin: miter; stroke-linecap: square"/>
   </g>
   <g id="patch_6">
    <path d="M 38.665 20.4945 
L 239.885 20.4945 
" style="fill: none; stroke: #000000; stroke-width: 0.8; stroke-linejoin: miter; stroke-linecap: square"/>
   </g>
   <g id="text_16">
    <text style="font: 9.6px 'DejaVu Sans', 'Bitstream Vera Sans', 'Computer Modern Sans Serif', 'Lucida Grande', 'Verdana', 'Geneva', 'Lucid', 'Arial', 'Helvetica', 'Avant Garde', sans-serif; text-anchor: middle" x="139.275" y="14.4945" transform="rotate(-0 139.275 14.4945)">SPAM: L coverage (TES-aligned)</text>
   </g>
   <g id="legend_1">
    <g id="patch_7">
     <path d="M 43.565 77.467938 
L 141.445781 77.467938 
Q 142.845781 77.467938 142.845781 76.067937 
L 142.845781 25.3945 
Q 142.845781 23.9945 141.445781 23.9945 
L 43.565 23.9945 
Q 42.165 23.9945 42.165 25.3945 
L 42.165 76.067937 
Q 42.165 77.467938 43.565 77.467938 
z
" style="fill: #ffffff; opacity: 0.95; stroke: #cccccc; stroke-linejoin: miter"/>
    </g>
    <g id="line2d_32">
     <path d="M 44.965 29.663406 
L 51.965 29.663406 
L 58.965 29.663406 
" style="fill: none; stroke: #bbe5f0; stroke-width: 2.5; stroke-linecap: square"/>
    </g>
    <g id="text_17">
     <text style="font: 7px 'DejaVu Sans', 'Bitstream Vera Sans', 'Computer Modern Sans Serif', 'Lucida Grande', 'Verdana', 'Geneva', 'Lucid', 'Arial', 'Helvetica', 'Avant Garde', sans-serif; text-anchor: start" x="64.565" y="32.113406" transform="rotate(-0 64.565 32.113406)">NTVE-L</text>
    </g>
    <g id="line2d_33">
     <path d="M 44.965 39.938094 
L 51.965 39.938094 
L 58.965 39.938094 
" style="fill: none; stroke: #ff6b6b; stroke-width: 2.5; stroke-linecap: square"/>
    </g>
    <g id="text_18">
     <text style="font: 7px 'DejaVu Sans', 'Bitstream Vera Sans', 'Computer Modern Sans Serif', 'Lucida Grande', 'Verdana', 'Geneva', 'Lucid', 'Arial', 'Helvetica', 'Avant Garde', sans-serif; text-anchor: start" x="64.565" y="42.388094" transform="rotate(-0 64.565 42.388094)">HIV-gag:sPAM2 (p6)-L</text>
    </g>
    <g id="line2d_34">
     <path d="M 44.965 50.212781 
L 51.965 50.212781 
L 58.965 50.212781 
" style="fill: none; stroke: #9faed5; stroke-width: 2.5; stroke-linecap: square"/>
    </g>
    <g id="text_19">
     <text style="font: 7px 'DejaVu Sans', 'Bitstream Vera Sans', 'Computer Modern Sans Serif', 'Lucida Grande', 'Verdana', 'Geneva', 'Lucid', 'Arial', 'Helvetica', 'Avant Garde', sans-serif; text-anchor: start" x="64.565" y="52.662781" transform="rotate(-0 64.565 52.662781)">HIV-gag WT-L</text>
    </g>
    <g id="line2d_35">
     <path d="M 44.965 60.487469 
L 51.965 60.487469 
L 58.965 60.487469 
" style="fill: none; stroke: #f2d4e2; stroke-width: 2.5; stroke-linecap: square"/>
    </g>
    <g id="text_20">
     <text style="font: 7px 'DejaVu Sans', 'Bitstream Vera Sans', 'Computer Modern Sans Serif', 'Lucida Grande', 'Verdana', 'Geneva', 'Lucid', 'Arial', 'Helvetica', 'Avant Garde', sans-serif; text-anchor: start" x="64.565" y="62.937469" transform="rotate(-0 64.565 62.937469)">mini-gag:PABP-L</text>
    </g>
    <g id="line2d_36">
     <path d="M 44.965 70.762156 
L 51.965 70.762156 
L 58.965 70.762156 
" style="fill: none; stroke-dasharray: 3.7,1.6; stroke-dashoffset: 0; stroke: #ff0000; stroke-opacity: 0.5"/>
    </g>
    <g id="text_21">
     <text style="font: 7px 'DejaVu Sans', 'Bitstream Vera Sans', 'Computer Modern Sans Serif', 'Lucida Grande', 'Verdana', 'Geneva', 'Lucid', 'Arial', 'Helvetica', 'Avant Garde', sans-serif; text-anchor: start" x="64.565" y="73.212156" transform="rotate(-0 64.565 73.212156)">TES</text>
    </g>
   </g>
  </g>
 </g>
 <defs>
  <clipPath id="pcf416b9ef8">
   <rect x="38.665" y="20.4945" width="201.22" height="196.12"/>
  </clipPath>
 </defs>
</svg>
