<?xml version="1.0" encoding="utf-8" standalone="no"?>
<!DOCTYPE svg PUBLIC "-//W3C//DTD SVG 1.1//EN"
  "http://www.w3.org/Graphics/SVG/1.1/DTD/svg11.dtd">
<svg xmlns:xlink="http://www.w3.org/1999/xlink" width="596.775pt" height="281.020938pt" viewBox="0 0 596.775 281.020938" xmlns="http://www.w3.org/2000/svg" version="1.1">
 <metadata>
  <rdf:RDF xmlns:dc="http://purl.org/dc/elements/1.1/" xmlns:cc="http://creativecommons.org/ns#" xmlns:rdf="http://www.w3.org/1999/02/22-rdf-syntax-ns#">
   <cc:Work>
    <dc:type rdf:resource="http://purl.org/dc/dcmitype/StillImage"/>
    <dc:date>2026-04-01T15:27:09.369126</dc:date>
    <dc:format>image/svg+xml</dc:format>
    <dc:creator>
     <cc:Agent>
      <dc:title>Matplotlib v3.9.0, https://matplotlib.org/</dc:title>
     </cc:Agent>
    </dc:creator>
   </cc:Work>
  </rdf:RDF>
 </metadata>
 <defs>
  <style type="text/css">*{stroke-linejoin: round; stroke-linecap: butt}</style>
 </defs>
 <g id="figure_1">
  <g id="patch_1">
   <path d="M 0 281.020938 
L 596.775 281.020938 
L 596.775 0 
L 0 0 
z
" style="fill: #ffffff"/>
  </g>
  <g id="axes_1">
   <g id="patch_2">
    <path d="M 238.655 273.820938 
L 589.575 273.820938 
L 589.575 30.040938 
L 238.655 30.040938 
z
" style="fill: #ffffff"/>
   </g>
   <g id="line2d_1">
    <path d="M 243.815588 42.229938 
L 584.414412 42.229938 
" clip-path="url(#pc7d15e88b6)" style="fill: none; stroke: #efefef; stroke-width: 14; stroke-linecap: round"/>
   </g>
   <g id="line2d_2">
    <path d="M 243.815588 66.607938 
L 584.414412 66.607938 
" clip-path="url(#pc7d15e88b6)" style="fill: none; stroke: #efefef; stroke-width: 14; stroke-linecap: round"/>
   </g>
   <g id="line2d_3">
    <path d="M 243.815588 90.985938 
L 584.414412 90.985938 
" clip-path="url(#pc7d15e88b6)" style="fill: none; stroke: #efefef; stroke-width: 14; stroke-linecap: round"/>
   </g>
   <g id="line2d_4">
    <path d="M 243.815588 115.363938 
L 584.414412 115.363938 
" clip-path="url(#pc7d15e88b6)" style="fill: none; stroke: #efefef; stroke-width: 14; stroke-linecap: round"/>
   </g>
   <g id="line2d_5">
    <path d="M 243.815588 139.741938 
L 584.414412 139.741938 
" clip-path="url(#pc7d15e88b6)" style="fill: none; stroke: #efefef; stroke-width: 14; stroke-linecap: round"/>
   </g>
   <g id="line2d_6">
    <path d="M 243.815588 164.119937 
L 584.414412 164.119937 
" clip-path="url(#pc7d15e88b6)" style="fill: none; stroke: #efefef; stroke-width: 14; stroke-linecap: round"/>
   </g>
   <g id="line2d_7">
    <path d="M 243.815588 188.497938 
L 584.414412 188.497938 
" clip-path="url(#pc7d15e88b6)" style="fill: none; stroke: #efefef; stroke-width: 14; stroke-linecap: round"/>
   </g>
   <g id="line2d_8">
    <path d="M 243.815588 212.875938 
L 584.414412 212.875938 
" clip-path="url(#pc7d15e88b6)" style="fill: none; stroke: #efefef; stroke-width: 14; stroke-linecap: round"/>
   </g>
   <g id="line2d_9">
    <path d="M 243.815588 237.253938 
L 584.414412 237.253938 
" clip-path="url(#pc7d15e88b6)" style="fill: none; stroke: #efefef; stroke-width: 14; stroke-linecap: round"/>
   </g>
   <g id="line2d_10">
    <path d="M 243.815588 261.631937 
L 584.414412 261.631937 
" clip-path="url(#pc7d15e88b6)" style="fill: none; stroke: #efefef; stroke-width: 14; stroke-linecap: round"/>
   </g>
   <g id="line2d_11">
    <path d="M 242.095392 273.820938 
L 242.095392 30.040938 
" clip-path="url(#pc7d15e88b6)" style="fill: none; stroke-dasharray: 1.2,1.2; stroke-dashoffset: 0; stroke: #999999; stroke-width: 0.6"/>
   </g>
   <g id="line2d_12">
    <path d="M 276.499314 273.820938 
L 276.499314 30.040938 
" clip-path="url(#pc7d15e88b6)" style="fill: none; stroke-dasharray: 1.2,1.2; stroke-dashoffset: 0; stroke: #999999; stroke-width: 0.6"/>
   </g>
   <g id="line2d_13">
    <path d="M 310.903235 273.820938 
L 310.903235 30.040938 
" clip-path="url(#pc7d15e88b6)" style="fill: none; stroke-dasharray: 1.2,1.2; stroke-dashoffset: 0; stroke: #999999; stroke-width: 0.6"/>
   </g>
   <g id="line2d_14">
    <path d="M 345.307157 273.820938 
L 345.307157 30.040938 
" clip-path="url(#pc7d15e88b6)" style="fill: none; stroke-dasharray: 1.2,1.2; stroke-dashoffset: 0; stroke: #999999; stroke-width: 0.6"/>
   </g>
   <g id="line2d_15">
    <path d="M 379.711078 273.820938 
L 379.711078 30.040938 
" clip-path="url(#pc7d15e88b6)" style="fill: none; stroke-dasharray: 1.2,1.2; stroke-dashoffset: 0; stroke: #999999; stroke-width: 0.6"/>
   </g>
   <g id="line2d_16">
    <path d="M 414.115 273.820938 
L 414.115 30.040938 
" clip-path="url(#pc7d15e88b6)" style="fill: none; stroke-dasharray: 1.2,1.2; stroke-dashoffset: 0; stroke: #999999; stroke-width: 0.6"/>
   </g>
   <g id="line2d_17">
    <path d="M 448.518922 273.820938 
L 448.518922 30.040938 
" clip-path="url(#pc7d15e88b6)" style="fill: none; stroke-dasharray: 1.2,1.2; stroke-dashoffset: 0; stroke: #999999; stroke-width: 0.6"/>
   </g>
   <g id="line2d_18">
    <path d="M 482.922843 273.820938 
L 482.922843 30.040938 
" clip-path="url(#pc7d15e88b6)" style="fill: none; stroke-dasharray: 1.2,1.2; stroke-dashoffset: 0; stroke: #999999; stroke-width: 0.6"/>
   </g>
   <g id="line2d_19">
    <path d="M 517.326765 273.820938 
L 517.326765 30.040938 
" clip-path="url(#pc7d15e88b6)" style="fill: none; stroke-dasharray: 1.2,1.2; stroke-dashoffset: 0; stroke: #999999; stroke-width: 0.6"/>
   </g>
   <g id="line2d_20">
    <path d="M 551.730686 273.820938 
L 551.730686 30.040938 
" clip-path="url(#pc7d15e88b6)" style="fill: none; stroke-dasharray: 1.2,1.2; stroke-dashoffset: 0; stroke: #999999; stroke-width: 0.6"/>
   </g>
   <g id="line2d_21">
    <path d="M 586.134608 273.820938 
L 586.134608 30.040938 
" clip-path="url(#pc7d15e88b6)" style="fill: none; stroke-dasharray: 1.2,1.2; stroke-dashoffset: 0; stroke: #999999; stroke-width: 0.6"/>
   </g>
   <g id="matplotlib.axis_1">
    <g id="xtick_1">
     <g id="line2d_22"/>
     <g id="text_1">
      <!-- d0 -->
      <g transform="translate(254.212978 24.877187) scale(0.08 -0.08)">
       <defs>
        <path id="DejaVuSans-64" d="M 2906 2969 
L 2906 4863 
L 3481 4863 
L 3481 0 
L 2906 0 
L 2906 525 
Q 2725 213 2448 61 
Q 2172 -91 1784 -91 
Q 1150 -91 751 415 
Q 353 922 353 1747 
Q 353 2572 751 3078 
Q 1150 3584 1784 3584 
Q 2172 3584 2448 3432 
Q 2725 3281 2906 2969 
z
M 947 1747 
Q 947 1113 1208 752 
Q 1469 391 1925 391 
Q 2381 391 2643 752 
Q 2906 1113 2906 1747 
Q 2906 2381 2643 2742 
Q 2381 3103 1925 3103 
Q 1469 3103 1208 2742 
Q 947 2381 947 1747 
z
" transform="scale(0.015625)"/>
        <path id="DejaVuSans-30" d="M 2034 4250 
Q 1547 4250 1301 3770 
Q 1056 3291 1056 2328 
Q 1056 1369 1301 889 
Q 1547 409 2034 409 
Q 2525 409 2770 889 
Q 3016 1369 3016 2328 
Q 3016 3291 2770 3770 
Q 2525 4250 2034 4250 
z
M 2034 4750 
Q 2819 4750 3233 4129 
Q 3647 3509 3647 2328 
Q 3647 1150 3233 529 
Q 2819 -91 2034 -91 
Q 1250 -91 836 529 
Q 422 1150 422 2328 
Q 422 3509 836 4129 
Q 1250 4750 2034 4750 
z
" transform="scale(0.015625)"/>
       </defs>
       <use xlink:href="#DejaVuSans-64"/>
       <use xlink:href="#DejaVuSans-30" x="63.476562"/>
      </g>
     </g>
    </g>
    <g id="xtick_2">
     <g id="line2d_23"/>
     <g id="text_2">
      <!-- d1 -->
      <g transform="translate(288.6169 24.877187) scale(0.08 -0.08)">
       <defs>
        <path id="DejaVuSans-31" d="M 794 531 
L 1825 531 
L 1825 4091 
L 703 3866 
L 703 4441 
L 1819 4666 
L 2450 4666 
L 2450 531 
L 3481 531 
L 3481 0 
L 794 0 
L 794 531 
z
" transform="scale(0.015625)"/>
       </defs>
       <use xlink:href="#DejaVuSans-64"/>
       <use xlink:href="#DejaVuSans-31" x="63.476562"/>
      </g>
     </g>
    </g>
    <g id="xtick_3">
     <g id="line2d_24"/>
     <g id="text_3">
      <!-- d2 -->
      <g transform="translate(323.020821 24.877187) scale(0.08 -0.08)">
       <defs>
        <path id="DejaVuSans-32" d="M 1228 531 
L 3431 531 
L 3431 0 
L 469 0 
L 469 531 
Q 828 903 1448 1529 
Q 2069 2156 2228 2338 
Q 2531 2678 2651 2914 
Q 2772 3150 2772 3378 
Q 2772 3750 2511 3984 
Q 2250 4219 1831 4219 
Q 1534 4219 1204 4116 
Q 875 4013 500 3803 
L 500 4441 
Q 881 4594 1212 4672 
Q 1544 4750 1819 4750 
Q 2544 4750 2975 4387 
Q 3406 4025 3406 3419 
Q 3406 3131 3298 2873 
Q 3191 2616 2906 2266 
Q 2828 2175 2409 1742 
Q 1991 1309 1228 531 
z
" transform="scale(0.015625)"/>
       </defs>
       <use xlink:href="#DejaVuSans-64"/>
       <use xlink:href="#DejaVuSans-32" x="63.476562"/>
      </g>
     </g>
    </g>
    <g id="xtick_4">
     <g id="line2d_25"/>
     <g id="text_4">
      <!-- d3 -->
      <g transform="translate(357.424743 24.877187) scale(0.08 -0.08)">
       <defs>
        <path id="DejaVuSans-33" d="M 2597 2516 
Q 3050 2419 3304 2112 
Q 3559 1806 3559 1356 
Q 3559 666 3084 287 
Q 2609 -91 1734 -91 
Q 1441 -91 1130 -33 
Q 819 25 488 141 
L 488 750 
Q 750 597 1062 519 
Q 1375 441 1716 441 
Q 2309 441 2620 675 
Q 2931 909 2931 1356 
Q 2931 1769 2642 2001 
Q 2353 2234 1838 2234 
L 1294 2234 
L 1294 2753 
L 1863 2753 
Q 2328 2753 2575 2939 
Q 2822 3125 2822 3475 
Q 2822 3834 2567 4026 
Q 2313 4219 1838 4219 
Q 1578 4219 1281 4162 
Q 984 4106 628 3988 
L 628 4550 
Q 988 4650 1302 4700 
Q 1616 4750 1894 4750 
Q 2613 4750 3031 4423 
Q 3450 4097 3450 3541 
Q 3450 3153 3228 2886 
Q 3006 2619 2597 2516 
z
" transform="scale(0.015625)"/>
       </defs>
       <use xlink:href="#DejaVuSans-64"/>
       <use xlink:href="#DejaVuSans-33" x="63.476562"/>
      </g>
     </g>
    </g>
    <g id="xtick_5">
     <g id="line2d_26"/>
     <g id="text_5">
      <!-- d4 -->
      <g transform="translate(391.828664 24.877187) scale(0.08 -0.08)">
       <defs>
        <path id="DejaVuSans-34" d="M 2419 4116 
L 825 1625 
L 2419 1625 
L 2419 4116 
z
M 2253 4666 
L 3047 4666 
L 3047 1625 
L 3713 1625 
L 3713 1100 
L 3047 1100 
L 3047 0 
L 2419 0 
L 2419 1100 
L 313 1100 
L 313 1709 
L 2253 4666 
z
" transform="scale(0.015625)"/>
       </defs>
       <use xlink:href="#DejaVuSans-64"/>
       <use xlink:href="#DejaVuSans-34" x="63.476562"/>
      </g>
     </g>
    </g>
    <g id="xtick_6">
     <g id="line2d_27"/>
     <g id="text_6">
      <!-- d5 -->
      <g transform="translate(426.232586 24.877187) scale(0.08 -0.08)">
       <defs>
        <path id="DejaVuSans-35" d="M 691 4666 
L 3169 4666 
L 3169 4134 
L 1269 4134 
L 1269 2991 
Q 1406 3038 1543 3061 
Q 1681 3084 1819 3084 
Q 2600 3084 3056 2656 
Q 3513 2228 3513 1497 
Q 3513 744 3044 326 
Q 2575 -91 1722 -91 
Q 1428 -91 1123 -41 
Q 819 9 494 109 
L 494 744 
Q 775 591 1075 516 
Q 1375 441 1709 441 
Q 2250 441 2565 725 
Q 2881 1009 2881 1497 
Q 2881 1984 2565 2268 
Q 2250 2553 1709 2553 
Q 1456 2553 1204 2497 
Q 953 2441 691 2322 
L 691 4666 
z
" transform="scale(0.015625)"/>
       </defs>
       <use xlink:href="#DejaVuSans-64"/>
       <use xlink:href="#DejaVuSans-35" x="63.476562"/>
      </g>
     </g>
    </g>
    <g id="xtick_7">
     <g id="line2d_28"/>
     <g id="text_7">
      <!-- d6 -->
      <g transform="translate(460.636507 24.877187) scale(0.08 -0.08)">
       <defs>
        <path id="DejaVuSans-36" d="M 2113 2584 
Q 1688 2584 1439 2293 
Q 1191 2003 1191 1497 
Q 1191 994 1439 701 
Q 1688 409 2113 409 
Q 2538 409 2786 701 
Q 3034 994 3034 1497 
Q 3034 2003 2786 2293 
Q 2538 2584 2113 2584 
z
M 3366 4563 
L 3366 3988 
Q 3128 4100 2886 4159 
Q 2644 4219 2406 4219 
Q 1781 4219 1451 3797 
Q 1122 3375 1075 2522 
Q 1259 2794 1537 2939 
Q 1816 3084 2150 3084 
Q 2853 3084 3261 2657 
Q 3669 2231 3669 1497 
Q 3669 778 3244 343 
Q 2819 -91 2113 -91 
Q 1303 -91 875 529 
Q 447 1150 447 2328 
Q 447 3434 972 4092 
Q 1497 4750 2381 4750 
Q 2619 4750 2861 4703 
Q 3103 4656 3366 4563 
z
" transform="scale(0.015625)"/>
       </defs>
       <use xlink:href="#DejaVuSans-64"/>
       <use xlink:href="#DejaVuSans-36" x="63.476562"/>
      </g>
     </g>
    </g>
    <g id="xtick_8">
     <g id="line2d_29"/>
     <g id="text_8">
      <!-- d7 -->
      <g transform="translate(495.040429 24.877187) scale(0.08 -0.08)">
       <defs>
        <path id="DejaVuSans-37" d="M 525 4666 
L 3525 4666 
L 3525 4397 
L 1831 0 
L 1172 0 
L 2766 4134 
L 525 4134 
L 525 4666 
z
" transform="scale(0.015625)"/>
       </defs>
       <use xlink:href="#DejaVuSans-64"/>
       <use xlink:href="#DejaVuSans-37" x="63.476562"/>
      </g>
     </g>
    </g>
    <g id="xtick_9">
     <g id="line2d_30"/>
     <g id="text_9">
      <!-- d8 -->
      <g transform="translate(529.44435 24.877187) scale(0.08 -0.08)">
       <defs>
        <path id="DejaVuSans-38" d="M 2034 2216 
Q 1584 2216 1326 1975 
Q 1069 1734 1069 1313 
Q 1069 891 1326 650 
Q 1584 409 2034 409 
Q 2484 409 2743 651 
Q 3003 894 3003 1313 
Q 3003 1734 2745 1975 
Q 2488 2216 2034 2216 
z
M 1403 2484 
Q 997 2584 770 2862 
Q 544 3141 544 3541 
Q 544 4100 942 4425 
Q 1341 4750 2034 4750 
Q 2731 4750 3128 4425 
Q 3525 4100 3525 3541 
Q 3525 3141 3298 2862 
Q 3072 2584 2669 2484 
Q 3125 2378 3379 2068 
Q 3634 1759 3634 1313 
Q 3634 634 3220 271 
Q 2806 -91 2034 -91 
Q 1263 -91 848 271 
Q 434 634 434 1313 
Q 434 1759 690 2068 
Q 947 2378 1403 2484 
z
M 1172 3481 
Q 1172 3119 1398 2916 
Q 1625 2713 2034 2713 
Q 2441 2713 2670 2916 
Q 2900 3119 2900 3481 
Q 2900 3844 2670 4047 
Q 2441 4250 2034 4250 
Q 1625 4250 1398 4047 
Q 1172 3844 1172 3481 
z
" transform="scale(0.015625)"/>
       </defs>
       <use xlink:href="#DejaVuSans-64"/>
       <use xlink:href="#DejaVuSans-38" x="63.476562"/>
      </g>
     </g>
    </g>
    <g id="xtick_10">
     <g id="line2d_31"/>
     <g id="text_10">
      <!-- d9 -->
      <g transform="translate(563.848272 24.877187) scale(0.08 -0.08)">
       <defs>
        <path id="DejaVuSans-39" d="M 703 97 
L 703 672 
Q 941 559 1184 500 
Q 1428 441 1663 441 
Q 2288 441 2617 861 
Q 2947 1281 2994 2138 
Q 2813 1869 2534 1725 
Q 2256 1581 1919 1581 
Q 1219 1581 811 2004 
Q 403 2428 403 3163 
Q 403 3881 828 4315 
Q 1253 4750 1959 4750 
Q 2769 4750 3195 4129 
Q 3622 3509 3622 2328 
Q 3622 1225 3098 567 
Q 2575 -91 1691 -91 
Q 1453 -91 1209 -44 
Q 966 3 703 97 
z
M 1959 2075 
Q 2384 2075 2632 2365 
Q 2881 2656 2881 3163 
Q 2881 3666 2632 3958 
Q 2384 4250 1959 4250 
Q 1534 4250 1286 3958 
Q 1038 3666 1038 3163 
Q 1038 2656 1286 2365 
Q 1534 2075 1959 2075 
z
" transform="scale(0.015625)"/>
       </defs>
       <use xlink:href="#DejaVuSans-64"/>
       <use xlink:href="#DejaVuSans-39" x="63.476562"/>
      </g>
     </g>
    </g>
   </g>
   <g id="matplotlib.axis_2">
    <g id="ytick_1">
     <g id="line2d_32"/>
     <g id="text_11">
      <!-- contractile muscle fiber -->
      <g transform="translate(140.57375 45.269313) scale(0.08 -0.08)">
       <defs>
        <path id="DejaVuSans-63" d="M 3122 3366 
L 3122 2828 
Q 2878 2963 2633 3030 
Q 2388 3097 2138 3097 
Q 1578 3097 1268 2742 
Q 959 2388 959 1747 
Q 959 1106 1268 751 
Q 1578 397 2138 397 
Q 2388 397 2633 464 
Q 2878 531 3122 666 
L 3122 134 
Q 2881 22 2623 -34 
Q 2366 -91 2075 -91 
Q 1284 -91 818 406 
Q 353 903 353 1747 
Q 353 2603 823 3093 
Q 1294 3584 2113 3584 
Q 2378 3584 2631 3529 
Q 2884 3475 3122 3366 
z
" transform="scale(0.015625)"/>
        <path id="DejaVuSans-6f" d="M 1959 3097 
Q 1497 3097 1228 2736 
Q 959 2375 959 1747 
Q 959 1119 1226 758 
Q 1494 397 1959 397 
Q 2419 397 2687 759 
Q 2956 1122 2956 1747 
Q 2956 2369 2687 2733 
Q 2419 3097 1959 3097 
z
M 1959 3584 
Q 2709 3584 3137 3096 
Q 3566 2609 3566 1747 
Q 3566 888 3137 398 
Q 2709 -91 1959 -91 
Q 1206 -91 779 398 
Q 353 888 353 1747 
Q 353 2609 779 3096 
Q 1206 3584 1959 3584 
z
" transform="scale(0.015625)"/>
        <path id="DejaVuSans-6e" d="M 3513 2113 
L 3513 0 
L 2938 0 
L 2938 2094 
Q 2938 2591 2744 2837 
Q 2550 3084 2163 3084 
Q 1697 3084 1428 2787 
Q 1159 2491 1159 1978 
L 1159 0 
L 581 0 
L 581 3500 
L 1159 3500 
L 1159 2956 
Q 1366 3272 1645 3428 
Q 1925 3584 2291 3584 
Q 2894 3584 3203 3211 
Q 3513 2838 3513 2113 
z
" transform="scale(0.015625)"/>
        <path id="DejaVuSans-74" d="M 1172 4494 
L 1172 3500 
L 2356 3500 
L 2356 3053 
L 1172 3053 
L 1172 1153 
Q 1172 725 1289 603 
Q 1406 481 1766 481 
L 2356 481 
L 2356 0 
L 1766 0 
Q 1100 0 847 248 
Q 594 497 594 1153 
L 594 3053 
L 172 3053 
L 172 3500 
L 594 3500 
L 594 4494 
L 1172 4494 
z
" transform="scale(0.015625)"/>
        <path id="DejaVuSans-72" d="M 2631 2963 
Q 2534 3019 2420 3045 
Q 2306 3072 2169 3072 
Q 1681 3072 1420 2755 
Q 1159 2438 1159 1844 
L 1159 0 
L 581 0 
L 581 3500 
L 1159 3500 
L 1159 2956 
Q 1341 3275 1631 3429 
Q 1922 3584 2338 3584 
Q 2397 3584 2469 3576 
Q 2541 3569 2628 3553 
L 2631 2963 
z
" transform="scale(0.015625)"/>
        <path id="DejaVuSans-61" d="M 2194 1759 
Q 1497 1759 1228 1600 
Q 959 1441 959 1056 
Q 959 750 1161 570 
Q 1363 391 1709 391 
Q 2188 391 2477 730 
Q 2766 1069 2766 1631 
L 2766 1759 
L 2194 1759 
z
M 3341 1997 
L 3341 0 
L 2766 0 
L 2766 531 
Q 2569 213 2275 61 
Q 1981 -91 1556 -91 
Q 1019 -91 701 211 
Q 384 513 384 1019 
Q 384 1609 779 1909 
Q 1175 2209 1959 2209 
L 2766 2209 
L 2766 2266 
Q 2766 2663 2505 2880 
Q 2244 3097 1772 3097 
Q 1472 3097 1187 3025 
Q 903 2953 641 2809 
L 641 3341 
Q 956 3463 1253 3523 
Q 1550 3584 1831 3584 
Q 2591 3584 2966 3190 
Q 3341 2797 3341 1997 
z
" transform="scale(0.015625)"/>
        <path id="DejaVuSans-69" d="M 603 3500 
L 1178 3500 
L 1178 0 
L 603 0 
L 603 3500 
z
M 603 4863 
L 1178 4863 
L 1178 4134 
L 603 4134 
L 603 4863 
z
" transform="scale(0.015625)"/>
        <path id="DejaVuSans-6c" d="M 603 4863 
L 1178 4863 
L 1178 0 
L 603 0 
L 603 4863 
z
" transform="scale(0.015625)"/>
        <path id="DejaVuSans-65" d="M 3597 1894 
L 3597 1613 
L 953 1613 
Q 991 1019 1311 708 
Q 1631 397 2203 397 
Q 2534 397 2845 478 
Q 3156 559 3463 722 
L 3463 178 
Q 3153 47 2828 -22 
Q 2503 -91 2169 -91 
Q 1331 -91 842 396 
Q 353 884 353 1716 
Q 353 2575 817 3079 
Q 1281 3584 2069 3584 
Q 2775 3584 3186 3129 
Q 3597 2675 3597 1894 
z
M 3022 2063 
Q 3016 2534 2758 2815 
Q 2500 3097 2075 3097 
Q 1594 3097 1305 2825 
Q 1016 2553 972 2059 
L 3022 2063 
z
" transform="scale(0.015625)"/>
        <path id="DejaVuSans-20" transform="scale(0.015625)"/>
        <path id="DejaVuSans-6d" d="M 3328 2828 
Q 3544 3216 3844 3400 
Q 4144 3584 4550 3584 
Q 5097 3584 5394 3201 
Q 5691 2819 5691 2113 
L 5691 0 
L 5113 0 
L 5113 2094 
Q 5113 2597 4934 2840 
Q 4756 3084 4391 3084 
Q 3944 3084 3684 2787 
Q 3425 2491 3425 1978 
L 3425 0 
L 2847 0 
L 2847 2094 
Q 2847 2600 2669 2842 
Q 2491 3084 2119 3084 
Q 1678 3084 1418 2786 
Q 1159 2488 1159 1978 
L 1159 0 
L 581 0 
L 581 3500 
L 1159 3500 
L 1159 2956 
Q 1356 3278 1631 3431 
Q 1906 3584 2284 3584 
Q 2666 3584 2933 3390 
Q 3200 3197 3328 2828 
z
" transform="scale(0.015625)"/>
        <path id="DejaVuSans-75" d="M 544 1381 
L 544 3500 
L 1119 3500 
L 1119 1403 
Q 1119 906 1312 657 
Q 1506 409 1894 409 
Q 2359 409 2629 706 
Q 2900 1003 2900 1516 
L 2900 3500 
L 3475 3500 
L 3475 0 
L 2900 0 
L 2900 538 
Q 2691 219 2414 64 
Q 2138 -91 1772 -91 
Q 1169 -91 856 284 
Q 544 659 544 1381 
z
M 1991 3584 
L 1991 3584 
z
" transform="scale(0.015625)"/>
        <path id="DejaVuSans-73" d="M 2834 3397 
L 2834 2853 
Q 2591 2978 2328 3040 
Q 2066 3103 1784 3103 
Q 1356 3103 1142 2972 
Q 928 2841 928 2578 
Q 928 2378 1081 2264 
Q 1234 2150 1697 2047 
L 1894 2003 
Q 2506 1872 2764 1633 
Q 3022 1394 3022 966 
Q 3022 478 2636 193 
Q 2250 -91 1575 -91 
Q 1294 -91 989 -36 
Q 684 19 347 128 
L 347 722 
Q 666 556 975 473 
Q 1284 391 1588 391 
Q 1994 391 2212 530 
Q 2431 669 2431 922 
Q 2431 1156 2273 1281 
Q 2116 1406 1581 1522 
L 1381 1569 
Q 847 1681 609 1914 
Q 372 2147 372 2553 
Q 372 3047 722 3315 
Q 1072 3584 1716 3584 
Q 2034 3584 2315 3537 
Q 2597 3491 2834 3397 
z
" transform="scale(0.015625)"/>
        <path id="DejaVuSans-66" d="M 2375 4863 
L 2375 4384 
L 1825 4384 
Q 1516 4384 1395 4259 
Q 1275 4134 1275 3809 
L 1275 3500 
L 2222 3500 
L 2222 3053 
L 1275 3053 
L 1275 0 
L 697 0 
L 697 3053 
L 147 3053 
L 147 3500 
L 697 3500 
L 697 3744 
Q 697 4328 969 4595 
Q 1241 4863 1831 4863 
L 2375 4863 
z
" transform="scale(0.015625)"/>
        <path id="DejaVuSans-62" d="M 3116 1747 
Q 3116 2381 2855 2742 
Q 2594 3103 2138 3103 
Q 1681 3103 1420 2742 
Q 1159 2381 1159 1747 
Q 1159 1113 1420 752 
Q 1681 391 2138 391 
Q 2594 391 2855 752 
Q 3116 1113 3116 1747 
z
M 1159 2969 
Q 1341 3281 1617 3432 
Q 1894 3584 2278 3584 
Q 2916 3584 3314 3078 
Q 3713 2572 3713 1747 
Q 3713 922 3314 415 
Q 2916 -91 2278 -91 
Q 1894 -91 1617 61 
Q 1341 213 1159 525 
L 1159 0 
L 581 0 
L 581 4863 
L 1159 4863 
L 1159 2969 
z
" transform="scale(0.015625)"/>
       </defs>
       <use xlink:href="#DejaVuSans-63"/>
       <use xlink:href="#DejaVuSans-6f" x="54.980469"/>
       <use xlink:href="#DejaVuSans-6e" x="116.162109"/>
       <use xlink:href="#DejaVuSans-74" x="179.541016"/>
       <use xlink:href="#DejaVuSans-72" x="218.75"/>
       <use xlink:href="#DejaVuSans-61" x="259.863281"/>
       <use xlink:href="#DejaVuSans-63" x="321.142578"/>
       <use xlink:href="#DejaVuSans-74" x="376.123047"/>
       <use xlink:href="#DejaVuSans-69" x="415.332031"/>
       <use xlink:href="#DejaVuSans-6c" x="443.115234"/>
       <use xlink:href="#DejaVuSans-65" x="470.898438"/>
       <use xlink:href="#DejaVuSans-20" x="532.421875"/>
       <use xlink:href="#DejaVuSans-6d" x="564.208984"/>
       <use xlink:href="#DejaVuSans-75" x="661.621094"/>
       <use xlink:href="#DejaVuSans-73" x="725"/>
       <use xlink:href="#DejaVuSans-63" x="777.099609"/>
       <use xlink:href="#DejaVuSans-6c" x="832.080078"/>
       <use xlink:href="#DejaVuSans-65" x="859.863281"/>
       <use xlink:href="#DejaVuSans-20" x="921.386719"/>
       <use xlink:href="#DejaVuSans-66" x="953.173828"/>
       <use xlink:href="#DejaVuSans-69" x="988.378906"/>
       <use xlink:href="#DejaVuSans-62" x="1016.162109"/>
       <use xlink:href="#DejaVuSans-65" x="1079.638672"/>
       <use xlink:href="#DejaVuSans-72" x="1141.162109"/>
      </g>
     </g>
    </g>
    <g id="ytick_2">
     <g id="line2d_33"/>
     <g id="text_12">
      <!-- i band -->
      <g transform="translate(210.26 69.647312) scale(0.08 -0.08)">
       <use xlink:href="#DejaVuSans-69"/>
       <use xlink:href="#DejaVuSans-20" x="27.783203"/>
       <use xlink:href="#DejaVuSans-62" x="59.570312"/>
       <use xlink:href="#DejaVuSans-61" x="123.046875"/>
       <use xlink:href="#DejaVuSans-6e" x="184.326172"/>
       <use xlink:href="#DejaVuSans-64" x="247.705078"/>
      </g>
     </g>
    </g>
    <g id="ytick_3">
     <g id="line2d_34"/>
     <g id="text_13">
      <!-- supramolecular polymer -->
      <g transform="translate(137.455 94.025313) scale(0.08 -0.08)">
       <defs>
        <path id="DejaVuSans-70" d="M 1159 525 
L 1159 -1331 
L 581 -1331 
L 581 3500 
L 1159 3500 
L 1159 2969 
Q 1341 3281 1617 3432 
Q 1894 3584 2278 3584 
Q 2916 3584 3314 3078 
Q 3713 2572 3713 1747 
Q 3713 922 3314 415 
Q 2916 -91 2278 -91 
Q 1894 -91 1617 61 
Q 1341 213 1159 525 
z
M 3116 1747 
Q 3116 2381 2855 2742 
Q 2594 3103 2138 3103 
Q 1681 3103 1420 2742 
Q 1159 2381 1159 1747 
Q 1159 1113 1420 752 
Q 1681 391 2138 391 
Q 2594 391 2855 752 
Q 3116 1113 3116 1747 
z
" transform="scale(0.015625)"/>
        <path id="DejaVuSans-79" d="M 2059 -325 
Q 1816 -950 1584 -1140 
Q 1353 -1331 966 -1331 
L 506 -1331 
L 506 -850 
L 844 -850 
Q 1081 -850 1212 -737 
Q 1344 -625 1503 -206 
L 1606 56 
L 191 3500 
L 800 3500 
L 1894 763 
L 2988 3500 
L 3597 3500 
L 2059 -325 
z
" transform="scale(0.015625)"/>
       </defs>
       <use xlink:href="#DejaVuSans-73"/>
       <use xlink:href="#DejaVuSans-75" x="52.099609"/>
       <use xlink:href="#DejaVuSans-70" x="115.478516"/>
       <use xlink:href="#DejaVuSans-72" x="178.955078"/>
       <use xlink:href="#DejaVuSans-61" x="220.068359"/>
       <use xlink:href="#DejaVuSans-6d" x="281.347656"/>
       <use xlink:href="#DejaVuSans-6f" x="378.759766"/>
       <use xlink:href="#DejaVuSans-6c" x="439.941406"/>
       <use xlink:href="#DejaVuSans-65" x="467.724609"/>
       <use xlink:href="#DejaVuSans-63" x="529.248047"/>
       <use xlink:href="#DejaVuSans-75" x="584.228516"/>
       <use xlink:href="#DejaVuSans-6c" x="647.607422"/>
       <use xlink:href="#DejaVuSans-61" x="675.390625"/>
       <use xlink:href="#DejaVuSans-72" x="736.669922"/>
       <use xlink:href="#DejaVuSans-20" x="777.783203"/>
       <use xlink:href="#DejaVuSans-70" x="809.570312"/>
       <use xlink:href="#DejaVuSans-6f" x="873.046875"/>
       <use xlink:href="#DejaVuSans-6c" x="934.228516"/>
       <use xlink:href="#DejaVuSans-79" x="962.011719"/>
       <use xlink:href="#DejaVuSans-6d" x="1021.191406"/>
       <use xlink:href="#DejaVuSans-65" x="1118.603516"/>
       <use xlink:href="#DejaVuSans-72" x="1180.126953"/>
      </g>
     </g>
    </g>
    <g id="ytick_4">
     <g id="line2d_35"/>
     <g id="text_14">
      <!-- muscle system process -->
      <g transform="translate(141.83625 118.403313) scale(0.08 -0.08)">
       <use xlink:href="#DejaVuSans-6d"/>
       <use xlink:href="#DejaVuSans-75" x="97.412109"/>
       <use xlink:href="#DejaVuSans-73" x="160.791016"/>
       <use xlink:href="#DejaVuSans-63" x="212.890625"/>
       <use xlink:href="#DejaVuSans-6c" x="267.871094"/>
       <use xlink:href="#DejaVuSans-65" x="295.654297"/>
       <use xlink:href="#DejaVuSans-20" x="357.177734"/>
       <use xlink:href="#DejaVuSans-73" x="388.964844"/>
       <use xlink:href="#DejaVuSans-79" x="441.064453"/>
       <use xlink:href="#DejaVuSans-73" x="500.244141"/>
       <use xlink:href="#DejaVuSans-74" x="552.34375"/>
       <use xlink:href="#DejaVuSans-65" x="591.552734"/>
       <use xlink:href="#DejaVuSans-6d" x="653.076172"/>
       <use xlink:href="#DejaVuSans-20" x="750.488281"/>
       <use xlink:href="#DejaVuSans-70" x="782.275391"/>
       <use xlink:href="#DejaVuSans-72" x="845.751953"/>
       <use xlink:href="#DejaVuSans-6f" x="884.615234"/>
       <use xlink:href="#DejaVuSans-63" x="945.796875"/>
       <use xlink:href="#DejaVuSans-65" x="1000.777344"/>
       <use xlink:href="#DejaVuSans-73" x="1062.300781"/>
       <use xlink:href="#DejaVuSans-73" x="1114.400391"/>
      </g>
     </g>
    </g>
    <g id="ytick_5">
     <g id="line2d_36"/>
     <g id="text_15">
      <!-- cellular component assembly involved in morphogenesis -->
      <g transform="translate(7.2 142.781313) scale(0.08 -0.08)">
       <defs>
        <path id="DejaVuSans-76" d="M 191 3500 
L 800 3500 
L 1894 563 
L 2988 3500 
L 3597 3500 
L 2284 0 
L 1503 0 
L 191 3500 
z
" transform="scale(0.015625)"/>
        <path id="DejaVuSans-68" d="M 3513 2113 
L 3513 0 
L 2938 0 
L 2938 2094 
Q 2938 2591 2744 2837 
Q 2550 3084 2163 3084 
Q 1697 3084 1428 2787 
Q 1159 2491 1159 1978 
L 1159 0 
L 581 0 
L 581 4863 
L 1159 4863 
L 1159 2956 
Q 1366 3272 1645 3428 
Q 1925 3584 2291 3584 
Q 2894 3584 3203 3211 
Q 3513 2838 3513 2113 
z
" transform="scale(0.015625)"/>
        <path id="DejaVuSans-67" d="M 2906 1791 
Q 2906 2416 2648 2759 
Q 2391 3103 1925 3103 
Q 1463 3103 1205 2759 
Q 947 2416 947 1791 
Q 947 1169 1205 825 
Q 1463 481 1925 481 
Q 2391 481 2648 825 
Q 2906 1169 2906 1791 
z
M 3481 434 
Q 3481 -459 3084 -895 
Q 2688 -1331 1869 -1331 
Q 1566 -1331 1297 -1286 
Q 1028 -1241 775 -1147 
L 775 -588 
Q 1028 -725 1275 -790 
Q 1522 -856 1778 -856 
Q 2344 -856 2625 -561 
Q 2906 -266 2906 331 
L 2906 616 
Q 2728 306 2450 153 
Q 2172 0 1784 0 
Q 1141 0 747 490 
Q 353 981 353 1791 
Q 353 2603 747 3093 
Q 1141 3584 1784 3584 
Q 2172 3584 2450 3431 
Q 2728 3278 2906 2969 
L 2906 3500 
L 3481 3500 
L 3481 434 
z
" transform="scale(0.015625)"/>
       </defs>
       <use xlink:href="#DejaVuSans-63"/>
       <use xlink:href="#DejaVuSans-65" x="54.980469"/>
       <use xlink:href="#DejaVuSans-6c" x="116.503906"/>
       <use xlink:href="#DejaVuSans-6c" x="144.287109"/>
       <use xlink:href="#DejaVuSans-75" x="172.070312"/>
       <use xlink:href="#DejaVuSans-6c" x="235.449219"/>
       <use xlink:href="#DejaVuSans-61" x="263.232422"/>
       <use xlink:href="#DejaVuSans-72" x="324.511719"/>
       <use xlink:href="#DejaVuSans-20" x="365.625"/>
       <use xlink:href="#DejaVuSans-63" x="397.412109"/>
       <use xlink:href="#DejaVuSans-6f" x="452.392578"/>
       <use xlink:href="#DejaVuSans-6d" x="513.574219"/>
       <use xlink:href="#DejaVuSans-70" x="610.986328"/>
       <use xlink:href="#DejaVuSans-6f" x="674.462891"/>
       <use xlink:href="#DejaVuSans-6e" x="735.644531"/>
       <use xlink:href="#DejaVuSans-65" x="799.023438"/>
       <use xlink:href="#DejaVuSans-6e" x="860.546875"/>
       <use xlink:href="#DejaVuSans-74" x="923.925781"/>
       <use xlink:href="#DejaVuSans-20" x="963.134766"/>
       <use xlink:href="#DejaVuSans-61" x="994.921875"/>
       <use xlink:href="#DejaVuSans-73" x="1056.201172"/>
       <use xlink:href="#DejaVuSans-73" x="1108.300781"/>
       <use xlink:href="#DejaVuSans-65" x="1160.400391"/>
       <use xlink:href="#DejaVuSans-6d" x="1221.923828"/>
       <use xlink:href="#DejaVuSans-62" x="1319.335938"/>
       <use xlink:href="#DejaVuSans-6c" x="1382.8125"/>
       <use xlink:href="#DejaVuSans-79" x="1410.595703"/>
       <use xlink:href="#DejaVuSans-20" x="1469.775391"/>
       <use xlink:href="#DejaVuSans-69" x="1501.5625"/>
       <use xlink:href="#DejaVuSans-6e" x="1529.345703"/>
       <use xlink:href="#DejaVuSans-76" x="1592.724609"/>
       <use xlink:href="#DejaVuSans-6f" x="1651.904297"/>
       <use xlink:href="#DejaVuSans-6c" x="1713.085938"/>
       <use xlink:href="#DejaVuSans-76" x="1740.869141"/>
       <use xlink:href="#DejaVuSans-65" x="1800.048828"/>
       <use xlink:href="#DejaVuSans-64" x="1861.572266"/>
       <use xlink:href="#DejaVuSans-20" x="1925.048828"/>
       <use xlink:href="#DejaVuSans-69" x="1956.835938"/>
       <use xlink:href="#DejaVuSans-6e" x="1984.619141"/>
       <use xlink:href="#DejaVuSans-20" x="2047.998047"/>
       <use xlink:href="#DejaVuSans-6d" x="2079.785156"/>
       <use xlink:href="#DejaVuSans-6f" x="2177.197266"/>
       <use xlink:href="#DejaVuSans-72" x="2238.378906"/>
       <use xlink:href="#DejaVuSans-70" x="2279.492188"/>
       <use xlink:href="#DejaVuSans-68" x="2342.96875"/>
       <use xlink:href="#DejaVuSans-6f" x="2406.347656"/>
       <use xlink:href="#DejaVuSans-67" x="2467.529297"/>
       <use xlink:href="#DejaVuSans-65" x="2531.005859"/>
       <use xlink:href="#DejaVuSans-6e" x="2592.529297"/>
       <use xlink:href="#DejaVuSans-65" x="2655.908203"/>
       <use xlink:href="#DejaVuSans-73" x="2717.431641"/>
       <use xlink:href="#DejaVuSans-69" x="2769.53125"/>
       <use xlink:href="#DejaVuSans-73" x="2797.314453"/>
      </g>
     </g>
    </g>
    <g id="ytick_6">
     <g id="line2d_37"/>
     <g id="text_16">
      <!-- muscle cell development -->
      <g transform="translate(134.95375 167.159312) scale(0.08 -0.08)">
       <use xlink:href="#DejaVuSans-6d"/>
       <use xlink:href="#DejaVuSans-75" x="97.412109"/>
       <use xlink:href="#DejaVuSans-73" x="160.791016"/>
       <use xlink:href="#DejaVuSans-63" x="212.890625"/>
       <use xlink:href="#DejaVuSans-6c" x="267.871094"/>
       <use xlink:href="#DejaVuSans-65" x="295.654297"/>
       <use xlink:href="#DejaVuSans-20" x="357.177734"/>
       <use xlink:href="#DejaVuSans-63" x="388.964844"/>
       <use xlink:href="#DejaVuSans-65" x="443.945312"/>
       <use xlink:href="#DejaVuSans-6c" x="505.46875"/>
       <use xlink:href="#DejaVuSans-6c" x="533.251953"/>
       <use xlink:href="#DejaVuSans-20" x="561.035156"/>
       <use xlink:href="#DejaVuSans-64" x="592.822266"/>
       <use xlink:href="#DejaVuSans-65" x="656.298828"/>
       <use xlink:href="#DejaVuSans-76" x="717.822266"/>
       <use xlink:href="#DejaVuSans-65" x="777.001953"/>
       <use xlink:href="#DejaVuSans-6c" x="838.525391"/>
       <use xlink:href="#DejaVuSans-6f" x="866.308594"/>
       <use xlink:href="#DejaVuSans-70" x="927.490234"/>
       <use xlink:href="#DejaVuSans-6d" x="990.966797"/>
       <use xlink:href="#DejaVuSans-65" x="1088.378906"/>
       <use xlink:href="#DejaVuSans-6e" x="1149.902344"/>
       <use xlink:href="#DejaVuSans-74" x="1213.28125"/>
      </g>
     </g>
    </g>
    <g id="ytick_7">
     <g id="line2d_38"/>
     <g id="text_17">
      <!-- gomf structural constituent of ribosome -->
      <g transform="translate(75.5225 191.537313) scale(0.08 -0.08)">
       <use xlink:href="#DejaVuSans-67"/>
       <use xlink:href="#DejaVuSans-6f" x="63.476562"/>
       <use xlink:href="#DejaVuSans-6d" x="124.658203"/>
       <use xlink:href="#DejaVuSans-66" x="222.070312"/>
       <use xlink:href="#DejaVuSans-20" x="257.275391"/>
       <use xlink:href="#DejaVuSans-73" x="289.0625"/>
       <use xlink:href="#DejaVuSans-74" x="341.162109"/>
       <use xlink:href="#DejaVuSans-72" x="380.371094"/>
       <use xlink:href="#DejaVuSans-75" x="421.484375"/>
       <use xlink:href="#DejaVuSans-63" x="484.863281"/>
       <use xlink:href="#DejaVuSans-74" x="539.84375"/>
       <use xlink:href="#DejaVuSans-75" x="579.052734"/>
       <use xlink:href="#DejaVuSans-72" x="642.431641"/>
       <use xlink:href="#DejaVuSans-61" x="683.544922"/>
       <use xlink:href="#DejaVuSans-6c" x="744.824219"/>
       <use xlink:href="#DejaVuSans-20" x="772.607422"/>
       <use xlink:href="#DejaVuSans-63" x="804.394531"/>
       <use xlink:href="#DejaVuSans-6f" x="859.375"/>
       <use xlink:href="#DejaVuSans-6e" x="920.556641"/>
       <use xlink:href="#DejaVuSans-73" x="983.935547"/>
       <use xlink:href="#DejaVuSans-74" x="1036.035156"/>
       <use xlink:href="#DejaVuSans-69" x="1075.244141"/>
       <use xlink:href="#DejaVuSans-74" x="1103.027344"/>
       <use xlink:href="#DejaVuSans-75" x="1142.236328"/>
       <use xlink:href="#DejaVuSans-65" x="1205.615234"/>
       <use xlink:href="#DejaVuSans-6e" x="1267.138672"/>
       <use xlink:href="#DejaVuSans-74" x="1330.517578"/>
       <use xlink:href="#DejaVuSans-20" x="1369.726562"/>
       <use xlink:href="#DejaVuSans-6f" x="1401.513672"/>
       <use xlink:href="#DejaVuSans-66" x="1462.695312"/>
       <use xlink:href="#DejaVuSans-20" x="1497.900391"/>
       <use xlink:href="#DejaVuSans-72" x="1529.6875"/>
       <use xlink:href="#DejaVuSans-69" x="1570.800781"/>
       <use xlink:href="#DejaVuSans-62" x="1598.583984"/>
       <use xlink:href="#DejaVuSans-6f" x="1662.060547"/>
       <use xlink:href="#DejaVuSans-73" x="1723.242188"/>
       <use xlink:href="#DejaVuSans-6f" x="1775.341797"/>
       <use xlink:href="#DejaVuSans-6d" x="1836.523438"/>
       <use xlink:href="#DejaVuSans-65" x="1933.935547"/>
      </g>
     </g>
    </g>
    <g id="ytick_8">
     <g id="line2d_39"/>
     <g id="text_18">
      <!-- ribosomal subunit -->
      <g transform="translate(163.3325 215.915313) scale(0.08 -0.08)">
       <use xlink:href="#DejaVuSans-72"/>
       <use xlink:href="#DejaVuSans-69" x="41.113281"/>
       <use xlink:href="#DejaVuSans-62" x="68.896484"/>
       <use xlink:href="#DejaVuSans-6f" x="132.373047"/>
       <use xlink:href="#DejaVuSans-73" x="193.554688"/>
       <use xlink:href="#DejaVuSans-6f" x="245.654297"/>
       <use xlink:href="#DejaVuSans-6d" x="306.835938"/>
       <use xlink:href="#DejaVuSans-61" x="404.248047"/>
       <use xlink:href="#DejaVuSans-6c" x="465.527344"/>
       <use xlink:href="#DejaVuSans-20" x="493.310547"/>
       <use xlink:href="#DejaVuSans-73" x="525.097656"/>
       <use xlink:href="#DejaVuSans-75" x="577.197266"/>
       <use xlink:href="#DejaVuSans-62" x="640.576172"/>
       <use xlink:href="#DejaVuSans-75" x="704.052734"/>
       <use xlink:href="#DejaVuSans-6e" x="767.431641"/>
       <use xlink:href="#DejaVuSans-69" x="830.810547"/>
       <use xlink:href="#DejaVuSans-74" x="858.59375"/>
      </g>
     </g>
    </g>
    <g id="ytick_9">
     <g id="line2d_40"/>
     <g id="text_19">
      <!-- large ribosomal subunit -->
      <g transform="translate(140.515 240.293313) scale(0.08 -0.08)">
       <use xlink:href="#DejaVuSans-6c"/>
       <use xlink:href="#DejaVuSans-61" x="27.783203"/>
       <use xlink:href="#DejaVuSans-72" x="89.0625"/>
       <use xlink:href="#DejaVuSans-67" x="128.425781"/>
       <use xlink:href="#DejaVuSans-65" x="191.902344"/>
       <use xlink:href="#DejaVuSans-20" x="253.425781"/>
       <use xlink:href="#DejaVuSans-72" x="285.212891"/>
       <use xlink:href="#DejaVuSans-69" x="326.326172"/>
       <use xlink:href="#DejaVuSans-62" x="354.109375"/>
       <use xlink:href="#DejaVuSans-6f" x="417.585938"/>
       <use xlink:href="#DejaVuSans-73" x="478.767578"/>
       <use xlink:href="#DejaVuSans-6f" x="530.867188"/>
       <use xlink:href="#DejaVuSans-6d" x="592.048828"/>
       <use xlink:href="#DejaVuSans-61" x="689.460938"/>
       <use xlink:href="#DejaVuSans-6c" x="750.740234"/>
       <use xlink:href="#DejaVuSans-20" x="778.523438"/>
       <use xlink:href="#DejaVuSans-73" x="810.310547"/>
       <use xlink:href="#DejaVuSans-75" x="862.410156"/>
       <use xlink:href="#DejaVuSans-62" x="925.789062"/>
       <use xlink:href="#DejaVuSans-75" x="989.265625"/>
       <use xlink:href="#DejaVuSans-6e" x="1052.644531"/>
       <use xlink:href="#DejaVuSans-69" x="1116.023438"/>
       <use xlink:href="#DejaVuSans-74" x="1143.806641"/>
      </g>
     </g>
    </g>
    <g id="ytick_10">
     <g id="line2d_41"/>
     <g id="text_20">
      <!-- muscle contraction -->
      <g transform="translate(158.625 264.671312) scale(0.08 -0.08)">
       <use xlink:href="#DejaVuSans-6d"/>
       <use xlink:href="#DejaVuSans-75" x="97.412109"/>
       <use xlink:href="#DejaVuSans-73" x="160.791016"/>
       <use xlink:href="#DejaVuSans-63" x="212.890625"/>
       <use xlink:href="#DejaVuSans-6c" x="267.871094"/>
       <use xlink:href="#DejaVuSans-65" x="295.654297"/>
       <use xlink:href="#DejaVuSans-20" x="357.177734"/>
       <use xlink:href="#DejaVuSans-63" x="388.964844"/>
       <use xlink:href="#DejaVuSans-6f" x="443.945312"/>
       <use xlink:href="#DejaVuSans-6e" x="505.126953"/>
       <use xlink:href="#DejaVuSans-74" x="568.505859"/>
       <use xlink:href="#DejaVuSans-72" x="607.714844"/>
       <use xlink:href="#DejaVuSans-61" x="648.828125"/>
       <use xlink:href="#DejaVuSans-63" x="710.107422"/>
       <use xlink:href="#DejaVuSans-74" x="765.087891"/>
       <use xlink:href="#DejaVuSans-69" x="804.296875"/>
       <use xlink:href="#DejaVuSans-6f" x="832.080078"/>
       <use xlink:href="#DejaVuSans-6e" x="893.261719"/>
      </g>
     </g>
    </g>
   </g>
   <g id="text_21">
    <g id="patch_3">
     <path d="M 259.297353 49.476812 
C 261.219247 49.476812 263.062683 48.713236 264.421667 47.354252 
C 265.780651 45.995268 266.544228 44.151831 266.544228 42.229937 
C 266.544228 40.308044 265.780651 38.464607 264.421667 37.105623 
C 263.062683 35.746639 261.219247 34.983062 259.297353 34.983062 
C 257.375459 34.983062 255.532023 35.746639 254.173038 37.105623 
C 252.814054 38.464607 252.050478 40.308044 252.050478 42.229937 
C 252.050478 44.151831 252.814054 45.995268 254.173038 47.354252 
C 255.532023 48.713236 257.375459 49.476812 259.297353 49.476812 
z
" style="fill: #ffffff; stroke: #000000; stroke-linejoin: miter"/>
    </g>
    <!-- − -->
    <g transform="translate(254.26954 45.541188) scale(0.12 -0.12)">
     <defs>
      <path id="DejaVuSans-2212" d="M 678 2272 
L 4684 2272 
L 4684 1741 
L 678 1741 
L 678 2272 
z
" transform="scale(0.015625)"/>
     </defs>
     <use xlink:href="#DejaVuSans-2212"/>
    </g>
   </g>
   <g id="text_22">
    <g id="patch_4">
     <path d="M 259.297353 73.854812 
C 261.219247 73.854812 263.062683 73.091236 264.421667 71.732252 
C 265.780651 70.373268 266.544228 68.529831 266.544228 66.607937 
C 266.544228 64.686044 265.780651 62.842607 264.421667 61.483623 
C 263.062683 60.124639 261.219247 59.361062 259.297353 59.361062 
C 257.375459 59.361062 255.532023 60.124639 254.173038 61.483623 
C 252.814054 62.842607 252.050478 64.686044 252.050478 66.607937 
C 252.050478 68.529831 252.814054 70.373268 254.173038 71.732252 
C 255.532023 73.091236 257.375459 73.854812 259.297353 73.854812 
z
" style="fill: #ffffff; stroke: #000000; stroke-linejoin: miter"/>
    </g>
    <!-- − -->
    <g transform="translate(254.26954 69.919187) scale(0.12 -0.12)">
     <use xlink:href="#DejaVuSans-2212"/>
    </g>
   </g>
   <g id="text_23">
    <g id="patch_5">
     <path d="M 259.297353 98.232812 
C 261.219247 98.232812 263.062683 97.469236 264.421667 96.110252 
C 265.780651 94.751268 266.544228 92.907831 266.544228 90.985937 
C 266.544228 89.064044 265.780651 87.220607 264.421667 85.861623 
C 263.062683 84.502639 261.219247 83.739063 259.297353 83.739063 
C 257.375459 83.739063 255.532023 84.502639 254.173038 85.861623 
C 252.814054 87.220607 252.050478 89.064044 252.050478 90.985937 
C 252.050478 92.907831 252.814054 94.751268 254.173038 96.110252 
C 255.532023 97.469236 257.375459 98.232812 259.297353 98.232812 
z
" style="fill: #ffffff; stroke: #000000; stroke-linejoin: miter"/>
    </g>
    <!-- − -->
    <g transform="translate(254.26954 94.297188) scale(0.12 -0.12)">
     <use xlink:href="#DejaVuSans-2212"/>
    </g>
   </g>
   <g id="text_24">
    <g id="patch_6">
     <path d="M 293.701275 122.610813 
C 295.623168 122.610813 297.466605 121.847236 298.825589 120.488252 
C 300.184573 119.129268 300.94815 117.285831 300.94815 115.363938 
C 300.94815 113.442044 300.184573 111.598607 298.825589 110.239623 
C 297.466605 108.880639 295.623168 108.117063 293.701275 108.117063 
C 291.779381 108.117063 289.935944 108.880639 288.57696 110.239623 
C 287.217976 111.598607 286.4544 113.442044 286.4544 115.363938 
C 286.4544 117.285831 287.217976 119.129268 288.57696 120.488252 
C 289.935944 121.847236 291.779381 122.610813 293.701275 122.610813 
z
" style="fill: #ffffff; stroke: #000000; stroke-linejoin: miter"/>
    </g>
    <!-- − -->
    <g transform="translate(288.673462 118.675188) scale(0.12 -0.12)">
     <use xlink:href="#DejaVuSans-2212"/>
    </g>
   </g>
   <g id="text_25">
    <g id="patch_7">
     <path d="M 293.701275 49.476812 
C 295.623168 49.476812 297.466605 48.713236 298.825589 47.354252 
C 300.184573 45.995268 300.94815 44.151831 300.94815 42.229937 
C 300.94815 40.308044 300.184573 38.464607 298.825589 37.105623 
C 297.466605 35.746639 295.623168 34.983062 293.701275 34.983062 
C 291.779381 34.983062 289.935944 35.746639 288.57696 37.105623 
C 287.217976 38.464607 286.4544 40.308044 286.4544 42.229937 
C 286.4544 44.151831 287.217976 45.995268 288.57696 47.354252 
C 289.935944 48.713236 291.779381 49.476812 293.701275 49.476812 
z
" style="fill: #ffffff; stroke: #000000; stroke-linejoin: miter"/>
    </g>
    <!-- − -->
    <g transform="translate(288.673462 45.541188) scale(0.12 -0.12)">
     <use xlink:href="#DejaVuSans-2212"/>
    </g>
   </g>
   <g id="text_26">
    <g id="patch_8">
     <path d="M 293.701275 98.232812 
C 295.623168 98.232812 297.466605 97.469236 298.825589 96.110252 
C 300.184573 94.751268 300.94815 92.907831 300.94815 90.985937 
C 300.94815 89.064044 300.184573 87.220607 298.825589 85.861623 
C 297.466605 84.502639 295.623168 83.739063 293.701275 83.739063 
C 291.779381 83.739063 289.935944 84.502639 288.57696 85.861623 
C 287.217976 87.220607 286.4544 89.064044 286.4544 90.985937 
C 286.4544 92.907831 287.217976 94.751268 288.57696 96.110252 
C 289.935944 97.469236 291.779381 98.232812 293.701275 98.232812 
z
" style="fill: #ffffff; stroke: #000000; stroke-linejoin: miter"/>
    </g>
    <!-- − -->
    <g transform="translate(288.673462 94.297188) scale(0.12 -0.12)">
     <use xlink:href="#DejaVuSans-2212"/>
    </g>
   </g>
   <g id="text_27">
    <g id="patch_9">
     <path d="M 328.105196 49.476812 
C 330.02709 49.476812 331.870526 48.713236 333.229511 47.354252 
C 334.588495 45.995268 335.352071 44.151831 335.352071 42.229937 
C 335.352071 40.308044 334.588495 38.464607 333.229511 37.105623 
C 331.870526 35.746639 330.02709 34.983062 328.105196 34.983062 
C 326.183302 34.983062 324.339866 35.746639 322.980882 37.105623 
C 321.621898 38.464607 320.858321 40.308044 320.858321 42.229937 
C 320.858321 44.151831 321.621898 45.995268 322.980882 47.354252 
C 324.339866 48.713236 326.183302 49.476812 328.105196 49.476812 
z
" style="fill: #ffffff; stroke: #000000; stroke-linejoin: miter"/>
    </g>
    <!-- − -->
    <g transform="translate(323.077384 45.541188) scale(0.12 -0.12)">
     <use xlink:href="#DejaVuSans-2212"/>
    </g>
   </g>
   <g id="text_28">
    <g id="patch_10">
     <path d="M 328.105196 146.988812 
C 330.02709 146.988812 331.870526 146.225236 333.229511 144.866252 
C 334.588495 143.507268 335.352071 141.663831 335.352071 139.741938 
C 335.352071 137.820044 334.588495 135.976607 333.229511 134.617623 
C 331.870526 133.258639 330.02709 132.495062 328.105196 132.495062 
C 326.183302 132.495062 324.339866 133.258639 322.980882 134.617623 
C 321.621898 135.976607 320.858321 137.820044 320.858321 139.741938 
C 320.858321 141.663831 321.621898 143.507268 322.980882 144.866252 
C 324.339866 146.225236 326.183302 146.988812 328.105196 146.988812 
z
" style="fill: #ffffff; stroke: #000000; stroke-linejoin: miter"/>
    </g>
    <!-- − -->
    <g transform="translate(323.077384 143.053188) scale(0.12 -0.12)">
     <use xlink:href="#DejaVuSans-2212"/>
    </g>
   </g>
   <g id="text_29">
    <g id="patch_11">
     <path d="M 328.105196 171.366813 
C 330.02709 171.366813 331.870526 170.603236 333.229511 169.244252 
C 334.588495 167.885268 335.352071 166.041831 335.352071 164.119938 
C 335.352071 162.198044 334.588495 160.354607 333.229511 158.995623 
C 331.870526 157.636639 330.02709 156.873063 328.105196 156.873063 
C 326.183302 156.873063 324.339866 157.636639 322.980882 158.995623 
C 321.621898 160.354607 320.858321 162.198044 320.858321 164.119938 
C 320.858321 166.041831 321.621898 167.885268 322.980882 169.244252 
C 324.339866 170.603236 326.183302 171.366813 328.105196 171.366813 
z
" style="fill: #ffffff; stroke: #000000; stroke-linejoin: miter"/>
    </g>
    <!-- − -->
    <g transform="translate(323.077384 167.431188) scale(0.12 -0.12)">
     <use xlink:href="#DejaVuSans-2212"/>
    </g>
   </g>
   <g id="text_30">
    <g id="patch_12">
     <path d="M 362.509118 49.476812 
C 364.431011 49.476812 366.274448 48.713236 367.633432 47.354252 
C 368.992416 45.995268 369.755993 44.151831 369.755993 42.229937 
C 369.755993 40.308044 368.992416 38.464607 367.633432 37.105623 
C 366.274448 35.746639 364.431011 34.983062 362.509118 34.983062 
C 360.587224 34.983062 358.743787 35.746639 357.384803 37.105623 
C 356.025819 38.464607 355.262243 40.308044 355.262243 42.229937 
C 355.262243 44.151831 356.025819 45.995268 357.384803 47.354252 
C 358.743787 48.713236 360.587224 49.476812 362.509118 49.476812 
z
" style="fill: #ffffff; stroke: #000000; stroke-linejoin: miter"/>
    </g>
    <!-- − -->
    <g transform="translate(357.481305 45.541188) scale(0.12 -0.12)">
     <use xlink:href="#DejaVuSans-2212"/>
    </g>
   </g>
   <g id="text_31">
    <g id="patch_13">
     <path d="M 362.509118 73.854812 
C 364.431011 73.854812 366.274448 73.091236 367.633432 71.732252 
C 368.992416 70.373268 369.755993 68.529831 369.755993 66.607937 
C 369.755993 64.686044 368.992416 62.842607 367.633432 61.483623 
C 366.274448 60.124639 364.431011 59.361062 362.509118 59.361062 
C 360.587224 59.361062 358.743787 60.124639 357.384803 61.483623 
C 356.025819 62.842607 355.262243 64.686044 355.262243 66.607937 
C 355.262243 68.529831 356.025819 70.373268 357.384803 71.732252 
C 358.743787 73.091236 360.587224 73.854812 362.509118 73.854812 
z
" style="fill: #ffffff; stroke: #000000; stroke-linejoin: miter"/>
    </g>
    <!-- − -->
    <g transform="translate(357.481305 69.919187) scale(0.12 -0.12)">
     <use xlink:href="#DejaVuSans-2212"/>
    </g>
   </g>
   <g id="text_32">
    <g id="patch_14">
     <path d="M 362.509118 146.988812 
C 364.431011 146.988812 366.274448 146.225236 367.633432 144.866252 
C 368.992416 143.507268 369.755993 141.663831 369.755993 139.741938 
C 369.755993 137.820044 368.992416 135.976607 367.633432 134.617623 
C 366.274448 133.258639 364.431011 132.495062 362.509118 132.495062 
C 360.587224 132.495062 358.743787 133.258639 357.384803 134.617623 
C 356.025819 135.976607 355.262243 137.820044 355.262243 139.741938 
C 355.262243 141.663831 356.025819 143.507268 357.384803 144.866252 
C 358.743787 146.225236 360.587224 146.988812 362.509118 146.988812 
z
" style="fill: #ffffff; stroke: #000000; stroke-linejoin: miter"/>
    </g>
    <!-- − -->
    <g transform="translate(357.481305 143.053188) scale(0.12 -0.12)">
     <use xlink:href="#DejaVuSans-2212"/>
    </g>
   </g>
   <g id="text_33">
    <g id="patch_15">
     <path d="M 396.913039 195.744813 
C 398.834933 195.744813 400.67837 194.981236 402.037354 193.622252 
C 403.396338 192.263268 404.159914 190.419831 404.159914 188.497938 
C 404.159914 186.576044 403.396338 184.732607 402.037354 183.373623 
C 400.67837 182.014639 398.834933 181.251063 396.913039 181.251063 
C 394.991146 181.251063 393.147709 182.014639 391.788725 183.373623 
C 390.429741 184.732607 389.666164 186.576044 389.666164 188.497938 
C 389.666164 190.419831 390.429741 192.263268 391.788725 193.622252 
C 393.147709 194.981236 394.991146 195.744813 396.913039 195.744813 
z
" style="fill: #ffffff; stroke: #000000; stroke-linejoin: miter"/>
    </g>
    <!-- − -->
    <g transform="translate(391.885227 191.809188) scale(0.12 -0.12)">
     <use xlink:href="#DejaVuSans-2212"/>
    </g>
   </g>
   <g id="text_34">
    <g id="patch_16">
     <path d="M 396.913039 220.122813 
C 398.834933 220.122813 400.67837 219.359236 402.037354 218.000252 
C 403.396338 216.641268 404.159914 214.797831 404.159914 212.875938 
C 404.159914 210.954044 403.396338 209.110607 402.037354 207.751623 
C 400.67837 206.392639 398.834933 205.629063 396.913039 205.629063 
C 394.991146 205.629063 393.147709 206.392639 391.788725 207.751623 
C 390.429741 209.110607 389.666164 210.954044 389.666164 212.875938 
C 389.666164 214.797831 390.429741 216.641268 391.788725 218.000252 
C 393.147709 219.359236 394.991146 220.122813 396.913039 220.122813 
z
" style="fill: #ffffff; stroke: #000000; stroke-linejoin: miter"/>
    </g>
    <!-- − -->
    <g transform="translate(391.885227 216.187188) scale(0.12 -0.12)">
     <use xlink:href="#DejaVuSans-2212"/>
    </g>
   </g>
   <g id="text_35">
    <g id="patch_17">
     <path d="M 465.720882 49.476812 
C 467.642776 49.476812 469.486213 48.713236 470.845197 47.354252 
C 472.204181 45.995268 472.967757 44.151831 472.967757 42.229937 
C 472.967757 40.308044 472.204181 38.464607 470.845197 37.105623 
C 469.486213 35.746639 467.642776 34.983062 465.720882 34.983062 
C 463.798989 34.983062 461.955552 35.746639 460.596568 37.105623 
C 459.237584 38.464607 458.474007 40.308044 458.474007 42.229937 
C 458.474007 44.151831 459.237584 45.995268 460.596568 47.354252 
C 461.955552 48.713236 463.798989 49.476812 465.720882 49.476812 
z
" style="fill: #ffffff; stroke: #000000; stroke-linejoin: miter"/>
    </g>
    <!-- + -->
    <g transform="translate(460.69307 45.541188) scale(0.12 -0.12)">
     <defs>
      <path id="DejaVuSans-2b" d="M 2944 4013 
L 2944 2272 
L 4684 2272 
L 4684 1741 
L 2944 1741 
L 2944 0 
L 2419 0 
L 2419 1741 
L 678 1741 
L 678 2272 
L 2419 2272 
L 2419 4013 
L 2944 4013 
z
" transform="scale(0.015625)"/>
     </defs>
     <use xlink:href="#DejaVuSans-2b"/>
    </g>
   </g>
   <g id="text_36">
    <g id="patch_18">
     <path d="M 465.720882 73.854812 
C 467.642776 73.854812 469.486213 73.091236 470.845197 71.732252 
C 472.204181 70.373268 472.967757 68.529831 472.967757 66.607937 
C 472.967757 64.686044 472.204181 62.842607 470.845197 61.483623 
C 469.486213 60.124639 467.642776 59.361062 465.720882 59.361062 
C 463.798989 59.361062 461.955552 60.124639 460.596568 61.483623 
C 459.237584 62.842607 458.474007 64.686044 458.474007 66.607937 
C 458.474007 68.529831 459.237584 70.373268 460.596568 71.732252 
C 461.955552 73.091236 463.798989 73.854812 465.720882 73.854812 
z
" style="fill: #ffffff; stroke: #000000; stroke-linejoin: miter"/>
    </g>
    <!-- + -->
    <g transform="translate(460.69307 69.919187) scale(0.12 -0.12)">
     <use xlink:href="#DejaVuSans-2b"/>
    </g>
   </g>
   <g id="text_37">
    <g id="patch_19">
     <path d="M 465.720882 244.500812 
C 467.642776 244.500812 469.486213 243.737236 470.845197 242.378252 
C 472.204181 241.019268 472.967757 239.175831 472.967757 237.253938 
C 472.967757 235.332044 472.204181 233.488607 470.845197 232.129623 
C 469.486213 230.770639 467.642776 230.007062 465.720882 230.007062 
C 463.798989 230.007062 461.955552 230.770639 460.596568 232.129623 
C 459.237584 233.488607 458.474007 235.332044 458.474007 237.253938 
C 458.474007 239.175831 459.237584 241.019268 460.596568 242.378252 
C 461.955552 243.737236 463.798989 244.500812 465.720882 244.500812 
z
" style="fill: #ffffff; stroke: #000000; stroke-linejoin: miter"/>
    </g>
    <!-- + -->
    <g transform="translate(460.69307 240.565188) scale(0.12 -0.12)">
     <use xlink:href="#DejaVuSans-2b"/>
    </g>
   </g>
   <g id="text_38">
    <g id="patch_20">
     <path d="M 500.124804 49.476812 
C 502.046698 49.476812 503.890134 48.713236 505.249118 47.354252 
C 506.608102 45.995268 507.371679 44.151831 507.371679 42.229937 
C 507.371679 40.308044 506.608102 38.464607 505.249118 37.105623 
C 503.890134 35.746639 502.046698 34.983062 500.124804 34.983062 
C 498.20291 34.983062 496.359474 35.746639 495.000489 37.105623 
C 493.641505 38.464607 492.877929 40.308044 492.877929 42.229937 
C 492.877929 44.151831 493.641505 45.995268 495.000489 47.354252 
C 496.359474 48.713236 498.20291 49.476812 500.124804 49.476812 
z
" style="fill: #ffffff; stroke: #000000; stroke-linejoin: miter"/>
    </g>
    <!-- + -->
    <g transform="translate(495.096991 45.541188) scale(0.12 -0.12)">
     <use xlink:href="#DejaVuSans-2b"/>
    </g>
   </g>
   <g id="text_39">
    <g id="patch_21">
     <path d="M 500.124804 98.232812 
C 502.046698 98.232812 503.890134 97.469236 505.249118 96.110252 
C 506.608102 94.751268 507.371679 92.907831 507.371679 90.985937 
C 507.371679 89.064044 506.608102 87.220607 505.249118 85.861623 
C 503.890134 84.502639 502.046698 83.739063 500.124804 83.739063 
C 498.20291 83.739063 496.359474 84.502639 495.000489 85.861623 
C 493.641505 87.220607 492.877929 89.064044 492.877929 90.985937 
C 492.877929 92.907831 493.641505 94.751268 495.000489 96.110252 
C 496.359474 97.469236 498.20291 98.232812 500.124804 98.232812 
z
" style="fill: #ffffff; stroke: #000000; stroke-linejoin: miter"/>
    </g>
    <!-- + -->
    <g transform="translate(495.096991 94.297188) scale(0.12 -0.12)">
     <use xlink:href="#DejaVuSans-2b"/>
    </g>
   </g>
   <g id="text_40">
    <g id="patch_22">
     <path d="M 500.124804 122.610813 
C 502.046698 122.610813 503.890134 121.847236 505.249118 120.488252 
C 506.608102 119.129268 507.371679 117.285831 507.371679 115.363938 
C 507.371679 113.442044 506.608102 111.598607 505.249118 110.239623 
C 503.890134 108.880639 502.046698 108.117063 500.124804 108.117063 
C 498.20291 108.117063 496.359474 108.880639 495.000489 110.239623 
C 493.641505 111.598607 492.877929 113.442044 492.877929 115.363938 
C 492.877929 117.285831 493.641505 119.129268 495.000489 120.488252 
C 496.359474 121.847236 498.20291 122.610813 500.124804 122.610813 
z
" style="fill: #ffffff; stroke: #000000; stroke-linejoin: miter"/>
    </g>
    <!-- + -->
    <g transform="translate(495.096991 118.675188) scale(0.12 -0.12)">
     <use xlink:href="#DejaVuSans-2b"/>
    </g>
   </g>
   <g id="text_41">
    <g id="patch_23">
     <path d="M 534.528725 49.476812 
C 536.450619 49.476812 538.294056 48.713236 539.65304 47.354252 
C 541.012024 45.995268 541.7756 44.151831 541.7756 42.229937 
C 541.7756 40.308044 541.012024 38.464607 539.65304 37.105623 
C 538.294056 35.746639 536.450619 34.983062 534.528725 34.983062 
C 532.606832 34.983062 530.763395 35.746639 529.404411 37.105623 
C 528.045427 38.464607 527.28185 40.308044 527.28185 42.229937 
C 527.28185 44.151831 528.045427 45.995268 529.404411 47.354252 
C 530.763395 48.713236 532.606832 49.476812 534.528725 49.476812 
z
" style="fill: #ffffff; stroke: #000000; stroke-linejoin: miter"/>
    </g>
    <!-- + -->
    <g transform="translate(529.500913 45.541188) scale(0.12 -0.12)">
     <use xlink:href="#DejaVuSans-2b"/>
    </g>
   </g>
   <g id="text_42">
    <g id="patch_24">
     <path d="M 534.528725 122.610813 
C 536.450619 122.610813 538.294056 121.847236 539.65304 120.488252 
C 541.012024 119.129268 541.7756 117.285831 541.7756 115.363938 
C 541.7756 113.442044 541.012024 111.598607 539.65304 110.239623 
C 538.294056 108.880639 536.450619 108.117063 534.528725 108.117063 
C 532.606832 108.117063 530.763395 108.880639 529.404411 110.239623 
C 528.045427 111.598607 527.28185 113.442044 527.28185 115.363938 
C 527.28185 117.285831 528.045427 119.129268 529.404411 120.488252 
C 530.763395 121.847236 532.606832 122.610813 534.528725 122.610813 
z
" style="fill: #ffffff; stroke: #000000; stroke-linejoin: miter"/>
    </g>
    <!-- + -->
    <g transform="translate(529.500913 118.675188) scale(0.12 -0.12)">
     <use xlink:href="#DejaVuSans-2b"/>
    </g>
   </g>
   <g id="text_43">
    <g id="patch_25">
     <path d="M 534.528725 268.878812 
C 536.450619 268.878812 538.294056 268.115236 539.65304 266.756252 
C 541.012024 265.397268 541.7756 263.553831 541.7756 261.631937 
C 541.7756 259.710044 541.012024 257.866607 539.65304 256.507623 
C 538.294056 255.148639 536.450619 254.385062 534.528725 254.385062 
C 532.606832 254.385062 530.763395 255.148639 529.404411 256.507623 
C 528.045427 257.866607 527.28185 259.710044 527.28185 261.631937 
C 527.28185 263.553831 528.045427 265.397268 529.404411 266.756252 
C 530.763395 268.115236 532.606832 268.878812 534.528725 268.878812 
z
" style="fill: #ffffff; stroke: #000000; stroke-linejoin: miter"/>
    </g>
    <!-- + -->
    <g transform="translate(529.500913 264.943188) scale(0.12 -0.12)">
     <use xlink:href="#DejaVuSans-2b"/>
    </g>
   </g>
   <g id="text_44">
    <g id="patch_26">
     <path d="M 568.932647 146.988812 
C 570.854541 146.988812 572.697977 146.225236 574.056962 144.866252 
C 575.415946 143.507268 576.179522 141.663831 576.179522 139.741938 
C 576.179522 137.820044 575.415946 135.976607 574.056962 134.617623 
C 572.697977 133.258639 570.854541 132.495062 568.932647 132.495062 
C 567.010753 132.495062 565.167317 133.258639 563.808333 134.617623 
C 562.449349 135.976607 561.685772 137.820044 561.685772 139.741938 
C 561.685772 141.663831 562.449349 143.507268 563.808333 144.866252 
C 565.167317 146.225236 567.010753 146.988812 568.932647 146.988812 
z
" style="fill: #ffffff; stroke: #000000; stroke-linejoin: miter"/>
    </g>
    <!-- + -->
    <g transform="translate(563.904835 143.053188) scale(0.12 -0.12)">
     <use xlink:href="#DejaVuSans-2b"/>
    </g>
   </g>
   <g id="text_45">
    <g id="patch_27">
     <path d="M 568.932647 171.366813 
C 570.854541 171.366813 572.697977 170.603236 574.056962 169.244252 
C 575.415946 167.885268 576.179522 166.041831 576.179522 164.119938 
C 576.179522 162.198044 575.415946 160.354607 574.056962 158.995623 
C 572.697977 157.636639 570.854541 156.873063 568.932647 156.873063 
C 567.010753 156.873063 565.167317 157.636639 563.808333 158.995623 
C 562.449349 160.354607 561.685772 162.198044 561.685772 164.119938 
C 561.685772 166.041831 562.449349 167.885268 563.808333 169.244252 
C 565.167317 170.603236 567.010753 171.366813 568.932647 171.366813 
z
" style="fill: #ffffff; stroke: #000000; stroke-linejoin: miter"/>
    </g>
    <!-- + -->
    <g transform="translate(563.904835 167.431188) scale(0.12 -0.12)">
     <use xlink:href="#DejaVuSans-2b"/>
    </g>
   </g>
   <g id="text_46">
    <g id="patch_28">
     <path d="M 568.932647 49.476812 
C 570.854541 49.476812 572.697977 48.713236 574.056962 47.354252 
C 575.415946 45.995268 576.179522 44.151831 576.179522 42.229937 
C 576.179522 40.308044 575.415946 38.464607 574.056962 37.105623 
C 572.697977 35.746639 570.854541 34.983062 568.932647 34.983062 
C 567.010753 34.983062 565.167317 35.746639 563.808333 37.105623 
C 562.449349 38.464607 561.685772 40.308044 561.685772 42.229937 
C 561.685772 44.151831 562.449349 45.995268 563.808333 47.354252 
C 565.167317 48.713236 567.010753 49.476812 568.932647 49.476812 
z
" style="fill: #ffffff; stroke: #000000; stroke-linejoin: miter"/>
    </g>
    <!-- + -->
    <g transform="translate(563.904835 45.541188) scale(0.12 -0.12)">
     <use xlink:href="#DejaVuSans-2b"/>
    </g>
   </g>
   <g id="text_47">
    <!-- Timepoint (days) -->
    <g transform="translate(371.836875 14.798438) scale(0.1 -0.1)">
     <defs>
      <path id="DejaVuSans-54" d="M -19 4666 
L 3928 4666 
L 3928 4134 
L 2272 4134 
L 2272 0 
L 1638 0 
L 1638 4134 
L -19 4134 
L -19 4666 
z
" transform="scale(0.015625)"/>
      <path id="DejaVuSans-28" d="M 1984 4856 
Q 1566 4138 1362 3434 
Q 1159 2731 1159 2009 
Q 1159 1288 1364 580 
Q 1569 -128 1984 -844 
L 1484 -844 
Q 1016 -109 783 600 
Q 550 1309 550 2009 
Q 550 2706 781 3412 
Q 1013 4119 1484 4856 
L 1984 4856 
z
" transform="scale(0.015625)"/>
      <path id="DejaVuSans-29" d="M 513 4856 
L 1013 4856 
Q 1481 4119 1714 3412 
Q 1947 2706 1947 2009 
Q 1947 1309 1714 600 
Q 1481 -109 1013 -844 
L 513 -844 
Q 928 -128 1133 580 
Q 1338 1288 1338 2009 
Q 1338 2731 1133 3434 
Q 928 4138 513 4856 
z
" transform="scale(0.015625)"/>
     </defs>
     <use xlink:href="#DejaVuSans-54"/>
     <use xlink:href="#DejaVuSans-69" x="57.958984"/>
     <use xlink:href="#DejaVuSans-6d" x="85.742188"/>
     <use xlink:href="#DejaVuSans-65" x="183.154297"/>
     <use xlink:href="#DejaVuSans-70" x="244.677734"/>
     <use xlink:href="#DejaVuSans-6f" x="308.154297"/>
     <use xlink:href="#DejaVuSans-69" x="369.335938"/>
     <use xlink:href="#DejaVuSans-6e" x="397.119141"/>
     <use xlink:href="#DejaVuSans-74" x="460.498047"/>
     <use xlink:href="#DejaVuSans-20" x="499.707031"/>
     <use xlink:href="#DejaVuSans-28" x="531.494141"/>
     <use xlink:href="#DejaVuSans-64" x="570.507812"/>
     <use xlink:href="#DejaVuSans-61" x="633.984375"/>
     <use xlink:href="#DejaVuSans-79" x="695.263672"/>
     <use xlink:href="#DejaVuSans-73" x="754.443359"/>
     <use xlink:href="#DejaVuSans-29" x="806.542969"/>
    </g>
   </g>
  </g>
 </g>
 <defs>
  <clipPath id="pc7d15e88b6">
   <rect x="238.655" y="30.040938" width="350.92" height="243.78"/>
  </clipPath>
 </defs>
</svg>
