<?xml version="1.0" encoding="utf-8" standalone="no"?>
<!DOCTYPE svg PUBLIC "-//W3C//DTD SVG 1.1//EN"
  "http://www.w3.org/Graphics/SVG/1.1/DTD/svg11.dtd">
<svg xmlns:xlink="http://www.w3.org/1999/xlink" width="224.3736pt" height="156.846179pt" viewBox="0 0 224.3736 156.846179" xmlns="http://www.w3.org/2000/svg" version="1.1">
 <metadata>
  <rdf:RDF xmlns:dc="http://purl.org/dc/elements/1.1/" xmlns:cc="http://creativecommons.org/ns#" xmlns:rdf="http://www.w3.org/1999/02/22-rdf-syntax-ns#">
   <cc:Work>
    <dc:type rdf:resource="http://purl.org/dc/dcmitype/StillImage"/>
    <dc:date>2026-03-31T14:27:57.581583</dc:date>
    <dc:format>image/svg+xml</dc:format>
    <dc:creator>
     <cc:Agent>
      <dc:title>Matplotlib v3.10.8, https://matplotlib.org/</dc:title>
     </cc:Agent>
    </dc:creator>
   </cc:Work>
  </rdf:RDF>
 </metadata>
 <defs>
  <style type="text/css">*{stroke-linejoin: round; stroke-linecap: butt}</style>
 </defs>
 <g id="figure_1">
  <g id="patch_1">
   <path d="M -0 156.846179 
L 224.3736 156.846179 
L 224.3736 0 
L -0 0 
z
" style="fill: #ffffff"/>
  </g>
  <g id="axes_1">
   <g id="patch_2">
    <path d="M 39.79543 25.418181 
C 37.250851 25.418181 34.726574 25.87231 32.341544 26.759169 
C 29.956515 27.646027 27.748792 28.951464 25.822404 30.613966 
C 23.896016 32.276469 22.281703 34.269507 21.055533 36.499169 
C 19.829362 38.72883 19.010901 41.159535 18.638715 43.676748 
C 18.266529 46.193962 18.346557 48.757514 18.875028 51.246611 
C 19.4035 53.735708 20.371981 56.110629 21.734838 58.259467 
C 23.097695 60.408305 24.833179 62.296771 26.859514 63.835878 
C 28.885849 65.374986 31.170699 66.540175 33.606402 67.276542 
C 36.042105 68.012909 38.589792 68.308702 41.129417 68.149986 
C 43.669042 67.991269 46.160077 67.380574 48.485145 66.346677 
C 50.810213 65.31278 52.932212 63.872179 54.751151 62.092756 
C 56.57009 60.313334 58.056945 58.223484 59.141653 55.921683 
C 60.226362 53.619881 60.891615 51.142857 61.106067 48.607331 
C 61.320518 46.071804 61.080746 43.518235 60.398047 41.066948 
C 59.715348 38.615661 58.600618 36.305773 57.106382 34.246127 
C 55.612146 32.18648 53.762249 30.409942 51.643859 29.000223 
L 39.79543 46.804905 
z
" style="fill: #c94b45"/>
   </g>
   <g id="patch_3">
    <path d="M 51.643859 29.000223 
C 49.898336 27.838634 47.991445 26.940025 45.984461 26.333269 
C 43.977477 25.726513 41.89213 25.418181 39.795433 25.418181 
L 39.79543 46.804905 
z
" style="fill: #ffd21e"/>
   </g>
   <g id="matplotlib.axis_1"/>
   <g id="matplotlib.axis_2"/>
   <g id="text_1">
    <text style="font-size: 8px; font-family: 'Arial'; text-anchor: end" x="32.9875" y="71.391831" transform="rotate(-0 32.9875 71.391831)">Human</text>
   </g>
   <g id="text_2">
    <text style="font-size: 8px; font-family: 'Arial'; text-anchor: middle" x="36.082014" y="61.156012" transform="rotate(-0 36.082014 61.156012)">90.7%</text>
   </g>
   <g id="text_3">
    <text style="font-size: 8px; font-family: 'Arial'; text-anchor: start" x="46.603353" y="26.354228" transform="rotate(-0 46.603353 26.354228)">Mouse</text>
   </g>
   <g id="text_4">
    <text style="font-size: 8px; font-family: 'Arial'; text-anchor: middle" x="43.508843" y="36.590047" transform="rotate(-0 43.508843 36.590047)">9.3%</text>
   </g>
   <g id="text_5">
    <text style="font-size: 9.6px; font-family: 'Arial'; text-anchor: middle" x="39.79543" y="14.0715" transform="rotate(-0 39.79543 14.0715)">HEK-1</text>
   </g>
  </g>
  <g id="axes_2">
   <g id="patch_4">
    <path d="M 112.519749 25.418181 
C 109.801442 25.418181 107.107894 25.936436 104.583667 26.945133 
C 102.05944 27.953829 99.750515 29.434591 97.780812 31.307947 
C 95.81111 33.181303 94.21651 35.413128 93.082594 37.883639 
C 91.948679 40.35415 91.296103 43.018346 91.159892 45.733237 
C 91.02368 48.448129 91.406313 51.164263 92.287256 53.735864 
C 93.168198 56.307465 94.531402 58.687689 96.303705 60.748789 
C 98.076008 62.809889 100.225125 64.51432 102.635713 65.770606 
C 105.046302 67.026892 107.67445 67.812148 110.379106 68.084229 
C 113.083762 68.35631 115.815657 68.11026 118.42817 67.359285 
C 121.040684 66.60831 123.486226 65.366089 125.633546 63.699292 
C 127.780865 62.032496 129.590845 59.971486 130.966345 57.626877 
C 132.341845 55.282268 133.257808 52.696769 133.665075 50.009145 
C 134.072342 47.321521 133.963494 44.580728 133.344373 41.933866 
C 132.725251 39.287004 131.607135 36.782287 130.050032 34.554144 
C 128.492929 32.326001 126.525205 30.415019 124.252466 28.923761 
C 121.979728 27.432503 119.443375 26.388134 116.779535 25.846704 
L 112.519749 46.804905 
z
" style="fill: #c94b45"/>
   </g>
   <g id="patch_5">
    <path d="M 116.779538 25.846704 
C 116.078966 25.704312 115.371696 25.597137 114.66039 25.525581 
C 113.949084 25.454026 113.234638 25.418181 112.519742 25.418181 
L 112.519749 46.804905 
z
" style="fill: #ffd21e"/>
   </g>
   <g id="matplotlib.axis_3"/>
   <g id="matplotlib.axis_4"/>
   <g id="text_6">
    <text style="font-size: 8px; font-family: 'Arial'; text-anchor: end" x="110.165048" y="72.280287" transform="rotate(-0 110.165048 72.280287)">Human</text>
   </g>
   <g id="text_7">
    <text style="font-size: 8px; font-family: 'Arial'; text-anchor: middle" x="111.235366" y="61.640625" transform="rotate(-0 111.235366 61.640625)">96.8%</text>
   </g>
   <g id="text_8">
    <text style="font-size: 8px; font-family: 'Arial'; text-anchor: start" x="114.874454" y="25.465774" transform="rotate(-0 114.874454 25.465774)">Mouse</text>
   </g>
   <g id="text_9">
    <text style="font-size: 8px; font-family: 'Arial'; text-anchor: middle" x="113.804133" y="36.105436" transform="rotate(-0 113.804133 36.105436)">3.2%</text>
   </g>
   <g id="text_10">
    <text style="font-size: 9.6px; font-family: 'Arial'; text-anchor: middle" x="112.519749" y="14.0715" transform="rotate(-0 112.519749 14.0715)">HEK-2</text>
   </g>
  </g>
  <g id="axes_3">
   <g id="patch_6">
    <path d="M 185.244068 25.418181 
C 182.519183 25.418181 179.819237 25.938948 177.289827 26.952399 
C 174.760417 27.965849 172.447842 29.453433 170.476811 31.334931 
C 168.50578 33.216429 166.912371 35.457401 165.78251 37.937 
C 164.652649 40.416599 164.007018 43.089438 163.880433 45.811381 
C 163.753848 48.533324 164.148626 51.254548 165.043479 53.828307 
C 165.938331 56.402066 167.316878 58.78125 169.10478 60.837559 
C 170.892682 62.893867 173.057212 64.589661 175.481647 65.833492 
C 177.906081 67.077323 180.546041 67.846424 183.259165 68.099321 
C 185.972289 68.352217 188.708914 68.08428 191.321465 67.309959 
C 193.934016 66.535637 196.374672 65.269103 198.511818 63.578658 
C 200.648964 61.888212 202.44348 59.804797 203.798596 57.440763 
C 205.153711 55.076728 206.044622 52.475347 206.423284 49.776901 
C 206.801947 47.078454 206.661429 44.332336 206.00931 41.686635 
C 205.35719 39.040933 204.205406 36.544075 202.616067 34.330707 
C 201.026728 32.117339 199.028926 30.227974 196.730396 28.7645 
C 194.431866 27.301025 191.874681 26.290229 189.196738 25.786619 
L 185.244068 46.804905 
z
" style="fill: #c94b45"/>
   </g>
   <g id="patch_7">
    <path d="M 189.196736 25.786619 
C 188.545445 25.664139 187.888818 25.571995 187.228971 25.510489 
C 186.569123 25.448984 185.906768 25.418181 185.24406 25.418181 
L 185.244068 46.804905 
z
" style="fill: #ffd21e"/>
   </g>
   <g id="matplotlib.axis_5"/>
   <g id="matplotlib.axis_6"/>
   <g id="text_11">
    <text style="font-size: 8px; font-family: 'Arial'; text-anchor: end" x="183.060678" y="72.296888" transform="rotate(-0 183.060678 72.296888)">Human</text>
   </g>
   <g id="text_12">
    <text style="font-size: 8px; font-family: 'Arial'; text-anchor: middle" x="184.053128" y="61.64968" transform="rotate(-0 184.053128 61.64968)">97.0%</text>
   </g>
   <g id="text_13">
    <text style="font-size: 8px; font-family: 'Arial'; text-anchor: start" x="187.42745" y="25.449172" transform="rotate(-0 187.42745 25.449172)">Mouse</text>
   </g>
   <g id="text_14">
    <text style="font-size: 8px; font-family: 'Arial'; text-anchor: middle" x="186.435003" y="36.09638" transform="rotate(-0 186.435003 36.09638)">3.0%</text>
   </g>
   <g id="text_15">
    <text style="font-size: 9.6px; font-family: 'Arial'; text-anchor: middle" x="185.244068" y="14.0715" transform="rotate(-0 185.244068 14.0715)">HEK-3</text>
   </g>
  </g>
  <g id="axes_4">
   <g id="patch_8">
    <path d="M 39.79543 101.526049 
C 38.187545 101.526049 36.584775 101.707374 35.017528 102.066584 
C 33.450281 102.425794 31.928529 102.960602 30.481142 103.660864 
L 39.79543 122.912773 
z
" style="fill: #c94b45"/>
   </g>
   <g id="patch_9">
    <path d="M 30.48114 103.660865 
C 28.135346 104.795786 26.016614 106.349954 24.229582 108.24661 
C 22.44255 110.143267 21.017127 112.350666 20.023709 114.759798 
C 19.03029 117.168929 18.485505 119.739468 18.416258 122.344463 
C 18.347011 124.949458 18.754461 127.545309 19.618485 130.003816 
C 20.48251 132.462323 21.788648 134.742336 23.472393 136.731254 
C 25.156138 138.720173 27.18931 140.384707 29.471495 141.642651 
C 31.753681 142.900595 34.246674 143.730892 36.827373 144.092542 
C 39.408071 144.454193 42.033282 144.341136 44.573335 143.758962 
C 47.113387 143.176788 49.525769 142.135241 51.691359 140.685754 
C 53.85695 139.236267 55.7395 137.403095 57.246022 135.276787 
C 58.752543 133.150479 59.857828 130.766626 60.507294 128.24294 
C 61.15676 125.719255 61.339535 123.097996 61.046593 120.508599 
C 60.75365 117.919201 59.989889 115.405005 58.793034 113.090198 
C 57.59618 110.775389 55.986268 108.698711 54.042795 106.962708 
C 52.099322 105.226705 49.854814 103.860437 47.420135 102.931386 
C 44.985457 102.002336 42.401349 101.526049 39.795433 101.526049 
L 39.79543 122.912773 
z
" style="fill: #ffd21e"/>
   </g>
   <g id="matplotlib.axis_7"/>
   <g id="matplotlib.axis_8"/>
   <g id="text_16">
    <text style="font-size: 8px; font-family: 'Arial'; text-anchor: end" x="34.539738" y="102.05009" transform="rotate(-0 34.539738 102.05009)">Human</text>
   </g>
   <g id="text_17">
    <text style="font-size: 8px; font-family: 'Arial'; text-anchor: middle" x="36.928689" y="112.473185" transform="rotate(-0 36.928689 112.473185)">7.2%</text>
   </g>
   <g id="text_18">
    <text style="font-size: 8px; font-family: 'Arial'; text-anchor: start" x="45.051125" y="147.911707" transform="rotate(-0 45.051125 147.911707)">Mouse</text>
   </g>
   <g id="text_19">
    <text style="font-size: 8px; font-family: 'Arial'; text-anchor: middle" x="42.662173" y="137.488612" transform="rotate(-0 42.662173 137.488612)">92.8%</text>
   </g>
   <g id="text_20">
    <text style="font-size: 9.6px; font-family: 'Arial'; text-anchor: middle" x="39.79543" y="90.179368" transform="rotate(-0 39.79543 90.179368)">N2a-1</text>
   </g>
  </g>
  <g id="axes_5">
   <g id="patch_10">
    <path d="M 112.519749 101.526049 
C 110.868863 101.526049 109.223514 101.717202 107.616599 102.095687 
C 106.009684 102.474171 104.451984 103.037448 102.974641 103.774255 
L 112.519749 122.912773 
z
" style="fill: #c94b45"/>
   </g>
   <g id="patch_11">
    <path d="M 102.974641 103.774255 
C 100.647499 104.93489 98.551437 106.510305 96.789559 108.423014 
C 95.027681 110.335722 93.62935 112.553842 92.663341 114.968276 
C 91.697332 117.382711 91.179747 119.953218 91.136045 122.553364 
C 91.092342 125.15351 91.523251 127.739955 92.407574 130.185489 
C 93.291897 132.631024 94.6149 134.894886 96.311505 136.865723 
C 98.008111 138.83656 100.050043 140.481526 102.336867 141.719711 
C 104.623692 142.957895 107.117296 143.768665 109.695027 144.112135 
C 112.272758 144.455606 114.891645 144.326058 117.422893 143.729861 
C 119.954141 143.133664 122.355563 142.080751 124.509024 140.622919 
C 126.662484 139.165086 128.532096 137.326635 130.025912 135.197977 
C 131.519728 133.06932 132.612845 130.68594 133.251496 128.165069 
C 133.890147 125.644197 134.06369 123.027848 133.763587 120.444709 
C 133.463483 117.86157 132.694736 115.354693 131.495156 113.047384 
C 130.295576 110.740074 128.685164 108.670793 126.743117 106.941307 
C 124.80107 105.21182 122.559763 103.850959 120.129435 102.925661 
C 117.699108 102.000364 115.120265 101.526049 112.519752 101.526049 
L 112.519749 122.912773 
z
" style="fill: #ffd21e"/>
   </g>
   <g id="matplotlib.axis_9"/>
   <g id="matplotlib.axis_10"/>
   <g id="text_21">
    <text style="font-size: 8px; font-family: 'Arial'; text-anchor: end" x="107.126285" y="102.082103" transform="rotate(-0 107.126285 102.082103)">Human</text>
   </g>
   <g id="text_22">
    <text style="font-size: 8px; font-family: 'Arial'; text-anchor: middle" x="109.577859" y="112.490646" transform="rotate(-0 109.577859 112.490646)">7.4%</text>
   </g>
   <g id="text_23">
    <text style="font-size: 8px; font-family: 'Arial'; text-anchor: start" x="117.913218" y="147.879693" transform="rotate(-0 117.913218 147.879693)">Mouse</text>
   </g>
   <g id="text_24">
    <text style="font-size: 8px; font-family: 'Arial'; text-anchor: middle" x="115.461641" y="137.47115" transform="rotate(-0 115.461641 137.47115)">92.6%</text>
   </g>
   <g id="text_25">
    <text style="font-size: 9.6px; font-family: 'Arial'; text-anchor: middle" x="112.519749" y="90.179368" transform="rotate(-0 112.519749 90.179368)">N2a-2</text>
   </g>
  </g>
  <g id="axes_6">
   <g id="patch_12">
    <path d="M 185.244068 101.526049 
C 182.790408 101.526049 180.354948 101.948305 178.044498 102.774299 
C 175.734047 103.600292 173.582882 104.81777 171.685343 106.373337 
L 185.244068 122.912773 
z
" style="fill: #c94b45"/>
   </g>
   <g id="patch_13">
    <path d="M 171.685345 106.373336 
C 169.752048 107.958217 168.111523 109.869868 166.838418 112.021307 
C 165.565313 114.172745 164.679236 116.530834 164.220501 118.988281 
C 163.761768 121.445728 163.737441 123.96468 164.148632 126.430528 
C 164.559823 128.896375 165.400198 131.271141 166.631517 133.446763 
C 167.862835 135.622387 169.466138 137.565363 171.368468 139.187284 
C 173.270797 140.809204 175.442855 142.085088 177.785813 142.956885 
C 180.128771 143.828681 182.606552 144.282962 185.106396 144.299054 
C 187.606241 144.315146 190.089654 143.892806 192.443642 143.051246 
C 194.79763 142.209687 196.985934 140.961873 198.908987 139.364579 
C 200.832041 137.767286 202.460223 135.845115 203.719451 133.685526 
C 204.978679 131.525936 205.849557 129.162193 206.292462 126.701844 
C 206.735367 124.241495 206.743477 121.722438 206.31642 119.259288 
C 205.889364 116.796139 205.03372 114.426837 203.788421 112.259186 
C 202.543122 110.091534 200.927334 108.158907 199.014603 106.549267 
C 197.101871 104.939627 194.921645 103.677755 192.573123 102.821061 
C 190.224601 101.964366 187.743967 101.526049 185.244071 101.526049 
L 185.244068 122.912773 
z
" style="fill: #ffd21e"/>
   </g>
   <g id="matplotlib.axis_11"/>
   <g id="matplotlib.axis_12"/>
   <g id="text_26">
    <text style="font-size: 8px; font-family: 'Arial'; text-anchor: end" x="177.324538" y="102.828577" transform="rotate(-0 177.324538 102.828577)">Human</text>
   </g>
   <g id="text_27">
    <text style="font-size: 8px; font-family: 'Arial'; text-anchor: middle" x="180.924324" y="112.897814" transform="rotate(-0 180.924324 112.897814)">10.9%</text>
   </g>
   <g id="text_28">
    <text style="font-size: 8px; font-family: 'Arial'; text-anchor: start" x="193.1636" y="147.133219" transform="rotate(-0 193.1636 147.133219)">Mouse</text>
   </g>
   <g id="text_29">
    <text style="font-size: 8px; font-family: 'Arial'; text-anchor: middle" x="189.563812" y="137.063982" transform="rotate(-0 189.563812 137.063982)">89.1%</text>
   </g>
   <g id="text_30">
    <text style="font-size: 9.6px; font-family: 'Arial'; text-anchor: middle" x="185.244068" y="90.179368" transform="rotate(-0 185.244068 90.179368)">N2a-3</text>
   </g>
  </g>
 </g>
</svg>
