<?xml version="1.0" encoding="utf-8" standalone="no"?>
<!DOCTYPE svg PUBLIC "-//W3C//DTD SVG 1.1//EN"
  "http://www.w3.org/Graphics/SVG/1.1/DTD/svg11.dtd">
<svg xmlns:xlink="http://www.w3.org/1999/xlink" width="420.286659pt" height="214.81125pt" viewBox="0 0 420.286659 214.81125" xmlns="http://www.w3.org/2000/svg" version="1.1">
 <metadata>
  <rdf:RDF xmlns:dc="http://purl.org/dc/elements/1.1/" xmlns:cc="http://creativecommons.org/ns#" xmlns:rdf="http://www.w3.org/1999/02/22-rdf-syntax-ns#">
   <cc:Work>
    <dc:type rdf:resource="http://purl.org/dc/dcmitype/StillImage"/>
    <dc:date>2026-04-02T10:29:09.151232</dc:date>
    <dc:format>image/svg+xml</dc:format>
    <dc:creator>
     <cc:Agent>
      <dc:title>Matplotlib v3.9.0, https://matplotlib.org/</dc:title>
     </cc:Agent>
    </dc:creator>
   </cc:Work>
  </rdf:RDF>
 </metadata>
 <defs>
  <style type="text/css">*{stroke-linejoin: round; stroke-linecap: butt}</style>
 </defs>
 <g id="figure_1">
  <g id="patch_1">
   <path d="M 0 214.81125 
L 420.286659 214.81125 
L 420.286659 0 
L 0 0 
z
" style="fill: #ffffff"/>
  </g>
  <g id="axes_1">
   <g id="patch_2">
    <path d="M 41.2125 172.168 
L 210.716659 172.168 
L 210.716659 7.2 
L 41.2125 7.2 
z
" style="fill: #ffffff"/>
   </g>
   <g id="matplotlib.axis_1">
    <g id="xtick_1">
     <g id="line2d_1">
      <path d="M 48.917234 172.168 
L 48.917234 7.2 
" clip-path="url(#p6d3fc5a557)" style="fill: none; stroke: #b0b0b0; stroke-opacity: 0.2; stroke-width: 0.8; stroke-linecap: square"/>
     </g>
     <g id="line2d_2">
      <defs>
       <path id="m1c4d084966" d="M 0 0 
L 0 3.5 
" style="stroke: #000000; stroke-width: 0.8"/>
      </defs>
      <g>
       <use xlink:href="#m1c4d084966" x="48.917234" y="172.168" style="stroke: #000000; stroke-width: 0.8"/>
      </g>
     </g>
     <g id="text_1">
      <text style="font: 8px 'DejaVu Sans', 'Bitstream Vera Sans', 'Computer Modern Sans Serif', 'Lucida Grande', 'Verdana', 'Geneva', 'Lucid', 'Arial', 'Helvetica', 'Avant Garde', sans-serif; text-anchor: middle" x="48.917234" y="185.24675" transform="rotate(-0 48.917234 185.24675)">0</text>
     </g>
    </g>
    <g id="xtick_2">
     <g id="line2d_3">
      <path d="M 79.736172 172.168 
L 79.736172 7.2 
" clip-path="url(#p6d3fc5a557)" style="fill: none; stroke: #b0b0b0; stroke-opacity: 0.2; stroke-width: 0.8; stroke-linecap: square"/>
     </g>
     <g id="line2d_4">
      <g>
       <use xlink:href="#m1c4d084966" x="79.736172" y="172.168" style="stroke: #000000; stroke-width: 0.8"/>
      </g>
     </g>
     <g id="text_2">
      <text style="font: 8px 'DejaVu Sans', 'Bitstream Vera Sans', 'Computer Modern Sans Serif', 'Lucida Grande', 'Verdana', 'Geneva', 'Lucid', 'Arial', 'Helvetica', 'Avant Garde', sans-serif; text-anchor: middle" x="79.736172" y="185.24675" transform="rotate(-0 79.736172 185.24675)">20</text>
     </g>
    </g>
    <g id="xtick_3">
     <g id="line2d_5">
      <path d="M 110.55511 172.168 
L 110.55511 7.2 
" clip-path="url(#p6d3fc5a557)" style="fill: none; stroke: #b0b0b0; stroke-opacity: 0.2; stroke-width: 0.8; stroke-linecap: square"/>
     </g>
     <g id="line2d_6">
      <g>
       <use xlink:href="#m1c4d084966" x="110.55511" y="172.168" style="stroke: #000000; stroke-width: 0.8"/>
      </g>
     </g>
     <g id="text_3">
      <text style="font: 8px 'DejaVu Sans', 'Bitstream Vera Sans', 'Computer Modern Sans Serif', 'Lucida Grande', 'Verdana', 'Geneva', 'Lucid', 'Arial', 'Helvetica', 'Avant Garde', sans-serif; text-anchor: middle" x="110.55511" y="185.24675" transform="rotate(-0 110.55511 185.24675)">40</text>
     </g>
    </g>
    <g id="xtick_4">
     <g id="line2d_7">
      <path d="M 141.374048 172.168 
L 141.374048 7.2 
" clip-path="url(#p6d3fc5a557)" style="fill: none; stroke: #b0b0b0; stroke-opacity: 0.2; stroke-width: 0.8; stroke-linecap: square"/>
     </g>
     <g id="line2d_8">
      <g>
       <use xlink:href="#m1c4d084966" x="141.374048" y="172.168" style="stroke: #000000; stroke-width: 0.8"/>
      </g>
     </g>
     <g id="text_4">
      <text style="font: 8px 'DejaVu Sans', 'Bitstream Vera Sans', 'Computer Modern Sans Serif', 'Lucida Grande', 'Verdana', 'Geneva', 'Lucid', 'Arial', 'Helvetica', 'Avant Garde', sans-serif; text-anchor: middle" x="141.374048" y="185.24675" transform="rotate(-0 141.374048 185.24675)">60</text>
     </g>
    </g>
    <g id="xtick_5">
     <g id="line2d_9">
      <path d="M 172.192986 172.168 
L 172.192986 7.2 
" clip-path="url(#p6d3fc5a557)" style="fill: none; stroke: #b0b0b0; stroke-opacity: 0.2; stroke-width: 0.8; stroke-linecap: square"/>
     </g>
     <g id="line2d_10">
      <g>
       <use xlink:href="#m1c4d084966" x="172.192986" y="172.168" style="stroke: #000000; stroke-width: 0.8"/>
      </g>
     </g>
     <g id="text_5">
      <text style="font: 8px 'DejaVu Sans', 'Bitstream Vera Sans', 'Computer Modern Sans Serif', 'Lucida Grande', 'Verdana', 'Geneva', 'Lucid', 'Arial', 'Helvetica', 'Avant Garde', sans-serif; text-anchor: middle" x="172.192986" y="185.24675" transform="rotate(-0 172.192986 185.24675)">80</text>
     </g>
    </g>
    <g id="xtick_6">
     <g id="line2d_11">
      <path d="M 203.011924 172.168 
L 203.011924 7.2 
" clip-path="url(#p6d3fc5a557)" style="fill: none; stroke: #b0b0b0; stroke-opacity: 0.2; stroke-width: 0.8; stroke-linecap: square"/>
     </g>
     <g id="line2d_12">
      <g>
       <use xlink:href="#m1c4d084966" x="203.011924" y="172.168" style="stroke: #000000; stroke-width: 0.8"/>
      </g>
     </g>
     <g id="text_6">
      <text style="font: 8px 'DejaVu Sans', 'Bitstream Vera Sans', 'Computer Modern Sans Serif', 'Lucida Grande', 'Verdana', 'Geneva', 'Lucid', 'Arial', 'Helvetica', 'Avant Garde', sans-serif; text-anchor: middle" x="203.011924" y="185.24675" transform="rotate(-0 203.011924 185.24675)">100</text>
     </g>
    </g>
    <g id="text_7">
     <text style="font: 8px 'DejaVu Sans', 'Bitstream Vera Sans', 'Computer Modern Sans Serif', 'Lucida Grande', 'Verdana', 'Geneva', 'Lucid', 'Arial', 'Helvetica', 'Avant Garde', sans-serif" transform="translate(47.746454 196.98925)">Cumulative gene expression percentile</text>
     <text style="font: 8px 'DejaVu Sans', 'Bitstream Vera Sans', 'Computer Modern Sans Serif', 'Lucida Grande', 'Verdana', 'Geneva', 'Lucid', 'Arial', 'Helvetica', 'Avant Garde', sans-serif" transform="translate(64.957704 205.9475)">(% of highest to lowest genes)</text>
    </g>
   </g>
   <g id="matplotlib.axis_2">
    <g id="ytick_1">
     <g id="line2d_13">
      <path d="M 41.2125 164.669455 
L 210.716659 164.669455 
" clip-path="url(#p6d3fc5a557)" style="fill: none; stroke: #b0b0b0; stroke-opacity: 0.2; stroke-width: 0.8; stroke-linecap: square"/>
     </g>
     <g id="line2d_14">
      <defs>
       <path id="m9ad815c02e" d="M 0 0 
L -3.5 0 
" style="stroke: #000000; stroke-width: 0.8"/>
      </defs>
      <g>
       <use xlink:href="#m9ad815c02e" x="41.2125" y="164.669455" style="stroke: #000000; stroke-width: 0.8"/>
      </g>
     </g>
     <g id="text_8">
      <text style="font: 8px 'DejaVu Sans', 'Bitstream Vera Sans', 'Computer Modern Sans Serif', 'Lucida Grande', 'Verdana', 'Geneva', 'Lucid', 'Arial', 'Helvetica', 'Avant Garde', sans-serif; text-anchor: end" x="34.2125" y="167.70883" transform="rotate(-0 34.2125 167.70883)">0</text>
     </g>
    </g>
    <g id="ytick_2">
     <g id="line2d_15">
      <path d="M 41.2125 134.675273 
L 210.716659 134.675273 
" clip-path="url(#p6d3fc5a557)" style="fill: none; stroke: #b0b0b0; stroke-opacity: 0.2; stroke-width: 0.8; stroke-linecap: square"/>
     </g>
     <g id="line2d_16">
      <g>
       <use xlink:href="#m9ad815c02e" x="41.2125" y="134.675273" style="stroke: #000000; stroke-width: 0.8"/>
      </g>
     </g>
     <g id="text_9">
      <text style="font: 8px 'DejaVu Sans', 'Bitstream Vera Sans', 'Computer Modern Sans Serif', 'Lucida Grande', 'Verdana', 'Geneva', 'Lucid', 'Arial', 'Helvetica', 'Avant Garde', sans-serif; text-anchor: end" x="34.2125" y="137.714648" transform="rotate(-0 34.2125 137.714648)">20</text>
     </g>
    </g>
    <g id="ytick_3">
     <g id="line2d_17">
      <path d="M 41.2125 104.681091 
L 210.716659 104.681091 
" clip-path="url(#p6d3fc5a557)" style="fill: none; stroke: #b0b0b0; stroke-opacity: 0.2; stroke-width: 0.8; stroke-linecap: square"/>
     </g>
     <g id="line2d_18">
      <g>
       <use xlink:href="#m9ad815c02e" x="41.2125" y="104.681091" style="stroke: #000000; stroke-width: 0.8"/>
      </g>
     </g>
     <g id="text_10">
      <text style="font: 8px 'DejaVu Sans', 'Bitstream Vera Sans', 'Computer Modern Sans Serif', 'Lucida Grande', 'Verdana', 'Geneva', 'Lucid', 'Arial', 'Helvetica', 'Avant Garde', sans-serif; text-anchor: end" x="34.2125" y="107.720466" transform="rotate(-0 34.2125 107.720466)">40</text>
     </g>
    </g>
    <g id="ytick_4">
     <g id="line2d_19">
      <path d="M 41.2125 74.686909 
L 210.716659 74.686909 
" clip-path="url(#p6d3fc5a557)" style="fill: none; stroke: #b0b0b0; stroke-opacity: 0.2; stroke-width: 0.8; stroke-linecap: square"/>
     </g>
     <g id="line2d_20">
      <g>
       <use xlink:href="#m9ad815c02e" x="41.2125" y="74.686909" style="stroke: #000000; stroke-width: 0.8"/>
      </g>
     </g>
     <g id="text_11">
      <text style="font: 8px 'DejaVu Sans', 'Bitstream Vera Sans', 'Computer Modern Sans Serif', 'Lucida Grande', 'Verdana', 'Geneva', 'Lucid', 'Arial', 'Helvetica', 'Avant Garde', sans-serif; text-anchor: end" x="34.2125" y="77.726284" transform="rotate(-0 34.2125 77.726284)">60</text>
     </g>
    </g>
    <g id="ytick_5">
     <g id="line2d_21">
      <path d="M 41.2125 44.692727 
L 210.716659 44.692727 
" clip-path="url(#p6d3fc5a557)" style="fill: none; stroke: #b0b0b0; stroke-opacity: 0.2; stroke-width: 0.8; stroke-linecap: square"/>
     </g>
     <g id="line2d_22">
      <g>
       <use xlink:href="#m9ad815c02e" x="41.2125" y="44.692727" style="stroke: #000000; stroke-width: 0.8"/>
      </g>
     </g>
     <g id="text_12">
      <text style="font: 8px 'DejaVu Sans', 'Bitstream Vera Sans', 'Computer Modern Sans Serif', 'Lucida Grande', 'Verdana', 'Geneva', 'Lucid', 'Arial', 'Helvetica', 'Avant Garde', sans-serif; text-anchor: end" x="34.2125" y="47.732102" transform="rotate(-0 34.2125 47.732102)">80</text>
     </g>
    </g>
    <g id="ytick_6">
     <g id="line2d_23">
      <path d="M 41.2125 14.698545 
L 210.716659 14.698545 
" clip-path="url(#p6d3fc5a557)" style="fill: none; stroke: #b0b0b0; stroke-opacity: 0.2; stroke-width: 0.8; stroke-linecap: square"/>
     </g>
     <g id="line2d_24">
      <g>
       <use xlink:href="#m9ad815c02e" x="41.2125" y="14.698545" style="stroke: #000000; stroke-width: 0.8"/>
      </g>
     </g>
     <g id="text_13">
      <text style="font: 8px 'DejaVu Sans', 'Bitstream Vera Sans', 'Computer Modern Sans Serif', 'Lucida Grande', 'Verdana', 'Geneva', 'Lucid', 'Arial', 'Helvetica', 'Avant Garde', sans-serif; text-anchor: end" x="34.2125" y="17.73792" transform="rotate(-0 34.2125 17.73792)">100</text>
     </g>
    </g>
    <g id="text_14">
     <text style="font: 8px 'DejaVu Sans', 'Bitstream Vera Sans', 'Computer Modern Sans Serif', 'Lucida Grande', 'Verdana', 'Geneva', 'Lucid', 'Arial', 'Helvetica', 'Avant Garde', sans-serif; text-anchor: middle" x="13.27875" y="89.684" transform="rotate(-90 13.27875 89.684)">mRNA Detection Rate</text>
    </g>
   </g>
   <g id="line2d_25">
    <path d="M 51.999128 14.698545 
L 55.081022 14.698545 
L 58.162916 14.698545 
L 61.24481 14.698545 
L 64.326703 14.830562 
L 67.408597 14.918605 
L 70.490491 14.887188 
L 73.572385 15.028696 
L 76.654279 15.138558 
L 79.736172 15.160604 
L 82.818066 15.118632 
L 85.89996 15.083651 
L 88.981854 15.257191 
L 92.063748 15.311441 
L 95.145641 15.490645 
L 98.227535 15.564952 
L 101.309429 15.785854 
L 104.391323 15.872199 
L 107.473217 16.018957 
L 110.55511 16.315749 
L 113.637004 16.395973 
L 116.718898 16.498917 
L 119.800792 16.65032 
L 122.882686 16.706593 
L 125.964579 17.074845 
L 129.046473 17.262802 
L 132.128367 17.656889 
L 135.210261 17.834237 
L 138.292154 18.181476 
L 141.374048 18.439566 
L 144.455942 18.723038 
L 147.537836 19.009951 
L 150.61973 19.259485 
L 153.701623 19.630266 
L 156.783517 19.961014 
L 159.865411 20.365091 
L 162.947305 20.835827 
L 166.029199 21.282465 
L 169.111092 21.706215 
L 172.192986 22.009772 
L 175.27488 22.507853 
L 178.356774 22.965649 
L 181.438668 23.341561 
L 184.520561 23.880438 
L 187.602455 24.571422 
L 190.684349 24.974064 
L 193.766243 25.443862 
L 196.848137 26.071855 
L 199.93003 26.607842 
L 203.011924 27.267637 
" clip-path="url(#p6d3fc5a557)" style="fill: none; stroke: #77c8dc; stroke-opacity: 0.95; stroke-width: 3.5; stroke-linecap: square"/>
   </g>
   <g id="line2d_26">
    <path d="M 51.999128 14.698545 
L 55.081022 17.358783 
L 58.162916 17.804452 
L 61.24481 19.353962 
L 64.326703 20.420594 
L 67.408597 20.351551 
L 70.490491 20.590939 
L 73.572385 21.099743 
L 76.654279 21.350779 
L 79.736172 21.748176 
L 82.818066 22.257563 
L 85.89996 22.679259 
L 88.981854 23.448128 
L 92.063748 24.104386 
L 95.145641 24.454193 
L 98.227535 24.965401 
L 101.309429 25.614769 
L 104.391323 26.1154 
L 107.473217 26.390955 
L 110.55511 26.835881 
L 113.637004 27.272664 
L 116.718898 27.667205 
L 119.800792 28.290201 
L 122.882686 28.886481 
L 125.964579 29.703618 
L 129.046473 30.04869 
L 132.128367 30.414945 
L 135.210261 31.042595 
L 138.292154 31.463912 
L 141.374048 31.926132 
L 144.455942 32.484795 
L 147.537836 32.927858 
L 150.61973 33.523008 
L 153.701623 34.144291 
L 156.783517 34.708602 
L 159.865411 35.465738 
L 162.947305 35.945772 
L 166.029199 36.560551 
L 169.111092 37.090154 
L 172.192986 37.778668 
L 175.27488 38.252657 
L 178.356774 38.722396 
L 181.438668 39.492622 
L 184.520561 40.260566 
L 187.602455 40.991858 
L 190.684349 41.766184 
L 193.766243 42.533305 
L 196.848137 43.298745 
L 199.93003 44.071072 
L 203.011924 44.828411 
" clip-path="url(#p6d3fc5a557)" style="fill: none; stroke-dasharray: 16,6; stroke-dashoffset: 0; stroke: #bdc7e3; stroke-opacity: 0.95; stroke-width: 2"/>
   </g>
   <g id="line2d_27">
    <path d="M 51.999128 35.735189 
L 55.081022 41.503301 
L 58.162916 43.199804 
L 61.24481 43.878406 
L 64.326703 44.176523 
L 67.408597 45.371841 
L 70.490491 45.934401 
L 73.572385 45.677256 
L 76.654279 45.703598 
L 79.736172 46.199904 
L 82.818066 47.40825 
L 85.89996 48.697986 
L 88.981854 49.371485 
L 92.063748 49.318406 
L 95.145641 49.67969 
L 98.227535 49.581422 
L 101.309429 49.605223 
L 104.391323 49.55094 
L 107.473217 49.859702 
L 110.55511 50.205465 
L 113.637004 50.550612 
L 116.718898 50.771795 
L 119.800792 50.944221 
L 122.882686 51.18713 
L 125.964579 51.770311 
L 129.046473 51.701641 
L 132.128367 51.939812 
L 135.210261 52.185211 
L 138.292154 52.320033 
L 141.374048 52.672166 
L 144.455942 52.738772 
L 147.537836 53.204303 
L 150.61973 53.600464 
L 153.701623 53.733711 
L 156.783517 54.014509 
L 159.865411 54.228101 
L 162.947305 54.443681 
L 166.029199 54.915905 
L 169.111092 55.416126 
L 172.192986 55.619761 
L 175.27488 56.26054 
L 178.356774 56.563673 
L 181.438668 56.979006 
L 184.520561 57.082299 
L 187.602455 57.562464 
L 190.684349 58.04709 
L 193.766243 58.539974 
L 196.848137 59.068888 
L 199.93003 59.534638 
L 203.011924 60.036062 
" clip-path="url(#p6d3fc5a557)" style="fill: none; stroke-dasharray: 6,4; stroke-dashoffset: 0; stroke: #ecb0a3; stroke-opacity: 0.95; stroke-width: 2"/>
   </g>
   <g id="line2d_28">
    <path d="M 51.999128 16.008335 
L 55.081022 20.93366 
L 58.162916 21.694273 
L 61.24481 23.558971 
L 64.326703 25.457613 
L 67.408597 26.722452 
L 70.490491 28.008464 
L 73.572385 29.047867 
L 76.654279 29.06134 
L 79.736172 29.459462 
L 82.818066 29.785082 
L 85.89996 30.007278 
L 88.981854 30.341541 
L 92.063748 31.617139 
L 95.145641 32.717797 
L 98.227535 33.516656 
L 101.309429 34.187817 
L 104.391323 34.81615 
L 107.473217 34.830491 
L 110.55511 35.101412 
L 113.637004 35.252775 
L 116.718898 35.305008 
L 119.800792 35.833662 
L 122.882686 36.349468 
L 125.964579 36.793997 
L 129.046473 36.851045 
L 132.128367 37.296236 
L 135.210261 37.75297 
L 138.292154 38.091202 
L 141.374048 38.622164 
L 144.455942 38.886037 
L 147.537836 39.259742 
L 150.61973 39.567794 
L 153.701623 39.745154 
L 156.783517 40.190414 
L 159.865411 40.702007 
L 162.947305 41.348614 
L 166.029199 41.802762 
L 169.111092 42.23667 
L 172.192986 42.580276 
L 175.27488 42.987094 
L 178.356774 43.393115 
L 181.438668 43.701058 
L 184.520561 44.266284 
L 187.602455 44.716053 
L 190.684349 45.117711 
L 193.766243 45.714495 
L 196.848137 46.160592 
L 199.93003 46.510962 
L 203.011924 47.093836 
" clip-path="url(#p6d3fc5a557)" style="fill: none; stroke-dasharray: 12.8,3.2,2,3.2; stroke-dashoffset: 0; stroke: #d7e6d5; stroke-opacity: 0.95; stroke-width: 2"/>
   </g>
   <g id="line2d_29">
    <path d="M 51.999128 37.400564 
L 55.081022 41.184234 
L 58.162916 43.406606 
L 61.24481 45.174838 
L 64.326703 46.235128 
L 67.408597 47.171206 
L 70.490491 46.680531 
L 73.572385 47.327119 
L 76.654279 47.141232 
L 79.736172 47.474557 
L 82.818066 47.684634 
L 85.89996 48.38891 
L 88.981854 49.237942 
L 92.063748 50.457434 
L 95.145641 51.009225 
L 98.227535 51.63168 
L 101.309429 52.171017 
L 104.391323 52.688625 
L 107.473217 53.260423 
L 110.55511 53.843845 
L 113.637004 53.986791 
L 116.718898 54.265072 
L 119.800792 54.608951 
L 122.882686 54.952838 
L 125.964579 55.55212 
L 129.046473 55.992196 
L 132.128367 56.578177 
L 135.210261 57.146855 
L 138.292154 58.079934 
L 141.374048 58.70501 
L 144.455942 59.172218 
L 147.537836 60.04059 
L 150.61973 60.501543 
L 153.701623 61.158136 
L 156.783517 61.507886 
L 159.865411 62.291354 
L 162.947305 63.162711 
L 166.029199 63.897557 
L 169.111092 64.635874 
L 172.192986 65.383238 
L 175.27488 65.942945 
L 178.356774 66.492369 
L 181.438668 67.208381 
L 184.520561 67.756506 
L 187.602455 68.443222 
L 190.684349 69.234782 
L 193.766243 69.934021 
L 196.848137 70.882041 
L 199.93003 71.631556 
L 203.011924 72.461241 
" clip-path="url(#p6d3fc5a557)" style="fill: none; stroke-dasharray: 16,6,2,6,2,6; stroke-dashoffset: 0; stroke: #b4c7b0; stroke-opacity: 0.95; stroke-width: 2"/>
   </g>
   <g id="line2d_30">
    <path d="M 51.999128 105.653125 
L 55.081022 115.955006 
L 58.162916 122.019304 
L 61.24481 126.741777 
L 64.326703 129.4722 
L 67.408597 131.291076 
L 70.490491 131.773251 
L 73.572385 132.93648 
L 76.654279 132.913636 
L 79.736172 133.367549 
L 82.818066 133.815406 
L 85.89996 134.350635 
L 88.981854 134.707375 
L 92.063748 135.162094 
L 95.145641 135.176103 
L 98.227535 135.41426 
L 101.309429 135.133449 
L 104.391323 135.301279 
L 107.473217 135.531831 
L 110.55511 135.489122 
L 113.637004 135.556286 
L 116.718898 135.648946 
L 119.800792 135.757942 
L 122.882686 135.718549 
L 125.964579 135.593462 
L 129.046473 135.670442 
L 132.128367 136.025062 
L 135.210261 136.051517 
L 138.292154 135.98479 
L 141.374048 135.876153 
L 144.455942 135.927274 
L 147.537836 136.044572 
L 150.61973 136.129664 
L 153.701623 136.336388 
L 156.783517 136.431922 
L 159.865411 136.499191 
L 162.947305 136.679146 
L 166.029199 136.849613 
L 169.111092 137.008035 
L 172.192986 137.179135 
L 175.27488 137.372713 
L 178.356774 137.411049 
L 181.438668 137.722568 
L 184.520561 137.795781 
L 187.602455 137.99216 
L 190.684349 138.104389 
L 193.766243 138.209223 
L 196.848137 138.428168 
L 199.93003 138.593112 
L 203.011924 138.892987 
" clip-path="url(#p6d3fc5a557)" style="fill: none; stroke-dasharray: 16,6; stroke-dashoffset: 0; stroke: #000000; stroke-opacity: 0.95; stroke-width: 2"/>
   </g>
   <g id="line2d_31">
    <path d="M 41.2125 89.684 
L 210.716659 89.684 
" clip-path="url(#p6d3fc5a557)" style="fill: none; stroke-dasharray: 3.7,1.6; stroke-dashoffset: 0; stroke: #808080; stroke-opacity: 0.4"/>
   </g>
   <g id="patch_3">
    <path d="M 41.2125 172.168 
L 41.2125 7.2 
" style="fill: none; stroke: #000000; stroke-width: 0.8; stroke-linejoin: miter; stroke-linecap: square"/>
   </g>
   <g id="patch_4">
    <path d="M 210.716659 172.168 
L 210.716659 7.2 
" style="fill: none; stroke: #000000; stroke-width: 0.8; stroke-linejoin: miter; stroke-linecap: square"/>
   </g>
   <g id="patch_5">
    <path d="M 41.2125 172.168 
L 210.716659 172.168 
" style="fill: none; stroke: #000000; stroke-width: 0.8; stroke-linejoin: miter; stroke-linecap: square"/>
   </g>
   <g id="patch_6">
    <path d="M 41.2125 7.2 
L 210.716659 7.2 
" style="fill: none; stroke: #000000; stroke-width: 0.8; stroke-linejoin: miter; stroke-linecap: square"/>
   </g>
   <g id="legend_1">
    <g id="line2d_32">
     <path d="M 47.5125 141.398625 
L 55.2125 141.398625 
L 62.9125 141.398625 
" style="fill: none; stroke: #77c8dc; stroke-opacity: 0.95; stroke-width: 3.5; stroke-linecap: square"/>
    </g>
    <g id="text_15">
     <!-- NTVE$_{\mathrm{PABP}}$ -->
     <g transform="translate(65.7125 143.848625)">
      <text>
       <tspan style="font: 7px 'DejaVu Sans'" x="0 5.236328 9.512207 14.300781" y="-0.890625">NTVE</tspan>
       <tspan style="font: 4.9px 'DejaVu Sans'" x="18.790625 21.745459 25.097461 28.459033" y="0.2578125">PABP</tspan>
      </text>
     </g>
    </g>
    <g id="line2d_33">
     <path d="M 47.5125 151.673312 
L 55.2125 151.673312 
L 62.9125 151.673312 
" style="fill: none; stroke-dasharray: 16,6; stroke-dashoffset: 0; stroke: #bdc7e3; stroke-opacity: 0.95; stroke-width: 2"/>
    </g>
    <g id="text_16">
     <text style="font: 7px 'DejaVu Sans', 'Bitstream Vera Sans', 'Computer Modern Sans Serif', 'Lucida Grande', 'Verdana', 'Geneva', 'Lucid', 'Arial', 'Helvetica', 'Avant Garde', sans-serif; text-anchor: start" x="65.7125" y="154.123312" transform="rotate(-0 65.7125 154.123312)">HIV-1 Gag</text>
    </g>
    <g id="line2d_34">
     <path d="M 47.5125 161.948 
L 55.2125 161.948 
L 62.9125 161.948 
" style="fill: none; stroke-dasharray: 6,4; stroke-dashoffset: 0; stroke: #ecb0a3; stroke-opacity: 0.95; stroke-width: 2"/>
    </g>
    <g id="text_17">
     <text style="font: 7px 'DejaVu Sans', 'Bitstream Vera Sans', 'Computer Modern Sans Serif', 'Lucida Grande', 'Verdana', 'Geneva', 'Lucid', 'Arial', 'Helvetica', 'Avant Garde', sans-serif; text-anchor: start" x="65.7125" y="164.398" transform="rotate(-0 65.7125 164.398)">endogenous EVs</text>
    </g>
    <g id="line2d_35">
     <path d="M 134.319063 141.398625 
L 142.019062 141.398625 
L 149.719063 141.398625 
" style="fill: none; stroke-dasharray: 12.8,3.2,2,3.2; stroke-dashoffset: 0; stroke: #d7e6d5; stroke-opacity: 0.95; stroke-width: 2"/>
    </g>
    <g id="text_18">
     <text style="font: 7px 'DejaVu Sans', 'Bitstream Vera Sans', 'Computer Modern Sans Serif', 'Lucida Grande', 'Verdana', 'Geneva', 'Lucid', 'Arial', 'Helvetica', 'Avant Garde', sans-serif; text-anchor: start" x="152.519063" y="143.848625" transform="rotate(-0 152.519063 143.848625)">MMLV Gag</text>
    </g>
    <g id="line2d_36">
     <path d="M 134.319063 151.673312 
L 142.019062 151.673312 
L 149.719063 151.673312 
" style="fill: none; stroke-dasharray: 16,6,2,6,2,6; stroke-dashoffset: 0; stroke: #b4c7b0; stroke-opacity: 0.95; stroke-width: 2"/>
    </g>
    <g id="text_19">
     <!-- HIV-1 Gag$_{\mathrm{MCP}}$ -->
     <g transform="translate(152.519063 154.123312)">
      <text>
       <tspan style="font: 7px 'DejaVu Sans'" x="0 5.263672 7.328125 12.116699 14.642578 19.096191 21.321289 26.745605 31.035156" y="-0.796875">HIV-1 Gag</tspan>
       <tspan style="font: 4.9px 'DejaVu Sans'" x="35.545508 39.773193 43.19458" y="0.3515625">MCP</tspan>
      </text>
     </g>
    </g>
    <g id="line2d_37">
     <path d="M 134.319063 161.962219 
L 142.019062 161.962219 
L 149.719063 161.962219 
" style="fill: none; stroke-dasharray: 16,6; stroke-dashoffset: 0; stroke: #000000; stroke-opacity: 0.95; stroke-width: 2"/>
    </g>
    <g id="text_20">
     <text style="font: 7px 'DejaVu Sans', 'Bitstream Vera Sans', 'Computer Modern Sans Serif', 'Lucida Grande', 'Verdana', 'Geneva', 'Lucid', 'Arial', 'Helvetica', 'Avant Garde', sans-serif; text-anchor: start" x="152.519063" y="164.412219" transform="rotate(-0 152.519063 164.412219)">control</text>
    </g>
   </g>
  </g>
  <g id="axes_2">
   <g id="patch_7">
    <path d="M 243.5825 172.168 
L 413.086659 172.168 
L 413.086659 7.2 
L 243.5825 7.2 
z
" style="fill: #ffffff"/>
   </g>
   <g id="matplotlib.axis_3">
    <g id="xtick_7">
     <g id="line2d_38">
      <path d="M 251.287234 172.168 
L 251.287234 7.2 
" clip-path="url(#pbe5bae3f0d)" style="fill: none; stroke: #b0b0b0; stroke-opacity: 0.2; stroke-width: 0.8; stroke-linecap: square"/>
     </g>
     <g id="line2d_39">
      <g>
       <use xlink:href="#m1c4d084966" x="251.287234" y="172.168" style="stroke: #000000; stroke-width: 0.8"/>
      </g>
     </g>
     <g id="text_21">
      <text style="font: 8px 'DejaVu Sans', 'Bitstream Vera Sans', 'Computer Modern Sans Serif', 'Lucida Grande', 'Verdana', 'Geneva', 'Lucid', 'Arial', 'Helvetica', 'Avant Garde', sans-serif; text-anchor: middle" x="251.287234" y="185.24675" transform="rotate(-0 251.287234 185.24675)">0</text>
     </g>
    </g>
    <g id="xtick_8">
     <g id="line2d_40">
      <path d="M 282.106172 172.168 
L 282.106172 7.2 
" clip-path="url(#pbe5bae3f0d)" style="fill: none; stroke: #b0b0b0; stroke-opacity: 0.2; stroke-width: 0.8; stroke-linecap: square"/>
     </g>
     <g id="line2d_41">
      <g>
       <use xlink:href="#m1c4d084966" x="282.106172" y="172.168" style="stroke: #000000; stroke-width: 0.8"/>
      </g>
     </g>
     <g id="text_22">
      <text style="font: 8px 'DejaVu Sans', 'Bitstream Vera Sans', 'Computer Modern Sans Serif', 'Lucida Grande', 'Verdana', 'Geneva', 'Lucid', 'Arial', 'Helvetica', 'Avant Garde', sans-serif; text-anchor: middle" x="282.106172" y="185.24675" transform="rotate(-0 282.106172 185.24675)">20</text>
     </g>
    </g>
    <g id="xtick_9">
     <g id="line2d_42">
      <path d="M 312.92511 172.168 
L 312.92511 7.2 
" clip-path="url(#pbe5bae3f0d)" style="fill: none; stroke: #b0b0b0; stroke-opacity: 0.2; stroke-width: 0.8; stroke-linecap: square"/>
     </g>
     <g id="line2d_43">
      <g>
       <use xlink:href="#m1c4d084966" x="312.92511" y="172.168" style="stroke: #000000; stroke-width: 0.8"/>
      </g>
     </g>
     <g id="text_23">
      <text style="font: 8px 'DejaVu Sans', 'Bitstream Vera Sans', 'Computer Modern Sans Serif', 'Lucida Grande', 'Verdana', 'Geneva', 'Lucid', 'Arial', 'Helvetica', 'Avant Garde', sans-serif; text-anchor: middle" x="312.92511" y="185.24675" transform="rotate(-0 312.92511 185.24675)">40</text>
     </g>
    </g>
    <g id="xtick_10">
     <g id="line2d_44">
      <path d="M 343.744048 172.168 
L 343.744048 7.2 
" clip-path="url(#pbe5bae3f0d)" style="fill: none; stroke: #b0b0b0; stroke-opacity: 0.2; stroke-width: 0.8; stroke-linecap: square"/>
     </g>
     <g id="line2d_45">
      <g>
       <use xlink:href="#m1c4d084966" x="343.744048" y="172.168" style="stroke: #000000; stroke-width: 0.8"/>
      </g>
     </g>
     <g id="text_24">
      <text style="font: 8px 'DejaVu Sans', 'Bitstream Vera Sans', 'Computer Modern Sans Serif', 'Lucida Grande', 'Verdana', 'Geneva', 'Lucid', 'Arial', 'Helvetica', 'Avant Garde', sans-serif; text-anchor: middle" x="343.744048" y="185.24675" transform="rotate(-0 343.744048 185.24675)">60</text>
     </g>
    </g>
    <g id="xtick_11">
     <g id="line2d_46">
      <path d="M 374.562986 172.168 
L 374.562986 7.2 
" clip-path="url(#pbe5bae3f0d)" style="fill: none; stroke: #b0b0b0; stroke-opacity: 0.2; stroke-width: 0.8; stroke-linecap: square"/>
     </g>
     <g id="line2d_47">
      <g>
       <use xlink:href="#m1c4d084966" x="374.562986" y="172.168" style="stroke: #000000; stroke-width: 0.8"/>
      </g>
     </g>
     <g id="text_25">
      <text style="font: 8px 'DejaVu Sans', 'Bitstream Vera Sans', 'Computer Modern Sans Serif', 'Lucida Grande', 'Verdana', 'Geneva', 'Lucid', 'Arial', 'Helvetica', 'Avant Garde', sans-serif; text-anchor: middle" x="374.562986" y="185.24675" transform="rotate(-0 374.562986 185.24675)">80</text>
     </g>
    </g>
    <g id="xtick_12">
     <g id="line2d_48">
      <path d="M 405.381924 172.168 
L 405.381924 7.2 
" clip-path="url(#pbe5bae3f0d)" style="fill: none; stroke: #b0b0b0; stroke-opacity: 0.2; stroke-width: 0.8; stroke-linecap: square"/>
     </g>
     <g id="line2d_49">
      <g>
       <use xlink:href="#m1c4d084966" x="405.381924" y="172.168" style="stroke: #000000; stroke-width: 0.8"/>
      </g>
     </g>
     <g id="text_26">
      <text style="font: 8px 'DejaVu Sans', 'Bitstream Vera Sans', 'Computer Modern Sans Serif', 'Lucida Grande', 'Verdana', 'Geneva', 'Lucid', 'Arial', 'Helvetica', 'Avant Garde', sans-serif; text-anchor: middle" x="405.381924" y="185.24675" transform="rotate(-0 405.381924 185.24675)">100</text>
     </g>
    </g>
    <g id="text_27">
     <text style="font: 8px 'DejaVu Sans', 'Bitstream Vera Sans', 'Computer Modern Sans Serif', 'Lucida Grande', 'Verdana', 'Geneva', 'Lucid', 'Arial', 'Helvetica', 'Avant Garde', sans-serif" transform="translate(250.116454 196.98925)">Cumulative gene expression percentile</text>
     <text style="font: 8px 'DejaVu Sans', 'Bitstream Vera Sans', 'Computer Modern Sans Serif', 'Lucida Grande', 'Verdana', 'Geneva', 'Lucid', 'Arial', 'Helvetica', 'Avant Garde', sans-serif" transform="translate(246.902079 205.9475)">(% of lowest to highest abundant genes)</text>
    </g>
   </g>
   <g id="matplotlib.axis_4">
    <g id="ytick_7">
     <g id="line2d_50">
      <path d="M 243.5825 164.669455 
L 413.086659 164.669455 
" clip-path="url(#pbe5bae3f0d)" style="fill: none; stroke: #b0b0b0; stroke-opacity: 0.2; stroke-width: 0.8; stroke-linecap: square"/>
     </g>
     <g id="line2d_51">
      <g>
       <use xlink:href="#m9ad815c02e" x="243.5825" y="164.669455" style="stroke: #000000; stroke-width: 0.8"/>
      </g>
     </g>
    </g>
    <g id="ytick_8">
     <g id="line2d_52">
      <path d="M 243.5825 134.675273 
L 413.086659 134.675273 
" clip-path="url(#pbe5bae3f0d)" style="fill: none; stroke: #b0b0b0; stroke-opacity: 0.2; stroke-width: 0.8; stroke-linecap: square"/>
     </g>
     <g id="line2d_53">
      <g>
       <use xlink:href="#m9ad815c02e" x="243.5825" y="134.675273" style="stroke: #000000; stroke-width: 0.8"/>
      </g>
     </g>
    </g>
    <g id="ytick_9">
     <g id="line2d_54">
      <path d="M 243.5825 104.681091 
L 413.086659 104.681091 
" clip-path="url(#pbe5bae3f0d)" style="fill: none; stroke: #b0b0b0; stroke-opacity: 0.2; stroke-width: 0.8; stroke-linecap: square"/>
     </g>
     <g id="line2d_55">
      <g>
       <use xlink:href="#m9ad815c02e" x="243.5825" y="104.681091" style="stroke: #000000; stroke-width: 0.8"/>
      </g>
     </g>
    </g>
    <g id="ytick_10">
     <g id="line2d_56">
      <path d="M 243.5825 74.686909 
L 413.086659 74.686909 
" clip-path="url(#pbe5bae3f0d)" style="fill: none; stroke: #b0b0b0; stroke-opacity: 0.2; stroke-width: 0.8; stroke-linecap: square"/>
     </g>
     <g id="line2d_57">
      <g>
       <use xlink:href="#m9ad815c02e" x="243.5825" y="74.686909" style="stroke: #000000; stroke-width: 0.8"/>
      </g>
     </g>
    </g>
    <g id="ytick_11">
     <g id="line2d_58">
      <path d="M 243.5825 44.692727 
L 413.086659 44.692727 
" clip-path="url(#pbe5bae3f0d)" style="fill: none; stroke: #b0b0b0; stroke-opacity: 0.2; stroke-width: 0.8; stroke-linecap: square"/>
     </g>
     <g id="line2d_59">
      <g>
       <use xlink:href="#m9ad815c02e" x="243.5825" y="44.692727" style="stroke: #000000; stroke-width: 0.8"/>
      </g>
     </g>
    </g>
    <g id="ytick_12">
     <g id="line2d_60">
      <path d="M 243.5825 14.698545 
L 413.086659 14.698545 
" clip-path="url(#pbe5bae3f0d)" style="fill: none; stroke: #b0b0b0; stroke-opacity: 0.2; stroke-width: 0.8; stroke-linecap: square"/>
     </g>
     <g id="line2d_61">
      <g>
       <use xlink:href="#m9ad815c02e" x="243.5825" y="14.698545" style="stroke: #000000; stroke-width: 0.8"/>
      </g>
     </g>
    </g>
    <g id="text_28">
     <text style="font: 8px 'DejaVu Sans', 'Bitstream Vera Sans', 'Computer Modern Sans Serif', 'Lucida Grande', 'Verdana', 'Geneva', 'Lucid', 'Arial', 'Helvetica', 'Avant Garde', sans-serif; text-anchor: middle" x="234.41875" y="89.684" transform="rotate(-90 234.41875 89.684)">mRNA Detection Rate</text>
    </g>
   </g>
   <g id="line2d_62">
    <path d="M 254.369128 59.623752 
L 257.451022 55.990095 
L 260.532916 55.819601 
L 263.61481 53.634887 
L 266.696703 51.53119 
L 269.778597 52.10875 
L 272.860491 51.389541 
L 275.942385 49.859584 
L 279.024279 48.946181 
L 282.106172 48.296782 
L 285.188066 46.9852 
L 288.26996 46.222144 
L 291.351854 45.576403 
L 294.433748 45.013319 
L 297.515641 44.31428 
L 300.597535 43.496261 
L 303.679429 42.813237 
L 306.761323 41.949312 
L 309.843217 41.211012 
L 312.92511 40.5078 
L 316.007004 39.814193 
L 319.088898 39.27361 
L 322.170792 38.550378 
L 325.252686 38.107431 
L 328.334579 37.458215 
L 331.416473 37.015192 
L 334.498367 36.311569 
L 337.580261 35.728895 
L 340.662154 35.140846 
L 343.744048 34.569966 
L 346.825942 34.160907 
L 349.907836 33.676982 
L 352.98973 33.182355 
L 356.071623 32.775049 
L 359.153517 32.315553 
L 362.235411 31.918243 
L 365.317305 31.486866 
L 368.399199 31.114914 
L 371.481092 30.694314 
L 374.562986 30.294728 
L 377.64488 29.930721 
L 380.726774 29.598191 
L 383.808668 29.282675 
L 386.890561 28.951483 
L 389.972455 28.649669 
L 393.054349 28.360967 
L 396.136243 28.070495 
L 399.218137 27.790916 
L 402.30003 27.523941 
L 405.381924 27.267637 
" clip-path="url(#pbe5bae3f0d)" style="fill: none; stroke: #77c8dc; stroke-opacity: 0.95; stroke-width: 3.5; stroke-linecap: square"/>
   </g>
   <g id="line2d_63">
    <path d="M 254.369128 82.01882 
L 257.451022 81.537022 
L 260.532916 80.809982 
L 263.61481 80.040638 
L 266.696703 79.371005 
L 269.778597 78.322567 
L 272.860491 77.614098 
L 275.942385 76.881605 
L 279.024279 74.790388 
L 282.106172 73.02426 
L 285.188066 72.268023 
L 288.26996 71.006913 
L 291.351854 70.112566 
L 294.433748 68.900892 
L 297.515641 68.443295 
L 300.597535 67.529207 
L 303.679429 66.775582 
L 306.761323 65.98202 
L 309.843217 64.968906 
L 312.92511 64.17897 
L 316.007004 63.284686 
L 319.088898 62.371217 
L 322.170792 61.748809 
L 325.252686 60.837046 
L 328.334579 59.953205 
L 331.416473 59.54655 
L 334.498367 58.916315 
L 337.580261 58.314352 
L 340.662154 57.540824 
L 343.744048 56.825205 
L 346.825942 56.128277 
L 349.907836 55.35594 
L 352.98973 54.725723 
L 356.071623 54.17693 
L 359.153517 53.559482 
L 362.235411 52.888747 
L 365.317305 52.339572 
L 368.399199 51.823697 
L 371.481092 51.193627 
L 374.562986 50.59911 
L 377.64488 49.981047 
L 380.726774 49.348635 
L 383.808668 48.773 
L 386.890561 48.166502 
L 389.972455 47.539322 
L 393.054349 47.043795 
L 396.136243 46.552151 
L 399.218137 45.973085 
L 402.30003 45.441971 
L 405.381924 44.828411 
" clip-path="url(#pbe5bae3f0d)" style="fill: none; stroke-dasharray: 16,6; stroke-dashoffset: 0; stroke: #bdc7e3; stroke-opacity: 0.95; stroke-width: 2"/>
   </g>
   <g id="line2d_64">
    <path d="M 254.369128 84.59449 
L 257.451022 83.237287 
L 260.532916 83.463487 
L 263.61481 82.897986 
L 266.696703 82.348466 
L 269.778597 81.704416 
L 272.860491 78.819355 
L 275.942385 78.268557 
L 279.024279 77.236716 
L 282.106172 77.701263 
L 285.188066 76.414969 
L 288.26996 76.248281 
L 291.351854 75.950592 
L 294.433748 74.968135 
L 297.515641 74.071458 
L 300.597535 73.430786 
L 303.679429 72.530204 
L 306.761323 72.182365 
L 309.843217 71.942624 
L 312.92511 71.081904 
L 316.007004 70.691133 
L 319.088898 70.027319 
L 322.170792 69.539315 
L 325.252686 69.063707 
L 328.334579 68.282863 
L 331.416473 68.205492 
L 334.498367 67.78181 
L 337.580261 67.315663 
L 340.662154 66.90509 
L 343.744048 66.589793 
L 346.825942 66.272945 
L 349.907836 65.933479 
L 352.98973 65.408873 
L 356.071623 64.955073 
L 359.153517 64.488422 
L 362.235411 64.204787 
L 365.317305 63.783604 
L 368.399199 63.616862 
L 371.481092 63.59794 
L 374.562986 63.495101 
L 377.64488 63.182019 
L 380.726774 62.770704 
L 383.808668 62.331163 
L 386.890561 62.035042 
L 389.972455 61.802085 
L 393.054349 61.441767 
L 396.136243 61.111234 
L 399.218137 60.808624 
L 402.30003 60.532227 
L 405.381924 60.036062 
" clip-path="url(#pbe5bae3f0d)" style="fill: none; stroke-dasharray: 6,4; stroke-dashoffset: 0; stroke: #ecb0a3; stroke-opacity: 0.95; stroke-width: 2"/>
   </g>
   <g id="line2d_65">
    <path d="M 254.369128 75.603762 
L 257.451022 69.501919 
L 260.532916 68.696817 
L 263.61481 69.830083 
L 266.696703 68.493885 
L 269.778597 67.822351 
L 272.860491 67.938218 
L 275.942385 66.520095 
L 279.024279 65.806765 
L 282.106172 65.148077 
L 285.188066 64.311188 
L 288.26996 63.850513 
L 291.351854 63.444137 
L 294.433748 63.532823 
L 297.515641 63.201823 
L 300.597535 62.707276 
L 303.679429 61.704353 
L 306.761323 61.020058 
L 309.843217 60.487499 
L 312.92511 59.801345 
L 316.007004 59.52426 
L 319.088898 58.983055 
L 322.170792 58.594557 
L 325.252686 58.191749 
L 328.334579 57.393676 
L 331.416473 57.010324 
L 334.498367 56.686512 
L 337.580261 56.35583 
L 340.662154 55.66963 
L 343.744048 55.088786 
L 346.825942 54.608964 
L 349.907836 54.000559 
L 352.98973 53.741873 
L 356.071623 53.484125 
L 359.153517 53.254996 
L 362.235411 53.111507 
L 365.317305 52.980313 
L 368.399199 52.489074 
L 371.481092 51.976788 
L 374.562986 51.50243 
L 377.64488 51.051251 
L 380.726774 50.531611 
L 383.808668 50.200306 
L 386.890561 49.872673 
L 389.972455 49.497861 
L 393.054349 49.139373 
L 396.136243 48.715588 
L 399.218137 48.183347 
L 402.30003 47.729367 
L 405.381924 47.093836 
" clip-path="url(#pbe5bae3f0d)" style="fill: none; stroke-dasharray: 12.8,3.2,2,3.2; stroke-dashoffset: 0; stroke: #d7e6d5; stroke-opacity: 0.95; stroke-width: 2"/>
   </g>
   <g id="line2d_66">
    <path d="M 254.369128 113.073958 
L 257.451022 110.322198 
L 260.532916 112.076287 
L 263.61481 109.571072 
L 266.696703 108.619721 
L 269.778597 106.95303 
L 272.860491 104.740135 
L 275.942385 103.80296 
L 279.024279 102.156071 
L 282.106172 100.770004 
L 285.188066 100.199489 
L 288.26996 99.584491 
L 291.351854 98.928056 
L 294.433748 98.611425 
L 297.515641 98.015717 
L 300.597535 96.485207 
L 303.679429 95.679596 
L 306.761323 94.542751 
L 309.843217 94.141811 
L 312.92511 93.09243 
L 316.007004 92.323986 
L 319.088898 91.953441 
L 322.170792 91.106164 
L 325.252686 90.300869 
L 328.334579 89.380973 
L 331.416473 88.624509 
L 334.498367 87.669085 
L 337.580261 86.757378 
L 340.662154 85.837374 
L 343.744048 84.874738 
L 346.825942 84.23031 
L 349.907836 83.58316 
L 352.98973 82.912668 
L 356.071623 82.261402 
L 359.153517 81.656169 
L 362.235411 81.018589 
L 365.317305 80.620233 
L 368.399199 80.061652 
L 371.481092 79.451086 
L 374.562986 78.708629 
L 377.64488 78.019223 
L 380.726774 77.247908 
L 383.808668 76.656628 
L 386.890561 75.910842 
L 389.972455 75.375551 
L 393.054349 74.833617 
L 396.136243 74.314766 
L 399.218137 73.765821 
L 402.30003 73.177503 
L 405.381924 72.461241 
" clip-path="url(#pbe5bae3f0d)" style="fill: none; stroke-dasharray: 16,6,2,6,2,6; stroke-dashoffset: 0; stroke: #b4c7b0; stroke-opacity: 0.95; stroke-width: 2"/>
   </g>
   <g id="line2d_67">
    <path d="M 254.369128 153.560498 
L 257.451022 150.05512 
L 260.532916 149.602825 
L 263.61481 147.967358 
L 266.696703 147.001268 
L 269.778597 146.937191 
L 272.860491 146.08459 
L 275.942385 146.672945 
L 279.024279 145.816852 
L 282.106172 145.749191 
L 285.188066 145.575351 
L 288.26996 145.36512 
L 291.351854 145.194103 
L 294.433748 145.047557 
L 297.515641 144.636235 
L 300.597535 144.325575 
L 303.679429 144.256066 
L 306.761323 143.957162 
L 309.843217 143.731363 
L 312.92511 143.418938 
L 316.007004 142.9091 
L 319.088898 142.508913 
L 322.170792 142.260008 
L 325.252686 142.383922 
L 328.334579 142.18773 
L 331.416473 141.823369 
L 334.498367 141.563322 
L 337.580261 141.442222 
L 340.662154 141.309201 
L 343.744048 141.16188 
L 346.825942 140.953229 
L 349.907836 140.913193 
L 352.98973 140.830087 
L 356.071623 140.530091 
L 359.153517 140.485726 
L 362.235411 140.344104 
L 365.317305 140.363565 
L 368.399199 140.327093 
L 371.481092 140.325265 
L 374.562986 140.274187 
L 377.64488 140.205874 
L 380.726774 140.027591 
L 383.808668 140.05171 
L 386.890561 139.929866 
L 389.972455 139.939633 
L 393.054349 139.948975 
L 396.136243 139.970279 
L 399.218137 139.848182 
L 402.30003 139.572572 
L 405.381924 138.892987 
" clip-path="url(#pbe5bae3f0d)" style="fill: none; stroke-dasharray: 16,6; stroke-dashoffset: 0; stroke: #000000; stroke-opacity: 0.95; stroke-width: 2"/>
   </g>
   <g id="line2d_68">
    <path d="M 243.5825 89.684 
L 413.086659 89.684 
" clip-path="url(#pbe5bae3f0d)" style="fill: none; stroke-dasharray: 3.7,1.6; stroke-dashoffset: 0; stroke: #808080; stroke-opacity: 0.4"/>
   </g>
   <g id="patch_8">
    <path d="M 243.5825 172.168 
L 243.5825 7.2 
" style="fill: none; stroke: #000000; stroke-width: 0.8; stroke-linejoin: miter; stroke-linecap: square"/>
   </g>
   <g id="patch_9">
    <path d="M 413.086659 172.168 
L 413.086659 7.2 
" style="fill: none; stroke: #000000; stroke-width: 0.8; stroke-linejoin: miter; stroke-linecap: square"/>
   </g>
   <g id="patch_10">
    <path d="M 243.5825 172.168 
L 413.086659 172.168 
" style="fill: none; stroke: #000000; stroke-width: 0.8; stroke-linejoin: miter; stroke-linecap: square"/>
   </g>
   <g id="patch_11">
    <path d="M 243.5825 7.2 
L 413.086659 7.2 
" style="fill: none; stroke: #000000; stroke-width: 0.8; stroke-linejoin: miter; stroke-linecap: square"/>
   </g>
   <g id="legend_2">
    <g id="line2d_69">
     <path d="M 249.8825 141.398625 
L 257.5825 141.398625 
L 265.2825 141.398625 
" style="fill: none; stroke: #77c8dc; stroke-opacity: 0.95; stroke-width: 3.5; stroke-linecap: square"/>
    </g>
    <g id="text_29">
     <!-- NTVE$_{\mathrm{PABP}}$ -->
     <g transform="translate(268.0825 143.848625)">
      <text>
       <tspan style="font: 7px 'DejaVu Sans'" x="0 5.236328 9.512207 14.300781" y="-0.890625">NTVE</tspan>
       <tspan style="font: 4.9px 'DejaVu Sans'" x="18.790625 21.745459 25.097461 28.459033" y="0.2578125">PABP</tspan>
      </text>
     </g>
    </g>
    <g id="line2d_70">
     <path d="M 249.8825 151.673312 
L 257.5825 151.673312 
L 265.2825 151.673312 
" style="fill: none; stroke-dasharray: 16,6; stroke-dashoffset: 0; stroke: #bdc7e3; stroke-opacity: 0.95; stroke-width: 2"/>
    </g>
    <g id="text_30">
     <text style="font: 7px 'DejaVu Sans', 'Bitstream Vera Sans', 'Computer Modern Sans Serif', 'Lucida Grande', 'Verdana', 'Geneva', 'Lucid', 'Arial', 'Helvetica', 'Avant Garde', sans-serif; text-anchor: start" x="268.0825" y="154.123312" transform="rotate(-0 268.0825 154.123312)">HIV-1 Gag</text>
    </g>
    <g id="line2d_71">
     <path d="M 249.8825 161.948 
L 257.5825 161.948 
L 265.2825 161.948 
" style="fill: none; stroke-dasharray: 6,4; stroke-dashoffset: 0; stroke: #ecb0a3; stroke-opacity: 0.95; stroke-width: 2"/>
    </g>
    <g id="text_31">
     <text style="font: 7px 'DejaVu Sans', 'Bitstream Vera Sans', 'Computer Modern Sans Serif', 'Lucida Grande', 'Verdana', 'Geneva', 'Lucid', 'Arial', 'Helvetica', 'Avant Garde', sans-serif; text-anchor: start" x="268.0825" y="164.398" transform="rotate(-0 268.0825 164.398)">endogenous EVs</text>
    </g>
    <g id="line2d_72">
     <path d="M 336.689062 141.398625 
L 344.389062 141.398625 
L 352.089062 141.398625 
" style="fill: none; stroke-dasharray: 12.8,3.2,2,3.2; stroke-dashoffset: 0; stroke: #d7e6d5; stroke-opacity: 0.95; stroke-width: 2"/>
    </g>
    <g id="text_32">
     <text style="font: 7px 'DejaVu Sans', 'Bitstream Vera Sans', 'Computer Modern Sans Serif', 'Lucida Grande', 'Verdana', 'Geneva', 'Lucid', 'Arial', 'Helvetica', 'Avant Garde', sans-serif; text-anchor: start" x="354.889062" y="143.848625" transform="rotate(-0 354.889062 143.848625)">MMLV Gag</text>
    </g>
    <g id="line2d_73">
     <path d="M 336.689062 151.673312 
L 344.389062 151.673312 
L 352.089062 151.673312 
" style="fill: none; stroke-dasharray: 16,6,2,6,2,6; stroke-dashoffset: 0; stroke: #b4c7b0; stroke-opacity: 0.95; stroke-width: 2"/>
    </g>
    <g id="text_33">
     <!-- HIV-1 Gag$_{\mathrm{MCP}}$ -->
     <g transform="translate(354.889062 154.123312)">
      <text>
       <tspan style="font: 7px 'DejaVu Sans'" x="0 5.263672 7.328125 12.116699 14.642578 19.096191 21.321289 26.745605 31.035156" y="-0.796875">HIV-1 Gag</tspan>
       <tspan style="font: 4.9px 'DejaVu Sans'" x="35.545508 39.773193 43.19458" y="0.3515625">MCP</tspan>
      </text>
     </g>
    </g>
    <g id="line2d_74">
     <path d="M 336.689062 161.962219 
L 344.389062 161.962219 
L 352.089062 161.962219 
" style="fill: none; stroke-dasharray: 16,6; stroke-dashoffset: 0; stroke: #000000; stroke-opacity: 0.95; stroke-width: 2"/>
    </g>
    <g id="text_34">
     <text style="font: 7px 'DejaVu Sans', 'Bitstream Vera Sans', 'Computer Modern Sans Serif', 'Lucida Grande', 'Verdana', 'Geneva', 'Lucid', 'Arial', 'Helvetica', 'Avant Garde', sans-serif; text-anchor: start" x="354.889062" y="164.412219" transform="rotate(-0 354.889062 164.412219)">control</text>
    </g>
   </g>
  </g>
 </g>
 <defs>
  <clipPath id="p6d3fc5a557">
   <rect x="41.2125" y="7.2" width="169.504159" height="164.968"/>
  </clipPath>
  <clipPath id="pbe5bae3f0d">
   <rect x="243.5825" y="7.2" width="169.504159" height="164.968"/>
  </clipPath>
 </defs>
</svg>
