<?xml version="1.0" encoding="utf-8" standalone="no"?>
<!DOCTYPE svg PUBLIC "-//W3C//DTD SVG 1.1//EN"
  "http://www.w3.org/Graphics/SVG/1.1/DTD/svg11.dtd">
<svg xmlns:xlink="http://www.w3.org/1999/xlink" width="854.24675pt" height="425.72081pt" viewBox="0 0 854.24675 425.72081" xmlns="http://www.w3.org/2000/svg" version="1.1">
 <metadata>
  <rdf:RDF xmlns:dc="http://purl.org/dc/elements/1.1/" xmlns:cc="http://creativecommons.org/ns#" xmlns:rdf="http://www.w3.org/1999/02/22-rdf-syntax-ns#">
   <cc:Work>
    <dc:type rdf:resource="http://purl.org/dc/dcmitype/StillImage"/>
    <dc:date>2026-03-31T14:17:59.411361</dc:date>
    <dc:format>image/svg+xml</dc:format>
    <dc:creator>
     <cc:Agent>
      <dc:title>Matplotlib v3.10.8, https://matplotlib.org/</dc:title>
     </cc:Agent>
    </dc:creator>
   </cc:Work>
  </rdf:RDF>
 </metadata>
 <defs>
  <style type="text/css">*{stroke-linejoin: round; stroke-linecap: butt}</style>
 </defs>
 <g id="figure_1">
  <g id="patch_1">
   <path d="M 0 425.72081 
L 854.24675 425.72081 
L 854.24675 0 
L 0 0 
z
" style="fill: #ffffff"/>
  </g>
  <g id="axes_1">
   <g id="patch_2">
    <path d="M 42.620313 321.364695 
L 672.730312 321.364695 
L 672.730312 49.7555 
L 42.620313 49.7555 
z
" style="fill: #ffffff"/>
   </g>
   <g id="FillBetweenPolyCollection_1">
    <defs>
     <path id="me3751f124f" d="M 94.198713 -116.701987 
L 85.558412 -116.701987 
L 75.795694 -119.196103 
L 62.56865 -121.690218 
L 58.373062 -124.184334 
L 68.256888 -126.67845 
L 81.051237 -129.172565 
L 87.734656 -131.666681 
L 89.568807 -134.160797 
L 89.851939 -136.654912 
L 89.877201 -139.149028 
L 89.878521 -141.643144 
L 89.878562 -144.137259 
L 89.878562 -146.631375 
L 89.878562 -149.125491 
L 89.878562 -151.619606 
L 89.878534 -154.113722 
L 89.877929 -156.607838 
L 89.870226 -159.101953 
L 89.813275 -161.596069 
L 89.574333 -164.090185 
L 89.033979 -166.5843 
L 88.467481 -169.078416 
L 88.348579 -171.572532 
L 88.302701 -174.066647 
L 87.420171 -176.560763 
L 86.132835 -179.054878 
L 85.935162 -181.548994 
L 86.780994 -184.04311 
L 87.313992 -186.537225 
L 87.210537 -189.031341 
L 87.091937 -191.525457 
L 87.201304 -194.019572 
L 87.331258 -196.513688 
L 87.392127 -199.007804 
L 87.420196 -201.501919 
L 87.444569 -203.996035 
L 87.486826 -206.490151 
L 87.555933 -208.984266 
L 87.648666 -211.478382 
L 87.752279 -213.972498 
L 87.854433 -216.466613 
L 87.950106 -218.960729 
L 88.040455 -221.454845 
L 88.128737 -223.94896 
L 88.213755 -226.443076 
L 88.293364 -228.937192 
L 88.37019 -231.431307 
L 88.446389 -233.925423 
L 88.512705 -236.419539 
L 88.562644 -238.913654 
L 88.602986 -241.40777 
L 88.634167 -243.901886 
L 88.655209 -246.396001 
L 88.677136 -248.890117 
L 88.703056 -251.384233 
L 88.718601 -253.878348 
L 88.705246 -256.372464 
L 88.650586 -258.866579 
L 88.557786 -261.360695 
L 88.447417 -263.854811 
L 88.334392 -266.348926 
L 88.206974 -268.843042 
L 88.049302 -271.337158 
L 87.865685 -273.831273 
L 87.66944 -276.325389 
L 87.477793 -278.819505 
L 87.32639 -281.31362 
L 87.257535 -283.807736 
L 87.281011 -286.301852 
L 87.378018 -288.795967 
L 87.535236 -291.290083 
L 87.73969 -293.784199 
L 87.967612 -296.278314 
L 88.208133 -298.77243 
L 88.466506 -301.266546 
L 88.73443 -303.760661 
L 88.98562 -306.254777 
L 89.194577 -308.748893 
L 89.355939 -311.243008 
L 89.482624 -313.737124 
L 89.58158 -316.23124 
L 89.653535 -318.725355 
L 89.707708 -321.219471 
L 89.751711 -323.713587 
L 89.785716 -326.207702 
L 89.810816 -328.701818 
L 89.828779 -331.195934 
L 89.841493 -333.690049 
L 89.852478 -336.184165 
L 89.863103 -338.67828 
L 89.871227 -341.172396 
L 89.875362 -343.666512 
L 89.876663 -346.160627 
L 89.876814 -348.654743 
L 89.876526 -351.148859 
L 89.876124 -353.642974 
L 89.87613 -356.13709 
L 89.876846 -358.631206 
L 89.877783 -361.125321 
L 89.878344 -363.619437 
L 89.878781 -363.619437 
L 89.878781 -363.619437 
L 89.879342 -361.125321 
L 89.880279 -358.631206 
L 89.880995 -356.13709 
L 89.881001 -353.642974 
L 89.880599 -351.148859 
L 89.880311 -348.654743 
L 89.880462 -346.160627 
L 89.881763 -343.666512 
L 89.885898 -341.172396 
L 89.894022 -338.67828 
L 89.904647 -336.184165 
L 89.915632 -333.690049 
L 89.928346 -331.195934 
L 89.946309 -328.701818 
L 89.971409 -326.207702 
L 90.005414 -323.713587 
L 90.049417 -321.219471 
L 90.10359 -318.725355 
L 90.175545 -316.23124 
L 90.274501 -313.737124 
L 90.401186 -311.243008 
L 90.562548 -308.748893 
L 90.771505 -306.254777 
L 91.022695 -303.760661 
L 91.290619 -301.266546 
L 91.548992 -298.77243 
L 91.789513 -296.278314 
L 92.017435 -293.784199 
L 92.221889 -291.290083 
L 92.379107 -288.795967 
L 92.476114 -286.301852 
L 92.49959 -283.807736 
L 92.430735 -281.31362 
L 92.279332 -278.819505 
L 92.087685 -276.325389 
L 91.89144 -273.831273 
L 91.707823 -271.337158 
L 91.550151 -268.843042 
L 91.422733 -266.348926 
L 91.309708 -263.854811 
L 91.199339 -261.360695 
L 91.106539 -258.866579 
L 91.051879 -256.372464 
L 91.038524 -253.878348 
L 91.054069 -251.384233 
L 91.079989 -248.890117 
L 91.101916 -246.396001 
L 91.122958 -243.901886 
L 91.154139 -241.40777 
L 91.194481 -238.913654 
L 91.24442 -236.419539 
L 91.310736 -233.925423 
L 91.386935 -231.431307 
L 91.463761 -228.937192 
L 91.54337 -226.443076 
L 91.628388 -223.94896 
L 91.71667 -221.454845 
L 91.807019 -218.960729 
L 91.902692 -216.466613 
L 92.004846 -213.972498 
L 92.108459 -211.478382 
L 92.201192 -208.984266 
L 92.270299 -206.490151 
L 92.312556 -203.996035 
L 92.336929 -201.501919 
L 92.364998 -199.007804 
L 92.425867 -196.513688 
L 92.555821 -194.019572 
L 92.665188 -191.525457 
L 92.546588 -189.031341 
L 92.443133 -186.537225 
L 92.976131 -184.04311 
L 93.821963 -181.548994 
L 93.62429 -179.054878 
L 92.336954 -176.560763 
L 91.454424 -174.066647 
L 91.408546 -171.572532 
L 91.289644 -169.078416 
L 90.723146 -166.5843 
L 90.182792 -164.090185 
L 89.94385 -161.596069 
L 89.886899 -159.101953 
L 89.879196 -156.607838 
L 89.878591 -154.113722 
L 89.878563 -151.619606 
L 89.878563 -149.125491 
L 89.878563 -146.631375 
L 89.878563 -144.137259 
L 89.878604 -141.643144 
L 89.879924 -139.149028 
L 89.905186 -136.654912 
L 90.188318 -134.160797 
L 92.022469 -131.666681 
L 98.705888 -129.172565 
L 111.500237 -126.67845 
L 121.384062 -124.184334 
L 117.188475 -121.690218 
L 103.961431 -119.196103 
L 94.198713 -116.701987 
z
" style="stroke: #4c4c4c; stroke-opacity: 0.3; stroke-width: 1.25"/>
    </defs>
    <g clip-path="url(#p53f05e55c6)">
     <use xlink:href="#me3751f124f" x="0" y="425.72081" style="fill: #d3d3d3; fill-opacity: 0.3; stroke: #4c4c4c; stroke-opacity: 0.3; stroke-width: 1.25"/>
    </g>
   </g>
   <g id="FillBetweenPolyCollection_2">
    <defs>
     <path id="me133b819ef" d="M 251.713231 -116.7946 
L 243.098894 -116.7946 
L 233.483742 -119.232832 
L 220.380394 -121.671063 
L 215.900563 -124.109295 
L 225.349319 -126.547527 
L 238.132609 -128.985758 
L 245.064603 -131.42399 
L 247.051023 -133.862221 
L 247.373732 -136.300453 
L 247.404294 -138.738685 
L 247.406004 -141.176916 
L 247.406061 -143.615148 
L 247.406062 -146.05338 
L 247.406062 -148.491611 
L 247.406062 -150.929843 
L 247.406061 -153.368075 
L 247.406026 -155.806306 
L 247.405264 -158.244538 
L 247.395583 -160.682769 
L 247.323472 -163.121001 
L 247.015124 -165.559233 
L 246.293465 -167.997464 
L 245.486525 -170.435696 
L 245.267595 -172.873928 
L 245.233345 -175.312159 
L 244.01816 -177.750391 
L 241.92052 -180.188623 
L 241.264239 -182.626854 
L 242.608355 -185.065086 
L 243.892046 -187.503317 
L 244.03709 -189.941549 
L 243.822331 -192.379781 
L 243.895577 -194.818012 
L 244.107968 -197.256244 
L 244.304414 -199.694476 
L 244.495221 -202.132707 
L 244.650723 -204.570939 
L 244.772556 -207.00917 
L 244.878978 -209.447402 
L 244.968012 -211.885634 
L 245.058544 -214.323865 
L 245.17408 -216.762097 
L 245.297773 -219.200329 
L 245.407108 -221.63856 
L 245.507179 -224.076792 
L 245.604951 -226.515024 
L 245.696598 -228.953255 
L 245.772094 -231.391487 
L 245.827622 -233.829718 
L 245.879379 -236.26795 
L 245.937991 -238.706182 
L 245.991643 -241.144413 
L 246.030324 -243.582645 
L 246.059235 -246.020877 
L 246.087087 -248.459108 
L 246.108723 -250.89734 
L 246.109845 -253.335572 
L 246.086053 -255.773803 
L 246.038673 -258.212035 
L 245.960361 -260.650266 
L 245.844996 -263.088498 
L 245.704172 -265.52673 
L 245.56233 -267.964961 
L 245.431366 -270.403193 
L 245.295688 -272.841425 
L 245.136369 -275.279656 
L 244.954313 -277.717888 
L 244.770409 -280.15612 
L 244.61998 -282.594351 
L 244.540235 -285.032583 
L 244.548089 -287.470814 
L 244.637191 -289.909046 
L 244.808646 -292.347278 
L 245.061235 -294.785509 
L 245.361177 -297.223741 
L 245.670499 -299.661973 
L 245.974098 -302.100204 
L 246.261595 -304.538436 
L 246.51695 -306.976667 
L 246.729796 -309.414899 
L 246.900311 -311.853131 
L 247.031027 -314.291362 
L 247.12644 -316.729594 
L 247.196707 -319.167826 
L 247.249407 -321.606057 
L 247.288555 -324.044289 
L 247.318607 -326.482521 
L 247.340921 -328.920752 
L 247.355708 -331.358984 
L 247.366814 -333.797215 
L 247.378053 -336.235447 
L 247.388671 -338.673679 
L 247.39607 -341.11191 
L 247.400173 -343.550142 
L 247.402506 -345.988374 
L 247.403847 -348.426605 
L 247.404505 -350.864837 
L 247.405018 -353.303069 
L 247.405558 -355.7413 
L 247.405909 -358.179532 
L 247.406216 -358.179532 
L 247.406216 -358.179532 
L 247.406567 -355.7413 
L 247.407107 -353.303069 
L 247.40762 -350.864837 
L 247.408278 -348.426605 
L 247.409619 -345.988374 
L 247.411952 -343.550142 
L 247.416055 -341.11191 
L 247.423454 -338.673679 
L 247.434072 -336.235447 
L 247.445311 -333.797215 
L 247.456417 -331.358984 
L 247.471204 -328.920752 
L 247.493518 -326.482521 
L 247.52357 -324.044289 
L 247.562718 -321.606057 
L 247.615418 -319.167826 
L 247.685685 -316.729594 
L 247.781098 -314.291362 
L 247.911814 -311.853131 
L 248.082329 -309.414899 
L 248.295175 -306.976667 
L 248.55053 -304.538436 
L 248.838027 -302.100204 
L 249.141626 -299.661973 
L 249.450948 -297.223741 
L 249.75089 -294.785509 
L 250.003479 -292.347278 
L 250.174934 -289.909046 
L 250.264036 -287.470814 
L 250.27189 -285.032583 
L 250.192145 -282.594351 
L 250.041716 -280.15612 
L 249.857812 -277.717888 
L 249.675756 -275.279656 
L 249.516437 -272.841425 
L 249.380759 -270.403193 
L 249.249795 -267.964961 
L 249.107953 -265.52673 
L 248.967129 -263.088498 
L 248.851764 -260.650266 
L 248.773452 -258.212035 
L 248.726072 -255.773803 
L 248.70228 -253.335572 
L 248.703402 -250.89734 
L 248.725038 -248.459108 
L 248.75289 -246.020877 
L 248.781801 -243.582645 
L 248.820482 -241.144413 
L 248.874134 -238.706182 
L 248.932746 -236.26795 
L 248.984503 -233.829718 
L 249.040031 -231.391487 
L 249.115527 -228.953255 
L 249.207174 -226.515024 
L 249.304946 -224.076792 
L 249.405017 -221.63856 
L 249.514352 -219.200329 
L 249.638045 -216.762097 
L 249.753581 -214.323865 
L 249.844113 -211.885634 
L 249.933147 -209.447402 
L 250.039569 -207.00917 
L 250.161402 -204.570939 
L 250.316904 -202.132707 
L 250.507711 -199.694476 
L 250.704157 -197.256244 
L 250.916548 -194.818012 
L 250.989794 -192.379781 
L 250.775035 -189.941549 
L 250.920079 -187.503317 
L 252.20377 -185.065086 
L 253.547886 -182.626854 
L 252.891605 -180.188623 
L 250.793965 -177.750391 
L 249.57878 -175.312159 
L 249.54453 -172.873928 
L 249.3256 -170.435696 
L 248.51866 -167.997464 
L 247.797001 -165.559233 
L 247.488653 -163.121001 
L 247.416542 -160.682769 
L 247.406861 -158.244538 
L 247.406099 -155.806306 
L 247.406064 -153.368075 
L 247.406063 -150.929843 
L 247.406063 -148.491611 
L 247.406063 -146.05338 
L 247.406064 -143.615148 
L 247.406121 -141.176916 
L 247.407831 -138.738685 
L 247.438393 -136.300453 
L 247.761102 -133.862221 
L 249.747522 -131.42399 
L 256.679516 -128.985758 
L 269.462806 -126.547527 
L 278.911563 -124.109295 
L 274.431731 -121.671063 
L 261.328383 -119.232832 
L 251.713231 -116.7946 
z
" style="stroke: #4c4c4c; stroke-opacity: 0.3; stroke-width: 1.25"/>
    </defs>
    <g clip-path="url(#p53f05e55c6)">
     <use xlink:href="#me133b819ef" x="0" y="425.72081" style="fill: #d3d3d3; fill-opacity: 0.3; stroke: #4c4c4c; stroke-opacity: 0.3; stroke-width: 1.25"/>
    </g>
   </g>
   <g id="FillBetweenPolyCollection_3">
    <defs>
     <path id="md182450ac1" d="M 409.292132 -116.885985 
L 400.574993 -116.885985 
L 390.435701 -119.367292 
L 376.901734 -121.8486 
L 373.428063 -124.329907 
L 384.350557 -126.811214 
L 397.116949 -129.292522 
L 403.208058 -131.773829 
L 404.712123 -134.255137 
L 404.916461 -136.736444 
L 404.925591 -139.217751 
L 404.881093 -141.699059 
L 404.71141 -144.180366 
L 404.376774 -146.661674 
L 404.058207 -149.142981 
L 403.796367 -151.624289 
L 403.020593 -154.105596 
L 401.637227 -156.586903 
L 400.982695 -159.068211 
L 401.700573 -161.549518 
L 402.470919 -164.030826 
L 402.431783 -166.512133 
L 402.206643 -168.993441 
L 402.263093 -171.474748 
L 402.371707 -173.956055 
L 402.402219 -176.437363 
L 402.412247 -178.91867 
L 402.434489 -181.399978 
L 402.478088 -183.881285 
L 402.538866 -186.362593 
L 402.589479 -188.8439 
L 402.606673 -191.325207 
L 402.615228 -193.806515 
L 402.642639 -196.287822 
L 402.674732 -198.76913 
L 402.703611 -201.250437 
L 402.749183 -203.731745 
L 402.811701 -206.213052 
L 402.866681 -208.694359 
L 402.907289 -211.175667 
L 402.950888 -213.656974 
L 403.011666 -216.138282 
L 403.088542 -218.619589 
L 403.171144 -221.100897 
L 403.246928 -223.582204 
L 403.307761 -226.063511 
L 403.35334 -228.544819 
L 403.39058 -231.026126 
L 403.42352 -233.507434 
L 403.445112 -235.988741 
L 403.455732 -238.470049 
L 403.471465 -240.951356 
L 403.501099 -243.432663 
L 403.528554 -245.913971 
L 403.525433 -248.395278 
L 403.487056 -250.876586 
L 403.446019 -253.357893 
L 403.424286 -255.8392 
L 403.39482 -258.320508 
L 403.326602 -260.801815 
L 403.22672 -263.283123 
L 403.106251 -265.76443 
L 402.957561 -268.245738 
L 402.782936 -270.727045 
L 402.601428 -273.208352 
L 402.443075 -275.68966 
L 402.339211 -278.170967 
L 402.306677 -280.652275 
L 402.350289 -283.133582 
L 402.456687 -285.61489 
L 402.600209 -288.096197 
L 402.771599 -290.577504 
L 402.980925 -293.058812 
L 403.225688 -295.540119 
L 403.472118 -298.021427 
L 403.68584 -300.502734 
L 403.857313 -302.984042 
L 404.004901 -305.465349 
L 404.157284 -307.946656 
L 404.318284 -310.427964 
L 404.465545 -312.909271 
L 404.580794 -315.390579 
L 404.664405 -317.871886 
L 404.72536 -320.353194 
L 404.771262 -322.834501 
L 404.806807 -325.315808 
L 404.834615 -327.797116 
L 404.855617 -330.278423 
L 404.871391 -332.759731 
L 404.884157 -335.241038 
L 404.894591 -337.722346 
L 404.903158 -340.203653 
L 404.911506 -342.68496 
L 404.919863 -345.166268 
L 404.926162 -347.647575 
L 404.929156 -350.128883 
L 404.92992 -352.61019 
L 404.930294 -355.091497 
L 404.931288 -357.572805 
L 404.932523 -360.054112 
L 404.933271 -362.53542 
L 404.933854 -362.53542 
L 404.933854 -362.53542 
L 404.934602 -360.054112 
L 404.935837 -357.572805 
L 404.936831 -355.091497 
L 404.937205 -352.61019 
L 404.937969 -350.128883 
L 404.940963 -347.647575 
L 404.947262 -345.166268 
L 404.955619 -342.68496 
L 404.963967 -340.203653 
L 404.972534 -337.722346 
L 404.982968 -335.241038 
L 404.995734 -332.759731 
L 405.011508 -330.278423 
L 405.03251 -327.797116 
L 405.060318 -325.315808 
L 405.095863 -322.834501 
L 405.141765 -320.353194 
L 405.20272 -317.871886 
L 405.286331 -315.390579 
L 405.40158 -312.909271 
L 405.548841 -310.427964 
L 405.709841 -307.946656 
L 405.862224 -305.465349 
L 406.009812 -302.984042 
L 406.181285 -300.502734 
L 406.395007 -298.021427 
L 406.641437 -295.540119 
L 406.8862 -293.058812 
L 407.095526 -290.577504 
L 407.266916 -288.096197 
L 407.410438 -285.61489 
L 407.516836 -283.133582 
L 407.560448 -280.652275 
L 407.527914 -278.170967 
L 407.42405 -275.68966 
L 407.265697 -273.208352 
L 407.084189 -270.727045 
L 406.909564 -268.245738 
L 406.760874 -265.76443 
L 406.640405 -263.283123 
L 406.540523 -260.801815 
L 406.472305 -258.320508 
L 406.442839 -255.8392 
L 406.421106 -253.357893 
L 406.380069 -250.876586 
L 406.341692 -248.395278 
L 406.338571 -245.913971 
L 406.366026 -243.432663 
L 406.39566 -240.951356 
L 406.411393 -238.470049 
L 406.422013 -235.988741 
L 406.443605 -233.507434 
L 406.476545 -231.026126 
L 406.513785 -228.544819 
L 406.559364 -226.063511 
L 406.620197 -223.582204 
L 406.695981 -221.100897 
L 406.778583 -218.619589 
L 406.855459 -216.138282 
L 406.916237 -213.656974 
L 406.959836 -211.175667 
L 407.000444 -208.694359 
L 407.055424 -206.213052 
L 407.117942 -203.731745 
L 407.163514 -201.250437 
L 407.192393 -198.76913 
L 407.224486 -196.287822 
L 407.251897 -193.806515 
L 407.260452 -191.325207 
L 407.277646 -188.8439 
L 407.328259 -186.362593 
L 407.389037 -183.881285 
L 407.432636 -181.399978 
L 407.454878 -178.91867 
L 407.464906 -176.437363 
L 407.495418 -173.956055 
L 407.604032 -171.474748 
L 407.660482 -168.993441 
L 407.435342 -166.512133 
L 407.396206 -164.030826 
L 408.166552 -161.549518 
L 408.88443 -159.068211 
L 408.229898 -156.586903 
L 406.846532 -154.105596 
L 406.070758 -151.624289 
L 405.808918 -149.142981 
L 405.490351 -146.661674 
L 405.155715 -144.180366 
L 404.986032 -141.699059 
L 404.941534 -139.217751 
L 404.950664 -136.736444 
L 405.155002 -134.255137 
L 406.659067 -131.773829 
L 412.750176 -129.292522 
L 425.516568 -126.811214 
L 436.439062 -124.329907 
L 432.965391 -121.8486 
L 419.431424 -119.367292 
L 409.292132 -116.885985 
z
" style="stroke: #4c4c4c; stroke-opacity: 0.3; stroke-width: 1.25"/>
    </defs>
    <g clip-path="url(#p53f05e55c6)">
     <use xlink:href="#md182450ac1" x="0" y="425.72081" style="fill: #d3d3d3; fill-opacity: 0.3; stroke: #4c4c4c; stroke-opacity: 0.3; stroke-width: 1.25"/>
    </g>
   </g>
   <g id="FillBetweenPolyCollection_4">
    <defs>
     <path id="mebdef3eac4" d="M 566.818133 -116.923569 
L 558.103992 -116.923569 
L 547.97823 -119.389197 
L 534.455083 -121.854825 
L 530.955562 -124.320452 
L 541.842407 -126.78608 
L 554.611008 -129.251708 
L 560.722368 -131.717336 
L 562.237029 -134.182964 
L 562.444266 -136.648592 
L 562.460244 -139.11422 
L 562.45979 -141.579847 
L 562.450417 -144.045475 
L 562.4083 -146.511103 
L 562.306397 -148.976731 
L 562.175688 -151.442359 
L 562.038432 -153.907987 
L 561.724186 -156.373615 
L 561.131643 -158.839242 
L 560.64278 -161.30487 
L 560.510109 -163.770498 
L 560.315116 -166.236126 
L 560.012018 -168.701754 
L 560.096076 -171.167382 
L 560.431538 -173.63301 
L 560.574508 -176.098638 
L 560.554247 -178.564265 
L 560.540125 -181.029893 
L 560.545663 -183.495521 
L 560.554998 -185.961149 
L 560.578279 -188.426777 
L 560.609239 -190.892405 
L 560.633297 -193.358033 
L 560.650634 -195.82366 
L 560.674065 -198.289288 
L 560.711612 -200.754916 
L 560.745029 -203.220544 
L 560.757381 -205.686172 
L 560.767527 -208.1518 
L 560.799371 -210.617428 
L 560.846221 -213.083055 
L 560.89045 -215.548683 
L 560.932233 -218.014311 
L 560.969258 -220.479939 
L 560.987837 -222.945567 
L 560.990588 -225.411195 
L 560.986817 -227.876823 
L 560.97144 -230.34245 
L 560.942567 -232.808078 
L 560.912738 -235.273706 
L 560.899983 -237.739334 
L 560.908342 -240.204962 
L 560.91067 -242.67059 
L 560.876967 -245.136218 
L 560.816739 -247.601845 
L 560.763304 -250.067473 
L 560.73353 -252.533101 
L 560.726479 -254.998729 
L 560.739943 -257.464357 
L 560.757107 -259.929985 
L 560.751184 -262.395613 
L 560.729604 -264.86124 
L 560.721962 -267.326868 
L 560.739807 -269.792496 
L 560.777659 -272.258124 
L 560.820856 -274.723752 
L 560.853297 -277.18938 
L 560.869919 -279.655008 
L 560.880475 -282.120635 
L 560.908564 -284.586263 
L 560.972838 -287.051891 
L 561.066677 -289.517519 
L 561.171718 -291.983147 
L 561.269841 -294.448775 
L 561.355114 -296.914403 
L 561.441107 -299.380031 
L 561.541829 -301.845658 
L 561.660335 -304.311286 
L 561.786489 -306.776914 
L 561.905 -309.242542 
L 562.006139 -311.70817 
L 562.086067 -314.173798 
L 562.149576 -316.639426 
L 562.204088 -319.105053 
L 562.251444 -321.570681 
L 562.294124 -324.036309 
L 562.334102 -326.501937 
L 562.366444 -328.967565 
L 562.385324 -331.433193 
L 562.392729 -333.898821 
L 562.39861 -336.364448 
L 562.410388 -338.830076 
L 562.424733 -341.295704 
L 562.435445 -343.761332 
L 562.442269 -346.22696 
L 562.447744 -348.692588 
L 562.452369 -351.158216 
L 562.455848 -353.623843 
L 562.458444 -356.089471 
L 562.460111 -358.555099 
L 562.460835 -361.020727 
L 562.46129 -361.020727 
L 562.46129 -361.020727 
L 562.462014 -358.555099 
L 562.463681 -356.089471 
L 562.466277 -353.623843 
L 562.469756 -351.158216 
L 562.474381 -348.692588 
L 562.479856 -346.22696 
L 562.48668 -343.761332 
L 562.497392 -341.295704 
L 562.511737 -338.830076 
L 562.523515 -336.364448 
L 562.529396 -333.898821 
L 562.536801 -331.433193 
L 562.555681 -328.967565 
L 562.588023 -326.501937 
L 562.628001 -324.036309 
L 562.670681 -321.570681 
L 562.718037 -319.105053 
L 562.772549 -316.639426 
L 562.836058 -314.173798 
L 562.915986 -311.70817 
L 563.017125 -309.242542 
L 563.135636 -306.776914 
L 563.26179 -304.311286 
L 563.380296 -301.845658 
L 563.481018 -299.380031 
L 563.567011 -296.914403 
L 563.652284 -294.448775 
L 563.750407 -291.983147 
L 563.855448 -289.517519 
L 563.949287 -287.051891 
L 564.013561 -284.586263 
L 564.04165 -282.120635 
L 564.052206 -279.655008 
L 564.068828 -277.18938 
L 564.101269 -274.723752 
L 564.144466 -272.258124 
L 564.182318 -269.792496 
L 564.200163 -267.326868 
L 564.192521 -264.86124 
L 564.170941 -262.395613 
L 564.165018 -259.929985 
L 564.182182 -257.464357 
L 564.195646 -254.998729 
L 564.188595 -252.533101 
L 564.158821 -250.067473 
L 564.105386 -247.601845 
L 564.045158 -245.136218 
L 564.011455 -242.67059 
L 564.013783 -240.204962 
L 564.022142 -237.739334 
L 564.009387 -235.273706 
L 563.979558 -232.808078 
L 563.950685 -230.34245 
L 563.935308 -227.876823 
L 563.931537 -225.411195 
L 563.934288 -222.945567 
L 563.952867 -220.479939 
L 563.989892 -218.014311 
L 564.031675 -215.548683 
L 564.075904 -213.083055 
L 564.122754 -210.617428 
L 564.154598 -208.1518 
L 564.164744 -205.686172 
L 564.177096 -203.220544 
L 564.210513 -200.754916 
L 564.24806 -198.289288 
L 564.271491 -195.82366 
L 564.288828 -193.358033 
L 564.312886 -190.892405 
L 564.343846 -188.426777 
L 564.367127 -185.961149 
L 564.376462 -183.495521 
L 564.382 -181.029893 
L 564.367878 -178.564265 
L 564.347617 -176.098638 
L 564.490587 -173.63301 
L 564.826049 -171.167382 
L 564.910107 -168.701754 
L 564.607009 -166.236126 
L 564.412016 -163.770498 
L 564.279345 -161.30487 
L 563.790482 -158.839242 
L 563.197939 -156.373615 
L 562.883693 -153.907987 
L 562.746437 -151.442359 
L 562.615728 -148.976731 
L 562.513825 -146.511103 
L 562.471708 -144.045475 
L 562.462335 -141.579847 
L 562.461881 -139.11422 
L 562.477859 -136.648592 
L 562.685096 -134.182964 
L 564.199757 -131.717336 
L 570.311117 -129.251708 
L 583.079718 -126.78608 
L 593.966563 -124.320452 
L 590.467042 -121.854825 
L 576.943895 -119.389197 
L 566.818133 -116.923569 
z
" style="stroke: #4c4c4c; stroke-opacity: 0.3; stroke-width: 1.25"/>
    </defs>
    <g clip-path="url(#p53f05e55c6)">
     <use xlink:href="#mebdef3eac4" x="0" y="425.72081" style="fill: #d3d3d3; fill-opacity: 0.3; stroke: #4c4c4c; stroke-opacity: 0.3; stroke-width: 1.25"/>
    </g>
   </g>
   <g id="patch_3">
    <path d="M 121.384062 199.274059 
L 121.384062 199.274059 
L 121.384062 199.274059 
L 121.384062 199.274059 
z
" clip-path="url(#p53f05e55c6)" style="fill: #d3d3d3; opacity: 0.3; stroke: #4c4c4c; stroke-width: 1.25; stroke-linejoin: miter"/>
   </g>
   <g id="patch_4">
    <path d="M 121.384062 199.274059 
L 121.384062 199.274059 
L 121.384062 199.274059 
L 121.384062 199.274059 
z
" clip-path="url(#p53f05e55c6)" style="fill: #df9c20; opacity: 0.3; stroke: #4c4c4c; stroke-width: 1.25; stroke-linejoin: miter"/>
   </g>
   <g id="matplotlib.axis_1">
    <g id="xtick_1">
     <g id="line2d_1">
      <defs>
       <path id="md49d0c21b5" d="M 0 0 
L 0 3.5 
" style="stroke: #000000; stroke-width: 0.8"/>
      </defs>
      <g>
       <use xlink:href="#md49d0c21b5" x="121.384062" y="321.364695" style="stroke: #000000; stroke-width: 0.8"/>
      </g>
     </g>
     <g id="text_1">
      <text style="font-size: 10px; font-family: 'DejaVu Sans', 'Bitstream Vera Sans', 'Computer Modern Sans Serif', 'Lucida Grande', 'Verdana', 'Geneva', 'Lucid', 'Arial', 'Helvetica', 'Avant Garde', sans-serif; fill: #00008b" transform="translate(62.796951 390.854152) rotate(-45)">Transient Lysate</text>
     </g>
    </g>
    <g id="xtick_2">
     <g id="line2d_2">
      <g>
       <use xlink:href="#md49d0c21b5" x="278.911563" y="321.364695" style="stroke: #000000; stroke-width: 0.8"/>
      </g>
     </g>
     <g id="text_2">
      <text style="font-size: 10px; font-family: 'DejaVu Sans', 'Bitstream Vera Sans', 'Computer Modern Sans Serif', 'Lucida Grande', 'Verdana', 'Geneva', 'Lucid', 'Arial', 'Helvetica', 'Avant Garde', sans-serif; fill: #8b0000" transform="translate(210.956391 400.222212) rotate(-45)">Transient Exported</text>
     </g>
    </g>
    <g id="xtick_3">
     <g id="line2d_3">
      <g>
       <use xlink:href="#md49d0c21b5" x="436.439062" y="321.364695" style="stroke: #000000; stroke-width: 0.8"/>
      </g>
     </g>
     <g id="text_3">
      <text style="font-size: 10px; font-family: 'DejaVu Sans', 'Bitstream Vera Sans', 'Computer Modern Sans Serif', 'Lucida Grande', 'Verdana', 'Geneva', 'Lucid', 'Arial', 'Helvetica', 'Avant Garde', sans-serif; fill: #00008b" transform="translate(387.702832 381.003271) rotate(-45)">Stable Lysate</text>
     </g>
    </g>
    <g id="xtick_4">
     <g id="line2d_4">
      <g>
       <use xlink:href="#md49d0c21b5" x="593.966563" y="321.364695" style="stroke: #000000; stroke-width: 0.8"/>
      </g>
     </g>
     <g id="text_4">
      <text style="font-size: 10px; font-family: 'DejaVu Sans', 'Bitstream Vera Sans', 'Computer Modern Sans Serif', 'Lucida Grande', 'Verdana', 'Geneva', 'Lucid', 'Arial', 'Helvetica', 'Avant Garde', sans-serif; fill: #8b0000" transform="translate(509.183355 417.050248) rotate(-45)">Stable Exported (NTVE)</text>
     </g>
    </g>
   </g>
   <g id="matplotlib.axis_2">
    <g id="ytick_1">
     <g id="line2d_5">
      <defs>
       <path id="m50a4535821" d="M 0 0 
L -3.5 0 
" style="stroke: #000000; stroke-width: 0.8"/>
      </defs>
      <g>
       <use xlink:href="#m50a4535821" x="42.620313" y="302.097251" style="stroke: #000000; stroke-width: 0.8"/>
      </g>
     </g>
     <g id="text_5">
      <text style="font-size: 10px; font-family: 'DejaVu Sans', 'Bitstream Vera Sans', 'Computer Modern Sans Serif', 'Lucida Grande', 'Verdana', 'Geneva', 'Lucid', 'Arial', 'Helvetica', 'Avant Garde', sans-serif; text-anchor: end" x="35.620313" y="305.89647" transform="rotate(-0 35.620313 305.89647)">−3</text>
     </g>
    </g>
    <g id="ytick_2">
     <g id="line2d_6">
      <g>
       <use xlink:href="#m50a4535821" x="42.620313" y="267.822854" style="stroke: #000000; stroke-width: 0.8"/>
      </g>
     </g>
     <g id="text_6">
      <text style="font-size: 10px; font-family: 'DejaVu Sans', 'Bitstream Vera Sans', 'Computer Modern Sans Serif', 'Lucida Grande', 'Verdana', 'Geneva', 'Lucid', 'Arial', 'Helvetica', 'Avant Garde', sans-serif; text-anchor: end" x="35.620313" y="271.622073" transform="rotate(-0 35.620313 271.622073)">−2</text>
     </g>
    </g>
    <g id="ytick_3">
     <g id="line2d_7">
      <g>
       <use xlink:href="#m50a4535821" x="42.620313" y="233.548456" style="stroke: #000000; stroke-width: 0.8"/>
      </g>
     </g>
     <g id="text_7">
      <text style="font-size: 10px; font-family: 'DejaVu Sans', 'Bitstream Vera Sans', 'Computer Modern Sans Serif', 'Lucida Grande', 'Verdana', 'Geneva', 'Lucid', 'Arial', 'Helvetica', 'Avant Garde', sans-serif; text-anchor: end" x="35.620313" y="237.347675" transform="rotate(-0 35.620313 237.347675)">−1</text>
     </g>
    </g>
    <g id="ytick_4">
     <g id="line2d_8">
      <g>
       <use xlink:href="#m50a4535821" x="42.620313" y="199.274059" style="stroke: #000000; stroke-width: 0.8"/>
      </g>
     </g>
     <g id="text_8">
      <text style="font-size: 10px; font-family: 'DejaVu Sans', 'Bitstream Vera Sans', 'Computer Modern Sans Serif', 'Lucida Grande', 'Verdana', 'Geneva', 'Lucid', 'Arial', 'Helvetica', 'Avant Garde', sans-serif; text-anchor: end" x="35.620313" y="203.073278" transform="rotate(-0 35.620313 203.073278)">0</text>
     </g>
    </g>
    <g id="ytick_5">
     <g id="line2d_9">
      <g>
       <use xlink:href="#m50a4535821" x="42.620313" y="164.999662" style="stroke: #000000; stroke-width: 0.8"/>
      </g>
     </g>
     <g id="text_9">
      <text style="font-size: 10px; font-family: 'DejaVu Sans', 'Bitstream Vera Sans', 'Computer Modern Sans Serif', 'Lucida Grande', 'Verdana', 'Geneva', 'Lucid', 'Arial', 'Helvetica', 'Avant Garde', sans-serif; text-anchor: end" x="35.620313" y="168.79888" transform="rotate(-0 35.620313 168.79888)">1</text>
     </g>
    </g>
    <g id="ytick_6">
     <g id="line2d_10">
      <g>
       <use xlink:href="#m50a4535821" x="42.620313" y="130.725264" style="stroke: #000000; stroke-width: 0.8"/>
      </g>
     </g>
     <g id="text_10">
      <text style="font-size: 10px; font-family: 'DejaVu Sans', 'Bitstream Vera Sans', 'Computer Modern Sans Serif', 'Lucida Grande', 'Verdana', 'Geneva', 'Lucid', 'Arial', 'Helvetica', 'Avant Garde', sans-serif; text-anchor: end" x="35.620313" y="134.524483" transform="rotate(-0 35.620313 134.524483)">2</text>
     </g>
    </g>
    <g id="ytick_7">
     <g id="line2d_11">
      <g>
       <use xlink:href="#m50a4535821" x="42.620313" y="96.450867" style="stroke: #000000; stroke-width: 0.8"/>
      </g>
     </g>
     <g id="text_11">
      <text style="font-size: 10px; font-family: 'DejaVu Sans', 'Bitstream Vera Sans', 'Computer Modern Sans Serif', 'Lucida Grande', 'Verdana', 'Geneva', 'Lucid', 'Arial', 'Helvetica', 'Avant Garde', sans-serif; text-anchor: end" x="35.620313" y="100.250086" transform="rotate(-0 35.620313 100.250086)">3</text>
     </g>
    </g>
    <g id="ytick_8">
     <g id="line2d_12">
      <g>
       <use xlink:href="#m50a4535821" x="42.620313" y="62.17647" style="stroke: #000000; stroke-width: 0.8"/>
      </g>
     </g>
     <g id="text_12">
      <text style="font-size: 10px; font-family: 'DejaVu Sans', 'Bitstream Vera Sans', 'Computer Modern Sans Serif', 'Lucida Grande', 'Verdana', 'Geneva', 'Lucid', 'Arial', 'Helvetica', 'Avant Garde', sans-serif; text-anchor: end" x="35.620313" y="65.975688" transform="rotate(-0 35.620313 65.975688)">4</text>
     </g>
    </g>
    <g id="text_13">
     <text style="font-size: 10px; font-family: 'DejaVu Sans', 'Bitstream Vera Sans', 'Computer Modern Sans Serif', 'Lucida Grande', 'Verdana', 'Geneva', 'Lucid', 'Arial', 'Helvetica', 'Avant Garde', sans-serif; text-anchor: middle" x="14.798438" y="185.560097" transform="rotate(-90 14.798438 185.560097)">Log10(Read Counts)</text>
    </g>
   </g>
   <g id="line2d_13">
    <path d="M 89.878563 302.097251 
L 89.878563 69.022944 
" clip-path="url(#p53f05e55c6)" style="fill: none; stroke: #4c4c4c; stroke-width: 1.875; stroke-linecap: square"/>
   </g>
   <g id="line2d_14">
    <path d="M 89.878563 302.097251 
L 89.878563 198.828288 
" clip-path="url(#p53f05e55c6)" style="fill: none; stroke: #4c4c4c; stroke-width: 5.625; stroke-linecap: square"/>
   </g>
   <g id="line2d_15">
    <path d="M 89.878563 255.488324 
" clip-path="url(#p53f05e55c6)" style="fill: none; stroke: #4c4c4c; stroke-width: 1.5; stroke-linecap: square"/>
    <defs>
     <path id="mc8fba5df60" d="M 2.34375 0 
L -2.34375 -0 
" style="stroke: #ffffff; stroke-width: 1.125"/>
    </defs>
    <g clip-path="url(#p53f05e55c6)">
     <use xlink:href="#mc8fba5df60" x="89.878563" y="255.488324" style="fill: #ffffff; stroke: #ffffff; stroke-width: 1.125"/>
    </g>
   </g>
   <g id="line2d_16">
    <path d="M 247.406063 302.097251 
L 247.406063 74.370236 
" clip-path="url(#p53f05e55c6)" style="fill: none; stroke: #4c4c4c; stroke-width: 1.875; stroke-linecap: square"/>
   </g>
   <g id="line2d_17">
    <path d="M 247.406063 302.097251 
L 247.406063 197.222484 
" clip-path="url(#p53f05e55c6)" style="fill: none; stroke: #4c4c4c; stroke-width: 5.625; stroke-linecap: square"/>
   </g>
   <g id="line2d_18">
    <path d="M 247.406063 243.926036 
" clip-path="url(#p53f05e55c6)" style="fill: none; stroke: #4c4c4c; stroke-width: 1.5; stroke-linecap: square"/>
    <g clip-path="url(#p53f05e55c6)">
     <use xlink:href="#mc8fba5df60" x="247.406063" y="243.926036" style="fill: #ffffff; stroke: #ffffff; stroke-width: 1.125"/>
    </g>
   </g>
   <g id="line2d_19">
    <path d="M 404.933562 302.097251 
L 404.933562 69.922963 
" clip-path="url(#p53f05e55c6)" style="fill: none; stroke: #4c4c4c; stroke-width: 1.875; stroke-linecap: square"/>
   </g>
   <g id="line2d_20">
    <path d="M 404.933562 302.097251 
L 404.933562 199.775623 
" clip-path="url(#p53f05e55c6)" style="fill: none; stroke: #4c4c4c; stroke-width: 5.625; stroke-linecap: square"/>
   </g>
   <g id="line2d_21">
    <path d="M 404.933562 267.348651 
" clip-path="url(#p53f05e55c6)" style="fill: none; stroke: #4c4c4c; stroke-width: 1.5; stroke-linecap: square"/>
    <g clip-path="url(#p53f05e55c6)">
     <use xlink:href="#mc8fba5df60" x="404.933562" y="267.348651" style="fill: #ffffff; stroke: #ffffff; stroke-width: 1.125"/>
    </g>
   </g>
   <g id="line2d_22">
    <path d="M 562.461063 302.097251 
L 562.461063 71.400072 
" clip-path="url(#p53f05e55c6)" style="fill: none; stroke: #4c4c4c; stroke-width: 1.875; stroke-linecap: square"/>
   </g>
   <g id="line2d_23">
    <path d="M 562.461063 302.097251 
L 562.461063 201.598267 
" clip-path="url(#p53f05e55c6)" style="fill: none; stroke: #4c4c4c; stroke-width: 5.625; stroke-linecap: square"/>
   </g>
   <g id="line2d_24">
    <path d="M 562.461063 302.097251 
" clip-path="url(#p53f05e55c6)" style="fill: none; stroke: #4c4c4c; stroke-width: 1.5; stroke-linecap: square"/>
    <g clip-path="url(#p53f05e55c6)">
     <use xlink:href="#mc8fba5df60" x="562.461063" y="302.097251" style="fill: #ffffff; stroke: #ffffff; stroke-width: 1.125"/>
    </g>
   </g>
   <g id="patch_5">
    <path d="M 42.620313 321.364695 
L 42.620313 49.7555 
" style="fill: none; stroke: #000000; stroke-width: 0.8; stroke-linejoin: miter; stroke-linecap: square"/>
   </g>
   <g id="patch_6">
    <path d="M 672.730312 321.364695 
L 672.730312 49.7555 
" style="fill: none; stroke: #000000; stroke-width: 0.8; stroke-linejoin: miter; stroke-linecap: square"/>
   </g>
   <g id="patch_7">
    <path d="M 42.620312 321.364695 
L 672.730313 321.364695 
" style="fill: none; stroke: #000000; stroke-width: 0.8; stroke-linejoin: miter; stroke-linecap: square"/>
   </g>
   <g id="patch_8">
    <path d="M 42.620312 49.7555 
L 672.730313 49.7555 
" style="fill: none; stroke: #000000; stroke-width: 0.8; stroke-linejoin: miter; stroke-linecap: square"/>
   </g>
   <g id="PathCollection_1">
    <path d="M 0 428.22081 
C 0.663008 428.22081 1.29895 427.957394 1.767767 427.488576 
C 2.236584 427.019759 2.5 426.383817 2.5 425.72081 
C 2.5 425.057802 2.236584 424.42186 1.767767 423.953043 
C 1.29895 423.484225 0.663008 423.22081 0 423.22081 
C -0.663008 423.22081 -1.29895 423.484225 -1.767767 423.953043 
C -2.236584 424.42186 -2.5 425.057802 -2.5 425.72081 
C -2.5 426.383817 -2.236584 427.019759 -1.767767 427.488576 
C -1.29895 427.957394 -0.663008 428.22081 0 428.22081 
" clip-path="url(#p53f05e55c6)" style="fill: none"/>
   </g>
   <g id="PathCollection_2">
    <defs>
     <path id="C0_0_c5d943fd6e" d="M 0 2.5 
C 0.663008 2.5 1.29895 2.236584 1.767767 1.767767 
C 2.236584 1.29895 2.5 0.663008 2.5 -0 
C 2.5 -0.663008 2.236584 -1.29895 1.767767 -1.767767 
C 1.29895 -2.236584 0.663008 -2.5 0 -2.5 
C -0.663008 -2.5 -1.29895 -2.236584 -1.767767 -1.767767 
C -2.236584 -1.29895 -2.5 -0.663008 -2.5 0 
C -2.5 0.663008 -2.236584 1.29895 -1.767767 1.767767 
C -1.29895 2.236584 -0.663008 2.5 0 2.5 
z
"/>
    </defs>
    <g clip-path="url(#p53f05e55c6)">
     <use xlink:href="#C0_0_c5d943fd6e" x="164.396317" y="225.115311" style="fill: #ffa500; fill-opacity: 0.7"/>
    </g>
    <g clip-path="url(#p53f05e55c6)">
     <use xlink:href="#C0_0_c5d943fd6e" x="146.968117" y="122.373025" style="fill: #ffa500; fill-opacity: 0.7"/>
    </g>
    <g clip-path="url(#p53f05e55c6)">
     <use xlink:href="#C0_0_c5d943fd6e" x="140.98151" y="235.348701" style="fill: #ffa500; fill-opacity: 0.7"/>
    </g>
    <g clip-path="url(#p53f05e55c6)">
     <use xlink:href="#C0_0_c5d943fd6e" x="168.02568" y="119.647373" style="fill: #ffa500; fill-opacity: 0.7"/>
    </g>
    <g clip-path="url(#p53f05e55c6)">
     <use xlink:href="#C0_0_c5d943fd6e" x="162.377996" y="302.097251" style="fill: #ffa500; fill-opacity: 0.7"/>
    </g>
    <g clip-path="url(#p53f05e55c6)">
     <use xlink:href="#C0_0_c5d943fd6e" x="161.041971" y="104.785439" style="fill: #ffa500; fill-opacity: 0.7"/>
    </g>
    <g clip-path="url(#p53f05e55c6)">
     <use xlink:href="#C0_0_c5d943fd6e" x="159.710757" y="213.09147" style="fill: #ffa500; fill-opacity: 0.7"/>
    </g>
    <g clip-path="url(#p53f05e55c6)">
     <use xlink:href="#C0_0_c5d943fd6e" x="145.72374" y="199.148098" style="fill: #ffa500; fill-opacity: 0.7"/>
    </g>
    <g clip-path="url(#p53f05e55c6)">
     <use xlink:href="#C0_0_c5d943fd6e" x="137.582694" y="213.09147" style="fill: #ffa500; fill-opacity: 0.7"/>
    </g>
    <g clip-path="url(#p53f05e55c6)">
     <use xlink:href="#C0_0_c5d943fd6e" x="137.752633" y="111.415547" style="fill: #ffa500; fill-opacity: 0.7"/>
    </g>
    <g clip-path="url(#p53f05e55c6)">
     <use xlink:href="#C0_0_c5d943fd6e" x="148.619456" y="179.789393" style="fill: #ffa500; fill-opacity: 0.7"/>
    </g>
    <g clip-path="url(#p53f05e55c6)">
     <use xlink:href="#C0_0_c5d943fd6e" x="152.853976" y="217.920964" style="fill: #ffa500; fill-opacity: 0.7"/>
    </g>
    <g clip-path="url(#p53f05e55c6)">
     <use xlink:href="#C0_0_c5d943fd6e" x="156.104582" y="302.097251" style="fill: #ffa500; fill-opacity: 0.7"/>
    </g>
    <g clip-path="url(#p53f05e55c6)">
     <use xlink:href="#C0_0_c5d943fd6e" x="150.972418" y="302.097251" style="fill: #ffa500; fill-opacity: 0.7"/>
    </g>
    <g clip-path="url(#p53f05e55c6)">
     <use xlink:href="#C0_0_c5d943fd6e" x="164.474081" y="302.097251" style="fill: #ffa500; fill-opacity: 0.7"/>
    </g>
    <g clip-path="url(#p53f05e55c6)">
     <use xlink:href="#C0_0_c5d943fd6e" x="141.254733" y="83.026615" style="fill: #ffa500; fill-opacity: 0.7"/>
    </g>
    <g clip-path="url(#p53f05e55c6)">
     <use xlink:href="#C0_0_c5d943fd6e" x="167.186596" y="210.80229" style="fill: #ffa500; fill-opacity: 0.7"/>
    </g>
    <g clip-path="url(#p53f05e55c6)">
     <use xlink:href="#C0_0_c5d943fd6e" x="138.237011" y="239.57501" style="fill: #ffa500; fill-opacity: 0.7"/>
    </g>
    <g clip-path="url(#p53f05e55c6)">
     <use xlink:href="#C0_0_c5d943fd6e" x="155.774615" y="103.496064" style="fill: #ffa500; fill-opacity: 0.7"/>
    </g>
    <g clip-path="url(#p53f05e55c6)">
     <use xlink:href="#C0_0_c5d943fd6e" x="167.568168" y="302.097251" style="fill: #ffa500; fill-opacity: 0.7"/>
    </g>
    <g clip-path="url(#p53f05e55c6)">
     <use xlink:href="#C0_0_c5d943fd6e" x="141.081554" y="156.102426" style="fill: #ffa500; fill-opacity: 0.7"/>
    </g>
    <g clip-path="url(#p53f05e55c6)">
     <use xlink:href="#C0_0_c5d943fd6e" x="159.084781" y="113.470152" style="fill: #ffa500; fill-opacity: 0.7"/>
    </g>
    <g clip-path="url(#p53f05e55c6)">
     <use xlink:href="#C0_0_c5d943fd6e" x="161.036928" y="104.19246" style="fill: #ffa500; fill-opacity: 0.7"/>
    </g>
    <g clip-path="url(#p53f05e55c6)">
     <use xlink:href="#C0_0_c5d943fd6e" x="143.223416" y="302.097251" style="fill: #ffa500; fill-opacity: 0.7"/>
    </g>
    <g clip-path="url(#p53f05e55c6)">
     <use xlink:href="#C0_0_c5d943fd6e" x="159.9744" y="127.997452" style="fill: #ffa500; fill-opacity: 0.7"/>
    </g>
    <g clip-path="url(#p53f05e55c6)">
     <use xlink:href="#C0_0_c5d943fd6e" x="138.73434" y="302.097251" style="fill: #ffa500; fill-opacity: 0.7"/>
    </g>
    <g clip-path="url(#p53f05e55c6)">
     <use xlink:href="#C0_0_c5d943fd6e" x="159.019182" y="132.406818" style="fill: #ffa500; fill-opacity: 0.7"/>
    </g>
    <g clip-path="url(#p53f05e55c6)">
     <use xlink:href="#C0_0_c5d943fd6e" x="143.564977" y="97.229734" style="fill: #ffa500; fill-opacity: 0.7"/>
    </g>
    <g clip-path="url(#p53f05e55c6)">
     <use xlink:href="#C0_0_c5d943fd6e" x="160.118374" y="235.348701" style="fill: #ffa500; fill-opacity: 0.7"/>
    </g>
    <g clip-path="url(#p53f05e55c6)">
     <use xlink:href="#C0_0_c5d943fd6e" x="150.505713" y="302.097251" style="fill: #ffa500; fill-opacity: 0.7"/>
    </g>
    <g clip-path="url(#p53f05e55c6)">
     <use xlink:href="#C0_0_c5d943fd6e" x="147.778026" y="302.097251" style="fill: #ffa500; fill-opacity: 0.7"/>
    </g>
    <g clip-path="url(#p53f05e55c6)">
     <use xlink:href="#C0_0_c5d943fd6e" x="143.032083" y="98.191088" style="fill: #ffa500; fill-opacity: 0.7"/>
    </g>
    <g clip-path="url(#p53f05e55c6)">
     <use xlink:href="#C0_0_c5d943fd6e" x="139.945997" y="144.982323" style="fill: #ffa500; fill-opacity: 0.7"/>
    </g>
    <g clip-path="url(#p53f05e55c6)">
     <use xlink:href="#C0_0_c5d943fd6e" x="140.193369" y="229.369381" style="fill: #ffa500; fill-opacity: 0.7"/>
    </g>
    <g clip-path="url(#p53f05e55c6)">
     <use xlink:href="#C0_0_c5d943fd6e" x="161.151791" y="105.05263" style="fill: #ffa500; fill-opacity: 0.7"/>
    </g>
    <g clip-path="url(#p53f05e55c6)">
     <use xlink:href="#C0_0_c5d943fd6e" x="165.321849" y="184.277125" style="fill: #ffa500; fill-opacity: 0.7"/>
    </g>
    <g clip-path="url(#p53f05e55c6)">
     <use xlink:href="#C0_0_c5d943fd6e" x="145.535377" y="187.449253" style="fill: #ffa500; fill-opacity: 0.7"/>
    </g>
   </g>
   <g id="PathCollection_3">
    <path d="M 0 428.22081 
C 0.663008 428.22081 1.29895 427.957394 1.767767 427.488576 
C 2.236584 427.019759 2.5 426.383817 2.5 425.72081 
C 2.5 425.057802 2.236584 424.42186 1.767767 423.953043 
C 1.29895 423.484225 0.663008 423.22081 0 423.22081 
C -0.663008 423.22081 -1.29895 423.484225 -1.767767 423.953043 
C -2.236584 424.42186 -2.5 425.057802 -2.5 425.72081 
C -2.5 426.383817 -2.236584 427.019759 -1.767767 427.488576 
C -1.29895 427.957394 -0.663008 428.22081 0 428.22081 
" clip-path="url(#p53f05e55c6)" style="fill: none"/>
   </g>
   <g id="PathCollection_4">
    <defs>
     <path id="C1_0_28fde02cdd" d="M 0 2.5 
C 0.663008 2.5 1.29895 2.236584 1.767767 1.767767 
C 2.236584 1.29895 2.5 0.663008 2.5 -0 
C 2.5 -0.663008 2.236584 -1.29895 1.767767 -1.767767 
C 1.29895 -2.236584 0.663008 -2.5 0 -2.5 
C -0.663008 -2.5 -1.29895 -2.236584 -1.767767 -1.767767 
C -2.236584 -1.29895 -2.5 -0.663008 -2.5 0 
C -2.5 0.663008 -2.236584 1.29895 -1.767767 1.767767 
C -1.29895 2.236584 -0.663008 2.5 0 2.5 
z
"/>
    </defs>
    <g clip-path="url(#p53f05e55c6)">
     <use xlink:href="#C1_0_28fde02cdd" x="295.314732" y="220.210326" style="fill: #ffa500; fill-opacity: 0.7"/>
    </g>
    <g clip-path="url(#p53f05e55c6)">
     <use xlink:href="#C1_0_28fde02cdd" x="300.412349" y="111.733539" style="fill: #ffa500; fill-opacity: 0.7"/>
    </g>
    <g clip-path="url(#p53f05e55c6)">
     <use xlink:href="#C1_0_28fde02cdd" x="316.992572" y="243.926036" style="fill: #ffa500; fill-opacity: 0.7"/>
    </g>
    <g clip-path="url(#p53f05e55c6)">
     <use xlink:href="#C1_0_28fde02cdd" x="311.683261" y="107.436401" style="fill: #ffa500; fill-opacity: 0.7"/>
    </g>
    <g clip-path="url(#p53f05e55c6)">
     <use xlink:href="#C1_0_28fde02cdd" x="306.666276" y="302.097251" style="fill: #ffa500; fill-opacity: 0.7"/>
    </g>
    <g clip-path="url(#p53f05e55c6)">
     <use xlink:href="#C1_0_28fde02cdd" x="308.814872" y="91.568295" style="fill: #ffa500; fill-opacity: 0.7"/>
    </g>
    <g clip-path="url(#p53f05e55c6)">
     <use xlink:href="#C1_0_28fde02cdd" x="318.577446" y="196.007709" style="fill: #ffa500; fill-opacity: 0.7"/>
    </g>
    <g clip-path="url(#p53f05e55c6)">
     <use xlink:href="#C1_0_28fde02cdd" x="307.029894" y="200.383428" style="fill: #ffa500; fill-opacity: 0.7"/>
    </g>
    <g clip-path="url(#p53f05e55c6)">
     <use xlink:href="#C1_0_28fde02cdd" x="314.886533" y="218.797141" style="fill: #ffa500; fill-opacity: 0.7"/>
    </g>
    <g clip-path="url(#p53f05e55c6)">
     <use xlink:href="#C1_0_28fde02cdd" x="326.076552" y="96.160763" style="fill: #ffa500; fill-opacity: 0.7"/>
    </g>
    <g clip-path="url(#p53f05e55c6)">
     <use xlink:href="#C1_0_28fde02cdd" x="321.439942" y="182.434197" style="fill: #ffa500; fill-opacity: 0.7"/>
    </g>
    <g clip-path="url(#p53f05e55c6)">
     <use xlink:href="#C1_0_28fde02cdd" x="315.222851" y="212.336867" style="fill: #ffa500; fill-opacity: 0.7"/>
    </g>
    <g clip-path="url(#p53f05e55c6)">
     <use xlink:href="#C1_0_28fde02cdd" x="314.146777" y="302.097251" style="fill: #ffa500; fill-opacity: 0.7"/>
    </g>
    <g clip-path="url(#p53f05e55c6)">
     <use xlink:href="#C1_0_28fde02cdd" x="306.98923" y="302.097251" style="fill: #ffa500; fill-opacity: 0.7"/>
    </g>
    <g clip-path="url(#p53f05e55c6)">
     <use xlink:href="#C1_0_28fde02cdd" x="301.515728" y="220.210326" style="fill: #ffa500; fill-opacity: 0.7"/>
    </g>
    <g clip-path="url(#p53f05e55c6)">
     <use xlink:href="#C1_0_28fde02cdd" x="310.091021" y="77.178536" style="fill: #ffa500; fill-opacity: 0.7"/>
    </g>
    <g clip-path="url(#p53f05e55c6)">
     <use xlink:href="#C1_0_28fde02cdd" x="310.890859" y="207.214299" style="fill: #ffa500; fill-opacity: 0.7"/>
    </g>
    <g clip-path="url(#p53f05e55c6)">
     <use xlink:href="#C1_0_28fde02cdd" x="308.422271" y="243.926036" style="fill: #ffa500; fill-opacity: 0.7"/>
    </g>
    <g clip-path="url(#p53f05e55c6)">
     <use xlink:href="#C1_0_28fde02cdd" x="318.948833" y="95.40928" style="fill: #ffa500; fill-opacity: 0.7"/>
    </g>
    <g clip-path="url(#p53f05e55c6)">
     <use xlink:href="#C1_0_28fde02cdd" x="321.413098" y="302.097251" style="fill: #ffa500; fill-opacity: 0.7"/>
    </g>
    <g clip-path="url(#p53f05e55c6)">
     <use xlink:href="#C1_0_28fde02cdd" x="310.173008" y="137.840882" style="fill: #ffa500; fill-opacity: 0.7"/>
    </g>
    <g clip-path="url(#p53f05e55c6)">
     <use xlink:href="#C1_0_28fde02cdd" x="306.264186" y="97.722306" style="fill: #ffa500; fill-opacity: 0.7"/>
    </g>
    <g clip-path="url(#p53f05e55c6)">
     <use xlink:href="#C1_0_28fde02cdd" x="302.724229" y="98.986985" style="fill: #ffa500; fill-opacity: 0.7"/>
    </g>
    <g clip-path="url(#p53f05e55c6)">
     <use xlink:href="#C1_0_28fde02cdd" x="309.650039" y="302.097251" style="fill: #ffa500; fill-opacity: 0.7"/>
    </g>
    <g clip-path="url(#p53f05e55c6)">
     <use xlink:href="#C1_0_28fde02cdd" x="312.455733" y="122.541767" style="fill: #ffa500; fill-opacity: 0.7"/>
    </g>
    <g clip-path="url(#p53f05e55c6)">
     <use xlink:href="#C1_0_28fde02cdd" x="325.784199" y="302.097251" style="fill: #ffa500; fill-opacity: 0.7"/>
    </g>
    <g clip-path="url(#p53f05e55c6)">
     <use xlink:href="#C1_0_28fde02cdd" x="312.516721" y="115.749086" style="fill: #ffa500; fill-opacity: 0.7"/>
    </g>
    <g clip-path="url(#p53f05e55c6)">
     <use xlink:href="#C1_0_28fde02cdd" x="300.187945" y="81.1577" style="fill: #ffa500; fill-opacity: 0.7"/>
    </g>
    <g clip-path="url(#p53f05e55c6)">
     <use xlink:href="#C1_0_28fde02cdd" x="302.836656" y="302.097251" style="fill: #ffa500; fill-opacity: 0.7"/>
    </g>
    <g clip-path="url(#p53f05e55c6)">
     <use xlink:href="#C1_0_28fde02cdd" x="316.614527" y="302.097251" style="fill: #ffa500; fill-opacity: 0.7"/>
    </g>
    <g clip-path="url(#p53f05e55c6)">
     <use xlink:href="#C1_0_28fde02cdd" x="301.845421" y="302.097251" style="fill: #ffa500; fill-opacity: 0.7"/>
    </g>
    <g clip-path="url(#p53f05e55c6)">
     <use xlink:href="#C1_0_28fde02cdd" x="325.952059" y="82.509726" style="fill: #ffa500; fill-opacity: 0.7"/>
    </g>
    <g clip-path="url(#p53f05e55c6)">
     <use xlink:href="#C1_0_28fde02cdd" x="297.491385" y="143.649462" style="fill: #ffa500; fill-opacity: 0.7"/>
    </g>
    <g clip-path="url(#p53f05e55c6)">
     <use xlink:href="#C1_0_28fde02cdd" x="296.264838" y="225.493481" style="fill: #ffa500; fill-opacity: 0.7"/>
    </g>
    <g clip-path="url(#p53f05e55c6)">
     <use xlink:href="#C1_0_28fde02cdd" x="325.240099" y="93.164974" style="fill: #ffa500; fill-opacity: 0.7"/>
    </g>
    <g clip-path="url(#p53f05e55c6)">
     <use xlink:href="#C1_0_28fde02cdd" x="307.324292" y="181.972751" style="fill: #ffa500; fill-opacity: 0.7"/>
    </g>
    <g clip-path="url(#p53f05e55c6)">
     <use xlink:href="#C1_0_28fde02cdd" x="319.938863" y="185.990711" style="fill: #ffa500; fill-opacity: 0.7"/>
    </g>
   </g>
   <g id="PathCollection_5">
    <path d="M 0 428.22081 
C 0.663008 428.22081 1.29895 427.957394 1.767767 427.488576 
C 2.236584 427.019759 2.5 426.383817 2.5 425.72081 
C 2.5 425.057802 2.236584 424.42186 1.767767 423.953043 
C 1.29895 423.484225 0.663008 423.22081 0 423.22081 
C -0.663008 423.22081 -1.29895 423.484225 -1.767767 423.953043 
C -2.236584 424.42186 -2.5 425.057802 -2.5 425.72081 
C -2.5 426.383817 -2.236584 427.019759 -1.767767 427.488576 
C -1.29895 427.957394 -0.663008 428.22081 0 428.22081 
" clip-path="url(#p53f05e55c6)" style="fill: none"/>
   </g>
   <g id="PathCollection_6">
    <defs>
     <path id="C2_0_f230b5e3a1" d="M 0 2.5 
C 0.663008 2.5 1.29895 2.236584 1.767767 1.767767 
C 2.236584 1.29895 2.5 0.663008 2.5 -0 
C 2.5 -0.663008 2.236584 -1.29895 1.767767 -1.767767 
C 1.29895 -2.236584 0.663008 -2.5 0 -2.5 
C -0.663008 -2.5 -1.29895 -2.236584 -1.767767 -1.767767 
C -2.236584 -1.29895 -2.5 -0.663008 -2.5 0 
C -2.5 0.663008 -2.236584 1.29895 -1.767767 1.767767 
C -1.29895 2.236584 -0.663008 2.5 0 2.5 
z
"/>
    </defs>
    <g clip-path="url(#p53f05e55c6)">
     <use xlink:href="#C2_0_f230b5e3a1" x="456.833357" y="235.896577" style="fill: #ffa500; fill-opacity: 0.7"/>
    </g>
    <g clip-path="url(#p53f05e55c6)">
     <use xlink:href="#C2_0_f230b5e3a1" x="475.40204" y="102.593966" style="fill: #ffa500; fill-opacity: 0.7"/>
    </g>
    <g clip-path="url(#p53f05e55c6)">
     <use xlink:href="#C2_0_f230b5e3a1" x="463.883451" y="302.097251" style="fill: #ffa500; fill-opacity: 0.7"/>
    </g>
    <g clip-path="url(#p53f05e55c6)">
     <use xlink:href="#C2_0_f230b5e3a1" x="481.238227" y="72.326276" style="fill: #ffa500; fill-opacity: 0.7"/>
    </g>
    <g clip-path="url(#p53f05e55c6)">
     <use xlink:href="#C2_0_f230b5e3a1" x="482.939092" y="302.097251" style="fill: #ffa500; fill-opacity: 0.7"/>
    </g>
    <g clip-path="url(#p53f05e55c6)">
     <use xlink:href="#C2_0_f230b5e3a1" x="452.659803" y="112.24535" style="fill: #ffa500; fill-opacity: 0.7"/>
    </g>
    <g clip-path="url(#p53f05e55c6)">
     <use xlink:href="#C2_0_f230b5e3a1" x="467.430716" y="172.507748" style="fill: #ffa500; fill-opacity: 0.7"/>
    </g>
    <g clip-path="url(#p53f05e55c6)">
     <use xlink:href="#C2_0_f230b5e3a1" x="464.817285" y="185.067144" style="fill: #ffa500; fill-opacity: 0.7"/>
    </g>
    <g clip-path="url(#p53f05e55c6)">
     <use xlink:href="#C2_0_f230b5e3a1" x="473.617195" y="212.655423" style="fill: #ffa500; fill-opacity: 0.7"/>
    </g>
    <g clip-path="url(#p53f05e55c6)">
     <use xlink:href="#C2_0_f230b5e3a1" x="454.894104" y="111.821683" style="fill: #ffa500; fill-opacity: 0.7"/>
    </g>
    <g clip-path="url(#p53f05e55c6)">
     <use xlink:href="#C2_0_f230b5e3a1" x="459.390809" y="203.367991" style="fill: #ffa500; fill-opacity: 0.7"/>
    </g>
    <g clip-path="url(#p53f05e55c6)">
     <use xlink:href="#C2_0_f230b5e3a1" x="468.33638" y="207.153289" style="fill: #ffa500; fill-opacity: 0.7"/>
    </g>
    <g clip-path="url(#p53f05e55c6)">
     <use xlink:href="#C2_0_f230b5e3a1" x="471.34782" y="302.097251" style="fill: #ffa500; fill-opacity: 0.7"/>
    </g>
    <g clip-path="url(#p53f05e55c6)">
     <use xlink:href="#C2_0_f230b5e3a1" x="455.289469" y="261.900055" style="fill: #ffa500; fill-opacity: 0.7"/>
    </g>
    <g clip-path="url(#p53f05e55c6)">
     <use xlink:href="#C2_0_f230b5e3a1" x="474.073923" y="241.9997" style="fill: #ffa500; fill-opacity: 0.7"/>
    </g>
    <g clip-path="url(#p53f05e55c6)">
     <use xlink:href="#C2_0_f230b5e3a1" x="464.521971" y="85.651481" style="fill: #ffa500; fill-opacity: 0.7"/>
    </g>
    <g clip-path="url(#p53f05e55c6)">
     <use xlink:href="#C2_0_f230b5e3a1" x="463.568527" y="221.364619" style="fill: #ffa500; fill-opacity: 0.7"/>
    </g>
    <g clip-path="url(#p53f05e55c6)">
     <use xlink:href="#C2_0_f230b5e3a1" x="457.445559" y="228.061854" style="fill: #ffa500; fill-opacity: 0.7"/>
    </g>
    <g clip-path="url(#p53f05e55c6)">
     <use xlink:href="#C2_0_f230b5e3a1" x="473.457208" y="93.70893" style="fill: #ffa500; fill-opacity: 0.7"/>
    </g>
    <g clip-path="url(#p53f05e55c6)">
     <use xlink:href="#C2_0_f230b5e3a1" x="476.195472" y="302.097251" style="fill: #ffa500; fill-opacity: 0.7"/>
    </g>
    <g clip-path="url(#p53f05e55c6)">
     <use xlink:href="#C2_0_f230b5e3a1" x="469.482379" y="136.236363" style="fill: #ffa500; fill-opacity: 0.7"/>
    </g>
    <g clip-path="url(#p53f05e55c6)">
     <use xlink:href="#C2_0_f230b5e3a1" x="462.61376" y="105.544714" style="fill: #ffa500; fill-opacity: 0.7"/>
    </g>
    <g clip-path="url(#p53f05e55c6)">
     <use xlink:href="#C2_0_f230b5e3a1" x="454.3451" y="92.578965" style="fill: #ffa500; fill-opacity: 0.7"/>
    </g>
    <g clip-path="url(#p53f05e55c6)">
     <use xlink:href="#C2_0_f230b5e3a1" x="467.056794" y="302.097251" style="fill: #ffa500; fill-opacity: 0.7"/>
    </g>
    <g clip-path="url(#p53f05e55c6)">
     <use xlink:href="#C2_0_f230b5e3a1" x="465.370559" y="107.605692" style="fill: #ffa500; fill-opacity: 0.7"/>
    </g>
    <g clip-path="url(#p53f05e55c6)">
     <use xlink:href="#C2_0_f230b5e3a1" x="469.255412" y="302.097251" style="fill: #ffa500; fill-opacity: 0.7"/>
    </g>
    <g clip-path="url(#p53f05e55c6)">
     <use xlink:href="#C2_0_f230b5e3a1" x="480.242201" y="120.356828" style="fill: #ffa500; fill-opacity: 0.7"/>
    </g>
    <g clip-path="url(#p53f05e55c6)">
     <use xlink:href="#C2_0_f230b5e3a1" x="464.977342" y="93.005263" style="fill: #ffa500; fill-opacity: 0.7"/>
    </g>
    <g clip-path="url(#p53f05e55c6)">
     <use xlink:href="#C2_0_f230b5e3a1" x="461.53804" y="302.097251" style="fill: #ffa500; fill-opacity: 0.7"/>
    </g>
    <g clip-path="url(#p53f05e55c6)">
     <use xlink:href="#C2_0_f230b5e3a1" x="480.39472" y="302.097251" style="fill: #ffa500; fill-opacity: 0.7"/>
    </g>
    <g clip-path="url(#p53f05e55c6)">
     <use xlink:href="#C2_0_f230b5e3a1" x="469.976383" y="302.097251" style="fill: #ffa500; fill-opacity: 0.7"/>
    </g>
    <g clip-path="url(#p53f05e55c6)">
     <use xlink:href="#C2_0_f230b5e3a1" x="459.553061" y="101.224411" style="fill: #ffa500; fill-opacity: 0.7"/>
    </g>
    <g clip-path="url(#p53f05e55c6)">
     <use xlink:href="#C2_0_f230b5e3a1" x="457.860989" y="157.51711" style="fill: #ffa500; fill-opacity: 0.7"/>
    </g>
    <g clip-path="url(#p53f05e55c6)">
     <use xlink:href="#C2_0_f230b5e3a1" x="474.994297" y="222.064185" style="fill: #ffa500; fill-opacity: 0.7"/>
    </g>
    <g clip-path="url(#p53f05e55c6)">
     <use xlink:href="#C2_0_f230b5e3a1" x="476.611934" y="108.726916" style="fill: #ffa500; fill-opacity: 0.7"/>
    </g>
    <g clip-path="url(#p53f05e55c6)">
     <use xlink:href="#C2_0_f230b5e3a1" x="480.982647" y="182.161623" style="fill: #ffa500; fill-opacity: 0.7"/>
    </g>
    <g clip-path="url(#p53f05e55c6)">
     <use xlink:href="#C2_0_f230b5e3a1" x="480.738662" y="193.067408" style="fill: #ffa500; fill-opacity: 0.7"/>
    </g>
   </g>
   <g id="PathCollection_7">
    <path d="M 0 428.22081 
C 0.663008 428.22081 1.29895 427.957394 1.767767 427.488576 
C 2.236584 427.019759 2.5 426.383817 2.5 425.72081 
C 2.5 425.057802 2.236584 424.42186 1.767767 423.953043 
C 1.29895 423.484225 0.663008 423.22081 0 423.22081 
C -0.663008 423.22081 -1.29895 423.484225 -1.767767 423.953043 
C -2.236584 424.42186 -2.5 425.057802 -2.5 425.72081 
C -2.5 426.383817 -2.236584 427.019759 -1.767767 427.488576 
C -1.29895 427.957394 -0.663008 428.22081 0 428.22081 
" clip-path="url(#p53f05e55c6)" style="fill: none"/>
   </g>
   <g id="PathCollection_8">
    <defs>
     <path id="C3_0_101e7cf0a0" d="M 0 2.5 
C 0.663008 2.5 1.29895 2.236584 1.767767 1.767767 
C 2.236584 1.29895 2.5 0.663008 2.5 -0 
C 2.5 -0.663008 2.236584 -1.29895 1.767767 -1.767767 
C 1.29895 -2.236584 0.663008 -2.5 0 -2.5 
C -0.663008 -2.5 -1.29895 -2.236584 -1.767767 -1.767767 
C -2.236584 -1.29895 -2.5 -0.663008 -2.5 0 
C -2.5 0.663008 -2.236584 1.29895 -1.767767 1.767767 
C -1.29895 2.236584 -0.663008 2.5 0 2.5 
z
"/>
    </defs>
    <g clip-path="url(#p53f05e55c6)">
     <use xlink:href="#C3_0_101e7cf0a0" x="620.952512" y="302.097251" style="fill: #ffa500; fill-opacity: 0.7"/>
    </g>
    <g clip-path="url(#p53f05e55c6)">
     <use xlink:href="#C3_0_101e7cf0a0" x="617.311855" y="256.065451" style="fill: #ffa500; fill-opacity: 0.7"/>
    </g>
    <g clip-path="url(#p53f05e55c6)">
     <use xlink:href="#C3_0_101e7cf0a0" x="629.731087" y="302.097251" style="fill: #ffa500; fill-opacity: 0.7"/>
    </g>
    <g clip-path="url(#p53f05e55c6)">
     <use xlink:href="#C3_0_101e7cf0a0" x="633.431971" y="225.549311" style="fill: #ffa500; fill-opacity: 0.7"/>
    </g>
    <g clip-path="url(#p53f05e55c6)">
     <use xlink:href="#C3_0_101e7cf0a0" x="624.111595" y="302.097251" style="fill: #ffa500; fill-opacity: 0.7"/>
    </g>
    <g clip-path="url(#p53f05e55c6)">
     <use xlink:href="#C3_0_101e7cf0a0" x="631.467998" y="302.097251" style="fill: #ffa500; fill-opacity: 0.7"/>
    </g>
    <g clip-path="url(#p53f05e55c6)">
     <use xlink:href="#C3_0_101e7cf0a0" x="637.219585" y="302.097251" style="fill: #ffa500; fill-opacity: 0.7"/>
    </g>
    <g clip-path="url(#p53f05e55c6)">
     <use xlink:href="#C3_0_101e7cf0a0" x="615.506604" y="302.097251" style="fill: #ffa500; fill-opacity: 0.7"/>
    </g>
    <g clip-path="url(#p53f05e55c6)">
     <use xlink:href="#C3_0_101e7cf0a0" x="628.019368" y="302.097251" style="fill: #ffa500; fill-opacity: 0.7"/>
    </g>
    <g clip-path="url(#p53f05e55c6)">
     <use xlink:href="#C3_0_101e7cf0a0" x="620.968785" y="302.097251" style="fill: #ffa500; fill-opacity: 0.7"/>
    </g>
    <g clip-path="url(#p53f05e55c6)">
     <use xlink:href="#C3_0_101e7cf0a0" x="609.881759" y="302.097251" style="fill: #ffa500; fill-opacity: 0.7"/>
    </g>
    <g clip-path="url(#p53f05e55c6)">
     <use xlink:href="#C3_0_101e7cf0a0" x="639.581048" y="302.097251" style="fill: #ffa500; fill-opacity: 0.7"/>
    </g>
    <g clip-path="url(#p53f05e55c6)">
     <use xlink:href="#C3_0_101e7cf0a0" x="609.824523" y="302.097251" style="fill: #ffa500; fill-opacity: 0.7"/>
    </g>
    <g clip-path="url(#p53f05e55c6)">
     <use xlink:href="#C3_0_101e7cf0a0" x="615.47858" y="302.097251" style="fill: #ffa500; fill-opacity: 0.7"/>
    </g>
    <g clip-path="url(#p53f05e55c6)">
     <use xlink:href="#C3_0_101e7cf0a0" x="628.845974" y="302.097251" style="fill: #ffa500; fill-opacity: 0.7"/>
    </g>
    <g clip-path="url(#p53f05e55c6)">
     <use xlink:href="#C3_0_101e7cf0a0" x="627.697425" y="302.097251" style="fill: #ffa500; fill-opacity: 0.7"/>
    </g>
    <g clip-path="url(#p53f05e55c6)">
     <use xlink:href="#C3_0_101e7cf0a0" x="633.269695" y="302.097251" style="fill: #ffa500; fill-opacity: 0.7"/>
    </g>
    <g clip-path="url(#p53f05e55c6)">
     <use xlink:href="#C3_0_101e7cf0a0" x="623.514106" y="302.097251" style="fill: #ffa500; fill-opacity: 0.7"/>
    </g>
    <g clip-path="url(#p53f05e55c6)">
     <use xlink:href="#C3_0_101e7cf0a0" x="626.767019" y="238.006381" style="fill: #ffa500; fill-opacity: 0.7"/>
    </g>
    <g clip-path="url(#p53f05e55c6)">
     <use xlink:href="#C3_0_101e7cf0a0" x="639.153655" y="302.097251" style="fill: #ffa500; fill-opacity: 0.7"/>
    </g>
    <g clip-path="url(#p53f05e55c6)">
     <use xlink:href="#C3_0_101e7cf0a0" x="627.004115" y="302.097251" style="fill: #ffa500; fill-opacity: 0.7"/>
    </g>
    <g clip-path="url(#p53f05e55c6)">
     <use xlink:href="#C3_0_101e7cf0a0" x="624.524387" y="256.065451" style="fill: #ffa500; fill-opacity: 0.7"/>
    </g>
    <g clip-path="url(#p53f05e55c6)">
     <use xlink:href="#C3_0_101e7cf0a0" x="613.231852" y="302.097251" style="fill: #ffa500; fill-opacity: 0.7"/>
    </g>
    <g clip-path="url(#p53f05e55c6)">
     <use xlink:href="#C3_0_101e7cf0a0" x="629.634466" y="302.097251" style="fill: #ffa500; fill-opacity: 0.7"/>
    </g>
    <g clip-path="url(#p53f05e55c6)">
     <use xlink:href="#C3_0_101e7cf0a0" x="625.309723" y="302.097251" style="fill: #ffa500; fill-opacity: 0.7"/>
    </g>
    <g clip-path="url(#p53f05e55c6)">
     <use xlink:href="#C3_0_101e7cf0a0" x="612.331014" y="302.097251" style="fill: #ffa500; fill-opacity: 0.7"/>
    </g>
    <g clip-path="url(#p53f05e55c6)">
     <use xlink:href="#C3_0_101e7cf0a0" x="640.370126" y="302.097251" style="fill: #ffa500; fill-opacity: 0.7"/>
    </g>
    <g clip-path="url(#p53f05e55c6)">
     <use xlink:href="#C3_0_101e7cf0a0" x="638.969378" y="254.235142" style="fill: #ffa500; fill-opacity: 0.7"/>
    </g>
    <g clip-path="url(#p53f05e55c6)">
     <use xlink:href="#C3_0_101e7cf0a0" x="626.204084" y="302.097251" style="fill: #ffa500; fill-opacity: 0.7"/>
    </g>
    <g clip-path="url(#p53f05e55c6)">
     <use xlink:href="#C3_0_101e7cf0a0" x="610.05255" y="302.097251" style="fill: #ffa500; fill-opacity: 0.7"/>
    </g>
    <g clip-path="url(#p53f05e55c6)">
     <use xlink:href="#C3_0_101e7cf0a0" x="638.007567" y="302.097251" style="fill: #ffa500; fill-opacity: 0.7"/>
    </g>
    <g clip-path="url(#p53f05e55c6)">
     <use xlink:href="#C3_0_101e7cf0a0" x="624.926885" y="254.235142" style="fill: #ffa500; fill-opacity: 0.7"/>
    </g>
    <g clip-path="url(#p53f05e55c6)">
     <use xlink:href="#C3_0_101e7cf0a0" x="630.988881" y="302.097251" style="fill: #ffa500; fill-opacity: 0.7"/>
    </g>
    <g clip-path="url(#p53f05e55c6)">
     <use xlink:href="#C3_0_101e7cf0a0" x="634.460575" y="302.097251" style="fill: #ffa500; fill-opacity: 0.7"/>
    </g>
    <g clip-path="url(#p53f05e55c6)">
     <use xlink:href="#C3_0_101e7cf0a0" x="639.70505" y="302.097251" style="fill: #ffa500; fill-opacity: 0.7"/>
    </g>
    <g clip-path="url(#p53f05e55c6)">
     <use xlink:href="#C3_0_101e7cf0a0" x="626.379536" y="302.097251" style="fill: #ffa500; fill-opacity: 0.7"/>
    </g>
    <g clip-path="url(#p53f05e55c6)">
     <use xlink:href="#C3_0_101e7cf0a0" x="627.380136" y="302.097251" style="fill: #ffa500; fill-opacity: 0.7"/>
    </g>
   </g>
   <g id="line2d_25"/>
   <g id="line2d_26"/>
   <g id="text_14">
    <text style="font-size: 12px; font-family: 'DejaVu Sans', 'Bitstream Vera Sans', 'Computer Modern Sans Serif', 'Lucida Grande', 'Verdana', 'Geneva', 'Lucid', 'Arial', 'Helvetica', 'Avant Garde', sans-serif" transform="translate(235.473125 16.318125)">Mitochondrial vs Nuclear Encoded Reads</text>
    <text style="font-size: 12px; font-family: 'DejaVu Sans', 'Bitstream Vera Sans', 'Computer Modern Sans Serif', 'Lucida Grande', 'Verdana', 'Geneva', 'Lucid', 'Arial', 'Helvetica', 'Avant Garde', sans-serif" transform="translate(294.905938 29.7555)">Across Sample Types</text>
   </g>
   <g id="legend_1">
    <g id="patch_9">
     <path d="M 711.235812 87.11175 
L 845.04675 87.11175 
Q 847.04675 87.11175 847.04675 85.11175 
L 847.04675 56.7555 
Q 847.04675 54.7555 845.04675 54.7555 
L 711.235812 54.7555 
Q 709.235812 54.7555 709.235812 56.7555 
L 709.235812 85.11175 
Q 709.235812 87.11175 711.235812 87.11175 
z
" style="fill: #ffffff; opacity: 0.8; stroke: #cccccc; stroke-linejoin: miter"/>
    </g>
    <g id="patch_10">
     <path d="M 713.235812 66.353937 
L 733.235812 66.353937 
L 733.235812 59.353937 
L 713.235812 59.353937 
z
" style="fill: #d3d3d3; opacity: 0.3; stroke: #4c4c4c; stroke-width: 1.25; stroke-linejoin: miter"/>
    </g>
    <g id="text_15">
     <text style="font-size: 10px; font-family: 'DejaVu Sans', 'Bitstream Vera Sans', 'Computer Modern Sans Serif', 'Lucida Grande', 'Verdana', 'Geneva', 'Lucid', 'Arial', 'Helvetica', 'Avant Garde', sans-serif; text-anchor: start" x="741.235812" y="66.353937" transform="rotate(-0 741.235812 66.353937)">Nuclear (Violin)</text>
    </g>
    <g id="line2d_27">
     <defs>
      <path id="mf5e830dee5" d="M 0 2.5 
C 0.663008 2.5 1.29895 2.236584 1.767767 1.767767 
C 2.236584 1.29895 2.5 0.663008 2.5 0 
C 2.5 -0.663008 2.236584 -1.29895 1.767767 -1.767767 
C 1.29895 -2.236584 0.663008 -2.5 0 -2.5 
C -0.663008 -2.5 -1.29895 -2.236584 -1.767767 -1.767767 
C -2.236584 -1.29895 -2.5 -0.663008 -2.5 0 
C -2.5 0.663008 -2.236584 1.29895 -1.767767 1.767767 
C -1.29895 2.236584 -0.663008 2.5 0 2.5 
z
"/>
     </defs>
     <g>
      <use xlink:href="#mf5e830dee5" x="723.235812" y="77.532062" style="fill: #ffa500; fill-opacity: 0.7"/>
     </g>
    </g>
    <g id="text_16">
     <text style="font-size: 10px; font-family: 'DejaVu Sans', 'Bitstream Vera Sans', 'Computer Modern Sans Serif', 'Lucida Grande', 'Verdana', 'Geneva', 'Lucid', 'Arial', 'Helvetica', 'Avant Garde', sans-serif; text-anchor: start" x="741.235812" y="81.032062" transform="rotate(-0 741.235812 81.032062)">Mitochondrial (Dots)</text>
    </g>
   </g>
  </g>
 </g>
 <defs>
  <clipPath id="p53f05e55c6">
   <rect x="42.620313" y="49.7555" width="630.11" height="271.609195"/>
  </clipPath>
 </defs>
</svg>
