<?xml version="1.0" encoding="utf-8" standalone="no"?>
<!DOCTYPE svg PUBLIC "-//W3C//DTD SVG 1.1//EN"
  "http://www.w3.org/Graphics/SVG/1.1/DTD/svg11.dtd">
<svg xmlns:xlink="http://www.w3.org/1999/xlink" width="215.949063pt" height="285.668037pt" viewBox="0 0 215.949063 285.668037" xmlns="http://www.w3.org/2000/svg" version="1.1">
 <metadata>
  <rdf:RDF xmlns:dc="http://purl.org/dc/elements/1.1/" xmlns:cc="http://creativecommons.org/ns#" xmlns:rdf="http://www.w3.org/1999/02/22-rdf-syntax-ns#">
   <cc:Work>
    <dc:type rdf:resource="http://purl.org/dc/dcmitype/StillImage"/>
    <dc:date>2026-04-02T10:34:54.579708</dc:date>
    <dc:format>image/svg+xml</dc:format>
    <dc:creator>
     <cc:Agent>
      <dc:title>Matplotlib v3.9.0, https://matplotlib.org/</dc:title>
     </cc:Agent>
    </dc:creator>
   </cc:Work>
  </rdf:RDF>
 </metadata>
 <defs>
  <style type="text/css">*{stroke-linejoin: round; stroke-linecap: butt}</style>
 </defs>
 <g id="figure_1">
  <g id="patch_1">
   <path d="M 0 285.668037 
L 215.949063 285.668037 
L 215.949063 0 
L 0 0 
z
" style="fill: #ffffff"/>
  </g>
  <g id="axes_1">
   <g id="patch_2">
    <path d="M 45.689063 132.646312 
L 208.749063 132.646312 
L 208.749063 40.782712 
L 45.689063 40.782712 
z
" style="fill: #ffffff"/>
   </g>
   <g id="PolyCollection_1">
    <defs>
     <path id="m8ff30eb19f" d="M 60.137417 -194.360345 
L 60.137417 -157.614905 
L 61.549725 -161.568554 
L 62.962033 -169.01769 
L 64.374341 -173.912483 
L 65.786649 -175.607087 
L 67.198957 -175.94458 
L 68.611265 -175.983693 
L 70.023574 -175.979037 
L 71.435882 -175.940581 
L 72.84819 -175.825194 
L 74.260498 -175.634969 
L 75.672806 -175.473111 
L 77.085114 -175.325423 
L 78.497422 -174.894797 
L 79.90973 -174.146606 
L 81.322038 -173.731333 
L 82.734346 -174.0488 
L 84.146654 -174.526116 
L 85.558963 -174.599215 
L 86.971271 -174.458 
L 88.383579 -174.43811 
L 89.795887 -174.504764 
L 91.208195 -174.538726 
L 92.620503 -174.545921 
L 94.032811 -174.553054 
L 95.445119 -174.569051 
L 96.857427 -174.596254 
L 98.269735 -174.629581 
L 99.682043 -174.653501 
L 101.094352 -174.660546 
L 102.50666 -174.66578 
L 103.918968 -174.680986 
L 105.331276 -174.698355 
L 106.743584 -174.713695 
L 108.155892 -174.736713 
L 109.5682 -174.769747 
L 110.980508 -174.801337 
L 112.392816 -174.824793 
L 113.805124 -174.846461 
L 115.217432 -174.87519 
L 116.62974 -174.91323 
L 118.042049 -174.957096 
L 119.454357 -175.000813 
L 120.866665 -175.038897 
L 122.278973 -175.06878 
L 123.691281 -175.091634 
L 125.103589 -175.11124 
L 126.515897 -175.128356 
L 127.928205 -175.139141 
L 129.340513 -175.144712 
L 130.752821 -175.153169 
L 132.165129 -175.168873 
L 133.577438 -175.184657 
L 134.989746 -175.186481 
L 136.402054 -175.168895 
L 137.814362 -175.144955 
L 139.22667 -175.130257 
L 140.638978 -175.118828 
L 142.051286 -175.091962 
L 143.463594 -175.045157 
L 144.875902 -174.98635 
L 146.28821 -174.915945 
L 147.700518 -174.830256 
L 149.112827 -174.733665 
L 150.525135 -174.636977 
L 151.937443 -174.55566 
L 153.349751 -174.504004 
L 154.762059 -174.489207 
L 156.174367 -174.513253 
L 157.586675 -174.569552 
L 158.998983 -174.645469 
L 160.411291 -174.735344 
L 161.823599 -174.843528 
L 163.235907 -174.971775 
L 164.648215 -175.106904 
L 166.060524 -175.230145 
L 167.472832 -175.331933 
L 168.88514 -175.415596 
L 170.297448 -175.494853 
L 171.709756 -175.579784 
L 173.122064 -175.665662 
L 174.534372 -175.740492 
L 175.94668 -175.798114 
L 177.358988 -175.840463 
L 178.771296 -175.872018 
L 180.183604 -175.896232 
L 181.595913 -175.915274 
L 183.008221 -175.93038 
L 184.420529 -175.941991 
L 185.832837 -175.950803 
L 187.245145 -175.95794 
L 188.657453 -175.96388 
L 190.069761 -175.968723 
L 191.482069 -175.973171 
L 192.894377 -175.977768 
L 194.306685 -175.981846 
L 195.718993 -175.984392 
L 197.131302 -175.985375 
L 198.54361 -175.985599 
L 199.955918 -175.985882 
L 199.955918 -175.989368 
L 199.955918 -175.989368 
L 198.54361 -175.989651 
L 197.131302 -175.989875 
L 195.718993 -175.990858 
L 194.306685 -175.993404 
L 192.894377 -175.997482 
L 191.482069 -176.002079 
L 190.069761 -176.006527 
L 188.657453 -176.01137 
L 187.245145 -176.01731 
L 185.832837 -176.024447 
L 184.420529 -176.033259 
L 183.008221 -176.04487 
L 181.595913 -176.059976 
L 180.183604 -176.079018 
L 178.771296 -176.103232 
L 177.358988 -176.134787 
L 175.94668 -176.177136 
L 174.534372 -176.234758 
L 173.122064 -176.309588 
L 171.709756 -176.395466 
L 170.297448 -176.480397 
L 168.88514 -176.559654 
L 167.472832 -176.643317 
L 166.060524 -176.745105 
L 164.648215 -176.868346 
L 163.235907 -177.003475 
L 161.823599 -177.131722 
L 160.411291 -177.239906 
L 158.998983 -177.329781 
L 157.586675 -177.405698 
L 156.174367 -177.461997 
L 154.762059 -177.486043 
L 153.349751 -177.471246 
L 151.937443 -177.41959 
L 150.525135 -177.338273 
L 149.112827 -177.241585 
L 147.700518 -177.144994 
L 146.28821 -177.059305 
L 144.875902 -176.9889 
L 143.463594 -176.930093 
L 142.051286 -176.883288 
L 140.638978 -176.856422 
L 139.22667 -176.844993 
L 137.814362 -176.830295 
L 136.402054 -176.806355 
L 134.989746 -176.788769 
L 133.577438 -176.790593 
L 132.165129 -176.806377 
L 130.752821 -176.822081 
L 129.340513 -176.830538 
L 127.928205 -176.836109 
L 126.515897 -176.846894 
L 125.103589 -176.86401 
L 123.691281 -176.883616 
L 122.278973 -176.90647 
L 120.866665 -176.936353 
L 119.454357 -176.974437 
L 118.042049 -177.018154 
L 116.62974 -177.06202 
L 115.217432 -177.10006 
L 113.805124 -177.128789 
L 112.392816 -177.150457 
L 110.980508 -177.173913 
L 109.5682 -177.205503 
L 108.155892 -177.238537 
L 106.743584 -177.261555 
L 105.331276 -177.276895 
L 103.918968 -177.294264 
L 102.50666 -177.30947 
L 101.094352 -177.314704 
L 99.682043 -177.321749 
L 98.269735 -177.345669 
L 96.857427 -177.378996 
L 95.445119 -177.406199 
L 94.032811 -177.422196 
L 92.620503 -177.429329 
L 91.208195 -177.436524 
L 89.795887 -177.470486 
L 88.383579 -177.53714 
L 86.971271 -177.51725 
L 85.558963 -177.376035 
L 84.146654 -177.449134 
L 82.734346 -177.92645 
L 81.322038 -178.243917 
L 79.90973 -177.828644 
L 78.497422 -177.080453 
L 77.085114 -176.649827 
L 75.672806 -176.502139 
L 74.260498 -176.340281 
L 72.84819 -176.150056 
L 71.435882 -176.034669 
L 70.023574 -175.996213 
L 68.611265 -175.991557 
L 67.198957 -176.03067 
L 65.786649 -176.368163 
L 64.374341 -178.062767 
L 62.962033 -182.95756 
L 61.549725 -190.406696 
L 60.137417 -194.360345 
z
" style="stroke: #828282"/>
    </defs>
    <g clip-path="url(#p91a2809f31)">
     <use xlink:href="#m8ff30eb19f" x="0" y="285.668037" style="fill: #d9d9d9; stroke: #828282"/>
    </g>
   </g>
   <g id="PolyCollection_2">
    <defs>
     <path id="m6dd6e5ce49" d="M 60.137417 -240.292145 
L 60.137417 -203.546705 
L 61.54074 -207.494848 
L 62.944063 -214.938837 
L 64.347386 -219.83714 
L 65.750708 -221.536558 
L 67.154031 -221.876032 
L 68.557354 -221.916386 
L 69.960677 -221.919167 
L 71.364 -221.918052 
L 72.767323 -221.910327 
L 74.170646 -221.882011 
L 75.573969 -221.822791 
L 76.977292 -221.752411 
L 78.380614 -221.677852 
L 79.783937 -221.512518 
L 81.18726 -221.199395 
L 82.590583 -220.911316 
L 83.993906 -220.814812 
L 85.397229 -220.740356 
L 86.800552 -220.565396 
L 88.203875 -220.51927 
L 89.607198 -220.680929 
L 91.01052 -220.821659 
L 92.413843 -220.841371 
L 93.817166 -220.82561 
L 95.220489 -220.823946 
L 96.623812 -220.82747 
L 98.027135 -220.83397 
L 99.430458 -220.848124 
L 100.833781 -220.864665 
L 102.237104 -220.877129 
L 103.640426 -220.886414 
L 105.043749 -220.898937 
L 106.447072 -220.918878 
L 107.850395 -220.938026 
L 109.253718 -220.946436 
L 110.657041 -220.950581 
L 112.060364 -220.963977 
L 113.463687 -220.987818 
L 114.86701 -221.012807 
L 116.270332 -221.035541 
L 117.673655 -221.057662 
L 119.076978 -221.073957 
L 120.480301 -221.079876 
L 121.883624 -221.080001 
L 123.286947 -221.07674 
L 124.69027 -221.066643 
L 126.093593 -221.05032 
L 127.496916 -221.03474 
L 128.900238 -221.028554 
L 130.303561 -221.033136 
L 131.706884 -221.035201 
L 133.110207 -221.019337 
L 134.51353 -220.987908 
L 135.916853 -220.95694 
L 137.320176 -220.93725 
L 138.723499 -220.929541 
L 140.126822 -220.932916 
L 141.530144 -220.943339 
L 142.933467 -220.947413 
L 144.33679 -220.938472 
L 145.740113 -220.928135 
L 147.143436 -220.928614 
L 148.546759 -220.941901 
L 149.950082 -220.963866 
L 151.353405 -220.986713 
L 152.756728 -221.003166 
L 154.16005 -221.011633 
L 155.563373 -221.017292 
L 156.966696 -221.031692 
L 158.370019 -221.06441 
L 159.773342 -221.113243 
L 161.176665 -221.169531 
L 162.579988 -221.224236 
L 163.983311 -221.271981 
L 165.386634 -221.317058 
L 166.789956 -221.367381 
L 168.193279 -221.426923 
L 169.596602 -221.493832 
L 170.999925 -221.561097 
L 172.403248 -221.622158 
L 173.806571 -221.673343 
L 175.209894 -221.713862 
L 176.613217 -221.746961 
L 178.01654 -221.77583 
L 179.419862 -221.801092 
L 180.823185 -221.824069 
L 182.226508 -221.845713 
L 183.629831 -221.863685 
L 185.033154 -221.874951 
L 186.436477 -221.879796 
L 187.8398 -221.882588 
L 189.243123 -221.8879 
L 190.646446 -221.895622 
L 192.049768 -221.902447 
L 193.453091 -221.906936 
L 194.856414 -221.910144 
L 196.259737 -221.912936 
L 197.66306 -221.915202 
L 199.066383 -221.916915 
L 199.066383 -221.921935 
L 199.066383 -221.921935 
L 197.66306 -221.923648 
L 196.259737 -221.925914 
L 194.856414 -221.928706 
L 193.453091 -221.931914 
L 192.049768 -221.936403 
L 190.646446 -221.943228 
L 189.243123 -221.95095 
L 187.8398 -221.956262 
L 186.436477 -221.959054 
L 185.033154 -221.963899 
L 183.629831 -221.975165 
L 182.226508 -221.993137 
L 180.823185 -222.014781 
L 179.419862 -222.037758 
L 178.01654 -222.06302 
L 176.613217 -222.091889 
L 175.209894 -222.124988 
L 173.806571 -222.165507 
L 172.403248 -222.216692 
L 170.999925 -222.277753 
L 169.596602 -222.345018 
L 168.193279 -222.411927 
L 166.789956 -222.471469 
L 165.386634 -222.521792 
L 163.983311 -222.566869 
L 162.579988 -222.614614 
L 161.176665 -222.669319 
L 159.773342 -222.725607 
L 158.370019 -222.77444 
L 156.966696 -222.807158 
L 155.563373 -222.821558 
L 154.16005 -222.827217 
L 152.756728 -222.835684 
L 151.353405 -222.852137 
L 149.950082 -222.874984 
L 148.546759 -222.896949 
L 147.143436 -222.910236 
L 145.740113 -222.910715 
L 144.33679 -222.900378 
L 142.933467 -222.891437 
L 141.530144 -222.895511 
L 140.126822 -222.905934 
L 138.723499 -222.909309 
L 137.320176 -222.9016 
L 135.916853 -222.88191 
L 134.51353 -222.850942 
L 133.110207 -222.819513 
L 131.706884 -222.803649 
L 130.303561 -222.805714 
L 128.900238 -222.810296 
L 127.496916 -222.80411 
L 126.093593 -222.78853 
L 124.69027 -222.772207 
L 123.286947 -222.76211 
L 121.883624 -222.758849 
L 120.480301 -222.758974 
L 119.076978 -222.764893 
L 117.673655 -222.781188 
L 116.270332 -222.803309 
L 114.86701 -222.826043 
L 113.463687 -222.851032 
L 112.060364 -222.874873 
L 110.657041 -222.888269 
L 109.253718 -222.892414 
L 107.850395 -222.900824 
L 106.447072 -222.919972 
L 105.043749 -222.939913 
L 103.640426 -222.952436 
L 102.237104 -222.961721 
L 100.833781 -222.974185 
L 99.430458 -222.990726 
L 98.027135 -223.00488 
L 96.623812 -223.01138 
L 95.220489 -223.014904 
L 93.817166 -223.01324 
L 92.413843 -222.997479 
L 91.01052 -223.017191 
L 89.607198 -223.157921 
L 88.203875 -223.31958 
L 86.800552 -223.273454 
L 85.397229 -223.098494 
L 83.993906 -223.024038 
L 82.590583 -222.927534 
L 81.18726 -222.639455 
L 79.783937 -222.326332 
L 78.380614 -222.160998 
L 76.977292 -222.086439 
L 75.573969 -222.016059 
L 74.170646 -221.956839 
L 72.767323 -221.928523 
L 71.364 -221.920798 
L 69.960677 -221.919683 
L 68.557354 -221.922464 
L 67.154031 -221.962818 
L 65.750708 -222.302292 
L 64.347386 -224.00171 
L 62.944063 -228.900013 
L 61.54074 -236.344002 
L 60.137417 -240.292145 
z
" style="stroke: #828282"/>
    </defs>
    <g clip-path="url(#p91a2809f31)">
     <use xlink:href="#m6dd6e5ce49" x="0" y="285.668037" style="fill: #d9d9d9; stroke: #828282"/>
    </g>
   </g>
   <g id="matplotlib.axis_1">
    <g id="xtick_1">
     <g id="line2d_1">
      <defs>
       <path id="m53921bc52c" d="M 0 0 
L 0 3.5 
" style="stroke: #000000; stroke-width: 0.8"/>
      </defs>
      <g>
       <use xlink:href="#m53921bc52c" x="60.137417" y="132.646312" style="stroke: #000000; stroke-width: 0.8"/>
      </g>
     </g>
    </g>
    <g id="xtick_2">
     <g id="line2d_2">
      <g>
       <use xlink:href="#m53921bc52c" x="80.777923" y="132.646312" style="stroke: #000000; stroke-width: 0.8"/>
      </g>
     </g>
    </g>
    <g id="xtick_3">
     <g id="line2d_3">
      <g>
       <use xlink:href="#m53921bc52c" x="122.058936" y="132.646312" style="stroke: #000000; stroke-width: 0.8"/>
      </g>
     </g>
    </g>
    <g id="xtick_4">
     <g id="line2d_4">
      <g>
       <use xlink:href="#m53921bc52c" x="163.339949" y="132.646312" style="stroke: #000000; stroke-width: 0.8"/>
      </g>
     </g>
    </g>
    <g id="xtick_5">
     <g id="line2d_5">
      <g>
       <use xlink:href="#m53921bc52c" x="204.620961" y="132.646312" style="stroke: #000000; stroke-width: 0.8"/>
      </g>
     </g>
    </g>
   </g>
   <g id="matplotlib.axis_2">
    <g id="ytick_1">
     <g id="line2d_6">
      <defs>
       <path id="m44cc5ce544" d="M 0 0 
L -3 0 
" style="stroke: #000000"/>
      </defs>
      <g>
       <use xlink:href="#m44cc5ce544" x="45.689063" y="109.680412" style="stroke: #000000"/>
      </g>
     </g>
     <g id="text_1">
      <text style="font: 10px 'DejaVu Sans', 'Bitstream Vera Sans', 'Computer Modern Sans Serif', 'Lucida Grande', 'Verdana', 'Geneva', 'Lucid', 'Arial', 'Helvetica', 'Avant Garde', sans-serif; text-anchor: end" x="39.189063" y="113.479631" transform="rotate(-0 39.189063 113.479631)">Lysate</text>
     </g>
    </g>
    <g id="ytick_2">
     <g id="line2d_7">
      <g>
       <use xlink:href="#m44cc5ce544" x="45.689063" y="63.748612" style="stroke: #000000"/>
      </g>
     </g>
     <g id="text_2">
      <text style="font: 10px 'DejaVu Sans', 'Bitstream Vera Sans', 'Computer Modern Sans Serif', 'Lucida Grande', 'Verdana', 'Geneva', 'Lucid', 'Arial', 'Helvetica', 'Avant Garde', sans-serif; text-anchor: end" x="39.189063" y="67.547831" transform="rotate(-0 39.189063 67.547831)">NTVE</text>
     </g>
    </g>
   </g>
   <g id="patch_3">
    <path d="M 45.689063 132.646312 
L 45.689063 40.782712 
" style="fill: none; stroke: #000000; stroke-linejoin: miter; stroke-linecap: square"/>
   </g>
   <g id="patch_4">
    <path d="M 208.749063 132.646312 
L 208.749063 40.782712 
" style="fill: none; stroke: #000000; stroke-linejoin: miter; stroke-linecap: square"/>
   </g>
   <g id="patch_5">
    <path d="M 45.689062 132.646312 
L 208.749063 132.646312 
" style="fill: none; stroke: #000000; stroke-linejoin: miter; stroke-linecap: square"/>
   </g>
   <g id="patch_6">
    <path d="M 45.689062 40.782712 
L 208.749063 40.782712 
" style="fill: none; stroke: #000000; stroke-linejoin: miter; stroke-linecap: square"/>
   </g>
   <g id="PathCollection_1">
    <defs>
     <path id="C0_0_dabf8417cc" d="M 0 2 
C 0.530406 2 1.03916 1.789267 1.414214 1.414214 
C 1.789267 1.03916 2 0.530406 2 -0 
C 2 -0.530406 1.789267 -1.03916 1.414214 -1.414214 
C 1.03916 -1.789267 0.530406 -2 0 -2 
C -0.530406 -2 -1.03916 -1.789267 -1.414214 -1.414214 
C -1.789267 -1.03916 -2 -0.530406 -2 0 
C -2 0.530406 -1.789267 1.03916 -1.414214 1.414214 
C -1.03916 1.789267 -0.530406 2 0 2 
z
"/>
    </defs>
    <g clip-path="url(#p91a2809f31)">
     <use xlink:href="#C0_0_dabf8417cc" x="100.00436" y="113.436541" style="fill: #ffae1a; fill-opacity: 0.75"/>
    </g>
    <g clip-path="url(#p91a2809f31)">
     <use xlink:href="#C0_0_dabf8417cc" x="180.280997" y="104.037994" style="fill: #ffae1a; fill-opacity: 0.75"/>
    </g>
    <g clip-path="url(#p91a2809f31)">
     <use xlink:href="#C0_0_dabf8417cc" x="60.137417" y="108.511644" style="fill: #ffae1a; fill-opacity: 0.75"/>
    </g>
    <g clip-path="url(#p91a2809f31)">
     <use xlink:href="#C0_0_dabf8417cc" x="198.50861" y="113.564444" style="fill: #ffae1a; fill-opacity: 0.75"/>
    </g>
    <g clip-path="url(#p91a2809f31)">
     <use xlink:href="#C0_0_dabf8417cc" x="60.137417" y="105.573931" style="fill: #ffae1a; fill-opacity: 0.75"/>
    </g>
    <g clip-path="url(#p91a2809f31)">
     <use xlink:href="#C0_0_dabf8417cc" x="174.468803" y="115.48346" style="fill: #ffae1a; fill-opacity: 0.75"/>
    </g>
    <g clip-path="url(#p91a2809f31)">
     <use xlink:href="#C0_0_dabf8417cc" x="138.177971" y="116.678943" style="fill: #ffae1a; fill-opacity: 0.75"/>
    </g>
    <g clip-path="url(#p91a2809f31)">
     <use xlink:href="#C0_0_dabf8417cc" x="130.614532" y="105.135229" style="fill: #ffae1a; fill-opacity: 0.75"/>
    </g>
    <g clip-path="url(#p91a2809f31)">
     <use xlink:href="#C0_0_dabf8417cc" x="114.000497" y="104.017719" style="fill: #ffae1a; fill-opacity: 0.75"/>
    </g>
    <g clip-path="url(#p91a2809f31)">
     <use xlink:href="#C0_0_dabf8417cc" x="174.723942" y="114.400231" style="fill: #ffae1a; fill-opacity: 0.75"/>
    </g>
    <g clip-path="url(#p91a2809f31)">
     <use xlink:href="#C0_0_dabf8417cc" x="119.593514" y="107.304976" style="fill: #ffae1a; fill-opacity: 0.75"/>
    </g>
    <g clip-path="url(#p91a2809f31)">
     <use xlink:href="#C0_0_dabf8417cc" x="117.313957" y="110.943764" style="fill: #ffae1a; fill-opacity: 0.75"/>
    </g>
    <g clip-path="url(#p91a2809f31)">
     <use xlink:href="#C0_0_dabf8417cc" x="60.137417" y="107.297006" style="fill: #ffae1a; fill-opacity: 0.75"/>
    </g>
    <g clip-path="url(#p91a2809f31)">
     <use xlink:href="#C0_0_dabf8417cc" x="84.344713" y="113.873461" style="fill: #ffae1a; fill-opacity: 0.75"/>
    </g>
    <g clip-path="url(#p91a2809f31)">
     <use xlink:href="#C0_0_dabf8417cc" x="96.328976" y="115.345146" style="fill: #ffae1a; fill-opacity: 0.75"/>
    </g>
    <g clip-path="url(#p91a2809f31)">
     <use xlink:href="#C0_0_dabf8417cc" x="190.483991" y="107.042814" style="fill: #ffae1a; fill-opacity: 0.75"/>
    </g>
    <g clip-path="url(#p91a2809f31)">
     <use xlink:href="#C0_0_dabf8417cc" x="108.755702" y="115.330796" style="fill: #ffae1a; fill-opacity: 0.75"/>
    </g>
    <g clip-path="url(#p91a2809f31)">
     <use xlink:href="#C0_0_dabf8417cc" x="104.722536" y="111.254154" style="fill: #ffae1a; fill-opacity: 0.75"/>
    </g>
    <g clip-path="url(#p91a2809f31)">
     <use xlink:href="#C0_0_dabf8417cc" x="185.631686" y="112.859335" style="fill: #ffae1a; fill-opacity: 0.75"/>
    </g>
    <g clip-path="url(#p91a2809f31)">
     <use xlink:href="#C0_0_dabf8417cc" x="60.137417" y="104.732993" style="fill: #ffae1a; fill-opacity: 0.75"/>
    </g>
    <g clip-path="url(#p91a2809f31)">
     <use xlink:href="#C0_0_dabf8417cc" x="160.02109" y="113.645425" style="fill: #ffae1a; fill-opacity: 0.75"/>
    </g>
    <g clip-path="url(#p91a2809f31)">
     <use xlink:href="#C0_0_dabf8417cc" x="178.504017" y="116.69067" style="fill: #ffae1a; fill-opacity: 0.75"/>
    </g>
    <g clip-path="url(#p91a2809f31)">
     <use xlink:href="#C0_0_dabf8417cc" x="186.312167" y="109.8344" style="fill: #ffae1a; fill-opacity: 0.75"/>
    </g>
    <g clip-path="url(#p91a2809f31)">
     <use xlink:href="#C0_0_dabf8417cc" x="60.137417" y="115.58858" style="fill: #ffae1a; fill-opacity: 0.75"/>
    </g>
    <g clip-path="url(#p91a2809f31)">
     <use xlink:href="#C0_0_dabf8417cc" x="177.262868" y="111.553949" style="fill: #ffae1a; fill-opacity: 0.75"/>
    </g>
    <g clip-path="url(#p91a2809f31)">
     <use xlink:href="#C0_0_dabf8417cc" x="60.137417" y="111.651728" style="fill: #ffae1a; fill-opacity: 0.75"/>
    </g>
    <g clip-path="url(#p91a2809f31)">
     <use xlink:href="#C0_0_dabf8417cc" x="169.583961" y="113.499612" style="fill: #ffae1a; fill-opacity: 0.75"/>
    </g>
    <g clip-path="url(#p91a2809f31)">
     <use xlink:href="#C0_0_dabf8417cc" x="186.055444" y="103.934914" style="fill: #ffae1a; fill-opacity: 0.75"/>
    </g>
    <g clip-path="url(#p91a2809f31)">
     <use xlink:href="#C0_0_dabf8417cc" x="60.137417" y="105.856017" style="fill: #ffae1a; fill-opacity: 0.75"/>
    </g>
    <g clip-path="url(#p91a2809f31)">
     <use xlink:href="#C0_0_dabf8417cc" x="60.137417" y="107.641024" style="fill: #ffae1a; fill-opacity: 0.75"/>
    </g>
    <g clip-path="url(#p91a2809f31)">
     <use xlink:href="#C0_0_dabf8417cc" x="60.137417" y="114.630612" style="fill: #ffae1a; fill-opacity: 0.75"/>
    </g>
    <g clip-path="url(#p91a2809f31)">
     <use xlink:href="#C0_0_dabf8417cc" x="181.105762" y="105.051749" style="fill: #ffae1a; fill-opacity: 0.75"/>
    </g>
    <g clip-path="url(#p91a2809f31)">
     <use xlink:href="#C0_0_dabf8417cc" x="147.205536" y="116.956127" style="fill: #ffae1a; fill-opacity: 0.75"/>
    </g>
    <g clip-path="url(#p91a2809f31)">
     <use xlink:href="#C0_0_dabf8417cc" x="108.334413" y="104.843482" style="fill: #ffae1a; fill-opacity: 0.75"/>
    </g>
    <g clip-path="url(#p91a2809f31)">
     <use xlink:href="#C0_0_dabf8417cc" x="176.587652" y="113.153235" style="fill: #ffae1a; fill-opacity: 0.75"/>
    </g>
    <g clip-path="url(#p91a2809f31)">
     <use xlink:href="#C0_0_dabf8417cc" x="132.364277" y="113.258883" style="fill: #ffae1a; fill-opacity: 0.75"/>
    </g>
    <g clip-path="url(#p91a2809f31)">
     <use xlink:href="#C0_0_dabf8417cc" x="125.796666" y="106.534601" style="fill: #ffae1a; fill-opacity: 0.75"/>
    </g>
   </g>
   <g id="PathCollection_2">
    <defs>
     <path id="C1_0_8e1fa1f60b" d="M 0 2 
C 0.530406 2 1.03916 1.789267 1.414214 1.414214 
C 1.789267 1.03916 2 0.530406 2 -0 
C 2 -0.530406 1.789267 -1.03916 1.414214 -1.414214 
C 1.03916 -1.789267 0.530406 -2 0 -2 
C -0.530406 -2 -1.03916 -1.789267 -1.414214 -1.414214 
C -1.789267 -1.03916 -2 -0.530406 -2 0 
C -2 0.530406 -1.789267 1.03916 -1.414214 1.414214 
C -1.03916 1.789267 -0.530406 2 0 2 
z
"/>
    </defs>
    <g clip-path="url(#p91a2809f31)">
     <use xlink:href="#C1_0_8e1fa1f60b" x="60.137417" y="62.491262" style="fill: #ffae1a; fill-opacity: 0.75"/>
    </g>
    <g clip-path="url(#p91a2809f31)">
     <use xlink:href="#C1_0_8e1fa1f60b" x="87.858391" y="69.463011" style="fill: #ffae1a; fill-opacity: 0.75"/>
    </g>
    <g clip-path="url(#p91a2809f31)">
     <use xlink:href="#C1_0_8e1fa1f60b" x="60.137417" y="65.547925" style="fill: #ffae1a; fill-opacity: 0.75"/>
    </g>
    <g clip-path="url(#p91a2809f31)">
     <use xlink:href="#C1_0_8e1fa1f60b" x="106.235623" y="62.319914" style="fill: #ffae1a; fill-opacity: 0.75"/>
    </g>
    <g clip-path="url(#p91a2809f31)">
     <use xlink:href="#C1_0_8e1fa1f60b" x="60.137417" y="67.943901" style="fill: #ffae1a; fill-opacity: 0.75"/>
    </g>
    <g clip-path="url(#p91a2809f31)">
     <use xlink:href="#C1_0_8e1fa1f60b" x="60.137417" y="62.217621" style="fill: #ffae1a; fill-opacity: 0.75"/>
    </g>
    <g clip-path="url(#p91a2809f31)">
     <use xlink:href="#C1_0_8e1fa1f60b" x="60.137417" y="69.527838" style="fill: #ffae1a; fill-opacity: 0.75"/>
    </g>
    <g clip-path="url(#p91a2809f31)">
     <use xlink:href="#C1_0_8e1fa1f60b" x="60.137417" y="67.796034" style="fill: #ffae1a; fill-opacity: 0.75"/>
    </g>
    <g clip-path="url(#p91a2809f31)">
     <use xlink:href="#C1_0_8e1fa1f60b" x="60.137417" y="69.131996" style="fill: #ffae1a; fill-opacity: 0.75"/>
    </g>
    <g clip-path="url(#p91a2809f31)">
     <use xlink:href="#C1_0_8e1fa1f60b" x="60.137417" y="60.724587" style="fill: #ffae1a; fill-opacity: 0.75"/>
    </g>
    <g clip-path="url(#p91a2809f31)">
     <use xlink:href="#C1_0_8e1fa1f60b" x="60.137417" y="56.741729" style="fill: #ffae1a; fill-opacity: 0.75"/>
    </g>
    <g clip-path="url(#p91a2809f31)">
     <use xlink:href="#C1_0_8e1fa1f60b" x="60.137417" y="60.001823" style="fill: #ffae1a; fill-opacity: 0.75"/>
    </g>
    <g clip-path="url(#p91a2809f31)">
     <use xlink:href="#C1_0_8e1fa1f60b" x="60.137417" y="69.930626" style="fill: #ffae1a; fill-opacity: 0.75"/>
    </g>
    <g clip-path="url(#p91a2809f31)">
     <use xlink:href="#C1_0_8e1fa1f60b" x="60.137417" y="59.356792" style="fill: #ffae1a; fill-opacity: 0.75"/>
    </g>
    <g clip-path="url(#p91a2809f31)">
     <use xlink:href="#C1_0_8e1fa1f60b" x="60.137417" y="62.401728" style="fill: #ffae1a; fill-opacity: 0.75"/>
    </g>
    <g clip-path="url(#p91a2809f31)">
     <use xlink:href="#C1_0_8e1fa1f60b" x="60.137417" y="60.249692" style="fill: #ffae1a; fill-opacity: 0.75"/>
    </g>
    <g clip-path="url(#p91a2809f31)">
     <use xlink:href="#C1_0_8e1fa1f60b" x="60.137417" y="66.40699" style="fill: #ffae1a; fill-opacity: 0.75"/>
    </g>
    <g clip-path="url(#p91a2809f31)">
     <use xlink:href="#C1_0_8e1fa1f60b" x="60.137417" y="59.445295" style="fill: #ffae1a; fill-opacity: 0.75"/>
    </g>
    <g clip-path="url(#p91a2809f31)">
     <use xlink:href="#C1_0_8e1fa1f60b" x="98.733807" y="71.09443" style="fill: #ffae1a; fill-opacity: 0.75"/>
    </g>
    <g clip-path="url(#p91a2809f31)">
     <use xlink:href="#C1_0_8e1fa1f60b" x="60.137417" y="61.44462" style="fill: #ffae1a; fill-opacity: 0.75"/>
    </g>
    <g clip-path="url(#p91a2809f31)">
     <use xlink:href="#C1_0_8e1fa1f60b" x="60.137417" y="59.203619" style="fill: #ffae1a; fill-opacity: 0.75"/>
    </g>
    <g clip-path="url(#p91a2809f31)">
     <use xlink:href="#C1_0_8e1fa1f60b" x="87.858391" y="59.056872" style="fill: #ffae1a; fill-opacity: 0.75"/>
    </g>
    <g clip-path="url(#p91a2809f31)">
     <use xlink:href="#C1_0_8e1fa1f60b" x="60.137417" y="62.381488" style="fill: #ffae1a; fill-opacity: 0.75"/>
    </g>
    <g clip-path="url(#p91a2809f31)">
     <use xlink:href="#C1_0_8e1fa1f60b" x="60.137417" y="60.889378" style="fill: #ffae1a; fill-opacity: 0.75"/>
    </g>
    <g clip-path="url(#p91a2809f31)">
     <use xlink:href="#C1_0_8e1fa1f60b" x="60.137417" y="66.358254" style="fill: #ffae1a; fill-opacity: 0.75"/>
    </g>
    <g clip-path="url(#p91a2809f31)">
     <use xlink:href="#C1_0_8e1fa1f60b" x="60.137417" y="61.692893" style="fill: #ffae1a; fill-opacity: 0.75"/>
    </g>
    <g clip-path="url(#p91a2809f31)">
     <use xlink:href="#C1_0_8e1fa1f60b" x="60.137417" y="59.127056" style="fill: #ffae1a; fill-opacity: 0.75"/>
    </g>
    <g clip-path="url(#p91a2809f31)">
     <use xlink:href="#C1_0_8e1fa1f60b" x="88.960628" y="69.373653" style="fill: #ffae1a; fill-opacity: 0.75"/>
    </g>
    <g clip-path="url(#p91a2809f31)">
     <use xlink:href="#C1_0_8e1fa1f60b" x="60.137417" y="67.565881" style="fill: #ffae1a; fill-opacity: 0.75"/>
    </g>
    <g clip-path="url(#p91a2809f31)">
     <use xlink:href="#C1_0_8e1fa1f60b" x="60.137417" y="69.011528" style="fill: #ffae1a; fill-opacity: 0.75"/>
    </g>
    <g clip-path="url(#p91a2809f31)">
     <use xlink:href="#C1_0_8e1fa1f60b" x="60.137417" y="63.218515" style="fill: #ffae1a; fill-opacity: 0.75"/>
    </g>
    <g clip-path="url(#p91a2809f31)">
     <use xlink:href="#C1_0_8e1fa1f60b" x="88.960628" y="70.840271" style="fill: #ffae1a; fill-opacity: 0.75"/>
    </g>
    <g clip-path="url(#p91a2809f31)">
     <use xlink:href="#C1_0_8e1fa1f60b" x="60.137417" y="69.996409" style="fill: #ffae1a; fill-opacity: 0.75"/>
    </g>
    <g clip-path="url(#p91a2809f31)">
     <use xlink:href="#C1_0_8e1fa1f60b" x="60.137417" y="64.602847" style="fill: #ffae1a; fill-opacity: 0.75"/>
    </g>
    <g clip-path="url(#p91a2809f31)">
     <use xlink:href="#C1_0_8e1fa1f60b" x="60.137417" y="63.735611" style="fill: #ffae1a; fill-opacity: 0.75"/>
    </g>
    <g clip-path="url(#p91a2809f31)">
     <use xlink:href="#C1_0_8e1fa1f60b" x="60.137417" y="68.999958" style="fill: #ffae1a; fill-opacity: 0.75"/>
    </g>
    <g clip-path="url(#p91a2809f31)">
     <use xlink:href="#C1_0_8e1fa1f60b" x="60.137417" y="62.591159" style="fill: #ffae1a; fill-opacity: 0.75"/>
    </g>
   </g>
   <g id="text_3">
    <!-- NTVE$_{\mathrm{PABP}}$ cell line -->
    <g transform="translate(45.689063 38.703024)">
     <text>
      <tspan style="font: 700 10px 'DejaVu Sans'" x="0 8.369141 15.19043 22.929688 48.163086 51.644531 57.572266 64.354492 67.782227 71.209961 74.691406 78.119141 81.546875 88.666016" y="-0.40625">NTVE cell line</tspan>
      <tspan style="font: 7px 'DejaVu Sans'" x="29.856445 34.077637 38.866211 43.668457" y="1.234375">PABP</tspan>
     </text>
    </g>
   </g>
   <g id="legend_1">
    <g id="line2d_8">
     <path d="M 61.411563 15.298437 
L 65.411563 15.298437 
L 69.411563 15.298437 
" style="fill: none; stroke: #666666; stroke-width: 4; stroke-linecap: square"/>
    </g>
    <g id="text_4">
     <text style="font: 10px 'DejaVu Sans', 'Bitstream Vera Sans', 'Computer Modern Sans Serif', 'Lucida Grande', 'Verdana', 'Geneva', 'Lucid', 'Arial', 'Helvetica', 'Avant Garde', sans-serif; text-anchor: start" x="73.411563" y="18.798437" transform="rotate(-0 73.411563 18.798437)">nuclear</text>
    </g>
    <g id="line2d_9">
     <defs>
      <path id="m3149fac062" d="M 0 2.5 
C 0.663008 2.5 1.29895 2.236584 1.767767 1.767767 
C 2.236584 1.29895 2.5 0.663008 2.5 0 
C 2.5 -0.663008 2.236584 -1.29895 1.767767 -1.767767 
C 1.29895 -2.236584 0.663008 -2.5 0 -2.5 
C -0.663008 -2.5 -1.29895 -2.236584 -1.767767 -1.767767 
C -2.236584 -1.29895 -2.5 -0.663008 -2.5 0 
C -2.5 0.663008 -2.236584 1.29895 -1.767767 1.767767 
C -1.29895 2.236584 -0.663008 2.5 0 2.5 
z
" style="stroke: #000000; stroke-opacity: 0"/>
     </defs>
     <g>
      <use xlink:href="#m3149fac062" x="122.755313" y="15.298437" style="fill: #ffae1a; stroke: #000000; stroke-opacity: 0"/>
     </g>
    </g>
    <g id="text_5">
     <text style="font: 10px 'DejaVu Sans', 'Bitstream Vera Sans', 'Computer Modern Sans Serif', 'Lucida Grande', 'Verdana', 'Geneva', 'Lucid', 'Arial', 'Helvetica', 'Avant Garde', sans-serif; text-anchor: start" x="130.755313" y="18.798437" transform="rotate(-0 130.755313 18.798437)">mitochondrial</text>
    </g>
   </g>
  </g>
  <g id="axes_2">
   <g id="patch_7">
    <path d="M 45.689063 248.089912 
L 208.749063 248.089912 
L 208.749063 156.226312 
L 45.689063 156.226312 
z
" style="fill: #ffffff"/>
   </g>
   <g id="PolyCollection_3">
    <defs>
     <path id="m80abad11ab" d="M 60.137417 -78.916745 
L 60.137417 -42.171305 
L 61.5552 -45.966515 
L 62.972983 -53.262657 
L 64.390766 -58.25441 
L 65.808548 -60.090781 
L 67.226331 -60.487542 
L 68.644114 -60.539594 
L 70.061897 -60.543806 
L 71.47968 -60.544018 
L 72.897463 -60.544025 
L 74.315246 -60.544025 
L 75.733029 -60.544025 
L 77.150811 -60.544024 
L 78.568594 -60.544006 
L 79.986377 -60.54367 
L 81.40416 -60.53991 
L 82.821943 -60.51396 
L 84.239726 -60.405717 
L 85.657509 -60.143127 
L 87.075292 -59.807978 
L 88.493074 -59.656466 
L 89.910857 -59.681862 
L 91.32864 -59.433282 
L 92.746423 -58.741758 
L 94.164206 -58.231647 
L 95.581989 -58.427708 
L 96.999772 -58.906027 
L 98.417555 -59.075683 
L 99.835337 -58.984227 
L 101.25312 -58.94313 
L 102.670903 -59.011452 
L 104.088686 -59.079852 
L 105.506469 -59.112529 
L 106.924252 -59.128143 
L 108.342035 -59.140918 
L 109.759818 -59.161774 
L 111.177601 -59.19613 
L 112.595383 -59.243572 
L 114.013166 -59.298867 
L 115.430949 -59.355219 
L 116.848732 -59.408858 
L 118.266515 -59.45911 
L 119.684298 -59.50758 
L 121.102081 -59.555056 
L 122.519864 -59.600295 
L 123.937646 -59.642846 
L 125.355429 -59.684578 
L 126.773212 -59.725602 
L 128.190995 -59.760657 
L 129.608778 -59.78735 
L 131.026561 -59.809268 
L 132.444344 -59.82657 
L 133.862127 -59.838363 
L 135.279909 -59.849767 
L 136.697692 -59.863826 
L 138.115475 -59.874953 
L 139.533258 -59.874028 
L 140.951041 -59.853537 
L 142.368824 -59.811441 
L 143.786607 -59.754583 
L 145.20439 -59.693812 
L 146.622172 -59.630825 
L 148.039955 -59.556723 
L 149.457738 -59.466578 
L 150.875521 -59.364703 
L 152.293304 -59.257651 
L 153.711087 -59.154586 
L 155.12887 -59.073867 
L 156.546653 -59.035963 
L 157.964435 -59.045763 
L 159.382218 -59.09418 
L 160.800001 -59.174149 
L 162.217784 -59.280351 
L 163.635567 -59.401744 
L 165.05335 -59.529851 
L 166.471133 -59.666148 
L 167.888916 -59.810754 
L 169.306698 -59.953999 
L 170.724481 -60.081899 
L 172.142264 -60.185314 
L 173.560047 -60.26609 
L 174.97783 -60.330914 
L 176.395613 -60.381519 
L 177.813396 -60.418718 
L 179.231179 -60.447522 
L 180.648961 -60.471234 
L 182.066744 -60.489804 
L 183.484527 -60.503755 
L 184.90231 -60.513977 
L 186.320093 -60.521275 
L 187.737876 -60.527307 
L 189.155659 -60.533209 
L 190.573442 -60.538274 
L 191.991224 -60.541405 
L 193.409007 -60.542694 
L 194.82679 -60.543016 
L 196.244573 -60.542974 
L 197.662356 -60.54277 
L 199.080139 -60.542585 
L 200.497922 -60.542685 
L 200.497922 -60.545365 
L 200.497922 -60.545365 
L 199.080139 -60.545465 
L 197.662356 -60.54528 
L 196.244573 -60.545076 
L 194.82679 -60.545034 
L 193.409007 -60.545356 
L 191.991224 -60.546645 
L 190.573442 -60.549776 
L 189.155659 -60.554841 
L 187.737876 -60.560743 
L 186.320093 -60.566775 
L 184.90231 -60.574073 
L 183.484527 -60.584295 
L 182.066744 -60.598246 
L 180.648961 -60.616816 
L 179.231179 -60.640528 
L 177.813396 -60.669332 
L 176.395613 -60.706531 
L 174.97783 -60.757136 
L 173.560047 -60.82196 
L 172.142264 -60.902736 
L 170.724481 -61.006151 
L 169.306698 -61.134051 
L 167.888916 -61.277296 
L 166.471133 -61.421902 
L 165.05335 -61.558199 
L 163.635567 -61.686306 
L 162.217784 -61.807699 
L 160.800001 -61.913901 
L 159.382218 -61.99387 
L 157.964435 -62.042287 
L 156.546653 -62.052087 
L 155.12887 -62.014183 
L 153.711087 -61.933464 
L 152.293304 -61.830399 
L 150.875521 -61.723347 
L 149.457738 -61.621472 
L 148.039955 -61.531327 
L 146.622172 -61.457225 
L 145.20439 -61.394238 
L 143.786607 -61.333467 
L 142.368824 -61.276609 
L 140.951041 -61.234513 
L 139.533258 -61.214022 
L 138.115475 -61.213097 
L 136.697692 -61.224224 
L 135.279909 -61.238283 
L 133.862127 -61.249687 
L 132.444344 -61.26148 
L 131.026561 -61.278782 
L 129.608778 -61.3007 
L 128.190995 -61.327393 
L 126.773212 -61.362448 
L 125.355429 -61.403472 
L 123.937646 -61.445204 
L 122.519864 -61.487755 
L 121.102081 -61.532994 
L 119.684298 -61.58047 
L 118.266515 -61.62894 
L 116.848732 -61.679192 
L 115.430949 -61.732831 
L 114.013166 -61.789183 
L 112.595383 -61.844478 
L 111.177601 -61.89192 
L 109.759818 -61.926276 
L 108.342035 -61.947132 
L 106.924252 -61.959907 
L 105.506469 -61.975521 
L 104.088686 -62.008198 
L 102.670903 -62.076598 
L 101.25312 -62.14492 
L 99.835337 -62.103823 
L 98.417555 -62.012367 
L 96.999772 -62.182023 
L 95.581989 -62.660342 
L 94.164206 -62.856403 
L 92.746423 -62.346292 
L 91.32864 -61.654768 
L 89.910857 -61.406188 
L 88.493074 -61.431584 
L 87.075292 -61.280072 
L 85.657509 -60.944923 
L 84.239726 -60.682333 
L 82.821943 -60.57409 
L 81.40416 -60.54814 
L 79.986377 -60.54438 
L 78.568594 -60.544044 
L 77.150811 -60.544026 
L 75.733029 -60.544025 
L 74.315246 -60.544025 
L 72.897463 -60.544025 
L 71.47968 -60.544032 
L 70.061897 -60.544244 
L 68.644114 -60.548456 
L 67.226331 -60.600508 
L 65.808548 -60.997269 
L 64.390766 -62.83364 
L 62.972983 -67.825393 
L 61.5552 -75.121535 
L 60.137417 -78.916745 
z
" style="stroke: #828282"/>
    </defs>
    <g clip-path="url(#p8469ed3240)">
     <use xlink:href="#m80abad11ab" x="0" y="285.668037" style="fill: #d9d9d9; stroke: #828282"/>
    </g>
   </g>
   <g id="PolyCollection_4">
    <defs>
     <path id="m33ca5f88a0" d="M 60.137417 -124.848545 
L 60.137417 -88.103105 
L 61.522672 -91.833105 
L 62.907928 -99.063291 
L 64.293183 -104.092363 
L 65.678439 -105.98903 
L 67.063694 -106.412674 
L 68.44895 -106.470621 
L 69.834205 -106.475553 
L 71.219461 -106.475816 
L 72.604716 -106.475825 
L 73.989972 -106.475825 
L 75.375227 -106.475825 
L 76.760483 -106.475825 
L 78.145738 -106.475824 
L 79.530994 -106.475803 
L 80.916249 -106.475423 
L 82.301505 -106.471091 
L 83.68676 -106.440438 
L 85.072016 -106.307802 
L 86.457271 -105.968762 
L 87.842527 -105.499422 
L 89.227782 -105.242621 
L 90.613038 -105.27003 
L 91.998293 -104.985842 
L 93.383549 -103.974873 
L 94.768804 -102.999723 
L 96.15406 -103.103094 
L 97.539315 -103.964123 
L 98.924571 -104.515221 
L 100.309826 -104.508913 
L 101.695081 -104.402579 
L 103.080337 -104.454563 
L 104.465592 -104.570709 
L 105.850848 -104.677812 
L 107.236103 -104.782594 
L 108.621359 -104.870971 
L 110.006614 -104.939839 
L 111.39187 -104.999987 
L 112.777125 -105.051284 
L 114.162381 -105.09804 
L 115.547636 -105.154781 
L 116.932892 -105.222248 
L 118.318147 -105.286634 
L 119.703403 -105.343352 
L 121.088658 -105.39734 
L 122.473914 -105.450054 
L 123.859169 -105.498551 
L 125.244425 -105.537686 
L 126.62968 -105.567054 
L 128.014936 -105.5954 
L 129.400191 -105.627361 
L 130.785447 -105.656985 
L 132.170702 -105.678955 
L 133.555958 -105.695151 
L 134.941213 -105.710345 
L 136.326469 -105.723917 
L 137.711724 -105.729015 
L 139.09698 -105.72127 
L 140.482235 -105.701443 
L 141.867491 -105.668138 
L 143.252746 -105.616678 
L 144.638001 -105.547238 
L 146.023257 -105.468836 
L 147.408512 -105.393147 
L 148.793768 -105.322407 
L 150.179023 -105.247068 
L 151.564279 -105.158909 
L 152.949534 -105.059393 
L 154.33479 -104.959005 
L 155.720045 -104.874857 
L 157.105301 -104.825412 
L 158.490556 -104.820811 
L 159.875812 -104.858833 
L 161.261067 -104.938197 
L 162.646323 -105.061181 
L 164.031578 -105.216977 
L 165.416834 -105.384849 
L 166.802089 -105.55239 
L 168.187345 -105.715057 
L 169.5726 -105.866395 
L 170.957856 -105.998774 
L 172.343111 -106.108869 
L 173.728367 -106.197541 
L 175.113622 -106.26595 
L 176.498878 -106.316628 
L 177.884133 -106.354663 
L 179.269389 -106.383671 
L 180.654644 -106.405562 
L 182.0399 -106.422561 
L 183.425155 -106.435616 
L 184.810411 -106.444621 
L 186.195666 -106.450993 
L 187.580922 -106.456988 
L 188.966177 -106.463114 
L 190.351432 -106.468122 
L 191.736688 -106.471246 
L 193.121943 -106.473003 
L 194.507199 -106.474068 
L 195.892454 -106.47467 
L 197.27771 -106.474983 
L 197.27771 -106.476667 
L 197.27771 -106.476667 
L 195.892454 -106.47698 
L 194.507199 -106.477582 
L 193.121943 -106.478647 
L 191.736688 -106.480404 
L 190.351432 -106.483528 
L 188.966177 -106.488536 
L 187.580922 -106.494662 
L 186.195666 -106.500657 
L 184.810411 -106.507029 
L 183.425155 -106.516034 
L 182.0399 -106.529089 
L 180.654644 -106.546088 
L 179.269389 -106.567979 
L 177.884133 -106.596987 
L 176.498878 -106.635022 
L 175.113622 -106.6857 
L 173.728367 -106.754109 
L 172.343111 -106.842781 
L 170.957856 -106.952876 
L 169.5726 -107.085255 
L 168.187345 -107.236593 
L 166.802089 -107.39926 
L 165.416834 -107.566801 
L 164.031578 -107.734673 
L 162.646323 -107.890469 
L 161.261067 -108.013453 
L 159.875812 -108.092817 
L 158.490556 -108.130839 
L 157.105301 -108.126238 
L 155.720045 -108.076793 
L 154.33479 -107.992645 
L 152.949534 -107.892257 
L 151.564279 -107.792741 
L 150.179023 -107.704582 
L 148.793768 -107.629243 
L 147.408512 -107.558503 
L 146.023257 -107.482814 
L 144.638001 -107.404412 
L 143.252746 -107.334972 
L 141.867491 -107.283512 
L 140.482235 -107.250207 
L 139.09698 -107.23038 
L 137.711724 -107.222635 
L 136.326469 -107.227733 
L 134.941213 -107.241305 
L 133.555958 -107.256499 
L 132.170702 -107.272695 
L 130.785447 -107.294665 
L 129.400191 -107.324289 
L 128.014936 -107.35625 
L 126.62968 -107.384596 
L 125.244425 -107.413964 
L 123.859169 -107.453099 
L 122.473914 -107.501596 
L 121.088658 -107.55431 
L 119.703403 -107.608298 
L 118.318147 -107.665016 
L 116.932892 -107.729402 
L 115.547636 -107.796869 
L 114.162381 -107.85361 
L 112.777125 -107.900366 
L 111.39187 -107.951663 
L 110.006614 -108.011811 
L 108.621359 -108.080679 
L 107.236103 -108.169056 
L 105.850848 -108.273838 
L 104.465592 -108.380941 
L 103.080337 -108.497087 
L 101.695081 -108.549071 
L 100.309826 -108.442737 
L 98.924571 -108.436429 
L 97.539315 -108.987527 
L 96.15406 -109.848556 
L 94.768804 -109.951927 
L 93.383549 -108.976777 
L 91.998293 -107.965808 
L 90.613038 -107.68162 
L 89.227782 -107.709029 
L 87.842527 -107.452228 
L 86.457271 -106.982888 
L 85.072016 -106.643848 
L 83.68676 -106.511212 
L 82.301505 -106.480559 
L 80.916249 -106.476227 
L 79.530994 -106.475847 
L 78.145738 -106.475826 
L 76.760483 -106.475825 
L 75.375227 -106.475825 
L 73.989972 -106.475825 
L 72.604716 -106.475825 
L 71.219461 -106.475834 
L 69.834205 -106.476097 
L 68.44895 -106.481029 
L 67.063694 -106.538976 
L 65.678439 -106.96262 
L 64.293183 -108.859287 
L 62.907928 -113.888359 
L 61.522672 -121.118545 
L 60.137417 -124.848545 
z
" style="stroke: #828282"/>
    </defs>
    <g clip-path="url(#p8469ed3240)">
     <use xlink:href="#m33ca5f88a0" x="0" y="285.668037" style="fill: #d9d9d9; stroke: #828282"/>
    </g>
   </g>
   <g id="matplotlib.axis_3">
    <g id="xtick_6">
     <g id="line2d_10">
      <g>
       <use xlink:href="#m53921bc52c" x="60.137417" y="248.089912" style="stroke: #000000; stroke-width: 0.8"/>
      </g>
     </g>
     <g id="text_6">
      <text style="font: 10px 'DejaVu Sans', 'Bitstream Vera Sans', 'Computer Modern Sans Serif', 'Lucida Grande', 'Verdana', 'Geneva', 'Lucid', 'Arial', 'Helvetica', 'Avant Garde', sans-serif; text-anchor: middle" x="60.137417" y="262.688349" transform="rotate(-0 60.137417 262.688349)">n.d.</text>
     </g>
    </g>
    <g id="xtick_7">
     <g id="line2d_11">
      <g>
       <use xlink:href="#m53921bc52c" x="80.777923" y="248.089912" style="stroke: #000000; stroke-width: 0.8"/>
      </g>
     </g>
     <g id="text_7">
      <text style="font: 10px 'DejaVu Sans', 'Bitstream Vera Sans', 'Computer Modern Sans Serif', 'Lucida Grande', 'Verdana', 'Geneva', 'Lucid', 'Arial', 'Helvetica', 'Avant Garde', sans-serif; text-anchor: middle" x="80.777923" y="262.688349" transform="rotate(-0 80.777923 262.688349)">-2</text>
     </g>
    </g>
    <g id="xtick_8">
     <g id="line2d_12">
      <g>
       <use xlink:href="#m53921bc52c" x="122.058936" y="248.089912" style="stroke: #000000; stroke-width: 0.8"/>
      </g>
     </g>
     <g id="text_8">
      <text style="font: 10px 'DejaVu Sans', 'Bitstream Vera Sans', 'Computer Modern Sans Serif', 'Lucida Grande', 'Verdana', 'Geneva', 'Lucid', 'Arial', 'Helvetica', 'Avant Garde', sans-serif; text-anchor: middle" x="122.058936" y="262.688349" transform="rotate(-0 122.058936 262.688349)">0</text>
     </g>
    </g>
    <g id="xtick_9">
     <g id="line2d_13">
      <g>
       <use xlink:href="#m53921bc52c" x="163.339949" y="248.089912" style="stroke: #000000; stroke-width: 0.8"/>
      </g>
     </g>
     <g id="text_9">
      <text style="font: 10px 'DejaVu Sans', 'Bitstream Vera Sans', 'Computer Modern Sans Serif', 'Lucida Grande', 'Verdana', 'Geneva', 'Lucid', 'Arial', 'Helvetica', 'Avant Garde', sans-serif; text-anchor: middle" x="163.339949" y="262.688349" transform="rotate(-0 163.339949 262.688349)">2</text>
     </g>
    </g>
    <g id="xtick_10">
     <g id="line2d_14">
      <g>
       <use xlink:href="#m53921bc52c" x="204.620961" y="248.089912" style="stroke: #000000; stroke-width: 0.8"/>
      </g>
     </g>
     <g id="text_10">
      <text style="font: 10px 'DejaVu Sans', 'Bitstream Vera Sans', 'Computer Modern Sans Serif', 'Lucida Grande', 'Verdana', 'Geneva', 'Lucid', 'Arial', 'Helvetica', 'Avant Garde', sans-serif; text-anchor: middle" x="204.620961" y="262.688349" transform="rotate(-0 204.620961 262.688349)">4</text>
     </g>
    </g>
    <g id="text_11">
     <!-- Log$_{10}$ (normalized CPM) -->
     <g transform="translate(67.769063 276.368037)">
      <text>
       <tspan style="font: 10px 'DejaVu Sans'" x="0 5.571289 11.689453 27.313477 30.492188 34.393555 40.731445 46.849609 50.960938 60.702148 66.830078 69.608398 72.386719 77.635742 83.788086 90.135742 93.314453 100.296875 106.327148 114.955078" y="-0.40625">Log (normalized CPM)</tspan>
       <tspan style="font: 7px 'DejaVu Sans'" x="18.132812 22.586426" y="1.234375">10</tspan>
      </text>
     </g>
    </g>
   </g>
   <g id="matplotlib.axis_4">
    <g id="ytick_3">
     <g id="line2d_15">
      <g>
       <use xlink:href="#m44cc5ce544" x="45.689063" y="225.124012" style="stroke: #000000"/>
      </g>
     </g>
     <g id="text_12">
      <text style="font: 10px 'DejaVu Sans', 'Bitstream Vera Sans', 'Computer Modern Sans Serif', 'Lucida Grande', 'Verdana', 'Geneva', 'Lucid', 'Arial', 'Helvetica', 'Avant Garde', sans-serif; text-anchor: end" x="39.189063" y="228.923231" transform="rotate(-0 39.189063 228.923231)">Lysate</text>
     </g>
    </g>
    <g id="ytick_4">
     <g id="line2d_16">
      <g>
       <use xlink:href="#m44cc5ce544" x="45.689063" y="179.192212" style="stroke: #000000"/>
      </g>
     </g>
     <g id="text_13">
      <text style="font: 10px 'DejaVu Sans', 'Bitstream Vera Sans', 'Computer Modern Sans Serif', 'Lucida Grande', 'Verdana', 'Geneva', 'Lucid', 'Arial', 'Helvetica', 'Avant Garde', sans-serif; text-anchor: end" x="39.189063" y="182.991431" transform="rotate(-0 39.189063 182.991431)">NTVE</text>
     </g>
    </g>
   </g>
   <g id="patch_8">
    <path d="M 45.689063 248.089912 
L 45.689063 156.226312 
" style="fill: none; stroke: #000000; stroke-linejoin: miter; stroke-linecap: square"/>
   </g>
   <g id="patch_9">
    <path d="M 208.749063 248.089912 
L 208.749063 156.226312 
" style="fill: none; stroke: #000000; stroke-linejoin: miter; stroke-linecap: square"/>
   </g>
   <g id="patch_10">
    <path d="M 45.689062 248.089912 
L 208.749063 248.089912 
" style="fill: none; stroke: #000000; stroke-linejoin: miter; stroke-linecap: square"/>
   </g>
   <g id="patch_11">
    <path d="M 45.689062 156.226312 
L 208.749063 156.226312 
" style="fill: none; stroke: #000000; stroke-linejoin: miter; stroke-linecap: square"/>
   </g>
   <g id="PathCollection_3">
    <defs>
     <path id="C2_0_621eb038be" d="M 0 2 
C 0.530406 2 1.03916 1.789267 1.414214 1.414214 
C 1.789267 1.03916 2 0.530406 2 -0 
C 2 -0.530406 1.789267 -1.03916 1.414214 -1.414214 
C 1.03916 -1.789267 0.530406 -2 0 -2 
C -0.530406 -2 -1.03916 -1.789267 -1.414214 -1.414214 
C -1.789267 -1.03916 -2 -0.530406 -2 0 
C -2 0.530406 -1.789267 1.03916 -1.414214 1.414214 
C -1.03916 1.789267 -0.530406 2 0 2 
z
"/>
    </defs>
    <g clip-path="url(#p8469ed3240)">
     <use xlink:href="#C2_0_621eb038be" x="106.496984" y="220.604295" style="fill: #ffae1a; fill-opacity: 0.75"/>
    </g>
    <g clip-path="url(#p8469ed3240)">
     <use xlink:href="#C2_0_621eb038be" x="168.36978" y="221.870425" style="fill: #ffae1a; fill-opacity: 0.75"/>
    </g>
    <g clip-path="url(#p8469ed3240)">
     <use xlink:href="#C2_0_621eb038be" x="100.334298" y="219.454996" style="fill: #ffae1a; fill-opacity: 0.75"/>
    </g>
    <g clip-path="url(#p8469ed3240)">
     <use xlink:href="#C2_0_621eb038be" x="170.011205" y="227.002067" style="fill: #ffae1a; fill-opacity: 0.75"/>
    </g>
    <g clip-path="url(#p8469ed3240)">
     <use xlink:href="#C2_0_621eb038be" x="60.137417" y="219.790089" style="fill: #ffae1a; fill-opacity: 0.75"/>
    </g>
    <g clip-path="url(#p8469ed3240)">
     <use xlink:href="#C2_0_621eb038be" x="178.961263" y="218.058217" style="fill: #ffae1a; fill-opacity: 0.75"/>
    </g>
    <g clip-path="url(#p8469ed3240)">
     <use xlink:href="#C2_0_621eb038be" x="113.737904" y="229.402199" style="fill: #ffae1a; fill-opacity: 0.75"/>
    </g>
    <g clip-path="url(#p8469ed3240)">
     <use xlink:href="#C2_0_621eb038be" x="122.134791" y="231.502761" style="fill: #ffae1a; fill-opacity: 0.75"/>
    </g>
    <g clip-path="url(#p8469ed3240)">
     <use xlink:href="#C2_0_621eb038be" x="113.737904" y="219.751922" style="fill: #ffae1a; fill-opacity: 0.75"/>
    </g>
    <g clip-path="url(#p8469ed3240)">
     <use xlink:href="#C2_0_621eb038be" x="174.968522" y="232.468363" style="fill: #ffae1a; fill-opacity: 0.75"/>
    </g>
    <g clip-path="url(#p8469ed3240)">
     <use xlink:href="#C2_0_621eb038be" x="133.792866" y="228.248111" style="fill: #ffae1a; fill-opacity: 0.75"/>
    </g>
    <g clip-path="url(#p8469ed3240)">
     <use xlink:href="#C2_0_621eb038be" x="110.829517" y="229.848722" style="fill: #ffae1a; fill-opacity: 0.75"/>
    </g>
    <g clip-path="url(#p8469ed3240)">
     <use xlink:href="#C2_0_621eb038be" x="60.137417" y="220.610558" style="fill: #ffae1a; fill-opacity: 0.75"/>
    </g>
    <g clip-path="url(#p8469ed3240)">
     <use xlink:href="#C2_0_621eb038be" x="60.137417" y="226.259781" style="fill: #ffae1a; fill-opacity: 0.75"/>
    </g>
    <g clip-path="url(#p8469ed3240)">
     <use xlink:href="#C2_0_621eb038be" x="60.137417" y="222.297596" style="fill: #ffae1a; fill-opacity: 0.75"/>
    </g>
    <g clip-path="url(#p8469ed3240)">
     <use xlink:href="#C2_0_621eb038be" x="192.064722" y="226.311136" style="fill: #ffae1a; fill-opacity: 0.75"/>
    </g>
    <g clip-path="url(#p8469ed3240)">
     <use xlink:href="#C2_0_621eb038be" x="115.116479" y="224.869518" style="fill: #ffae1a; fill-opacity: 0.75"/>
    </g>
    <g clip-path="url(#p8469ed3240)">
     <use xlink:href="#C2_0_621eb038be" x="97.789157" y="231.028318" style="fill: #ffae1a; fill-opacity: 0.75"/>
    </g>
    <g clip-path="url(#p8469ed3240)">
     <use xlink:href="#C2_0_621eb038be" x="179.737742" y="217.785739" style="fill: #ffae1a; fill-opacity: 0.75"/>
    </g>
    <g clip-path="url(#p8469ed3240)">
     <use xlink:href="#C2_0_621eb038be" x="60.137417" y="227.976571" style="fill: #ffae1a; fill-opacity: 0.75"/>
    </g>
    <g clip-path="url(#p8469ed3240)">
     <use xlink:href="#C2_0_621eb038be" x="148.057478" y="232.445132" style="fill: #ffae1a; fill-opacity: 0.75"/>
    </g>
    <g clip-path="url(#p8469ed3240)">
     <use xlink:href="#C2_0_621eb038be" x="173.731211" y="228.370975" style="fill: #ffae1a; fill-opacity: 0.75"/>
    </g>
    <g clip-path="url(#p8469ed3240)">
     <use xlink:href="#C2_0_621eb038be" x="179.318363" y="224.61092" style="fill: #ffae1a; fill-opacity: 0.75"/>
    </g>
    <g clip-path="url(#p8469ed3240)">
     <use xlink:href="#C2_0_621eb038be" x="60.137417" y="221.222651" style="fill: #ffae1a; fill-opacity: 0.75"/>
    </g>
    <g clip-path="url(#p8469ed3240)">
     <use xlink:href="#C2_0_621eb038be" x="164.982674" y="225.813008" style="fill: #ffae1a; fill-opacity: 0.75"/>
    </g>
    <g clip-path="url(#p8469ed3240)">
     <use xlink:href="#C2_0_621eb038be" x="60.137417" y="226.866319" style="fill: #ffae1a; fill-opacity: 0.75"/>
    </g>
    <g clip-path="url(#p8469ed3240)">
     <use xlink:href="#C2_0_621eb038be" x="162.327294" y="226.289126" style="fill: #ffae1a; fill-opacity: 0.75"/>
    </g>
    <g clip-path="url(#p8469ed3240)">
     <use xlink:href="#C2_0_621eb038be" x="183.511411" y="219.608913" style="fill: #ffae1a; fill-opacity: 0.75"/>
    </g>
    <g clip-path="url(#p8469ed3240)">
     <use xlink:href="#C2_0_621eb038be" x="100.334298" y="224.612501" style="fill: #ffae1a; fill-opacity: 0.75"/>
    </g>
    <g clip-path="url(#p8469ed3240)">
     <use xlink:href="#C2_0_621eb038be" x="60.137417" y="226.347519" style="fill: #ffae1a; fill-opacity: 0.75"/>
    </g>
    <g clip-path="url(#p8469ed3240)">
     <use xlink:href="#C2_0_621eb038be" x="60.137417" y="227.828468" style="fill: #ffae1a; fill-opacity: 0.75"/>
    </g>
    <g clip-path="url(#p8469ed3240)">
     <use xlink:href="#C2_0_621eb038be" x="182.93247" y="230.121937" style="fill: #ffae1a; fill-opacity: 0.75"/>
    </g>
    <g clip-path="url(#p8469ed3240)">
     <use xlink:href="#C2_0_621eb038be" x="154.754155" y="218.242251" style="fill: #ffae1a; fill-opacity: 0.75"/>
    </g>
    <g clip-path="url(#p8469ed3240)">
     <use xlink:href="#C2_0_621eb038be" x="103.935125" y="225.41119" style="fill: #ffae1a; fill-opacity: 0.75"/>
    </g>
    <g clip-path="url(#p8469ed3240)">
     <use xlink:href="#C2_0_621eb038be" x="178.800356" y="225.753097" style="fill: #ffae1a; fill-opacity: 0.75"/>
    </g>
    <g clip-path="url(#p8469ed3240)">
     <use xlink:href="#C2_0_621eb038be" x="131.090293" y="225.617627" style="fill: #ffae1a; fill-opacity: 0.75"/>
    </g>
    <g clip-path="url(#p8469ed3240)">
     <use xlink:href="#C2_0_621eb038be" x="129.179994" y="220.549945" style="fill: #ffae1a; fill-opacity: 0.75"/>
    </g>
   </g>
   <g id="PathCollection_4">
    <defs>
     <path id="C3_0_6fcf94471c" d="M 0 2 
C 0.530406 2 1.03916 1.789267 1.414214 1.414214 
C 1.789267 1.03916 2 0.530406 2 -0 
C 2 -0.530406 1.789267 -1.03916 1.414214 -1.414214 
C 1.03916 -1.789267 0.530406 -2 0 -2 
C -0.530406 -2 -1.03916 -1.789267 -1.414214 -1.414214 
C -1.789267 -1.03916 -2 -0.530406 -2 0 
C -2 0.530406 -1.789267 1.03916 -1.414214 1.414214 
C -1.03916 1.789267 -0.530406 2 0 2 
z
"/>
    </defs>
    <g clip-path="url(#p8469ed3240)">
     <use xlink:href="#C3_0_6fcf94471c" x="109.450832" y="182.947043" style="fill: #ffae1a; fill-opacity: 0.75"/>
    </g>
    <g clip-path="url(#p8469ed3240)">
     <use xlink:href="#C3_0_6fcf94471c" x="174.777023" y="181.491847" style="fill: #ffae1a; fill-opacity: 0.75"/>
    </g>
    <g clip-path="url(#p8469ed3240)">
     <use xlink:href="#C3_0_6fcf94471c" x="95.168911" y="176.063705" style="fill: #ffae1a; fill-opacity: 0.75"/>
    </g>
    <g clip-path="url(#p8469ed3240)">
     <use xlink:href="#C3_0_6fcf94471c" x="177.364818" y="176.569617" style="fill: #ffae1a; fill-opacity: 0.75"/>
    </g>
    <g clip-path="url(#p8469ed3240)">
     <use xlink:href="#C3_0_6fcf94471c" x="60.137417" y="180.66238" style="fill: #ffae1a; fill-opacity: 0.75"/>
    </g>
    <g clip-path="url(#p8469ed3240)">
     <use xlink:href="#C3_0_6fcf94471c" x="186.920806" y="178.330569" style="fill: #ffae1a; fill-opacity: 0.75"/>
    </g>
    <g clip-path="url(#p8469ed3240)">
     <use xlink:href="#C3_0_6fcf94471c" x="124.025976" y="183.534008" style="fill: #ffae1a; fill-opacity: 0.75"/>
    </g>
    <g clip-path="url(#p8469ed3240)">
     <use xlink:href="#C3_0_6fcf94471c" x="121.390859" y="175.759099" style="fill: #ffae1a; fill-opacity: 0.75"/>
    </g>
    <g clip-path="url(#p8469ed3240)">
     <use xlink:href="#C3_0_6fcf94471c" x="110.301872" y="176.392895" style="fill: #ffae1a; fill-opacity: 0.75"/>
    </g>
    <g clip-path="url(#p8469ed3240)">
     <use xlink:href="#C3_0_6fcf94471c" x="184.155159" y="174.073157" style="fill: #ffae1a; fill-opacity: 0.75"/>
    </g>
    <g clip-path="url(#p8469ed3240)">
     <use xlink:href="#C3_0_6fcf94471c" x="132.200129" y="173.804059" style="fill: #ffae1a; fill-opacity: 0.75"/>
    </g>
    <g clip-path="url(#p8469ed3240)">
     <use xlink:href="#C3_0_6fcf94471c" x="114.192336" y="184.447274" style="fill: #ffae1a; fill-opacity: 0.75"/>
    </g>
    <g clip-path="url(#p8469ed3240)">
     <use xlink:href="#C3_0_6fcf94471c" x="60.137417" y="183.306359" style="fill: #ffae1a; fill-opacity: 0.75"/>
    </g>
    <g clip-path="url(#p8469ed3240)">
     <use xlink:href="#C3_0_6fcf94471c" x="60.137417" y="186.08236" style="fill: #ffae1a; fill-opacity: 0.75"/>
    </g>
    <g clip-path="url(#p8469ed3240)">
     <use xlink:href="#C3_0_6fcf94471c" x="109.450832" y="185.991897" style="fill: #ffae1a; fill-opacity: 0.75"/>
    </g>
    <g clip-path="url(#p8469ed3240)">
     <use xlink:href="#C3_0_6fcf94471c" x="195.586514" y="178.875154" style="fill: #ffae1a; fill-opacity: 0.75"/>
    </g>
    <g clip-path="url(#p8469ed3240)">
     <use xlink:href="#C3_0_6fcf94471c" x="117.277216" y="176.788691" style="fill: #ffae1a; fill-opacity: 0.75"/>
    </g>
    <g clip-path="url(#p8469ed3240)">
     <use xlink:href="#C3_0_6fcf94471c" x="95.168911" y="177.214339" style="fill: #ffae1a; fill-opacity: 0.75"/>
    </g>
    <g clip-path="url(#p8469ed3240)">
     <use xlink:href="#C3_0_6fcf94471c" x="184.607713" y="183.292573" style="fill: #ffae1a; fill-opacity: 0.75"/>
    </g>
    <g clip-path="url(#p8469ed3240)">
     <use xlink:href="#C3_0_6fcf94471c" x="60.137417" y="175.228534" style="fill: #ffae1a; fill-opacity: 0.75"/>
    </g>
    <g clip-path="url(#p8469ed3240)">
     <use xlink:href="#C3_0_6fcf94471c" x="159.054827" y="173.854845" style="fill: #ffae1a; fill-opacity: 0.75"/>
    </g>
    <g clip-path="url(#p8469ed3240)">
     <use xlink:href="#C3_0_6fcf94471c" x="183.214777" y="179.208909" style="fill: #ffae1a; fill-opacity: 0.75"/>
    </g>
    <g clip-path="url(#p8469ed3240)">
     <use xlink:href="#C3_0_6fcf94471c" x="182.45317" y="172.330767" style="fill: #ffae1a; fill-opacity: 0.75"/>
    </g>
    <g clip-path="url(#p8469ed3240)">
     <use xlink:href="#C3_0_6fcf94471c" x="60.137417" y="181.215056" style="fill: #ffae1a; fill-opacity: 0.75"/>
    </g>
    <g clip-path="url(#p8469ed3240)">
     <use xlink:href="#C3_0_6fcf94471c" x="168.268161" y="181.438775" style="fill: #ffae1a; fill-opacity: 0.75"/>
    </g>
    <g clip-path="url(#p8469ed3240)">
     <use xlink:href="#C3_0_6fcf94471c" x="60.137417" y="183.800866" style="fill: #ffae1a; fill-opacity: 0.75"/>
    </g>
    <g clip-path="url(#p8469ed3240)">
     <use xlink:href="#C3_0_6fcf94471c" x="172.358806" y="173.939597" style="fill: #ffae1a; fill-opacity: 0.75"/>
    </g>
    <g clip-path="url(#p8469ed3240)">
     <use xlink:href="#C3_0_6fcf94471c" x="193.190207" y="179.736483" style="fill: #ffae1a; fill-opacity: 0.75"/>
    </g>
    <g clip-path="url(#p8469ed3240)">
     <use xlink:href="#C3_0_6fcf94471c" x="60.137417" y="175.704696" style="fill: #ffae1a; fill-opacity: 0.75"/>
    </g>
    <g clip-path="url(#p8469ed3240)">
     <use xlink:href="#C3_0_6fcf94471c" x="60.137417" y="180.555853" style="fill: #ffae1a; fill-opacity: 0.75"/>
    </g>
    <g clip-path="url(#p8469ed3240)">
     <use xlink:href="#C3_0_6fcf94471c" x="60.137417" y="182.702383" style="fill: #ffae1a; fill-opacity: 0.75"/>
    </g>
    <g clip-path="url(#p8469ed3240)">
     <use xlink:href="#C3_0_6fcf94471c" x="192.375999" y="176.494371" style="fill: #ffae1a; fill-opacity: 0.75"/>
    </g>
    <g clip-path="url(#p8469ed3240)">
     <use xlink:href="#C3_0_6fcf94471c" x="155.556821" y="172.45132" style="fill: #ffae1a; fill-opacity: 0.75"/>
    </g>
    <g clip-path="url(#p8469ed3240)">
     <use xlink:href="#C3_0_6fcf94471c" x="106.269245" y="178.163896" style="fill: #ffae1a; fill-opacity: 0.75"/>
    </g>
    <g clip-path="url(#p8469ed3240)">
     <use xlink:href="#C3_0_6fcf94471c" x="185.959264" y="174.142933" style="fill: #ffae1a; fill-opacity: 0.75"/>
    </g>
    <g clip-path="url(#p8469ed3240)">
     <use xlink:href="#C3_0_6fcf94471c" x="132.478018" y="179.610638" style="fill: #ffae1a; fill-opacity: 0.75"/>
    </g>
    <g clip-path="url(#p8469ed3240)">
     <use xlink:href="#C3_0_6fcf94471c" x="130.058348" y="183.60607" style="fill: #ffae1a; fill-opacity: 0.75"/>
    </g>
   </g>
   <g id="text_14">
    <text style="font: 700 10px 'DejaVu Sans', 'Bitstream Vera Sans', 'Computer Modern Sans Serif', 'Lucida Grande', 'Verdana', 'Geneva', 'Lucid', 'Arial', 'Helvetica', 'Avant Garde', sans-serif; text-anchor: start" x="45.689063" y="154.146624" transform="rotate(-0 45.689063 154.146624)">transient expression</text>
   </g>
  </g>
 </g>
 <defs>
  <clipPath id="p91a2809f31">
   <rect x="45.689063" y="40.782712" width="163.06" height="91.8636"/>
  </clipPath>
  <clipPath id="p8469ed3240">
   <rect x="45.689063" y="156.226312" width="163.06" height="91.8636"/>
  </clipPath>
 </defs>
</svg>
