<?xml version="1.0" encoding="utf-8" standalone="no"?>
<!DOCTYPE svg PUBLIC "-//W3C//DTD SVG 1.1//EN"
  "http://www.w3.org/Graphics/SVG/1.1/DTD/svg11.dtd">
<svg xmlns:xlink="http://www.w3.org/1999/xlink" width="285.605pt" height="213.5795pt" viewBox="0 0 285.605 213.5795" xmlns="http://www.w3.org/2000/svg" version="1.1">
 <metadata>
  <rdf:RDF xmlns:dc="http://purl.org/dc/elements/1.1/" xmlns:cc="http://creativecommons.org/ns#" xmlns:rdf="http://www.w3.org/1999/02/22-rdf-syntax-ns#">
   <cc:Work>
    <dc:type rdf:resource="http://purl.org/dc/dcmitype/StillImage"/>
    <dc:date>2026-03-31T14:34:58.738144</dc:date>
    <dc:format>image/svg+xml</dc:format>
    <dc:creator>
     <cc:Agent>
      <dc:title>Matplotlib v3.10.8, https://matplotlib.org/</dc:title>
     </cc:Agent>
    </dc:creator>
   </cc:Work>
  </rdf:RDF>
 </metadata>
 <defs>
  <style type="text/css">*{stroke-linejoin: round; stroke-linecap: butt}</style>
 </defs>
 <g id="figure_1">
  <g id="patch_1">
   <path d="M 0 213.5795 
L 285.605 213.5795 
L 285.605 0 
L 0 0 
z
" style="fill: #ffffff"/>
  </g>
  <g id="axes_1">
   <g id="patch_2">
    <path d="M 38.665 179.8945 
L 278.405 179.8945 
L 278.405 20.4945 
L 38.665 20.4945 
z
" style="fill: #ffffff"/>
   </g>
   <g id="FillBetweenPolyCollection_1">
    <defs>
     <path id="m1ed659e96b" d="M 40.377429 -33.685 
L 40.377429 -33.685 
L 43.802286 -33.685 
L 47.227143 -33.685 
L 50.652 -33.685 
L 54.076857 -33.685 
L 57.501714 -33.685 
L 60.926571 -33.685 
L 64.351429 -33.685 
L 67.776286 -33.685 
L 71.201143 -33.685 
L 74.626 -33.685 
L 78.050857 -33.685 
L 81.475714 -33.685 
L 84.900571 -33.685 
L 88.325429 -33.613599 
L 91.750286 -33.687537 
L 95.175143 -33.113788 
L 98.6 -33.589012 
L 102.024857 -33.377304 
L 105.449714 -33.060549 
L 108.874571 -33.519417 
L 112.299429 -33.074681 
L 115.724286 -32.673392 
L 119.149143 -34.017352 
L 122.574 -37.432958 
L 125.998857 -36.492352 
L 129.423714 -37.369771 
L 132.848571 -36.885793 
L 136.273429 -42.185374 
L 139.698286 -45.645116 
L 143.123143 -57.809414 
L 146.548 -63.564356 
L 149.972857 -67.141865 
L 153.397714 -78.011972 
L 156.822571 -90.375524 
L 160.247429 -98.540989 
L 163.672286 -109.848806 
L 167.097143 -117.427023 
L 170.522 -120.676182 
L 173.946857 -120.853711 
L 177.371714 -134.96873 
L 180.796571 -121.652514 
L 184.221429 -115.790062 
L 187.646286 -117.50703 
L 191.071143 -119.252622 
L 194.496 -97.651973 
L 197.920857 -100.880637 
L 201.345714 -83.914661 
L 204.770571 -74.806 
L 208.195429 -65.661354 
L 211.620286 -59.898141 
L 215.045143 -53.597019 
L 218.47 -48.834241 
L 221.894857 -43.120558 
L 225.319714 -42.557524 
L 228.744571 -40.890043 
L 232.169429 -36.93817 
L 235.594286 -34.835317 
L 239.019143 -34.310386 
L 242.444 -34.536099 
L 245.868857 -33.394971 
L 249.293714 -33.934846 
L 252.718571 -33.656774 
L 256.143429 -33.613599 
L 259.568286 -33.601676 
L 262.993143 -33.687537 
L 266.418 -33.605928 
L 269.842857 -33.685 
L 273.267714 -33.685 
L 276.692571 -33.685 
L 276.692571 -33.685 
L 276.692571 -33.685 
L 273.267714 -33.685 
L 269.842857 -33.685 
L 266.418 -33.928806 
L 262.993143 -33.99595 
L 259.568286 -33.941916 
L 256.143429 -33.905155 
L 252.718571 -34.216285 
L 249.293714 -34.715676 
L 245.868857 -36.369885 
L 242.444 -35.294134 
L 239.019143 -37.661208 
L 235.594286 -40.686004 
L 232.169429 -43.257246 
L 228.744571 -49.171324 
L 225.319714 -51.419926 
L 221.894857 -66.893813 
L 218.47 -71.95458 
L 215.045143 -91.592617 
L 211.620286 -101.283741 
L 208.195429 -105.988155 
L 204.770571 -122.854389 
L 201.345714 -138.735608 
L 197.920857 -136.472906 
L 194.496 -140.166284 
L 191.071143 -144.286825 
L 187.646286 -139.230926 
L 184.221429 -158.027258 
L 180.796571 -157.075879 
L 177.371714 -141.847447 
L 173.946857 -145.392087 
L 170.522 -142.70887 
L 167.097143 -134.518977 
L 163.672286 -145.303439 
L 160.247429 -128.64213 
L 156.822571 -123.096604 
L 153.397714 -127.243892 
L 149.972857 -112.767183 
L 146.548 -101.38024 
L 143.123143 -89.574506 
L 139.698286 -87.207233 
L 136.273429 -78.320444 
L 132.848571 -70.837548 
L 129.423714 -60.451929 
L 125.998857 -55.580387 
L 122.574 -49.015194 
L 119.149143 -43.268712 
L 115.724286 -44.509666 
L 112.299429 -40.747047 
L 108.874571 -37.698992 
L 105.449714 -36.572709 
L 102.024857 -35.669799 
L 98.6 -34.854221 
L 95.175143 -35.446237 
L 91.750286 -33.99595 
L 88.325429 -33.905155 
L 84.900571 -33.685 
L 81.475714 -33.685 
L 78.050857 -33.685 
L 74.626 -33.685 
L 71.201143 -33.685 
L 67.776286 -33.685 
L 64.351429 -33.685 
L 60.926571 -33.685 
L 57.501714 -33.685 
L 54.076857 -33.685 
L 50.652 -33.685 
L 47.227143 -33.685 
L 43.802286 -33.685 
L 40.377429 -33.685 
z
" style="stroke: #1f77b4; stroke-opacity: 0.3"/>
    </defs>
    <g clip-path="url(#p2a5a399c97)">
     <use xlink:href="#m1ed659e96b" x="0" y="213.5795" style="fill: #1f77b4; fill-opacity: 0.3; stroke: #1f77b4; stroke-opacity: 0.3"/>
    </g>
   </g>
   <g id="matplotlib.axis_1">
    <g id="xtick_1">
     <g id="line2d_1">
      <defs>
       <path id="mf7e475a455" d="M 0 0 
L 0 3.5 
" style="stroke: #000000; stroke-width: 0.8"/>
      </defs>
      <g>
       <use xlink:href="#mf7e475a455" x="66.7332" y="179.8945" style="stroke: #000000; stroke-width: 0.8"/>
      </g>
     </g>
     <g id="text_1">
      <text style="font-size: 8px; font-family: 'DejaVu Sans', 'Bitstream Vera Sans', 'Computer Modern Sans Serif', 'Lucida Grande', 'Verdana', 'Geneva', 'Lucid', 'Arial', 'Helvetica', 'Avant Garde', sans-serif; text-anchor: middle" x="66.7332" y="192.97325" transform="rotate(-0 66.7332 192.97325)">−3</text>
     </g>
    </g>
    <g id="xtick_2">
     <g id="line2d_2">
      <g>
       <use xlink:href="#mf7e475a455" x="100.717431" y="179.8945" style="stroke: #000000; stroke-width: 0.8"/>
      </g>
     </g>
     <g id="text_2">
      <text style="font-size: 8px; font-family: 'DejaVu Sans', 'Bitstream Vera Sans', 'Computer Modern Sans Serif', 'Lucida Grande', 'Verdana', 'Geneva', 'Lucid', 'Arial', 'Helvetica', 'Avant Garde', sans-serif; text-anchor: middle" x="100.717431" y="192.97325" transform="rotate(-0 100.717431 192.97325)">−2</text>
     </g>
    </g>
    <g id="xtick_3">
     <g id="line2d_3">
      <g>
       <use xlink:href="#mf7e475a455" x="134.701662" y="179.8945" style="stroke: #000000; stroke-width: 0.8"/>
      </g>
     </g>
     <g id="text_3">
      <text style="font-size: 8px; font-family: 'DejaVu Sans', 'Bitstream Vera Sans', 'Computer Modern Sans Serif', 'Lucida Grande', 'Verdana', 'Geneva', 'Lucid', 'Arial', 'Helvetica', 'Avant Garde', sans-serif; text-anchor: middle" x="134.701662" y="192.97325" transform="rotate(-0 134.701662 192.97325)">−1</text>
     </g>
    </g>
    <g id="xtick_4">
     <g id="line2d_4">
      <g>
       <use xlink:href="#mf7e475a455" x="168.685893" y="179.8945" style="stroke: #000000; stroke-width: 0.8"/>
      </g>
     </g>
     <g id="text_4">
      <text style="font-size: 8px; font-family: 'DejaVu Sans', 'Bitstream Vera Sans', 'Computer Modern Sans Serif', 'Lucida Grande', 'Verdana', 'Geneva', 'Lucid', 'Arial', 'Helvetica', 'Avant Garde', sans-serif; text-anchor: middle" x="168.685893" y="192.97325" transform="rotate(-0 168.685893 192.97325)">0</text>
     </g>
    </g>
    <g id="xtick_5">
     <g id="line2d_5">
      <g>
       <use xlink:href="#mf7e475a455" x="202.670124" y="179.8945" style="stroke: #000000; stroke-width: 0.8"/>
      </g>
     </g>
     <g id="text_5">
      <text style="font-size: 8px; font-family: 'DejaVu Sans', 'Bitstream Vera Sans', 'Computer Modern Sans Serif', 'Lucida Grande', 'Verdana', 'Geneva', 'Lucid', 'Arial', 'Helvetica', 'Avant Garde', sans-serif; text-anchor: middle" x="202.670124" y="192.97325" transform="rotate(-0 202.670124 192.97325)">1</text>
     </g>
    </g>
    <g id="xtick_6">
     <g id="line2d_6">
      <g>
       <use xlink:href="#mf7e475a455" x="236.654355" y="179.8945" style="stroke: #000000; stroke-width: 0.8"/>
      </g>
     </g>
     <g id="text_6">
      <text style="font-size: 8px; font-family: 'DejaVu Sans', 'Bitstream Vera Sans', 'Computer Modern Sans Serif', 'Lucida Grande', 'Verdana', 'Geneva', 'Lucid', 'Arial', 'Helvetica', 'Avant Garde', sans-serif; text-anchor: middle" x="236.654355" y="192.97325" transform="rotate(-0 236.654355 192.97325)">2</text>
     </g>
    </g>
    <g id="xtick_7">
     <g id="line2d_7">
      <g>
       <use xlink:href="#mf7e475a455" x="270.638586" y="179.8945" style="stroke: #000000; stroke-width: 0.8"/>
      </g>
     </g>
     <g id="text_7">
      <text style="font-size: 8px; font-family: 'DejaVu Sans', 'Bitstream Vera Sans', 'Computer Modern Sans Serif', 'Lucida Grande', 'Verdana', 'Geneva', 'Lucid', 'Arial', 'Helvetica', 'Avant Garde', sans-serif; text-anchor: middle" x="270.638586" y="192.97325" transform="rotate(-0 270.638586 192.97325)">3</text>
     </g>
    </g>
    <g id="text_8">
     <text style="font-size: 8px; font-family: 'DejaVu Sans', 'Bitstream Vera Sans', 'Computer Modern Sans Serif', 'Lucida Grande', 'Verdana', 'Geneva', 'Lucid', 'Arial', 'Helvetica', 'Avant Garde', sans-serif; text-anchor: middle" x="158.535" y="204.71575" transform="rotate(-0 158.535 204.71575)">Log10 Enrichment Factor (SN/Lysate)</text>
    </g>
   </g>
   <g id="matplotlib.axis_2">
    <g id="ytick_1">
     <g id="line2d_8">
      <defs>
       <path id="m2198418c2a" d="M 0 0 
L -3.5 0 
" style="stroke: #000000; stroke-width: 0.8"/>
      </defs>
      <g>
       <use xlink:href="#m2198418c2a" x="38.665" y="179.8945" style="stroke: #000000; stroke-width: 0.8"/>
      </g>
     </g>
     <g id="text_9">
      <text style="font-size: 8px; font-family: 'DejaVu Sans', 'Bitstream Vera Sans', 'Computer Modern Sans Serif', 'Lucida Grande', 'Verdana', 'Geneva', 'Lucid', 'Arial', 'Helvetica', 'Avant Garde', sans-serif; text-anchor: end" x="31.665" y="182.933875" transform="rotate(-0 31.665 182.933875)">0.0</text>
     </g>
    </g>
    <g id="ytick_2">
     <g id="line2d_9">
      <g>
       <use xlink:href="#m2198418c2a" x="38.665" y="160.42342" style="stroke: #000000; stroke-width: 0.8"/>
      </g>
     </g>
     <g id="text_10">
      <text style="font-size: 8px; font-family: 'DejaVu Sans', 'Bitstream Vera Sans', 'Computer Modern Sans Serif', 'Lucida Grande', 'Verdana', 'Geneva', 'Lucid', 'Arial', 'Helvetica', 'Avant Garde', sans-serif; text-anchor: end" x="31.665" y="163.462795" transform="rotate(-0 31.665 163.462795)">0.1</text>
     </g>
    </g>
    <g id="ytick_3">
     <g id="line2d_10">
      <g>
       <use xlink:href="#m2198418c2a" x="38.665" y="140.95234" style="stroke: #000000; stroke-width: 0.8"/>
      </g>
     </g>
     <g id="text_11">
      <text style="font-size: 8px; font-family: 'DejaVu Sans', 'Bitstream Vera Sans', 'Computer Modern Sans Serif', 'Lucida Grande', 'Verdana', 'Geneva', 'Lucid', 'Arial', 'Helvetica', 'Avant Garde', sans-serif; text-anchor: end" x="31.665" y="143.991715" transform="rotate(-0 31.665 143.991715)">0.2</text>
     </g>
    </g>
    <g id="ytick_4">
     <g id="line2d_11">
      <g>
       <use xlink:href="#m2198418c2a" x="38.665" y="121.481259" style="stroke: #000000; stroke-width: 0.8"/>
      </g>
     </g>
     <g id="text_12">
      <text style="font-size: 8px; font-family: 'DejaVu Sans', 'Bitstream Vera Sans', 'Computer Modern Sans Serif', 'Lucida Grande', 'Verdana', 'Geneva', 'Lucid', 'Arial', 'Helvetica', 'Avant Garde', sans-serif; text-anchor: end" x="31.665" y="124.520634" transform="rotate(-0 31.665 124.520634)">0.3</text>
     </g>
    </g>
    <g id="ytick_5">
     <g id="line2d_12">
      <g>
       <use xlink:href="#m2198418c2a" x="38.665" y="102.010179" style="stroke: #000000; stroke-width: 0.8"/>
      </g>
     </g>
     <g id="text_13">
      <text style="font-size: 8px; font-family: 'DejaVu Sans', 'Bitstream Vera Sans', 'Computer Modern Sans Serif', 'Lucida Grande', 'Verdana', 'Geneva', 'Lucid', 'Arial', 'Helvetica', 'Avant Garde', sans-serif; text-anchor: end" x="31.665" y="105.049554" transform="rotate(-0 31.665 105.049554)">0.4</text>
     </g>
    </g>
    <g id="ytick_6">
     <g id="line2d_13">
      <g>
       <use xlink:href="#m2198418c2a" x="38.665" y="82.539099" style="stroke: #000000; stroke-width: 0.8"/>
      </g>
     </g>
     <g id="text_14">
      <text style="font-size: 8px; font-family: 'DejaVu Sans', 'Bitstream Vera Sans', 'Computer Modern Sans Serif', 'Lucida Grande', 'Verdana', 'Geneva', 'Lucid', 'Arial', 'Helvetica', 'Avant Garde', sans-serif; text-anchor: end" x="31.665" y="85.578474" transform="rotate(-0 31.665 85.578474)">0.5</text>
     </g>
    </g>
    <g id="ytick_7">
     <g id="line2d_14">
      <g>
       <use xlink:href="#m2198418c2a" x="38.665" y="63.068019" style="stroke: #000000; stroke-width: 0.8"/>
      </g>
     </g>
     <g id="text_15">
      <text style="font-size: 8px; font-family: 'DejaVu Sans', 'Bitstream Vera Sans', 'Computer Modern Sans Serif', 'Lucida Grande', 'Verdana', 'Geneva', 'Lucid', 'Arial', 'Helvetica', 'Avant Garde', sans-serif; text-anchor: end" x="31.665" y="66.107394" transform="rotate(-0 31.665 66.107394)">0.6</text>
     </g>
    </g>
    <g id="ytick_8">
     <g id="line2d_15">
      <g>
       <use xlink:href="#m2198418c2a" x="38.665" y="43.596939" style="stroke: #000000; stroke-width: 0.8"/>
      </g>
     </g>
     <g id="text_16">
      <text style="font-size: 8px; font-family: 'DejaVu Sans', 'Bitstream Vera Sans', 'Computer Modern Sans Serif', 'Lucida Grande', 'Verdana', 'Geneva', 'Lucid', 'Arial', 'Helvetica', 'Avant Garde', sans-serif; text-anchor: end" x="31.665" y="46.636314" transform="rotate(-0 31.665 46.636314)">0.7</text>
     </g>
    </g>
    <g id="ytick_9">
     <g id="line2d_16">
      <g>
       <use xlink:href="#m2198418c2a" x="38.665" y="24.125858" style="stroke: #000000; stroke-width: 0.8"/>
      </g>
     </g>
     <g id="text_17">
      <text style="font-size: 8px; font-family: 'DejaVu Sans', 'Bitstream Vera Sans', 'Computer Modern Sans Serif', 'Lucida Grande', 'Verdana', 'Geneva', 'Lucid', 'Arial', 'Helvetica', 'Avant Garde', sans-serif; text-anchor: end" x="31.665" y="27.165233" transform="rotate(-0 31.665 27.165233)">0.8</text>
     </g>
    </g>
    <g id="text_18">
     <text style="font-size: 8px; font-family: 'DejaVu Sans', 'Bitstream Vera Sans', 'Computer Modern Sans Serif', 'Lucida Grande', 'Verdana', 'Geneva', 'Lucid', 'Arial', 'Helvetica', 'Avant Garde', sans-serif; text-anchor: middle" x="13.27875" y="100.1945" transform="rotate(-90 13.27875 100.1945)">Density</text>
    </g>
   </g>
   <g id="line2d_17">
    <path d="M 40.377429 179.8945 
L 43.802286 179.8945 
L 47.227143 179.8945 
L 50.652 179.8945 
L 54.076857 179.8945 
L 57.501714 179.8945 
L 60.926571 179.8945 
L 64.351429 179.8945 
L 67.776286 179.8945 
L 71.201143 179.8945 
L 74.626 179.8945 
L 78.050857 179.8945 
L 81.475714 179.8945 
L 84.900571 179.8945 
L 88.325429 179.820123 
L 91.750286 179.737757 
L 95.175143 179.299488 
L 98.6 179.357884 
L 102.024857 179.055948 
L 105.449714 178.762871 
L 108.874571 177.970296 
L 112.299429 176.668636 
L 115.724286 174.987971 
L 119.149143 174.936468 
L 122.574 170.355424 
L 125.998857 167.54313 
L 129.423714 164.66865 
L 132.848571 159.717829 
L 136.273429 153.326591 
L 139.698286 147.153325 
L 143.123143 139.88754 
L 146.548 131.107202 
L 149.972857 123.624976 
L 153.397714 110.951568 
L 156.822571 106.843436 
L 160.247429 99.987941 
L 163.672286 86.003377 
L 167.097143 87.6065 
L 170.522 81.886974 
L 173.946857 80.456601 
L 177.371714 75.171412 
L 180.796571 74.215303 
L 184.221429 76.67084 
L 187.646286 85.210522 
L 191.071143 81.809777 
L 194.496 94.670371 
L 197.920857 94.902729 
L 201.345714 102.254365 
L 204.770571 114.749305 
L 208.195429 127.754746 
L 211.620286 132.988559 
L 215.045143 140.984682 
L 218.47 153.185089 
L 221.894857 158.572315 
L 225.319714 166.590775 
L 228.744571 168.548817 
L 232.169429 173.481792 
L 235.594286 175.818839 
L 239.019143 177.593703 
L 242.444 178.664383 
L 245.868857 178.697072 
L 249.293714 179.254239 
L 252.718571 179.64297 
L 256.143429 179.820123 
L 259.568286 179.807704 
L 262.993143 179.737757 
L 266.418 179.812133 
L 269.842857 179.8945 
L 273.267714 179.8945 
L 276.692571 179.8945 
" clip-path="url(#p2a5a399c97)" style="fill: none; stroke: #1f77b4; stroke-width: 1.5; stroke-linecap: square"/>
   </g>
   <g id="line2d_18">
    <path d="M 168.685893 179.8945 
L 168.685893 20.4945 
" clip-path="url(#p2a5a399c97)" style="fill: none; stroke-dasharray: 3.7,1.6; stroke-dashoffset: 0; stroke: #000000; stroke-opacity: 0.5"/>
   </g>
   <g id="patch_3">
    <path d="M 38.665 179.8945 
L 38.665 20.4945 
" style="fill: none; stroke: #000000; stroke-width: 0.8; stroke-linejoin: miter; stroke-linecap: square"/>
   </g>
   <g id="patch_4">
    <path d="M 278.405 179.8945 
L 278.405 20.4945 
" style="fill: none; stroke: #000000; stroke-width: 0.8; stroke-linejoin: miter; stroke-linecap: square"/>
   </g>
   <g id="patch_5">
    <path d="M 38.665 179.8945 
L 278.405 179.8945 
" style="fill: none; stroke: #000000; stroke-width: 0.8; stroke-linejoin: miter; stroke-linecap: square"/>
   </g>
   <g id="patch_6">
    <path d="M 38.665 20.4945 
L 278.405 20.4945 
" style="fill: none; stroke: #000000; stroke-width: 0.8; stroke-linejoin: miter; stroke-linecap: square"/>
   </g>
   <g id="text_19">
    <text style="font-size: 9.6px; font-family: 'DejaVu Sans', 'Bitstream Vera Sans', 'Computer Modern Sans Serif', 'Lucida Grande', 'Verdana', 'Geneva', 'Lucid', 'Arial', 'Helvetica', 'Avant Garde', sans-serif; text-anchor: middle" x="158.535" y="14.4945" transform="rotate(-0 158.535 14.4945)">Benchmarking comparison: MMLV-gag WT</text>
   </g>
   <g id="legend_1">
    <g id="patch_7">
     <path d="M 199.75875 50.3795 
L 272.805 50.3795 
Q 274.405 50.3795 274.405 48.7795 
L 274.405 26.0945 
Q 274.405 24.4945 272.805 24.4945 
L 199.75875 24.4945 
Q 198.15875 24.4945 198.15875 26.0945 
L 198.15875 48.7795 
Q 198.15875 50.3795 199.75875 50.3795 
z
" style="fill: #ffffff; opacity: 0.8; stroke: #cccccc; stroke-linejoin: miter"/>
    </g>
    <g id="line2d_19">
     <path d="M 201.35875 30.97325 
L 209.35875 30.97325 
L 217.35875 30.97325 
" style="fill: none; stroke: #1f77b4; stroke-width: 1.5; stroke-linecap: square"/>
    </g>
    <g id="text_20">
     <text style="font-size: 8px; font-family: 'DejaVu Sans', 'Bitstream Vera Sans', 'Computer Modern Sans Serif', 'Lucida Grande', 'Verdana', 'Geneva', 'Lucid', 'Arial', 'Helvetica', 'Avant Garde', sans-serif; text-anchor: start" x="223.75875" y="33.77325" transform="rotate(-0 223.75875 33.77325)">Mean (n=3)</text>
    </g>
    <g id="patch_8">
     <path d="M 201.35875 45.51575 
L 217.35875 45.51575 
L 217.35875 39.91575 
L 201.35875 39.91575 
z
" style="fill: #1f77b4; fill-opacity: 0.3; stroke: #1f77b4; stroke-opacity: 0.3; stroke-linejoin: miter"/>
    </g>
    <g id="text_21">
     <text style="font-size: 8px; font-family: 'DejaVu Sans', 'Bitstream Vera Sans', 'Computer Modern Sans Serif', 'Lucida Grande', 'Verdana', 'Geneva', 'Lucid', 'Arial', 'Helvetica', 'Avant Garde', sans-serif; text-anchor: start" x="223.75875" y="45.51575" transform="rotate(-0 223.75875 45.51575)">95% CI</text>
    </g>
   </g>
  </g>
 </g>
 <defs>
  <clipPath id="p2a5a399c97">
   <rect x="38.665" y="20.4945" width="239.74" height="159.4"/>
  </clipPath>
 </defs>
</svg>
