<?xml version="1.0" encoding="utf-8" standalone="no"?>
<!DOCTYPE svg PUBLIC "-//W3C//DTD SVG 1.1//EN"
  "http://www.w3.org/Graphics/SVG/1.1/DTD/svg11.dtd">
<svg xmlns:xlink="http://www.w3.org/1999/xlink" width="285.605pt" height="213.5795pt" viewBox="0 0 285.605 213.5795" xmlns="http://www.w3.org/2000/svg" version="1.1">
 <metadata>
  <rdf:RDF xmlns:dc="http://purl.org/dc/elements/1.1/" xmlns:cc="http://creativecommons.org/ns#" xmlns:rdf="http://www.w3.org/1999/02/22-rdf-syntax-ns#">
   <cc:Work>
    <dc:type rdf:resource="http://purl.org/dc/dcmitype/StillImage"/>
    <dc:date>2026-04-02T08:50:53.638012</dc:date>
    <dc:format>image/svg+xml</dc:format>
    <dc:creator>
     <cc:Agent>
      <dc:title>Matplotlib v3.10.8, https://matplotlib.org/</dc:title>
     </cc:Agent>
    </dc:creator>
   </cc:Work>
  </rdf:RDF>
 </metadata>
 <defs>
  <style type="text/css">*{stroke-linejoin: round; stroke-linecap: butt}</style>
 </defs>
 <g id="figure_1">
  <g id="patch_1">
   <path d="M 0 213.5795 
L 285.605 213.5795 
L 285.605 0 
L 0 0 
z
" style="fill: #ffffff"/>
  </g>
  <g id="axes_1">
   <g id="patch_2">
    <path d="M 38.665 179.8945 
L 278.405 179.8945 
L 278.405 20.4945 
L 38.665 20.4945 
z
" style="fill: #ffffff"/>
   </g>
   <g id="FillBetweenPolyCollection_1">
    <defs>
     <path id="m9bf8994b0c" d="M 40.377429 -33.685 
L 40.377429 -33.685 
L 43.802286 -33.685 
L 47.227143 -33.685 
L 50.652 -33.685 
L 54.076857 -33.685 
L 57.501714 -33.685 
L 60.926571 -33.685 
L 64.351429 -33.685 
L 67.776286 -33.685 
L 71.201143 -33.685 
L 74.626 -33.617126 
L 78.050857 -33.685 
L 81.475714 -33.685 
L 84.900571 -33.685 
L 88.325429 -33.617126 
L 91.750286 -33.462922 
L 95.175143 -33.679123 
L 98.6 -33.663165 
L 102.024857 -33.548667 
L 105.449714 -33.52389 
L 108.874571 -34.299809 
L 112.299429 -35.200431 
L 115.724286 -35.014892 
L 119.149143 -35.223374 
L 122.574 -35.937969 
L 125.998857 -37.80636 
L 129.423714 -39.462358 
L 132.848571 -40.529361 
L 136.273429 -44.898683 
L 139.698286 -42.206353 
L 143.123143 -51.87748 
L 146.548 -53.549003 
L 149.972857 -61.694372 
L 153.397714 -65.971882 
L 156.822571 -80.27704 
L 160.247429 -88.74162 
L 163.672286 -109.50863 
L 167.097143 -124.863108 
L 170.522 -137.84535 
L 173.946857 -145.942411 
L 177.371714 -162.702236 
L 180.796571 -162.806143 
L 184.221429 -154.225308 
L 187.646286 -147.504635 
L 191.071143 -126.068615 
L 194.496 -110.459275 
L 197.920857 -91.741799 
L 201.345714 -79.065117 
L 204.770571 -69.24099 
L 208.195429 -59.010828 
L 211.620286 -51.79824 
L 215.045143 -45.939753 
L 218.47 -42.032998 
L 221.894857 -38.92671 
L 225.319714 -34.895088 
L 228.744571 -34.497232 
L 232.169429 -33.601098 
L 235.594286 -34.267099 
L 239.019143 -33.874547 
L 242.444 -33.69117 
L 245.868857 -33.593511 
L 249.293714 -33.593623 
L 252.718571 -33.388896 
L 256.143429 -33.685 
L 259.568286 -33.536877 
L 262.993143 -33.610974 
L 266.418 -33.685 
L 269.842857 -33.685 
L 273.267714 -33.685 
L 276.692571 -33.685 
L 276.692571 -33.685 
L 276.692571 -33.685 
L 273.267714 -33.685 
L 269.842857 -33.685 
L 266.418 -33.685 
L 262.993143 -33.913247 
L 259.568286 -34.141713 
L 256.143429 -33.685 
L 252.718571 -34.597988 
L 249.293714 -34.393335 
L 245.868857 -35.16492 
L 242.444 -34.295861 
L 239.019143 -36.876162 
L 235.594286 -37.537671 
L 232.169429 -41.108236 
L 228.744571 -45.122647 
L 225.319714 -48.709641 
L 221.894857 -55.887816 
L 218.47 -61.972233 
L 215.045143 -73.902863 
L 211.620286 -81.117916 
L 208.195429 -98.766306 
L 204.770571 -109.220174 
L 201.345714 -119.784376 
L 197.920857 -142.587789 
L 194.496 -151.921446 
L 191.071143 -159.976673 
L 187.646286 -170.280103 
L 184.221429 -170.228453 
L 180.796571 -178.052132 
L 177.371714 -170.995685 
L 173.946857 -185.494524 
L 170.522 -175.014939 
L 167.097143 -166.026271 
L 163.672286 -155.091674 
L 160.247429 -139.853341 
L 156.822571 -120.783061 
L 153.397714 -104.610843 
L 149.972857 -90.453447 
L 146.548 -79.663591 
L 143.123143 -66.719796 
L 139.698286 -58.817146 
L 136.273429 -52.487489 
L 132.848571 -48.180035 
L 129.423714 -44.091784 
L 125.998857 -42.161532 
L 122.574 -40.430415 
L 119.149143 -37.481586 
L 115.724286 -36.648675 
L 112.299429 -36.514698 
L 108.874571 -35.435415 
L 105.449714 -35.581487 
L 102.024857 -34.541245 
L 98.6 -34.143865 
L 95.175143 -34.423532 
L 91.750286 -34.369741 
L 88.325429 -33.894279 
L 84.900571 -33.685 
L 81.475714 -33.685 
L 78.050857 -33.685 
L 74.626 -33.894279 
L 71.201143 -33.685 
L 67.776286 -33.685 
L 64.351429 -33.685 
L 60.926571 -33.685 
L 57.501714 -33.685 
L 54.076857 -33.685 
L 50.652 -33.685 
L 47.227143 -33.685 
L 43.802286 -33.685 
L 40.377429 -33.685 
z
" style="stroke: #1f77b4; stroke-opacity: 0.3"/>
    </defs>
    <g clip-path="url(#p480c1dbef6)">
     <use xlink:href="#m9bf8994b0c" x="0" y="213.5795" style="fill: #1f77b4; fill-opacity: 0.3; stroke: #1f77b4; stroke-opacity: 0.3"/>
    </g>
   </g>
   <g id="matplotlib.axis_1">
    <g id="xtick_1">
     <g id="line2d_1">
      <defs>
       <path id="ma7011ed2d8" d="M 0 0 
L 0 3.5 
" style="stroke: #000000; stroke-width: 0.8"/>
      </defs>
      <g>
       <use xlink:href="#ma7011ed2d8" x="66.7332" y="179.8945" style="stroke: #000000; stroke-width: 0.8"/>
      </g>
     </g>
     <g id="text_1">
      <text style="font-size: 8px; font-family: 'DejaVu Sans', 'Bitstream Vera Sans', 'Computer Modern Sans Serif', 'Lucida Grande', 'Verdana', 'Geneva', 'Lucid', 'Arial', 'Helvetica', 'Avant Garde', sans-serif; text-anchor: middle" x="66.7332" y="192.97325" transform="rotate(-0 66.7332 192.97325)">−3</text>
     </g>
    </g>
    <g id="xtick_2">
     <g id="line2d_2">
      <g>
       <use xlink:href="#ma7011ed2d8" x="100.717431" y="179.8945" style="stroke: #000000; stroke-width: 0.8"/>
      </g>
     </g>
     <g id="text_2">
      <text style="font-size: 8px; font-family: 'DejaVu Sans', 'Bitstream Vera Sans', 'Computer Modern Sans Serif', 'Lucida Grande', 'Verdana', 'Geneva', 'Lucid', 'Arial', 'Helvetica', 'Avant Garde', sans-serif; text-anchor: middle" x="100.717431" y="192.97325" transform="rotate(-0 100.717431 192.97325)">−2</text>
     </g>
    </g>
    <g id="xtick_3">
     <g id="line2d_3">
      <g>
       <use xlink:href="#ma7011ed2d8" x="134.701662" y="179.8945" style="stroke: #000000; stroke-width: 0.8"/>
      </g>
     </g>
     <g id="text_3">
      <text style="font-size: 8px; font-family: 'DejaVu Sans', 'Bitstream Vera Sans', 'Computer Modern Sans Serif', 'Lucida Grande', 'Verdana', 'Geneva', 'Lucid', 'Arial', 'Helvetica', 'Avant Garde', sans-serif; text-anchor: middle" x="134.701662" y="192.97325" transform="rotate(-0 134.701662 192.97325)">−1</text>
     </g>
    </g>
    <g id="xtick_4">
     <g id="line2d_4">
      <g>
       <use xlink:href="#ma7011ed2d8" x="168.685893" y="179.8945" style="stroke: #000000; stroke-width: 0.8"/>
      </g>
     </g>
     <g id="text_4">
      <text style="font-size: 8px; font-family: 'DejaVu Sans', 'Bitstream Vera Sans', 'Computer Modern Sans Serif', 'Lucida Grande', 'Verdana', 'Geneva', 'Lucid', 'Arial', 'Helvetica', 'Avant Garde', sans-serif; text-anchor: middle" x="168.685893" y="192.97325" transform="rotate(-0 168.685893 192.97325)">0</text>
     </g>
    </g>
    <g id="xtick_5">
     <g id="line2d_5">
      <g>
       <use xlink:href="#ma7011ed2d8" x="202.670124" y="179.8945" style="stroke: #000000; stroke-width: 0.8"/>
      </g>
     </g>
     <g id="text_5">
      <text style="font-size: 8px; font-family: 'DejaVu Sans', 'Bitstream Vera Sans', 'Computer Modern Sans Serif', 'Lucida Grande', 'Verdana', 'Geneva', 'Lucid', 'Arial', 'Helvetica', 'Avant Garde', sans-serif; text-anchor: middle" x="202.670124" y="192.97325" transform="rotate(-0 202.670124 192.97325)">1</text>
     </g>
    </g>
    <g id="xtick_6">
     <g id="line2d_6">
      <g>
       <use xlink:href="#ma7011ed2d8" x="236.654355" y="179.8945" style="stroke: #000000; stroke-width: 0.8"/>
      </g>
     </g>
     <g id="text_6">
      <text style="font-size: 8px; font-family: 'DejaVu Sans', 'Bitstream Vera Sans', 'Computer Modern Sans Serif', 'Lucida Grande', 'Verdana', 'Geneva', 'Lucid', 'Arial', 'Helvetica', 'Avant Garde', sans-serif; text-anchor: middle" x="236.654355" y="192.97325" transform="rotate(-0 236.654355 192.97325)">2</text>
     </g>
    </g>
    <g id="xtick_7">
     <g id="line2d_7">
      <g>
       <use xlink:href="#ma7011ed2d8" x="270.638586" y="179.8945" style="stroke: #000000; stroke-width: 0.8"/>
      </g>
     </g>
     <g id="text_7">
      <text style="font-size: 8px; font-family: 'DejaVu Sans', 'Bitstream Vera Sans', 'Computer Modern Sans Serif', 'Lucida Grande', 'Verdana', 'Geneva', 'Lucid', 'Arial', 'Helvetica', 'Avant Garde', sans-serif; text-anchor: middle" x="270.638586" y="192.97325" transform="rotate(-0 270.638586 192.97325)">3</text>
     </g>
    </g>
    <g id="text_8">
     <text style="font-size: 8px; font-family: 'DejaVu Sans', 'Bitstream Vera Sans', 'Computer Modern Sans Serif', 'Lucida Grande', 'Verdana', 'Geneva', 'Lucid', 'Arial', 'Helvetica', 'Avant Garde', sans-serif; text-anchor: middle" x="158.535" y="204.71575" transform="rotate(-0 158.535 204.71575)">Log10 Enrichment Factor (SN/Lysate)</text>
    </g>
   </g>
   <g id="matplotlib.axis_2">
    <g id="ytick_1">
     <g id="line2d_8">
      <defs>
       <path id="m40da685b32" d="M 0 0 
L -3.5 0 
" style="stroke: #000000; stroke-width: 0.8"/>
      </defs>
      <g>
       <use xlink:href="#m40da685b32" x="38.665" y="179.8945" style="stroke: #000000; stroke-width: 0.8"/>
      </g>
     </g>
     <g id="text_9">
      <text style="font-size: 8px; font-family: 'DejaVu Sans', 'Bitstream Vera Sans', 'Computer Modern Sans Serif', 'Lucida Grande', 'Verdana', 'Geneva', 'Lucid', 'Arial', 'Helvetica', 'Avant Garde', sans-serif; text-anchor: end" x="31.665" y="182.933875" transform="rotate(-0 31.665 182.933875)">0.0</text>
     </g>
    </g>
    <g id="ytick_2">
     <g id="line2d_9">
      <g>
       <use xlink:href="#m40da685b32" x="38.665" y="160.42342" style="stroke: #000000; stroke-width: 0.8"/>
      </g>
     </g>
     <g id="text_10">
      <text style="font-size: 8px; font-family: 'DejaVu Sans', 'Bitstream Vera Sans', 'Computer Modern Sans Serif', 'Lucida Grande', 'Verdana', 'Geneva', 'Lucid', 'Arial', 'Helvetica', 'Avant Garde', sans-serif; text-anchor: end" x="31.665" y="163.462795" transform="rotate(-0 31.665 163.462795)">0.1</text>
     </g>
    </g>
    <g id="ytick_3">
     <g id="line2d_10">
      <g>
       <use xlink:href="#m40da685b32" x="38.665" y="140.95234" style="stroke: #000000; stroke-width: 0.8"/>
      </g>
     </g>
     <g id="text_11">
      <text style="font-size: 8px; font-family: 'DejaVu Sans', 'Bitstream Vera Sans', 'Computer Modern Sans Serif', 'Lucida Grande', 'Verdana', 'Geneva', 'Lucid', 'Arial', 'Helvetica', 'Avant Garde', sans-serif; text-anchor: end" x="31.665" y="143.991715" transform="rotate(-0 31.665 143.991715)">0.2</text>
     </g>
    </g>
    <g id="ytick_4">
     <g id="line2d_11">
      <g>
       <use xlink:href="#m40da685b32" x="38.665" y="121.481259" style="stroke: #000000; stroke-width: 0.8"/>
      </g>
     </g>
     <g id="text_12">
      <text style="font-size: 8px; font-family: 'DejaVu Sans', 'Bitstream Vera Sans', 'Computer Modern Sans Serif', 'Lucida Grande', 'Verdana', 'Geneva', 'Lucid', 'Arial', 'Helvetica', 'Avant Garde', sans-serif; text-anchor: end" x="31.665" y="124.520634" transform="rotate(-0 31.665 124.520634)">0.3</text>
     </g>
    </g>
    <g id="ytick_5">
     <g id="line2d_12">
      <g>
       <use xlink:href="#m40da685b32" x="38.665" y="102.010179" style="stroke: #000000; stroke-width: 0.8"/>
      </g>
     </g>
     <g id="text_13">
      <text style="font-size: 8px; font-family: 'DejaVu Sans', 'Bitstream Vera Sans', 'Computer Modern Sans Serif', 'Lucida Grande', 'Verdana', 'Geneva', 'Lucid', 'Arial', 'Helvetica', 'Avant Garde', sans-serif; text-anchor: end" x="31.665" y="105.049554" transform="rotate(-0 31.665 105.049554)">0.4</text>
     </g>
    </g>
    <g id="ytick_6">
     <g id="line2d_13">
      <g>
       <use xlink:href="#m40da685b32" x="38.665" y="82.539099" style="stroke: #000000; stroke-width: 0.8"/>
      </g>
     </g>
     <g id="text_14">
      <text style="font-size: 8px; font-family: 'DejaVu Sans', 'Bitstream Vera Sans', 'Computer Modern Sans Serif', 'Lucida Grande', 'Verdana', 'Geneva', 'Lucid', 'Arial', 'Helvetica', 'Avant Garde', sans-serif; text-anchor: end" x="31.665" y="85.578474" transform="rotate(-0 31.665 85.578474)">0.5</text>
     </g>
    </g>
    <g id="ytick_7">
     <g id="line2d_14">
      <g>
       <use xlink:href="#m40da685b32" x="38.665" y="63.068019" style="stroke: #000000; stroke-width: 0.8"/>
      </g>
     </g>
     <g id="text_15">
      <text style="font-size: 8px; font-family: 'DejaVu Sans', 'Bitstream Vera Sans', 'Computer Modern Sans Serif', 'Lucida Grande', 'Verdana', 'Geneva', 'Lucid', 'Arial', 'Helvetica', 'Avant Garde', sans-serif; text-anchor: end" x="31.665" y="66.107394" transform="rotate(-0 31.665 66.107394)">0.6</text>
     </g>
    </g>
    <g id="ytick_8">
     <g id="line2d_15">
      <g>
       <use xlink:href="#m40da685b32" x="38.665" y="43.596939" style="stroke: #000000; stroke-width: 0.8"/>
      </g>
     </g>
     <g id="text_16">
      <text style="font-size: 8px; font-family: 'DejaVu Sans', 'Bitstream Vera Sans', 'Computer Modern Sans Serif', 'Lucida Grande', 'Verdana', 'Geneva', 'Lucid', 'Arial', 'Helvetica', 'Avant Garde', sans-serif; text-anchor: end" x="31.665" y="46.636314" transform="rotate(-0 31.665 46.636314)">0.7</text>
     </g>
    </g>
    <g id="ytick_9">
     <g id="line2d_16">
      <g>
       <use xlink:href="#m40da685b32" x="38.665" y="24.125858" style="stroke: #000000; stroke-width: 0.8"/>
      </g>
     </g>
     <g id="text_17">
      <text style="font-size: 8px; font-family: 'DejaVu Sans', 'Bitstream Vera Sans', 'Computer Modern Sans Serif', 'Lucida Grande', 'Verdana', 'Geneva', 'Lucid', 'Arial', 'Helvetica', 'Avant Garde', sans-serif; text-anchor: end" x="31.665" y="27.165233" transform="rotate(-0 31.665 27.165233)">0.8</text>
     </g>
    </g>
    <g id="text_18">
     <text style="font-size: 8px; font-family: 'DejaVu Sans', 'Bitstream Vera Sans', 'Computer Modern Sans Serif', 'Lucida Grande', 'Verdana', 'Geneva', 'Lucid', 'Arial', 'Helvetica', 'Avant Garde', sans-serif; text-anchor: middle" x="13.27875" y="100.1945" transform="rotate(-90 13.27875 100.1945)">Density</text>
    </g>
   </g>
   <g id="line2d_17">
    <path d="M 40.377429 179.8945 
L 43.802286 179.8945 
L 47.227143 179.8945 
L 50.652 179.8945 
L 54.076857 179.8945 
L 57.501714 179.8945 
L 60.926571 179.8945 
L 64.351429 179.8945 
L 67.776286 179.8945 
L 71.201143 179.8945 
L 74.626 179.823798 
L 78.050857 179.8945 
L 81.475714 179.8945 
L 84.900571 179.8945 
L 88.325429 179.823798 
L 91.750286 179.663169 
L 95.175143 179.528172 
L 98.6 179.675985 
L 102.024857 179.534544 
L 105.449714 179.026812 
L 108.874571 178.711888 
L 112.299429 177.721936 
L 115.724286 177.747716 
L 119.149143 177.22702 
L 122.574 175.395308 
L 125.998857 173.595554 
L 129.423714 171.802429 
L 132.848571 169.224802 
L 136.273429 164.886414 
L 139.698286 163.06775 
L 143.123143 154.280862 
L 146.548 146.973203 
L 149.972857 137.50559 
L 153.397714 128.288138 
L 156.822571 113.049449 
L 160.247429 99.282019 
L 163.672286 81.279348 
L 167.097143 68.13481 
L 170.522 57.149355 
L 173.946857 47.861033 
L 177.371714 46.73054 
L 180.796571 43.150363 
L 184.221429 51.35262 
L 187.646286 54.687131 
L 191.071143 70.556856 
L 194.496 82.389139 
L 197.920857 96.414706 
L 201.345714 114.154753 
L 204.770571 124.348918 
L 208.195429 134.690933 
L 211.620286 147.121422 
L 215.045143 153.658192 
L 218.47 161.576885 
L 221.894857 166.172237 
L 225.319714 171.777135 
L 228.744571 173.76956 
L 232.169429 176.224833 
L 235.594286 177.677115 
L 239.019143 178.204146 
L 242.444 179.585984 
L 245.868857 179.200284 
L 249.293714 179.586021 
L 252.718571 179.586058 
L 256.143429 179.8945 
L 259.568286 179.740205 
L 262.993143 179.81739 
L 266.418 179.8945 
L 269.842857 179.8945 
L 273.267714 179.8945 
L 276.692571 179.8945 
" clip-path="url(#p480c1dbef6)" style="fill: none; stroke: #1f77b4; stroke-width: 1.5; stroke-linecap: square"/>
   </g>
   <g id="line2d_18">
    <path d="M 168.685893 179.8945 
L 168.685893 20.4945 
" clip-path="url(#p480c1dbef6)" style="fill: none; stroke-dasharray: 3.7,1.6; stroke-dashoffset: 0; stroke: #000000; stroke-opacity: 0.5"/>
   </g>
   <g id="patch_3">
    <path d="M 38.665 179.8945 
L 38.665 20.4945 
" style="fill: none; stroke: #000000; stroke-width: 0.8; stroke-linejoin: miter; stroke-linecap: square"/>
   </g>
   <g id="patch_4">
    <path d="M 278.405 179.8945 
L 278.405 20.4945 
" style="fill: none; stroke: #000000; stroke-width: 0.8; stroke-linejoin: miter; stroke-linecap: square"/>
   </g>
   <g id="patch_5">
    <path d="M 38.665 179.8945 
L 278.405 179.8945 
" style="fill: none; stroke: #000000; stroke-width: 0.8; stroke-linejoin: miter; stroke-linecap: square"/>
   </g>
   <g id="patch_6">
    <path d="M 38.665 20.4945 
L 278.405 20.4945 
" style="fill: none; stroke: #000000; stroke-width: 0.8; stroke-linejoin: miter; stroke-linecap: square"/>
   </g>
   <g id="text_19">
    <text style="font-size: 9.6px; font-family: 'DejaVu Sans', 'Bitstream Vera Sans', 'Computer Modern Sans Serif', 'Lucida Grande', 'Verdana', 'Geneva', 'Lucid', 'Arial', 'Helvetica', 'Avant Garde', sans-serif; text-anchor: middle" x="158.535" y="14.4945" transform="rotate(-0 158.535 14.4945)">Benchmarking comparison: NTVE</text>
   </g>
   <g id="legend_1">
    <g id="patch_7">
     <path d="M 199.75875 50.3795 
L 272.805 50.3795 
Q 274.405 50.3795 274.405 48.7795 
L 274.405 26.0945 
Q 274.405 24.4945 272.805 24.4945 
L 199.75875 24.4945 
Q 198.15875 24.4945 198.15875 26.0945 
L 198.15875 48.7795 
Q 198.15875 50.3795 199.75875 50.3795 
z
" style="fill: #ffffff; opacity: 0.8; stroke: #cccccc; stroke-linejoin: miter"/>
    </g>
    <g id="line2d_19">
     <path d="M 201.35875 30.97325 
L 209.35875 30.97325 
L 217.35875 30.97325 
" style="fill: none; stroke: #1f77b4; stroke-width: 1.5; stroke-linecap: square"/>
    </g>
    <g id="text_20">
     <text style="font-size: 8px; font-family: 'DejaVu Sans', 'Bitstream Vera Sans', 'Computer Modern Sans Serif', 'Lucida Grande', 'Verdana', 'Geneva', 'Lucid', 'Arial', 'Helvetica', 'Avant Garde', sans-serif; text-anchor: start" x="223.75875" y="33.77325" transform="rotate(-0 223.75875 33.77325)">Mean (n=3)</text>
    </g>
    <g id="patch_8">
     <path d="M 201.35875 45.51575 
L 217.35875 45.51575 
L 217.35875 39.91575 
L 201.35875 39.91575 
z
" style="fill: #1f77b4; fill-opacity: 0.3; stroke: #1f77b4; stroke-opacity: 0.3; stroke-linejoin: miter"/>
    </g>
    <g id="text_21">
     <text style="font-size: 8px; font-family: 'DejaVu Sans', 'Bitstream Vera Sans', 'Computer Modern Sans Serif', 'Lucida Grande', 'Verdana', 'Geneva', 'Lucid', 'Arial', 'Helvetica', 'Avant Garde', sans-serif; text-anchor: start" x="223.75875" y="45.51575" transform="rotate(-0 223.75875 45.51575)">95% CI</text>
    </g>
   </g>
  </g>
 </g>
 <defs>
  <clipPath id="p480c1dbef6">
   <rect x="38.665" y="20.4945" width="239.74" height="159.4"/>
  </clipPath>
 </defs>
</svg>
