<?xml version="1.0" encoding="utf-8" standalone="no"?>
<!DOCTYPE svg PUBLIC "-//W3C//DTD SVG 1.1//EN"
  "http://www.w3.org/Graphics/SVG/1.1/DTD/svg11.dtd">
<svg xmlns:xlink="http://www.w3.org/1999/xlink" width="596.93875pt" height="252.220937pt" viewBox="0 0 596.93875 252.220937" xmlns="http://www.w3.org/2000/svg" version="1.1">
 <metadata>
  <rdf:RDF xmlns:dc="http://purl.org/dc/elements/1.1/" xmlns:cc="http://creativecommons.org/ns#" xmlns:rdf="http://www.w3.org/1999/02/22-rdf-syntax-ns#">
   <cc:Work>
    <dc:type rdf:resource="http://purl.org/dc/dcmitype/StillImage"/>
    <dc:date>2026-04-07T12:58:29.110721</dc:date>
    <dc:format>image/svg+xml</dc:format>
    <dc:creator>
     <cc:Agent>
      <dc:title>Matplotlib v3.9.0, https://matplotlib.org/</dc:title>
     </cc:Agent>
    </dc:creator>
   </cc:Work>
  </rdf:RDF>
 </metadata>
 <defs>
  <style type="text/css">*{stroke-linejoin: round; stroke-linecap: butt}</style>
 </defs>
 <g id="figure_1">
  <g id="patch_1">
   <path d="M 0 252.220937 
L 596.93875 252.220937 
L 596.93875 0 
L 0 0 
z
" style="fill: #ffffff"/>
  </g>
  <g id="axes_1">
   <g id="patch_2">
    <path d="M 138.55875 245.020937 
L 589.73875 245.020937 
L 589.73875 30.040937 
L 138.55875 30.040937 
z
" style="fill: #ffffff"/>
   </g>
   <g id="line2d_1">
    <path d="M 145.19375 41.984271 
L 583.10375 41.984271 
" clip-path="url(#p2f8044f271)" style="fill: none; stroke: #efefef; stroke-width: 14; stroke-linecap: round"/>
   </g>
   <g id="line2d_2">
    <path d="M 145.19375 65.870937 
L 583.10375 65.870937 
" clip-path="url(#p2f8044f271)" style="fill: none; stroke: #efefef; stroke-width: 14; stroke-linecap: round"/>
   </g>
   <g id="line2d_3">
    <path d="M 145.19375 89.757604 
L 583.10375 89.757604 
" clip-path="url(#p2f8044f271)" style="fill: none; stroke: #efefef; stroke-width: 14; stroke-linecap: round"/>
   </g>
   <g id="line2d_4">
    <path d="M 145.19375 113.644271 
L 583.10375 113.644271 
" clip-path="url(#p2f8044f271)" style="fill: none; stroke: #efefef; stroke-width: 14; stroke-linecap: round"/>
   </g>
   <g id="line2d_5">
    <path d="M 145.19375 137.530937 
L 583.10375 137.530937 
" clip-path="url(#p2f8044f271)" style="fill: none; stroke: #efefef; stroke-width: 14; stroke-linecap: round"/>
   </g>
   <g id="line2d_6">
    <path d="M 145.19375 161.417604 
L 583.10375 161.417604 
" clip-path="url(#p2f8044f271)" style="fill: none; stroke: #efefef; stroke-width: 14; stroke-linecap: round"/>
   </g>
   <g id="line2d_7">
    <path d="M 145.19375 185.304271 
L 583.10375 185.304271 
" clip-path="url(#p2f8044f271)" style="fill: none; stroke: #efefef; stroke-width: 14; stroke-linecap: round"/>
   </g>
   <g id="line2d_8">
    <path d="M 145.19375 209.190937 
L 583.10375 209.190937 
" clip-path="url(#p2f8044f271)" style="fill: none; stroke: #efefef; stroke-width: 14; stroke-linecap: round"/>
   </g>
   <g id="line2d_9">
    <path d="M 145.19375 233.077604 
L 583.10375 233.077604 
" clip-path="url(#p2f8044f271)" style="fill: none; stroke: #efefef; stroke-width: 14; stroke-linecap: round"/>
   </g>
   <g id="line2d_10">
    <path d="M 142.982083 245.020937 
L 142.982083 30.040937 
" clip-path="url(#p2f8044f271)" style="fill: none; stroke-dasharray: 1.2,1.2; stroke-dashoffset: 0; stroke: #999999; stroke-width: 0.6"/>
   </g>
   <g id="line2d_11">
    <path d="M 187.215417 245.020937 
L 187.215417 30.040937 
" clip-path="url(#p2f8044f271)" style="fill: none; stroke-dasharray: 1.2,1.2; stroke-dashoffset: 0; stroke: #999999; stroke-width: 0.6"/>
   </g>
   <g id="line2d_12">
    <path d="M 231.44875 245.020937 
L 231.44875 30.040937 
" clip-path="url(#p2f8044f271)" style="fill: none; stroke-dasharray: 1.2,1.2; stroke-dashoffset: 0; stroke: #999999; stroke-width: 0.6"/>
   </g>
   <g id="line2d_13">
    <path d="M 275.682083 245.020937 
L 275.682083 30.040937 
" clip-path="url(#p2f8044f271)" style="fill: none; stroke-dasharray: 1.2,1.2; stroke-dashoffset: 0; stroke: #999999; stroke-width: 0.6"/>
   </g>
   <g id="line2d_14">
    <path d="M 319.915417 245.020937 
L 319.915417 30.040937 
" clip-path="url(#p2f8044f271)" style="fill: none; stroke-dasharray: 1.2,1.2; stroke-dashoffset: 0; stroke: #999999; stroke-width: 0.6"/>
   </g>
   <g id="line2d_15">
    <path d="M 364.14875 245.020937 
L 364.14875 30.040937 
" clip-path="url(#p2f8044f271)" style="fill: none; stroke-dasharray: 1.2,1.2; stroke-dashoffset: 0; stroke: #999999; stroke-width: 0.6"/>
   </g>
   <g id="line2d_16">
    <path d="M 408.382083 245.020937 
L 408.382083 30.040937 
" clip-path="url(#p2f8044f271)" style="fill: none; stroke-dasharray: 1.2,1.2; stroke-dashoffset: 0; stroke: #999999; stroke-width: 0.6"/>
   </g>
   <g id="line2d_17">
    <path d="M 452.615417 245.020937 
L 452.615417 30.040937 
" clip-path="url(#p2f8044f271)" style="fill: none; stroke-dasharray: 1.2,1.2; stroke-dashoffset: 0; stroke: #999999; stroke-width: 0.6"/>
   </g>
   <g id="line2d_18">
    <path d="M 496.84875 245.020937 
L 496.84875 30.040937 
" clip-path="url(#p2f8044f271)" style="fill: none; stroke-dasharray: 1.2,1.2; stroke-dashoffset: 0; stroke: #999999; stroke-width: 0.6"/>
   </g>
   <g id="line2d_19">
    <path d="M 541.082083 245.020937 
L 541.082083 30.040937 
" clip-path="url(#p2f8044f271)" style="fill: none; stroke-dasharray: 1.2,1.2; stroke-dashoffset: 0; stroke: #999999; stroke-width: 0.6"/>
   </g>
   <g id="line2d_20">
    <path d="M 585.315417 245.020937 
L 585.315417 30.040937 
" clip-path="url(#p2f8044f271)" style="fill: none; stroke-dasharray: 1.2,1.2; stroke-dashoffset: 0; stroke: #999999; stroke-width: 0.6"/>
   </g>
   <g id="matplotlib.axis_1">
    <g id="xtick_1">
     <g id="line2d_21"/>
     <g id="text_1">
      <!-- d0 -->
      <g transform="translate(160.014375 24.877187) scale(0.08 -0.08)">
       <defs>
        <path id="DejaVuSans-64" d="M 2906 2969 
L 2906 4863 
L 3481 4863 
L 3481 0 
L 2906 0 
L 2906 525 
Q 2725 213 2448 61 
Q 2172 -91 1784 -91 
Q 1150 -91 751 415 
Q 353 922 353 1747 
Q 353 2572 751 3078 
Q 1150 3584 1784 3584 
Q 2172 3584 2448 3432 
Q 2725 3281 2906 2969 
z
M 947 1747 
Q 947 1113 1208 752 
Q 1469 391 1925 391 
Q 2381 391 2643 752 
Q 2906 1113 2906 1747 
Q 2906 2381 2643 2742 
Q 2381 3103 1925 3103 
Q 1469 3103 1208 2742 
Q 947 2381 947 1747 
z
" transform="scale(0.015625)"/>
        <path id="DejaVuSans-30" d="M 2034 4250 
Q 1547 4250 1301 3770 
Q 1056 3291 1056 2328 
Q 1056 1369 1301 889 
Q 1547 409 2034 409 
Q 2525 409 2770 889 
Q 3016 1369 3016 2328 
Q 3016 3291 2770 3770 
Q 2525 4250 2034 4250 
z
M 2034 4750 
Q 2819 4750 3233 4129 
Q 3647 3509 3647 2328 
Q 3647 1150 3233 529 
Q 2819 -91 2034 -91 
Q 1250 -91 836 529 
Q 422 1150 422 2328 
Q 422 3509 836 4129 
Q 1250 4750 2034 4750 
z
" transform="scale(0.015625)"/>
       </defs>
       <use xlink:href="#DejaVuSans-64"/>
       <use xlink:href="#DejaVuSans-30" x="63.476562"/>
      </g>
     </g>
    </g>
    <g id="xtick_2">
     <g id="line2d_22"/>
     <g id="text_2">
      <!-- d1 -->
      <g transform="translate(204.247708 24.877187) scale(0.08 -0.08)">
       <defs>
        <path id="DejaVuSans-31" d="M 794 531 
L 1825 531 
L 1825 4091 
L 703 3866 
L 703 4441 
L 1819 4666 
L 2450 4666 
L 2450 531 
L 3481 531 
L 3481 0 
L 794 0 
L 794 531 
z
" transform="scale(0.015625)"/>
       </defs>
       <use xlink:href="#DejaVuSans-64"/>
       <use xlink:href="#DejaVuSans-31" x="63.476562"/>
      </g>
     </g>
    </g>
    <g id="xtick_3">
     <g id="line2d_23"/>
     <g id="text_3">
      <!-- d2 -->
      <g transform="translate(248.481042 24.877187) scale(0.08 -0.08)">
       <defs>
        <path id="DejaVuSans-32" d="M 1228 531 
L 3431 531 
L 3431 0 
L 469 0 
L 469 531 
Q 828 903 1448 1529 
Q 2069 2156 2228 2338 
Q 2531 2678 2651 2914 
Q 2772 3150 2772 3378 
Q 2772 3750 2511 3984 
Q 2250 4219 1831 4219 
Q 1534 4219 1204 4116 
Q 875 4013 500 3803 
L 500 4441 
Q 881 4594 1212 4672 
Q 1544 4750 1819 4750 
Q 2544 4750 2975 4387 
Q 3406 4025 3406 3419 
Q 3406 3131 3298 2873 
Q 3191 2616 2906 2266 
Q 2828 2175 2409 1742 
Q 1991 1309 1228 531 
z
" transform="scale(0.015625)"/>
       </defs>
       <use xlink:href="#DejaVuSans-64"/>
       <use xlink:href="#DejaVuSans-32" x="63.476562"/>
      </g>
     </g>
    </g>
    <g id="xtick_4">
     <g id="line2d_24"/>
     <g id="text_4">
      <!-- d3 -->
      <g transform="translate(292.714375 24.877187) scale(0.08 -0.08)">
       <defs>
        <path id="DejaVuSans-33" d="M 2597 2516 
Q 3050 2419 3304 2112 
Q 3559 1806 3559 1356 
Q 3559 666 3084 287 
Q 2609 -91 1734 -91 
Q 1441 -91 1130 -33 
Q 819 25 488 141 
L 488 750 
Q 750 597 1062 519 
Q 1375 441 1716 441 
Q 2309 441 2620 675 
Q 2931 909 2931 1356 
Q 2931 1769 2642 2001 
Q 2353 2234 1838 2234 
L 1294 2234 
L 1294 2753 
L 1863 2753 
Q 2328 2753 2575 2939 
Q 2822 3125 2822 3475 
Q 2822 3834 2567 4026 
Q 2313 4219 1838 4219 
Q 1578 4219 1281 4162 
Q 984 4106 628 3988 
L 628 4550 
Q 988 4650 1302 4700 
Q 1616 4750 1894 4750 
Q 2613 4750 3031 4423 
Q 3450 4097 3450 3541 
Q 3450 3153 3228 2886 
Q 3006 2619 2597 2516 
z
" transform="scale(0.015625)"/>
       </defs>
       <use xlink:href="#DejaVuSans-64"/>
       <use xlink:href="#DejaVuSans-33" x="63.476562"/>
      </g>
     </g>
    </g>
    <g id="xtick_5">
     <g id="line2d_25"/>
     <g id="text_5">
      <!-- d4 -->
      <g transform="translate(336.947708 24.877187) scale(0.08 -0.08)">
       <defs>
        <path id="DejaVuSans-34" d="M 2419 4116 
L 825 1625 
L 2419 1625 
L 2419 4116 
z
M 2253 4666 
L 3047 4666 
L 3047 1625 
L 3713 1625 
L 3713 1100 
L 3047 1100 
L 3047 0 
L 2419 0 
L 2419 1100 
L 313 1100 
L 313 1709 
L 2253 4666 
z
" transform="scale(0.015625)"/>
       </defs>
       <use xlink:href="#DejaVuSans-64"/>
       <use xlink:href="#DejaVuSans-34" x="63.476562"/>
      </g>
     </g>
    </g>
    <g id="xtick_6">
     <g id="line2d_26"/>
     <g id="text_6">
      <!-- d5 -->
      <g transform="translate(381.181042 24.877187) scale(0.08 -0.08)">
       <defs>
        <path id="DejaVuSans-35" d="M 691 4666 
L 3169 4666 
L 3169 4134 
L 1269 4134 
L 1269 2991 
Q 1406 3038 1543 3061 
Q 1681 3084 1819 3084 
Q 2600 3084 3056 2656 
Q 3513 2228 3513 1497 
Q 3513 744 3044 326 
Q 2575 -91 1722 -91 
Q 1428 -91 1123 -41 
Q 819 9 494 109 
L 494 744 
Q 775 591 1075 516 
Q 1375 441 1709 441 
Q 2250 441 2565 725 
Q 2881 1009 2881 1497 
Q 2881 1984 2565 2268 
Q 2250 2553 1709 2553 
Q 1456 2553 1204 2497 
Q 953 2441 691 2322 
L 691 4666 
z
" transform="scale(0.015625)"/>
       </defs>
       <use xlink:href="#DejaVuSans-64"/>
       <use xlink:href="#DejaVuSans-35" x="63.476562"/>
      </g>
     </g>
    </g>
    <g id="xtick_7">
     <g id="line2d_27"/>
     <g id="text_7">
      <!-- d6 -->
      <g transform="translate(425.414375 24.877187) scale(0.08 -0.08)">
       <defs>
        <path id="DejaVuSans-36" d="M 2113 2584 
Q 1688 2584 1439 2293 
Q 1191 2003 1191 1497 
Q 1191 994 1439 701 
Q 1688 409 2113 409 
Q 2538 409 2786 701 
Q 3034 994 3034 1497 
Q 3034 2003 2786 2293 
Q 2538 2584 2113 2584 
z
M 3366 4563 
L 3366 3988 
Q 3128 4100 2886 4159 
Q 2644 4219 2406 4219 
Q 1781 4219 1451 3797 
Q 1122 3375 1075 2522 
Q 1259 2794 1537 2939 
Q 1816 3084 2150 3084 
Q 2853 3084 3261 2657 
Q 3669 2231 3669 1497 
Q 3669 778 3244 343 
Q 2819 -91 2113 -91 
Q 1303 -91 875 529 
Q 447 1150 447 2328 
Q 447 3434 972 4092 
Q 1497 4750 2381 4750 
Q 2619 4750 2861 4703 
Q 3103 4656 3366 4563 
z
" transform="scale(0.015625)"/>
       </defs>
       <use xlink:href="#DejaVuSans-64"/>
       <use xlink:href="#DejaVuSans-36" x="63.476562"/>
      </g>
     </g>
    </g>
    <g id="xtick_8">
     <g id="line2d_28"/>
     <g id="text_8">
      <!-- d7 -->
      <g transform="translate(469.647708 24.877187) scale(0.08 -0.08)">
       <defs>
        <path id="DejaVuSans-37" d="M 525 4666 
L 3525 4666 
L 3525 4397 
L 1831 0 
L 1172 0 
L 2766 4134 
L 525 4134 
L 525 4666 
z
" transform="scale(0.015625)"/>
       </defs>
       <use xlink:href="#DejaVuSans-64"/>
       <use xlink:href="#DejaVuSans-37" x="63.476562"/>
      </g>
     </g>
    </g>
    <g id="xtick_9">
     <g id="line2d_29"/>
     <g id="text_9">
      <!-- d8 -->
      <g transform="translate(513.881042 24.877187) scale(0.08 -0.08)">
       <defs>
        <path id="DejaVuSans-38" d="M 2034 2216 
Q 1584 2216 1326 1975 
Q 1069 1734 1069 1313 
Q 1069 891 1326 650 
Q 1584 409 2034 409 
Q 2484 409 2743 651 
Q 3003 894 3003 1313 
Q 3003 1734 2745 1975 
Q 2488 2216 2034 2216 
z
M 1403 2484 
Q 997 2584 770 2862 
Q 544 3141 544 3541 
Q 544 4100 942 4425 
Q 1341 4750 2034 4750 
Q 2731 4750 3128 4425 
Q 3525 4100 3525 3541 
Q 3525 3141 3298 2862 
Q 3072 2584 2669 2484 
Q 3125 2378 3379 2068 
Q 3634 1759 3634 1313 
Q 3634 634 3220 271 
Q 2806 -91 2034 -91 
Q 1263 -91 848 271 
Q 434 634 434 1313 
Q 434 1759 690 2068 
Q 947 2378 1403 2484 
z
M 1172 3481 
Q 1172 3119 1398 2916 
Q 1625 2713 2034 2713 
Q 2441 2713 2670 2916 
Q 2900 3119 2900 3481 
Q 2900 3844 2670 4047 
Q 2441 4250 2034 4250 
Q 1625 4250 1398 4047 
Q 1172 3844 1172 3481 
z
" transform="scale(0.015625)"/>
       </defs>
       <use xlink:href="#DejaVuSans-64"/>
       <use xlink:href="#DejaVuSans-38" x="63.476562"/>
      </g>
     </g>
    </g>
    <g id="xtick_10">
     <g id="line2d_30"/>
     <g id="text_10">
      <!-- d9 -->
      <g transform="translate(558.114375 24.877187) scale(0.08 -0.08)">
       <defs>
        <path id="DejaVuSans-39" d="M 703 97 
L 703 672 
Q 941 559 1184 500 
Q 1428 441 1663 441 
Q 2288 441 2617 861 
Q 2947 1281 2994 2138 
Q 2813 1869 2534 1725 
Q 2256 1581 1919 1581 
Q 1219 1581 811 2004 
Q 403 2428 403 3163 
Q 403 3881 828 4315 
Q 1253 4750 1959 4750 
Q 2769 4750 3195 4129 
Q 3622 3509 3622 2328 
Q 3622 1225 3098 567 
Q 2575 -91 1691 -91 
Q 1453 -91 1209 -44 
Q 966 3 703 97 
z
M 1959 2075 
Q 2384 2075 2632 2365 
Q 2881 2656 2881 3163 
Q 2881 3666 2632 3958 
Q 2384 4250 1959 4250 
Q 1534 4250 1286 3958 
Q 1038 3666 1038 3163 
Q 1038 2656 1286 2365 
Q 1534 2075 1959 2075 
z
" transform="scale(0.015625)"/>
       </defs>
       <use xlink:href="#DejaVuSans-64"/>
       <use xlink:href="#DejaVuSans-39" x="63.476562"/>
      </g>
     </g>
    </g>
   </g>
   <g id="matplotlib.axis_2">
    <g id="ytick_1">
     <g id="line2d_31"/>
     <g id="text_11">
      <!-- contractile muscle fiber -->
      <g transform="translate(40.4775 45.023646) scale(0.08 -0.08)">
       <defs>
        <path id="DejaVuSans-63" d="M 3122 3366 
L 3122 2828 
Q 2878 2963 2633 3030 
Q 2388 3097 2138 3097 
Q 1578 3097 1268 2742 
Q 959 2388 959 1747 
Q 959 1106 1268 751 
Q 1578 397 2138 397 
Q 2388 397 2633 464 
Q 2878 531 3122 666 
L 3122 134 
Q 2881 22 2623 -34 
Q 2366 -91 2075 -91 
Q 1284 -91 818 406 
Q 353 903 353 1747 
Q 353 2603 823 3093 
Q 1294 3584 2113 3584 
Q 2378 3584 2631 3529 
Q 2884 3475 3122 3366 
z
" transform="scale(0.015625)"/>
        <path id="DejaVuSans-6f" d="M 1959 3097 
Q 1497 3097 1228 2736 
Q 959 2375 959 1747 
Q 959 1119 1226 758 
Q 1494 397 1959 397 
Q 2419 397 2687 759 
Q 2956 1122 2956 1747 
Q 2956 2369 2687 2733 
Q 2419 3097 1959 3097 
z
M 1959 3584 
Q 2709 3584 3137 3096 
Q 3566 2609 3566 1747 
Q 3566 888 3137 398 
Q 2709 -91 1959 -91 
Q 1206 -91 779 398 
Q 353 888 353 1747 
Q 353 2609 779 3096 
Q 1206 3584 1959 3584 
z
" transform="scale(0.015625)"/>
        <path id="DejaVuSans-6e" d="M 3513 2113 
L 3513 0 
L 2938 0 
L 2938 2094 
Q 2938 2591 2744 2837 
Q 2550 3084 2163 3084 
Q 1697 3084 1428 2787 
Q 1159 2491 1159 1978 
L 1159 0 
L 581 0 
L 581 3500 
L 1159 3500 
L 1159 2956 
Q 1366 3272 1645 3428 
Q 1925 3584 2291 3584 
Q 2894 3584 3203 3211 
Q 3513 2838 3513 2113 
z
" transform="scale(0.015625)"/>
        <path id="DejaVuSans-74" d="M 1172 4494 
L 1172 3500 
L 2356 3500 
L 2356 3053 
L 1172 3053 
L 1172 1153 
Q 1172 725 1289 603 
Q 1406 481 1766 481 
L 2356 481 
L 2356 0 
L 1766 0 
Q 1100 0 847 248 
Q 594 497 594 1153 
L 594 3053 
L 172 3053 
L 172 3500 
L 594 3500 
L 594 4494 
L 1172 4494 
z
" transform="scale(0.015625)"/>
        <path id="DejaVuSans-72" d="M 2631 2963 
Q 2534 3019 2420 3045 
Q 2306 3072 2169 3072 
Q 1681 3072 1420 2755 
Q 1159 2438 1159 1844 
L 1159 0 
L 581 0 
L 581 3500 
L 1159 3500 
L 1159 2956 
Q 1341 3275 1631 3429 
Q 1922 3584 2338 3584 
Q 2397 3584 2469 3576 
Q 2541 3569 2628 3553 
L 2631 2963 
z
" transform="scale(0.015625)"/>
        <path id="DejaVuSans-61" d="M 2194 1759 
Q 1497 1759 1228 1600 
Q 959 1441 959 1056 
Q 959 750 1161 570 
Q 1363 391 1709 391 
Q 2188 391 2477 730 
Q 2766 1069 2766 1631 
L 2766 1759 
L 2194 1759 
z
M 3341 1997 
L 3341 0 
L 2766 0 
L 2766 531 
Q 2569 213 2275 61 
Q 1981 -91 1556 -91 
Q 1019 -91 701 211 
Q 384 513 384 1019 
Q 384 1609 779 1909 
Q 1175 2209 1959 2209 
L 2766 2209 
L 2766 2266 
Q 2766 2663 2505 2880 
Q 2244 3097 1772 3097 
Q 1472 3097 1187 3025 
Q 903 2953 641 2809 
L 641 3341 
Q 956 3463 1253 3523 
Q 1550 3584 1831 3584 
Q 2591 3584 2966 3190 
Q 3341 2797 3341 1997 
z
" transform="scale(0.015625)"/>
        <path id="DejaVuSans-69" d="M 603 3500 
L 1178 3500 
L 1178 0 
L 603 0 
L 603 3500 
z
M 603 4863 
L 1178 4863 
L 1178 4134 
L 603 4134 
L 603 4863 
z
" transform="scale(0.015625)"/>
        <path id="DejaVuSans-6c" d="M 603 4863 
L 1178 4863 
L 1178 0 
L 603 0 
L 603 4863 
z
" transform="scale(0.015625)"/>
        <path id="DejaVuSans-65" d="M 3597 1894 
L 3597 1613 
L 953 1613 
Q 991 1019 1311 708 
Q 1631 397 2203 397 
Q 2534 397 2845 478 
Q 3156 559 3463 722 
L 3463 178 
Q 3153 47 2828 -22 
Q 2503 -91 2169 -91 
Q 1331 -91 842 396 
Q 353 884 353 1716 
Q 353 2575 817 3079 
Q 1281 3584 2069 3584 
Q 2775 3584 3186 3129 
Q 3597 2675 3597 1894 
z
M 3022 2063 
Q 3016 2534 2758 2815 
Q 2500 3097 2075 3097 
Q 1594 3097 1305 2825 
Q 1016 2553 972 2059 
L 3022 2063 
z
" transform="scale(0.015625)"/>
        <path id="DejaVuSans-20" transform="scale(0.015625)"/>
        <path id="DejaVuSans-6d" d="M 3328 2828 
Q 3544 3216 3844 3400 
Q 4144 3584 4550 3584 
Q 5097 3584 5394 3201 
Q 5691 2819 5691 2113 
L 5691 0 
L 5113 0 
L 5113 2094 
Q 5113 2597 4934 2840 
Q 4756 3084 4391 3084 
Q 3944 3084 3684 2787 
Q 3425 2491 3425 1978 
L 3425 0 
L 2847 0 
L 2847 2094 
Q 2847 2600 2669 2842 
Q 2491 3084 2119 3084 
Q 1678 3084 1418 2786 
Q 1159 2488 1159 1978 
L 1159 0 
L 581 0 
L 581 3500 
L 1159 3500 
L 1159 2956 
Q 1356 3278 1631 3431 
Q 1906 3584 2284 3584 
Q 2666 3584 2933 3390 
Q 3200 3197 3328 2828 
z
" transform="scale(0.015625)"/>
        <path id="DejaVuSans-75" d="M 544 1381 
L 544 3500 
L 1119 3500 
L 1119 1403 
Q 1119 906 1312 657 
Q 1506 409 1894 409 
Q 2359 409 2629 706 
Q 2900 1003 2900 1516 
L 2900 3500 
L 3475 3500 
L 3475 0 
L 2900 0 
L 2900 538 
Q 2691 219 2414 64 
Q 2138 -91 1772 -91 
Q 1169 -91 856 284 
Q 544 659 544 1381 
z
M 1991 3584 
L 1991 3584 
z
" transform="scale(0.015625)"/>
        <path id="DejaVuSans-73" d="M 2834 3397 
L 2834 2853 
Q 2591 2978 2328 3040 
Q 2066 3103 1784 3103 
Q 1356 3103 1142 2972 
Q 928 2841 928 2578 
Q 928 2378 1081 2264 
Q 1234 2150 1697 2047 
L 1894 2003 
Q 2506 1872 2764 1633 
Q 3022 1394 3022 966 
Q 3022 478 2636 193 
Q 2250 -91 1575 -91 
Q 1294 -91 989 -36 
Q 684 19 347 128 
L 347 722 
Q 666 556 975 473 
Q 1284 391 1588 391 
Q 1994 391 2212 530 
Q 2431 669 2431 922 
Q 2431 1156 2273 1281 
Q 2116 1406 1581 1522 
L 1381 1569 
Q 847 1681 609 1914 
Q 372 2147 372 2553 
Q 372 3047 722 3315 
Q 1072 3584 1716 3584 
Q 2034 3584 2315 3537 
Q 2597 3491 2834 3397 
z
" transform="scale(0.015625)"/>
        <path id="DejaVuSans-66" d="M 2375 4863 
L 2375 4384 
L 1825 4384 
Q 1516 4384 1395 4259 
Q 1275 4134 1275 3809 
L 1275 3500 
L 2222 3500 
L 2222 3053 
L 1275 3053 
L 1275 0 
L 697 0 
L 697 3053 
L 147 3053 
L 147 3500 
L 697 3500 
L 697 3744 
Q 697 4328 969 4595 
Q 1241 4863 1831 4863 
L 2375 4863 
z
" transform="scale(0.015625)"/>
        <path id="DejaVuSans-62" d="M 3116 1747 
Q 3116 2381 2855 2742 
Q 2594 3103 2138 3103 
Q 1681 3103 1420 2742 
Q 1159 2381 1159 1747 
Q 1159 1113 1420 752 
Q 1681 391 2138 391 
Q 2594 391 2855 752 
Q 3116 1113 3116 1747 
z
M 1159 2969 
Q 1341 3281 1617 3432 
Q 1894 3584 2278 3584 
Q 2916 3584 3314 3078 
Q 3713 2572 3713 1747 
Q 3713 922 3314 415 
Q 2916 -91 2278 -91 
Q 1894 -91 1617 61 
Q 1341 213 1159 525 
L 1159 0 
L 581 0 
L 581 4863 
L 1159 4863 
L 1159 2969 
z
" transform="scale(0.015625)"/>
       </defs>
       <use xlink:href="#DejaVuSans-63"/>
       <use xlink:href="#DejaVuSans-6f" x="54.980469"/>
       <use xlink:href="#DejaVuSans-6e" x="116.162109"/>
       <use xlink:href="#DejaVuSans-74" x="179.541016"/>
       <use xlink:href="#DejaVuSans-72" x="218.75"/>
       <use xlink:href="#DejaVuSans-61" x="259.863281"/>
       <use xlink:href="#DejaVuSans-63" x="321.142578"/>
       <use xlink:href="#DejaVuSans-74" x="376.123047"/>
       <use xlink:href="#DejaVuSans-69" x="415.332031"/>
       <use xlink:href="#DejaVuSans-6c" x="443.115234"/>
       <use xlink:href="#DejaVuSans-65" x="470.898438"/>
       <use xlink:href="#DejaVuSans-20" x="532.421875"/>
       <use xlink:href="#DejaVuSans-6d" x="564.208984"/>
       <use xlink:href="#DejaVuSans-75" x="661.621094"/>
       <use xlink:href="#DejaVuSans-73" x="725"/>
       <use xlink:href="#DejaVuSans-63" x="777.099609"/>
       <use xlink:href="#DejaVuSans-6c" x="832.080078"/>
       <use xlink:href="#DejaVuSans-65" x="859.863281"/>
       <use xlink:href="#DejaVuSans-20" x="921.386719"/>
       <use xlink:href="#DejaVuSans-66" x="953.173828"/>
       <use xlink:href="#DejaVuSans-69" x="988.378906"/>
       <use xlink:href="#DejaVuSans-62" x="1016.162109"/>
       <use xlink:href="#DejaVuSans-65" x="1079.638672"/>
       <use xlink:href="#DejaVuSans-72" x="1141.162109"/>
      </g>
     </g>
    </g>
    <g id="ytick_2">
     <g id="line2d_32"/>
     <g id="text_12">
      <!-- muscle system process -->
      <g transform="translate(41.74 68.910312) scale(0.08 -0.08)">
       <defs>
        <path id="DejaVuSans-79" d="M 2059 -325 
Q 1816 -950 1584 -1140 
Q 1353 -1331 966 -1331 
L 506 -1331 
L 506 -850 
L 844 -850 
Q 1081 -850 1212 -737 
Q 1344 -625 1503 -206 
L 1606 56 
L 191 3500 
L 800 3500 
L 1894 763 
L 2988 3500 
L 3597 3500 
L 2059 -325 
z
" transform="scale(0.015625)"/>
        <path id="DejaVuSans-70" d="M 1159 525 
L 1159 -1331 
L 581 -1331 
L 581 3500 
L 1159 3500 
L 1159 2969 
Q 1341 3281 1617 3432 
Q 1894 3584 2278 3584 
Q 2916 3584 3314 3078 
Q 3713 2572 3713 1747 
Q 3713 922 3314 415 
Q 2916 -91 2278 -91 
Q 1894 -91 1617 61 
Q 1341 213 1159 525 
z
M 3116 1747 
Q 3116 2381 2855 2742 
Q 2594 3103 2138 3103 
Q 1681 3103 1420 2742 
Q 1159 2381 1159 1747 
Q 1159 1113 1420 752 
Q 1681 391 2138 391 
Q 2594 391 2855 752 
Q 3116 1113 3116 1747 
z
" transform="scale(0.015625)"/>
       </defs>
       <use xlink:href="#DejaVuSans-6d"/>
       <use xlink:href="#DejaVuSans-75" x="97.412109"/>
       <use xlink:href="#DejaVuSans-73" x="160.791016"/>
       <use xlink:href="#DejaVuSans-63" x="212.890625"/>
       <use xlink:href="#DejaVuSans-6c" x="267.871094"/>
       <use xlink:href="#DejaVuSans-65" x="295.654297"/>
       <use xlink:href="#DejaVuSans-20" x="357.177734"/>
       <use xlink:href="#DejaVuSans-73" x="388.964844"/>
       <use xlink:href="#DejaVuSans-79" x="441.064453"/>
       <use xlink:href="#DejaVuSans-73" x="500.244141"/>
       <use xlink:href="#DejaVuSans-74" x="552.34375"/>
       <use xlink:href="#DejaVuSans-65" x="591.552734"/>
       <use xlink:href="#DejaVuSans-6d" x="653.076172"/>
       <use xlink:href="#DejaVuSans-20" x="750.488281"/>
       <use xlink:href="#DejaVuSans-70" x="782.275391"/>
       <use xlink:href="#DejaVuSans-72" x="845.751953"/>
       <use xlink:href="#DejaVuSans-6f" x="884.615234"/>
       <use xlink:href="#DejaVuSans-63" x="945.796875"/>
       <use xlink:href="#DejaVuSans-65" x="1000.777344"/>
       <use xlink:href="#DejaVuSans-73" x="1062.300781"/>
       <use xlink:href="#DejaVuSans-73" x="1114.400391"/>
      </g>
     </g>
    </g>
    <g id="ytick_3">
     <g id="line2d_33"/>
     <g id="text_13">
      <!-- muscle contraction -->
      <g transform="translate(58.52875 92.796979) scale(0.08 -0.08)">
       <use xlink:href="#DejaVuSans-6d"/>
       <use xlink:href="#DejaVuSans-75" x="97.412109"/>
       <use xlink:href="#DejaVuSans-73" x="160.791016"/>
       <use xlink:href="#DejaVuSans-63" x="212.890625"/>
       <use xlink:href="#DejaVuSans-6c" x="267.871094"/>
       <use xlink:href="#DejaVuSans-65" x="295.654297"/>
       <use xlink:href="#DejaVuSans-20" x="357.177734"/>
       <use xlink:href="#DejaVuSans-63" x="388.964844"/>
       <use xlink:href="#DejaVuSans-6f" x="443.945312"/>
       <use xlink:href="#DejaVuSans-6e" x="505.126953"/>
       <use xlink:href="#DejaVuSans-74" x="568.505859"/>
       <use xlink:href="#DejaVuSans-72" x="607.714844"/>
       <use xlink:href="#DejaVuSans-61" x="648.828125"/>
       <use xlink:href="#DejaVuSans-63" x="710.107422"/>
       <use xlink:href="#DejaVuSans-74" x="765.087891"/>
       <use xlink:href="#DejaVuSans-69" x="804.296875"/>
       <use xlink:href="#DejaVuSans-6f" x="832.080078"/>
       <use xlink:href="#DejaVuSans-6e" x="893.261719"/>
      </g>
     </g>
    </g>
    <g id="ytick_4">
     <g id="line2d_34"/>
     <g id="text_14">
      <!-- i band -->
      <g transform="translate(110.16375 116.683646) scale(0.08 -0.08)">
       <use xlink:href="#DejaVuSans-69"/>
       <use xlink:href="#DejaVuSans-20" x="27.783203"/>
       <use xlink:href="#DejaVuSans-62" x="59.570312"/>
       <use xlink:href="#DejaVuSans-61" x="123.046875"/>
       <use xlink:href="#DejaVuSans-6e" x="184.326172"/>
       <use xlink:href="#DejaVuSans-64" x="247.705078"/>
      </g>
     </g>
    </g>
    <g id="ytick_5">
     <g id="line2d_35"/>
     <g id="text_15">
      <!-- supramolecular polymer -->
      <g transform="translate(37.35875 140.570312) scale(0.08 -0.08)">
       <use xlink:href="#DejaVuSans-73"/>
       <use xlink:href="#DejaVuSans-75" x="52.099609"/>
       <use xlink:href="#DejaVuSans-70" x="115.478516"/>
       <use xlink:href="#DejaVuSans-72" x="178.955078"/>
       <use xlink:href="#DejaVuSans-61" x="220.068359"/>
       <use xlink:href="#DejaVuSans-6d" x="281.347656"/>
       <use xlink:href="#DejaVuSans-6f" x="378.759766"/>
       <use xlink:href="#DejaVuSans-6c" x="439.941406"/>
       <use xlink:href="#DejaVuSans-65" x="467.724609"/>
       <use xlink:href="#DejaVuSans-63" x="529.248047"/>
       <use xlink:href="#DejaVuSans-75" x="584.228516"/>
       <use xlink:href="#DejaVuSans-6c" x="647.607422"/>
       <use xlink:href="#DejaVuSans-61" x="675.390625"/>
       <use xlink:href="#DejaVuSans-72" x="736.669922"/>
       <use xlink:href="#DejaVuSans-20" x="777.783203"/>
       <use xlink:href="#DejaVuSans-70" x="809.570312"/>
       <use xlink:href="#DejaVuSans-6f" x="873.046875"/>
       <use xlink:href="#DejaVuSans-6c" x="934.228516"/>
       <use xlink:href="#DejaVuSans-79" x="962.011719"/>
       <use xlink:href="#DejaVuSans-6d" x="1021.191406"/>
       <use xlink:href="#DejaVuSans-65" x="1118.603516"/>
       <use xlink:href="#DejaVuSans-72" x="1180.126953"/>
      </g>
     </g>
    </g>
    <g id="ytick_6">
     <g id="line2d_36"/>
     <g id="text_16">
      <!-- supramolecular complex -->
      <g transform="translate(36.38875 164.456979) scale(0.08 -0.08)">
       <defs>
        <path id="DejaVuSans-78" d="M 3513 3500 
L 2247 1797 
L 3578 0 
L 2900 0 
L 1881 1375 
L 863 0 
L 184 0 
L 1544 1831 
L 300 3500 
L 978 3500 
L 1906 2253 
L 2834 3500 
L 3513 3500 
z
" transform="scale(0.015625)"/>
       </defs>
       <use xlink:href="#DejaVuSans-73"/>
       <use xlink:href="#DejaVuSans-75" x="52.099609"/>
       <use xlink:href="#DejaVuSans-70" x="115.478516"/>
       <use xlink:href="#DejaVuSans-72" x="178.955078"/>
       <use xlink:href="#DejaVuSans-61" x="220.068359"/>
       <use xlink:href="#DejaVuSans-6d" x="281.347656"/>
       <use xlink:href="#DejaVuSans-6f" x="378.759766"/>
       <use xlink:href="#DejaVuSans-6c" x="439.941406"/>
       <use xlink:href="#DejaVuSans-65" x="467.724609"/>
       <use xlink:href="#DejaVuSans-63" x="529.248047"/>
       <use xlink:href="#DejaVuSans-75" x="584.228516"/>
       <use xlink:href="#DejaVuSans-6c" x="647.607422"/>
       <use xlink:href="#DejaVuSans-61" x="675.390625"/>
       <use xlink:href="#DejaVuSans-72" x="736.669922"/>
       <use xlink:href="#DejaVuSans-20" x="777.783203"/>
       <use xlink:href="#DejaVuSans-63" x="809.570312"/>
       <use xlink:href="#DejaVuSans-6f" x="864.550781"/>
       <use xlink:href="#DejaVuSans-6d" x="925.732422"/>
       <use xlink:href="#DejaVuSans-70" x="1023.144531"/>
       <use xlink:href="#DejaVuSans-6c" x="1086.621094"/>
       <use xlink:href="#DejaVuSans-65" x="1114.404297"/>
       <use xlink:href="#DejaVuSans-78" x="1174.177734"/>
      </g>
     </g>
    </g>
    <g id="ytick_7">
     <g id="line2d_37"/>
     <g id="text_17">
      <!-- actin filament based movement -->
      <g transform="translate(7.2 188.343646) scale(0.08 -0.08)">
       <defs>
        <path id="DejaVuSans-76" d="M 191 3500 
L 800 3500 
L 1894 563 
L 2988 3500 
L 3597 3500 
L 2284 0 
L 1503 0 
L 191 3500 
z
" transform="scale(0.015625)"/>
       </defs>
       <use xlink:href="#DejaVuSans-61"/>
       <use xlink:href="#DejaVuSans-63" x="61.279297"/>
       <use xlink:href="#DejaVuSans-74" x="116.259766"/>
       <use xlink:href="#DejaVuSans-69" x="155.46875"/>
       <use xlink:href="#DejaVuSans-6e" x="183.251953"/>
       <use xlink:href="#DejaVuSans-20" x="246.630859"/>
       <use xlink:href="#DejaVuSans-66" x="278.417969"/>
       <use xlink:href="#DejaVuSans-69" x="313.623047"/>
       <use xlink:href="#DejaVuSans-6c" x="341.40625"/>
       <use xlink:href="#DejaVuSans-61" x="369.189453"/>
       <use xlink:href="#DejaVuSans-6d" x="430.46875"/>
       <use xlink:href="#DejaVuSans-65" x="527.880859"/>
       <use xlink:href="#DejaVuSans-6e" x="589.404297"/>
       <use xlink:href="#DejaVuSans-74" x="652.783203"/>
       <use xlink:href="#DejaVuSans-20" x="691.992188"/>
       <use xlink:href="#DejaVuSans-62" x="723.779297"/>
       <use xlink:href="#DejaVuSans-61" x="787.255859"/>
       <use xlink:href="#DejaVuSans-73" x="848.535156"/>
       <use xlink:href="#DejaVuSans-65" x="900.634766"/>
       <use xlink:href="#DejaVuSans-64" x="962.158203"/>
       <use xlink:href="#DejaVuSans-20" x="1025.634766"/>
       <use xlink:href="#DejaVuSans-6d" x="1057.421875"/>
       <use xlink:href="#DejaVuSans-6f" x="1154.833984"/>
       <use xlink:href="#DejaVuSans-76" x="1216.015625"/>
       <use xlink:href="#DejaVuSans-65" x="1275.195312"/>
       <use xlink:href="#DejaVuSans-6d" x="1336.71875"/>
       <use xlink:href="#DejaVuSans-65" x="1434.130859"/>
       <use xlink:href="#DejaVuSans-6e" x="1495.654297"/>
       <use xlink:href="#DejaVuSans-74" x="1559.033203"/>
      </g>
     </g>
    </g>
    <g id="ytick_8">
     <g id="line2d_38"/>
     <g id="text_18">
      <!-- striated muscle contraction -->
      <g transform="translate(25.13125 212.230312) scale(0.08 -0.08)">
       <use xlink:href="#DejaVuSans-73"/>
       <use xlink:href="#DejaVuSans-74" x="52.099609"/>
       <use xlink:href="#DejaVuSans-72" x="91.308594"/>
       <use xlink:href="#DejaVuSans-69" x="132.421875"/>
       <use xlink:href="#DejaVuSans-61" x="160.205078"/>
       <use xlink:href="#DejaVuSans-74" x="221.484375"/>
       <use xlink:href="#DejaVuSans-65" x="260.693359"/>
       <use xlink:href="#DejaVuSans-64" x="322.216797"/>
       <use xlink:href="#DejaVuSans-20" x="385.693359"/>
       <use xlink:href="#DejaVuSans-6d" x="417.480469"/>
       <use xlink:href="#DejaVuSans-75" x="514.892578"/>
       <use xlink:href="#DejaVuSans-73" x="578.271484"/>
       <use xlink:href="#DejaVuSans-63" x="630.371094"/>
       <use xlink:href="#DejaVuSans-6c" x="685.351562"/>
       <use xlink:href="#DejaVuSans-65" x="713.134766"/>
       <use xlink:href="#DejaVuSans-20" x="774.658203"/>
       <use xlink:href="#DejaVuSans-63" x="806.445312"/>
       <use xlink:href="#DejaVuSans-6f" x="861.425781"/>
       <use xlink:href="#DejaVuSans-6e" x="922.607422"/>
       <use xlink:href="#DejaVuSans-74" x="985.986328"/>
       <use xlink:href="#DejaVuSans-72" x="1025.195312"/>
       <use xlink:href="#DejaVuSans-61" x="1066.308594"/>
       <use xlink:href="#DejaVuSans-63" x="1127.587891"/>
       <use xlink:href="#DejaVuSans-74" x="1182.568359"/>
       <use xlink:href="#DejaVuSans-69" x="1221.777344"/>
       <use xlink:href="#DejaVuSans-6f" x="1249.560547"/>
       <use xlink:href="#DejaVuSans-6e" x="1310.742188"/>
      </g>
     </g>
    </g>
    <g id="ytick_9">
     <g id="line2d_39"/>
     <g id="text_19">
      <!-- cardiac muscle contraction -->
      <g transform="translate(26.93375 236.116979) scale(0.08 -0.08)">
       <use xlink:href="#DejaVuSans-63"/>
       <use xlink:href="#DejaVuSans-61" x="54.980469"/>
       <use xlink:href="#DejaVuSans-72" x="116.259766"/>
       <use xlink:href="#DejaVuSans-64" x="155.623047"/>
       <use xlink:href="#DejaVuSans-69" x="219.099609"/>
       <use xlink:href="#DejaVuSans-61" x="246.882812"/>
       <use xlink:href="#DejaVuSans-63" x="308.162109"/>
       <use xlink:href="#DejaVuSans-20" x="363.142578"/>
       <use xlink:href="#DejaVuSans-6d" x="394.929688"/>
       <use xlink:href="#DejaVuSans-75" x="492.341797"/>
       <use xlink:href="#DejaVuSans-73" x="555.720703"/>
       <use xlink:href="#DejaVuSans-63" x="607.820312"/>
       <use xlink:href="#DejaVuSans-6c" x="662.800781"/>
       <use xlink:href="#DejaVuSans-65" x="690.583984"/>
       <use xlink:href="#DejaVuSans-20" x="752.107422"/>
       <use xlink:href="#DejaVuSans-63" x="783.894531"/>
       <use xlink:href="#DejaVuSans-6f" x="838.875"/>
       <use xlink:href="#DejaVuSans-6e" x="900.056641"/>
       <use xlink:href="#DejaVuSans-74" x="963.435547"/>
       <use xlink:href="#DejaVuSans-72" x="1002.644531"/>
       <use xlink:href="#DejaVuSans-61" x="1043.757812"/>
       <use xlink:href="#DejaVuSans-63" x="1105.037109"/>
       <use xlink:href="#DejaVuSans-74" x="1160.017578"/>
       <use xlink:href="#DejaVuSans-69" x="1199.226562"/>
       <use xlink:href="#DejaVuSans-6f" x="1227.009766"/>
       <use xlink:href="#DejaVuSans-6e" x="1288.191406"/>
      </g>
     </g>
    </g>
   </g>
   <g id="text_20">
    <g id="patch_3">
     <path d="M 518.965417 49.231146 
C 520.88731 49.231146 522.730747 48.467569 524.089731 47.108585 
C 525.448715 45.749601 526.212292 43.906165 526.212292 41.984271 
C 526.212292 40.062377 525.448715 38.21894 524.089731 36.859956 
C 522.730747 35.500972 520.88731 34.737396 518.965417 34.737396 
C 517.043523 34.737396 515.200086 35.500972 513.841102 36.859956 
C 512.482118 38.21894 511.718542 40.062377 511.718542 41.984271 
C 511.718542 43.906165 512.482118 45.749601 513.841102 47.108585 
C 515.200086 48.467569 517.043523 49.231146 518.965417 49.231146 
z
" style="fill: #ffffff; stroke: #000000; stroke-linejoin: miter"/>
    </g>
    <!-- + -->
    <g transform="translate(513.937604 45.295521) scale(0.12 -0.12)">
     <defs>
      <path id="DejaVuSans-2b" d="M 2944 4013 
L 2944 2272 
L 4684 2272 
L 4684 1741 
L 2944 1741 
L 2944 0 
L 2419 0 
L 2419 1741 
L 678 1741 
L 678 2272 
L 2419 2272 
L 2419 4013 
L 2944 4013 
z
" transform="scale(0.015625)"/>
     </defs>
     <use xlink:href="#DejaVuSans-2b"/>
    </g>
   </g>
   <g id="text_21">
    <g id="patch_4">
     <path d="M 518.965417 73.117812 
C 520.88731 73.117812 522.730747 72.354236 524.089731 70.995252 
C 525.448715 69.636268 526.212292 67.792831 526.212292 65.870937 
C 526.212292 63.949044 525.448715 62.105607 524.089731 60.746623 
C 522.730747 59.387639 520.88731 58.624062 518.965417 58.624062 
C 517.043523 58.624062 515.200086 59.387639 513.841102 60.746623 
C 512.482118 62.105607 511.718542 63.949044 511.718542 65.870937 
C 511.718542 67.792831 512.482118 69.636268 513.841102 70.995252 
C 515.200086 72.354236 517.043523 73.117812 518.965417 73.117812 
z
" style="fill: #ffffff; stroke: #000000; stroke-linejoin: miter"/>
    </g>
    <!-- + -->
    <g transform="translate(513.937604 69.182187) scale(0.12 -0.12)">
     <use xlink:href="#DejaVuSans-2b"/>
    </g>
   </g>
   <g id="text_22">
    <g id="patch_5">
     <path d="M 518.965417 97.004479 
C 520.88731 97.004479 522.730747 96.240903 524.089731 94.881919 
C 525.448715 93.522935 526.212292 91.679498 526.212292 89.757604 
C 526.212292 87.83571 525.448715 85.992274 524.089731 84.63329 
C 522.730747 83.274306 520.88731 82.510729 518.965417 82.510729 
C 517.043523 82.510729 515.200086 83.274306 513.841102 84.63329 
C 512.482118 85.992274 511.718542 87.83571 511.718542 89.757604 
C 511.718542 91.679498 512.482118 93.522935 513.841102 94.881919 
C 515.200086 96.240903 517.043523 97.004479 518.965417 97.004479 
z
" style="fill: #ffffff; stroke: #000000; stroke-linejoin: miter"/>
    </g>
    <!-- + -->
    <g transform="translate(513.937604 93.068854) scale(0.12 -0.12)">
     <use xlink:href="#DejaVuSans-2b"/>
    </g>
   </g>
   <g id="text_23">
    <g id="patch_6">
     <path d="M 165.09875 49.231146 
C 167.020644 49.231146 168.86408 48.467569 170.223064 47.108585 
C 171.582049 45.749601 172.345625 43.906165 172.345625 41.984271 
C 172.345625 40.062377 171.582049 38.21894 170.223064 36.859956 
C 168.86408 35.500972 167.020644 34.737396 165.09875 34.737396 
C 163.176856 34.737396 161.33342 35.500972 159.974436 36.859956 
C 158.615451 38.21894 157.851875 40.062377 157.851875 41.984271 
C 157.851875 43.906165 158.615451 45.749601 159.974436 47.108585 
C 161.33342 48.467569 163.176856 49.231146 165.09875 49.231146 
z
" style="fill: #ffffff; stroke: #000000; stroke-linejoin: miter"/>
    </g>
    <!-- − -->
    <g transform="translate(160.070937 45.295521) scale(0.12 -0.12)">
     <defs>
      <path id="DejaVuSans-2212" d="M 678 2272 
L 4684 2272 
L 4684 1741 
L 678 1741 
L 678 2272 
z
" transform="scale(0.015625)"/>
     </defs>
     <use xlink:href="#DejaVuSans-2212"/>
    </g>
   </g>
   <g id="text_24">
    <g id="patch_7">
     <path d="M 253.565417 49.231146 
C 255.48731 49.231146 257.330747 48.467569 258.689731 47.108585 
C 260.048715 45.749601 260.812292 43.906165 260.812292 41.984271 
C 260.812292 40.062377 260.048715 38.21894 258.689731 36.859956 
C 257.330747 35.500972 255.48731 34.737396 253.565417 34.737396 
C 251.643523 34.737396 249.800086 35.500972 248.441102 36.859956 
C 247.082118 38.21894 246.318542 40.062377 246.318542 41.984271 
C 246.318542 43.906165 247.082118 45.749601 248.441102 47.108585 
C 249.800086 48.467569 251.643523 49.231146 253.565417 49.231146 
z
" style="fill: #ffffff; stroke: #000000; stroke-linejoin: miter"/>
    </g>
    <!-- − -->
    <g transform="translate(248.537604 45.295521) scale(0.12 -0.12)">
     <use xlink:href="#DejaVuSans-2212"/>
    </g>
   </g>
   <g id="text_25">
    <g id="patch_8">
     <path d="M 518.965417 120.891146 
C 520.88731 120.891146 522.730747 120.127569 524.089731 118.768585 
C 525.448715 117.409601 526.212292 115.566165 526.212292 113.644271 
C 526.212292 111.722377 525.448715 109.87894 524.089731 108.519956 
C 522.730747 107.160972 520.88731 106.397396 518.965417 106.397396 
C 517.043523 106.397396 515.200086 107.160972 513.841102 108.519956 
C 512.482118 109.87894 511.718542 111.722377 511.718542 113.644271 
C 511.718542 115.566165 512.482118 117.409601 513.841102 118.768585 
C 515.200086 120.127569 517.043523 120.891146 518.965417 120.891146 
z
" style="fill: #ffffff; stroke: #000000; stroke-linejoin: miter"/>
    </g>
    <!-- + -->
    <g transform="translate(513.937604 116.955521) scale(0.12 -0.12)">
     <use xlink:href="#DejaVuSans-2b"/>
    </g>
   </g>
   <g id="text_26">
    <g id="patch_9">
     <path d="M 165.09875 120.891146 
C 167.020644 120.891146 168.86408 120.127569 170.223064 118.768585 
C 171.582049 117.409601 172.345625 115.566165 172.345625 113.644271 
C 172.345625 111.722377 171.582049 109.87894 170.223064 108.519956 
C 168.86408 107.160972 167.020644 106.397396 165.09875 106.397396 
C 163.176856 106.397396 161.33342 107.160972 159.974436 108.519956 
C 158.615451 109.87894 157.851875 111.722377 157.851875 113.644271 
C 157.851875 115.566165 158.615451 117.409601 159.974436 118.768585 
C 161.33342 120.127569 163.176856 120.891146 165.09875 120.891146 
z
" style="fill: #ffffff; stroke: #000000; stroke-linejoin: miter"/>
    </g>
    <!-- − -->
    <g transform="translate(160.070937 116.955521) scale(0.12 -0.12)">
     <use xlink:href="#DejaVuSans-2212"/>
    </g>
   </g>
   <g id="text_27">
    <g id="patch_10">
     <path d="M 474.732083 49.231146 
C 476.653977 49.231146 478.497414 48.467569 479.856398 47.108585 
C 481.215382 45.749601 481.978958 43.906165 481.978958 41.984271 
C 481.978958 40.062377 481.215382 38.21894 479.856398 36.859956 
C 478.497414 35.500972 476.653977 34.737396 474.732083 34.737396 
C 472.81019 34.737396 470.966753 35.500972 469.607769 36.859956 
C 468.248785 38.21894 467.485208 40.062377 467.485208 41.984271 
C 467.485208 43.906165 468.248785 45.749601 469.607769 47.108585 
C 470.966753 48.467569 472.81019 49.231146 474.732083 49.231146 
z
" style="fill: #ffffff; stroke: #000000; stroke-linejoin: miter"/>
    </g>
    <!-- + -->
    <g transform="translate(469.704271 45.295521) scale(0.12 -0.12)">
     <use xlink:href="#DejaVuSans-2b"/>
    </g>
   </g>
   <g id="text_28">
    <g id="patch_11">
     <path d="M 474.732083 144.777812 
C 476.653977 144.777812 478.497414 144.014236 479.856398 142.655252 
C 481.215382 141.296268 481.978958 139.452831 481.978958 137.530937 
C 481.978958 135.609044 481.215382 133.765607 479.856398 132.406623 
C 478.497414 131.047639 476.653977 130.284062 474.732083 130.284062 
C 472.81019 130.284062 470.966753 131.047639 469.607769 132.406623 
C 468.248785 133.765607 467.485208 135.609044 467.485208 137.530937 
C 467.485208 139.452831 468.248785 141.296268 469.607769 142.655252 
C 470.966753 144.014236 472.81019 144.777812 474.732083 144.777812 
z
" style="fill: #ffffff; stroke: #000000; stroke-linejoin: miter"/>
    </g>
    <!-- + -->
    <g transform="translate(469.704271 140.842187) scale(0.12 -0.12)">
     <use xlink:href="#DejaVuSans-2b"/>
    </g>
   </g>
   <g id="text_29">
    <g id="patch_12">
     <path d="M 297.79875 49.231146 
C 299.720644 49.231146 301.56408 48.467569 302.923064 47.108585 
C 304.282049 45.749601 305.045625 43.906165 305.045625 41.984271 
C 305.045625 40.062377 304.282049 38.21894 302.923064 36.859956 
C 301.56408 35.500972 299.720644 34.737396 297.79875 34.737396 
C 295.876856 34.737396 294.03342 35.500972 292.674436 36.859956 
C 291.315451 38.21894 290.551875 40.062377 290.551875 41.984271 
C 290.551875 43.906165 291.315451 45.749601 292.674436 47.108585 
C 294.03342 48.467569 295.876856 49.231146 297.79875 49.231146 
z
" style="fill: #ffffff; stroke: #000000; stroke-linejoin: miter"/>
    </g>
    <!-- − -->
    <g transform="translate(292.770938 45.295521) scale(0.12 -0.12)">
     <use xlink:href="#DejaVuSans-2212"/>
    </g>
   </g>
   <g id="text_30">
    <g id="patch_13">
     <path d="M 474.732083 97.004479 
C 476.653977 97.004479 478.497414 96.240903 479.856398 94.881919 
C 481.215382 93.522935 481.978958 91.679498 481.978958 89.757604 
C 481.978958 87.83571 481.215382 85.992274 479.856398 84.63329 
C 478.497414 83.274306 476.653977 82.510729 474.732083 82.510729 
C 472.81019 82.510729 470.966753 83.274306 469.607769 84.63329 
C 468.248785 85.992274 467.485208 87.83571 467.485208 89.757604 
C 467.485208 91.679498 468.248785 93.522935 469.607769 94.881919 
C 470.966753 96.240903 472.81019 97.004479 474.732083 97.004479 
z
" style="fill: #ffffff; stroke: #000000; stroke-linejoin: miter"/>
    </g>
    <!-- + -->
    <g transform="translate(469.704271 93.068854) scale(0.12 -0.12)">
     <use xlink:href="#DejaVuSans-2b"/>
    </g>
   </g>
   <g id="text_31">
    <g id="patch_14">
     <path d="M 474.732083 168.664479 
C 476.653977 168.664479 478.497414 167.900903 479.856398 166.541919 
C 481.215382 165.182935 481.978958 163.339498 481.978958 161.417604 
C 481.978958 159.49571 481.215382 157.652274 479.856398 156.29329 
C 478.497414 154.934306 476.653977 154.170729 474.732083 154.170729 
C 472.81019 154.170729 470.966753 154.934306 469.607769 156.29329 
C 468.248785 157.652274 467.485208 159.49571 467.485208 161.417604 
C 467.485208 163.339498 468.248785 165.182935 469.607769 166.541919 
C 470.966753 167.900903 472.81019 168.664479 474.732083 168.664479 
z
" style="fill: #ffffff; stroke: #000000; stroke-linejoin: miter"/>
    </g>
    <!-- + -->
    <g transform="translate(469.704271 164.728854) scale(0.12 -0.12)">
     <use xlink:href="#DejaVuSans-2b"/>
    </g>
   </g>
   <g id="text_32">
    <g id="patch_15">
     <path d="M 518.965417 192.551146 
C 520.88731 192.551146 522.730747 191.787569 524.089731 190.428585 
C 525.448715 189.069601 526.212292 187.226165 526.212292 185.304271 
C 526.212292 183.382377 525.448715 181.53894 524.089731 180.179956 
C 522.730747 178.820972 520.88731 178.057396 518.965417 178.057396 
C 517.043523 178.057396 515.200086 178.820972 513.841102 180.179956 
C 512.482118 181.53894 511.718542 183.382377 511.718542 185.304271 
C 511.718542 187.226165 512.482118 189.069601 513.841102 190.428585 
C 515.200086 191.787569 517.043523 192.551146 518.965417 192.551146 
z
" style="fill: #ffffff; stroke: #000000; stroke-linejoin: miter"/>
    </g>
    <!-- + -->
    <g transform="translate(513.937604 188.615521) scale(0.12 -0.12)">
     <use xlink:href="#DejaVuSans-2b"/>
    </g>
   </g>
   <g id="text_33">
    <g id="patch_16">
     <path d="M 474.732083 73.117812 
C 476.653977 73.117812 478.497414 72.354236 479.856398 70.995252 
C 481.215382 69.636268 481.978958 67.792831 481.978958 65.870937 
C 481.978958 63.949044 481.215382 62.105607 479.856398 60.746623 
C 478.497414 59.387639 476.653977 58.624062 474.732083 58.624062 
C 472.81019 58.624062 470.966753 59.387639 469.607769 60.746623 
C 468.248785 62.105607 467.485208 63.949044 467.485208 65.870937 
C 467.485208 67.792831 468.248785 69.636268 469.607769 70.995252 
C 470.966753 72.354236 472.81019 73.117812 474.732083 73.117812 
z
" style="fill: #ffffff; stroke: #000000; stroke-linejoin: miter"/>
    </g>
    <!-- + -->
    <g transform="translate(469.704271 69.182187) scale(0.12 -0.12)">
     <use xlink:href="#DejaVuSans-2b"/>
    </g>
   </g>
   <g id="text_34">
    <g id="patch_17">
     <path d="M 430.49875 49.231146 
C 432.420644 49.231146 434.26408 48.467569 435.623064 47.108585 
C 436.982049 45.749601 437.745625 43.906165 437.745625 41.984271 
C 437.745625 40.062377 436.982049 38.21894 435.623064 36.859956 
C 434.26408 35.500972 432.420644 34.737396 430.49875 34.737396 
C 428.576856 34.737396 426.73342 35.500972 425.374436 36.859956 
C 424.015451 38.21894 423.251875 40.062377 423.251875 41.984271 
C 423.251875 43.906165 424.015451 45.749601 425.374436 47.108585 
C 426.73342 48.467569 428.576856 49.231146 430.49875 49.231146 
z
" style="fill: #ffffff; stroke: #000000; stroke-linejoin: miter"/>
    </g>
    <!-- + -->
    <g transform="translate(425.470937 45.295521) scale(0.12 -0.12)">
     <use xlink:href="#DejaVuSans-2b"/>
    </g>
   </g>
   <g id="text_35">
    <g id="patch_18">
     <path d="M 165.09875 144.777812 
C 167.020644 144.777812 168.86408 144.014236 170.223064 142.655252 
C 171.582049 141.296268 172.345625 139.452831 172.345625 137.530937 
C 172.345625 135.609044 171.582049 133.765607 170.223064 132.406623 
C 168.86408 131.047639 167.020644 130.284062 165.09875 130.284062 
C 163.176856 130.284062 161.33342 131.047639 159.974436 132.406623 
C 158.615451 133.765607 157.851875 135.609044 157.851875 137.530937 
C 157.851875 139.452831 158.615451 141.296268 159.974436 142.655252 
C 161.33342 144.014236 163.176856 144.777812 165.09875 144.777812 
z
" style="fill: #ffffff; stroke: #000000; stroke-linejoin: miter"/>
    </g>
    <!-- − -->
    <g transform="translate(160.070937 140.842187) scale(0.12 -0.12)">
     <use xlink:href="#DejaVuSans-2212"/>
    </g>
   </g>
   <g id="text_36">
    <g id="patch_19">
     <path d="M 474.732083 216.437812 
C 476.653977 216.437812 478.497414 215.674236 479.856398 214.315252 
C 481.215382 212.956268 481.978958 211.112831 481.978958 209.190937 
C 481.978958 207.269044 481.215382 205.425607 479.856398 204.066623 
C 478.497414 202.707639 476.653977 201.944062 474.732083 201.944062 
C 472.81019 201.944062 470.966753 202.707639 469.607769 204.066623 
C 468.248785 205.425607 467.485208 207.269044 467.485208 209.190937 
C 467.485208 211.112831 468.248785 212.956268 469.607769 214.315252 
C 470.966753 215.674236 472.81019 216.437812 474.732083 216.437812 
z
" style="fill: #ffffff; stroke: #000000; stroke-linejoin: miter"/>
    </g>
    <!-- + -->
    <g transform="translate(469.704271 212.502187) scale(0.12 -0.12)">
     <use xlink:href="#DejaVuSans-2b"/>
    </g>
   </g>
   <g id="text_37">
    <g id="patch_20">
     <path d="M 474.732083 240.324479 
C 476.653977 240.324479 478.497414 239.560903 479.856398 238.201919 
C 481.215382 236.842935 481.978958 234.999498 481.978958 233.077604 
C 481.978958 231.15571 481.215382 229.312274 479.856398 227.95329 
C 478.497414 226.594306 476.653977 225.830729 474.732083 225.830729 
C 472.81019 225.830729 470.966753 226.594306 469.607769 227.95329 
C 468.248785 229.312274 467.485208 231.15571 467.485208 233.077604 
C 467.485208 234.999498 468.248785 236.842935 469.607769 238.201919 
C 470.966753 239.560903 472.81019 240.324479 474.732083 240.324479 
z
" style="fill: #ffffff; stroke: #000000; stroke-linejoin: miter"/>
    </g>
    <!-- + -->
    <g transform="translate(469.704271 236.388854) scale(0.12 -0.12)">
     <use xlink:href="#DejaVuSans-2b"/>
    </g>
   </g>
   <g id="text_38">
    <g id="patch_21">
     <path d="M 518.965417 240.324479 
C 520.88731 240.324479 522.730747 239.560903 524.089731 238.201919 
C 525.448715 236.842935 526.212292 234.999498 526.212292 233.077604 
C 526.212292 231.15571 525.448715 229.312274 524.089731 227.95329 
C 522.730747 226.594306 520.88731 225.830729 518.965417 225.830729 
C 517.043523 225.830729 515.200086 226.594306 513.841102 227.95329 
C 512.482118 229.312274 511.718542 231.15571 511.718542 233.077604 
C 511.718542 234.999498 512.482118 236.842935 513.841102 238.201919 
C 515.200086 239.560903 517.043523 240.324479 518.965417 240.324479 
z
" style="fill: #ffffff; stroke: #000000; stroke-linejoin: miter"/>
    </g>
    <!-- + -->
    <g transform="translate(513.937604 236.388854) scale(0.12 -0.12)">
     <use xlink:href="#DejaVuSans-2b"/>
    </g>
   </g>
   <g id="text_39">
    <g id="patch_22">
     <path d="M 518.965417 216.437812 
C 520.88731 216.437812 522.730747 215.674236 524.089731 214.315252 
C 525.448715 212.956268 526.212292 211.112831 526.212292 209.190937 
C 526.212292 207.269044 525.448715 205.425607 524.089731 204.066623 
C 522.730747 202.707639 520.88731 201.944062 518.965417 201.944062 
C 517.043523 201.944062 515.200086 202.707639 513.841102 204.066623 
C 512.482118 205.425607 511.718542 207.269044 511.718542 209.190937 
C 511.718542 211.112831 512.482118 212.956268 513.841102 214.315252 
C 515.200086 215.674236 517.043523 216.437812 518.965417 216.437812 
z
" style="fill: #ffffff; stroke: #000000; stroke-linejoin: miter"/>
    </g>
    <!-- + -->
    <g transform="translate(513.937604 212.502187) scale(0.12 -0.12)">
     <use xlink:href="#DejaVuSans-2b"/>
    </g>
   </g>
   <g id="text_40">
    <!-- Timepoint (days) -->
    <g transform="translate(321.870625 14.798437) scale(0.1 -0.1)">
     <defs>
      <path id="DejaVuSans-54" d="M -19 4666 
L 3928 4666 
L 3928 4134 
L 2272 4134 
L 2272 0 
L 1638 0 
L 1638 4134 
L -19 4134 
L -19 4666 
z
" transform="scale(0.015625)"/>
      <path id="DejaVuSans-28" d="M 1984 4856 
Q 1566 4138 1362 3434 
Q 1159 2731 1159 2009 
Q 1159 1288 1364 580 
Q 1569 -128 1984 -844 
L 1484 -844 
Q 1016 -109 783 600 
Q 550 1309 550 2009 
Q 550 2706 781 3412 
Q 1013 4119 1484 4856 
L 1984 4856 
z
" transform="scale(0.015625)"/>
      <path id="DejaVuSans-29" d="M 513 4856 
L 1013 4856 
Q 1481 4119 1714 3412 
Q 1947 2706 1947 2009 
Q 1947 1309 1714 600 
Q 1481 -109 1013 -844 
L 513 -844 
Q 928 -128 1133 580 
Q 1338 1288 1338 2009 
Q 1338 2731 1133 3434 
Q 928 4138 513 4856 
z
" transform="scale(0.015625)"/>
     </defs>
     <use xlink:href="#DejaVuSans-54"/>
     <use xlink:href="#DejaVuSans-69" x="57.958984"/>
     <use xlink:href="#DejaVuSans-6d" x="85.742188"/>
     <use xlink:href="#DejaVuSans-65" x="183.154297"/>
     <use xlink:href="#DejaVuSans-70" x="244.677734"/>
     <use xlink:href="#DejaVuSans-6f" x="308.154297"/>
     <use xlink:href="#DejaVuSans-69" x="369.335938"/>
     <use xlink:href="#DejaVuSans-6e" x="397.119141"/>
     <use xlink:href="#DejaVuSans-74" x="460.498047"/>
     <use xlink:href="#DejaVuSans-20" x="499.707031"/>
     <use xlink:href="#DejaVuSans-28" x="531.494141"/>
     <use xlink:href="#DejaVuSans-64" x="570.507812"/>
     <use xlink:href="#DejaVuSans-61" x="633.984375"/>
     <use xlink:href="#DejaVuSans-79" x="695.263672"/>
     <use xlink:href="#DejaVuSans-73" x="754.443359"/>
     <use xlink:href="#DejaVuSans-29" x="806.542969"/>
    </g>
   </g>
  </g>
 </g>
 <defs>
  <clipPath id="p2f8044f271">
   <rect x="138.55875" y="30.040937" width="451.18" height="214.98"/>
  </clipPath>
 </defs>
</svg>
