<?xml version="1.0" encoding="utf-8" standalone="no"?>
<!DOCTYPE svg PUBLIC "-//W3C//DTD SVG 1.1//EN"
  "http://www.w3.org/Graphics/SVG/1.1/DTD/svg11.dtd">
<svg xmlns:xlink="http://www.w3.org/1999/xlink" width="573.3575pt" height="300.42pt" viewBox="0 0 573.3575 300.42" xmlns="http://www.w3.org/2000/svg" version="1.1">
 <metadata>
  <rdf:RDF xmlns:dc="http://purl.org/dc/elements/1.1/" xmlns:cc="http://creativecommons.org/ns#" xmlns:rdf="http://www.w3.org/1999/02/22-rdf-syntax-ns#">
   <cc:Work>
    <dc:type rdf:resource="http://purl.org/dc/dcmitype/StillImage"/>
    <dc:date>2026-03-31T12:34:49.555244</dc:date>
    <dc:format>image/svg+xml</dc:format>
    <dc:creator>
     <cc:Agent>
      <dc:title>Matplotlib v3.10.8, https://matplotlib.org/</dc:title>
     </cc:Agent>
    </dc:creator>
   </cc:Work>
  </rdf:RDF>
 </metadata>
 <defs>
  <style type="text/css">*{stroke-linejoin: round; stroke-linecap: butt}</style>
 </defs>
 <g id="figure_1">
  <g id="patch_1">
   <path d="M 0 300.42 
L 573.3575 300.42 
L 573.3575 0 
L 0 0 
z
" style="fill: #ffffff"/>
  </g>
  <g id="axes_1">
   <g id="patch_2">
    <path d="M 38.665 266.6725 
L 296.34125 266.6725 
L 296.34125 53.52 
L 38.665 53.52 
z
" style="fill: #ffffff"/>
   </g>
   <g id="matplotlib.axis_1">
    <g id="xtick_1">
     <g id="line2d_1">
      <path d="M 50.377557 266.6725 
L 50.377557 53.52 
" clip-path="url(#pf8d3106a7c)" style="fill: none; stroke: #b0b0b0; stroke-opacity: 0.2; stroke-width: 0.8; stroke-linecap: square"/>
     </g>
     <g id="line2d_2">
      <defs>
       <path id="m6b5f0a209b" d="M 0 0 
L 0 3.5 
" style="stroke: #000000; stroke-width: 0.8"/>
      </defs>
      <g>
       <use xlink:href="#m6b5f0a209b" x="50.377557" y="266.6725" style="stroke: #000000; stroke-width: 0.8"/>
      </g>
     </g>
     <g id="text_1">
      <text style="font-size: 8px; font-family: 'DejaVu Sans', 'Bitstream Vera Sans', 'Computer Modern Sans Serif', 'Lucida Grande', 'Verdana', 'Geneva', 'Lucid', 'Arial', 'Helvetica', 'Avant Garde', sans-serif; text-anchor: middle" x="50.377557" y="279.75125" transform="rotate(-0 50.377557 279.75125)">0</text>
     </g>
    </g>
    <g id="xtick_2">
     <g id="line2d_3">
      <path d="M 97.227784 266.6725 
L 97.227784 53.52 
" clip-path="url(#pf8d3106a7c)" style="fill: none; stroke: #b0b0b0; stroke-opacity: 0.2; stroke-width: 0.8; stroke-linecap: square"/>
     </g>
     <g id="line2d_4">
      <g>
       <use xlink:href="#m6b5f0a209b" x="97.227784" y="266.6725" style="stroke: #000000; stroke-width: 0.8"/>
      </g>
     </g>
     <g id="text_2">
      <text style="font-size: 8px; font-family: 'DejaVu Sans', 'Bitstream Vera Sans', 'Computer Modern Sans Serif', 'Lucida Grande', 'Verdana', 'Geneva', 'Lucid', 'Arial', 'Helvetica', 'Avant Garde', sans-serif; text-anchor: middle" x="97.227784" y="279.75125" transform="rotate(-0 97.227784 279.75125)">20</text>
     </g>
    </g>
    <g id="xtick_3">
     <g id="line2d_5">
      <path d="M 144.078011 266.6725 
L 144.078011 53.52 
" clip-path="url(#pf8d3106a7c)" style="fill: none; stroke: #b0b0b0; stroke-opacity: 0.2; stroke-width: 0.8; stroke-linecap: square"/>
     </g>
     <g id="line2d_6">
      <g>
       <use xlink:href="#m6b5f0a209b" x="144.078011" y="266.6725" style="stroke: #000000; stroke-width: 0.8"/>
      </g>
     </g>
     <g id="text_3">
      <text style="font-size: 8px; font-family: 'DejaVu Sans', 'Bitstream Vera Sans', 'Computer Modern Sans Serif', 'Lucida Grande', 'Verdana', 'Geneva', 'Lucid', 'Arial', 'Helvetica', 'Avant Garde', sans-serif; text-anchor: middle" x="144.078011" y="279.75125" transform="rotate(-0 144.078011 279.75125)">40</text>
     </g>
    </g>
    <g id="xtick_4">
     <g id="line2d_7">
      <path d="M 190.928239 266.6725 
L 190.928239 53.52 
" clip-path="url(#pf8d3106a7c)" style="fill: none; stroke: #b0b0b0; stroke-opacity: 0.2; stroke-width: 0.8; stroke-linecap: square"/>
     </g>
     <g id="line2d_8">
      <g>
       <use xlink:href="#m6b5f0a209b" x="190.928239" y="266.6725" style="stroke: #000000; stroke-width: 0.8"/>
      </g>
     </g>
     <g id="text_4">
      <text style="font-size: 8px; font-family: 'DejaVu Sans', 'Bitstream Vera Sans', 'Computer Modern Sans Serif', 'Lucida Grande', 'Verdana', 'Geneva', 'Lucid', 'Arial', 'Helvetica', 'Avant Garde', sans-serif; text-anchor: middle" x="190.928239" y="279.75125" transform="rotate(-0 190.928239 279.75125)">60</text>
     </g>
    </g>
    <g id="xtick_5">
     <g id="line2d_9">
      <path d="M 237.778466 266.6725 
L 237.778466 53.52 
" clip-path="url(#pf8d3106a7c)" style="fill: none; stroke: #b0b0b0; stroke-opacity: 0.2; stroke-width: 0.8; stroke-linecap: square"/>
     </g>
     <g id="line2d_10">
      <g>
       <use xlink:href="#m6b5f0a209b" x="237.778466" y="266.6725" style="stroke: #000000; stroke-width: 0.8"/>
      </g>
     </g>
     <g id="text_5">
      <text style="font-size: 8px; font-family: 'DejaVu Sans', 'Bitstream Vera Sans', 'Computer Modern Sans Serif', 'Lucida Grande', 'Verdana', 'Geneva', 'Lucid', 'Arial', 'Helvetica', 'Avant Garde', sans-serif; text-anchor: middle" x="237.778466" y="279.75125" transform="rotate(-0 237.778466 279.75125)">80</text>
     </g>
    </g>
    <g id="xtick_6">
     <g id="line2d_11">
      <path d="M 284.628693 266.6725 
L 284.628693 53.52 
" clip-path="url(#pf8d3106a7c)" style="fill: none; stroke: #b0b0b0; stroke-opacity: 0.2; stroke-width: 0.8; stroke-linecap: square"/>
     </g>
     <g id="line2d_12">
      <g>
       <use xlink:href="#m6b5f0a209b" x="284.628693" y="266.6725" style="stroke: #000000; stroke-width: 0.8"/>
      </g>
     </g>
     <g id="text_6">
      <text style="font-size: 8px; font-family: 'DejaVu Sans', 'Bitstream Vera Sans', 'Computer Modern Sans Serif', 'Lucida Grande', 'Verdana', 'Geneva', 'Lucid', 'Arial', 'Helvetica', 'Avant Garde', sans-serif; text-anchor: middle" x="284.628693" y="279.75125" transform="rotate(-0 284.628693 279.75125)">100</text>
     </g>
    </g>
    <g id="text_7">
     <text style="font-weight: 700; font-size: 8px; font-family: 'DejaVu Sans', 'Bitstream Vera Sans', 'Computer Modern Sans Serif', 'Lucida Grande', 'Verdana', 'Geneva', 'Lucid', 'Arial', 'Helvetica', 'Avant Garde', sans-serif; text-anchor: middle" x="167.503125" y="291.49375" transform="rotate(-0 167.503125 291.49375)">Cumulative percentile of detected genes (%)</text>
    </g>
   </g>
   <g id="matplotlib.axis_2">
    <g id="ytick_1">
     <g id="line2d_13">
      <path d="M 38.665 265.310226 
L 296.34125 265.310226 
" clip-path="url(#pf8d3106a7c)" style="fill: none; stroke: #b0b0b0; stroke-opacity: 0.2; stroke-width: 0.8; stroke-linecap: square"/>
     </g>
     <g id="line2d_14">
      <defs>
       <path id="md273c5f642" d="M 0 0 
L -3.5 0 
" style="stroke: #000000; stroke-width: 0.8"/>
      </defs>
      <g>
       <use xlink:href="#md273c5f642" x="38.665" y="265.310226" style="stroke: #000000; stroke-width: 0.8"/>
      </g>
     </g>
     <g id="text_8">
      <text style="font-size: 8px; font-family: 'DejaVu Sans', 'Bitstream Vera Sans', 'Computer Modern Sans Serif', 'Lucida Grande', 'Verdana', 'Geneva', 'Lucid', 'Arial', 'Helvetica', 'Avant Garde', sans-serif; text-anchor: end" x="31.665" y="268.349601" transform="rotate(-0 31.665 268.349601)">0.2</text>
     </g>
    </g>
    <g id="ytick_2">
     <g id="line2d_15">
      <path d="M 38.665 238.927096 
L 296.34125 238.927096 
" clip-path="url(#pf8d3106a7c)" style="fill: none; stroke: #b0b0b0; stroke-opacity: 0.2; stroke-width: 0.8; stroke-linecap: square"/>
     </g>
     <g id="line2d_16">
      <g>
       <use xlink:href="#md273c5f642" x="38.665" y="238.927096" style="stroke: #000000; stroke-width: 0.8"/>
      </g>
     </g>
     <g id="text_9">
      <text style="font-size: 8px; font-family: 'DejaVu Sans', 'Bitstream Vera Sans', 'Computer Modern Sans Serif', 'Lucida Grande', 'Verdana', 'Geneva', 'Lucid', 'Arial', 'Helvetica', 'Avant Garde', sans-serif; text-anchor: end" x="31.665" y="241.966471" transform="rotate(-0 31.665 241.966471)">0.4</text>
     </g>
    </g>
    <g id="ytick_3">
     <g id="line2d_17">
      <path d="M 38.665 212.543966 
L 296.34125 212.543966 
" clip-path="url(#pf8d3106a7c)" style="fill: none; stroke: #b0b0b0; stroke-opacity: 0.2; stroke-width: 0.8; stroke-linecap: square"/>
     </g>
     <g id="line2d_18">
      <g>
       <use xlink:href="#md273c5f642" x="38.665" y="212.543966" style="stroke: #000000; stroke-width: 0.8"/>
      </g>
     </g>
     <g id="text_10">
      <text style="font-size: 8px; font-family: 'DejaVu Sans', 'Bitstream Vera Sans', 'Computer Modern Sans Serif', 'Lucida Grande', 'Verdana', 'Geneva', 'Lucid', 'Arial', 'Helvetica', 'Avant Garde', sans-serif; text-anchor: end" x="31.665" y="215.583341" transform="rotate(-0 31.665 215.583341)">0.6</text>
     </g>
    </g>
    <g id="ytick_4">
     <g id="line2d_19">
      <path d="M 38.665 186.160837 
L 296.34125 186.160837 
" clip-path="url(#pf8d3106a7c)" style="fill: none; stroke: #b0b0b0; stroke-opacity: 0.2; stroke-width: 0.8; stroke-linecap: square"/>
     </g>
     <g id="line2d_20">
      <g>
       <use xlink:href="#md273c5f642" x="38.665" y="186.160837" style="stroke: #000000; stroke-width: 0.8"/>
      </g>
     </g>
     <g id="text_11">
      <text style="font-size: 8px; font-family: 'DejaVu Sans', 'Bitstream Vera Sans', 'Computer Modern Sans Serif', 'Lucida Grande', 'Verdana', 'Geneva', 'Lucid', 'Arial', 'Helvetica', 'Avant Garde', sans-serif; text-anchor: end" x="31.665" y="189.200212" transform="rotate(-0 31.665 189.200212)">0.8</text>
     </g>
    </g>
    <g id="ytick_5">
     <g id="line2d_21">
      <path d="M 38.665 159.777707 
L 296.34125 159.777707 
" clip-path="url(#pf8d3106a7c)" style="fill: none; stroke: #b0b0b0; stroke-opacity: 0.2; stroke-width: 0.8; stroke-linecap: square"/>
     </g>
     <g id="line2d_22">
      <g>
       <use xlink:href="#md273c5f642" x="38.665" y="159.777707" style="stroke: #000000; stroke-width: 0.8"/>
      </g>
     </g>
     <g id="text_12">
      <text style="font-size: 8px; font-family: 'DejaVu Sans', 'Bitstream Vera Sans', 'Computer Modern Sans Serif', 'Lucida Grande', 'Verdana', 'Geneva', 'Lucid', 'Arial', 'Helvetica', 'Avant Garde', sans-serif; text-anchor: end" x="31.665" y="162.817082" transform="rotate(-0 31.665 162.817082)">1.0</text>
     </g>
    </g>
    <g id="ytick_6">
     <g id="line2d_23">
      <path d="M 38.665 133.394577 
L 296.34125 133.394577 
" clip-path="url(#pf8d3106a7c)" style="fill: none; stroke: #b0b0b0; stroke-opacity: 0.2; stroke-width: 0.8; stroke-linecap: square"/>
     </g>
     <g id="line2d_24">
      <g>
       <use xlink:href="#md273c5f642" x="38.665" y="133.394577" style="stroke: #000000; stroke-width: 0.8"/>
      </g>
     </g>
     <g id="text_13">
      <text style="font-size: 8px; font-family: 'DejaVu Sans', 'Bitstream Vera Sans', 'Computer Modern Sans Serif', 'Lucida Grande', 'Verdana', 'Geneva', 'Lucid', 'Arial', 'Helvetica', 'Avant Garde', sans-serif; text-anchor: end" x="31.665" y="136.433952" transform="rotate(-0 31.665 136.433952)">1.2</text>
     </g>
    </g>
    <g id="ytick_7">
     <g id="line2d_25">
      <path d="M 38.665 107.011448 
L 296.34125 107.011448 
" clip-path="url(#pf8d3106a7c)" style="fill: none; stroke: #b0b0b0; stroke-opacity: 0.2; stroke-width: 0.8; stroke-linecap: square"/>
     </g>
     <g id="line2d_26">
      <g>
       <use xlink:href="#md273c5f642" x="38.665" y="107.011448" style="stroke: #000000; stroke-width: 0.8"/>
      </g>
     </g>
     <g id="text_14">
      <text style="font-size: 8px; font-family: 'DejaVu Sans', 'Bitstream Vera Sans', 'Computer Modern Sans Serif', 'Lucida Grande', 'Verdana', 'Geneva', 'Lucid', 'Arial', 'Helvetica', 'Avant Garde', sans-serif; text-anchor: end" x="31.665" y="110.050823" transform="rotate(-0 31.665 110.050823)">1.4</text>
     </g>
    </g>
    <g id="ytick_8">
     <g id="line2d_27">
      <path d="M 38.665 80.628318 
L 296.34125 80.628318 
" clip-path="url(#pf8d3106a7c)" style="fill: none; stroke: #b0b0b0; stroke-opacity: 0.2; stroke-width: 0.8; stroke-linecap: square"/>
     </g>
     <g id="line2d_28">
      <g>
       <use xlink:href="#md273c5f642" x="38.665" y="80.628318" style="stroke: #000000; stroke-width: 0.8"/>
      </g>
     </g>
     <g id="text_15">
      <text style="font-size: 8px; font-family: 'DejaVu Sans', 'Bitstream Vera Sans', 'Computer Modern Sans Serif', 'Lucida Grande', 'Verdana', 'Geneva', 'Lucid', 'Arial', 'Helvetica', 'Avant Garde', sans-serif; text-anchor: end" x="31.665" y="83.667693" transform="rotate(-0 31.665 83.667693)">1.6</text>
     </g>
    </g>
    <g id="ytick_9">
     <g id="line2d_29">
      <path d="M 38.665 54.245188 
L 296.34125 54.245188 
" clip-path="url(#pf8d3106a7c)" style="fill: none; stroke: #b0b0b0; stroke-opacity: 0.2; stroke-width: 0.8; stroke-linecap: square"/>
     </g>
     <g id="line2d_30">
      <g>
       <use xlink:href="#md273c5f642" x="38.665" y="54.245188" style="stroke: #000000; stroke-width: 0.8"/>
      </g>
     </g>
     <g id="text_16">
      <text style="font-size: 8px; font-family: 'DejaVu Sans', 'Bitstream Vera Sans', 'Computer Modern Sans Serif', 'Lucida Grande', 'Verdana', 'Geneva', 'Lucid', 'Arial', 'Helvetica', 'Avant Garde', sans-serif; text-anchor: end" x="31.665" y="57.284563" transform="rotate(-0 31.665 57.284563)">1.8</text>
     </g>
    </g>
    <g id="text_17">
     <text style="font-weight: 700; font-size: 8px; font-family: 'DejaVu Sans', 'Bitstream Vera Sans', 'Computer Modern Sans Serif', 'Lucida Grande', 'Verdana', 'Geneva', 'Lucid', 'Arial', 'Helvetica', 'Avant Garde', sans-serif; text-anchor: middle" x="13.27875" y="160.09625" transform="rotate(-90 13.27875 160.09625)">Coefficient of variation of export ratio</text>
    </g>
   </g>
   <g id="line2d_31">
    <path d="M 52.720068 188.112225 
L 55.06258 189.369128 
L 57.405091 189.733552 
L 59.747602 188.787819 
L 62.090114 189.733552 
L 64.432625 188.95629 
L 66.775136 188.201415 
L 69.117648 188.298631 
L 71.460159 186.848398 
L 73.80267 186.841263 
L 76.145182 187.99145 
L 78.487693 187.017188 
L 80.830205 187.017188 
L 83.172716 187.110816 
L 85.515227 187.737801 
L 87.857739 188.361273 
L 90.20025 188.354084 
L 92.542761 188.407217 
L 94.885273 188.152463 
L 97.227784 188.116512 
L 99.570295 188.110482 
L 101.912807 188.024747 
L 104.255318 188.024747 
L 106.59783 188.200896 
L 108.940341 188.116512 
L 111.282852 188.301876 
L 113.625364 189.255993 
L 115.967875 189.690393 
L 118.310386 189.58528 
L 120.652898 189.539482 
L 122.995409 189.693816 
L 125.33792 190.114395 
L 127.680432 190.653474 
L 130.022943 191.010012 
L 132.365455 191.62189 
L 134.707966 191.823518 
L 137.050477 192.317895 
L 139.392989 192.618555 
L 141.7355 193.182124 
L 144.078011 193.522283 
L 146.420523 193.983527 
L 148.763034 194.176537 
L 151.105545 194.54924 
L 153.448057 194.821998 
L 155.790568 195.038566 
L 158.13308 195.396237 
L 160.475591 196.160746 
L 162.818102 196.481693 
L 165.160614 196.736545 
L 167.503125 196.810757 
L 169.845636 197.066651 
L 172.188148 197.549166 
L 174.530659 197.888317 
L 176.87317 198.035206 
L 179.215682 198.43787 
L 181.558193 198.868566 
L 183.900705 199.003554 
L 186.243216 199.065639 
L 188.585727 199.640108 
L 190.928239 200.142089 
L 193.27075 200.607767 
L 195.613261 200.935139 
L 197.955773 201.488482 
L 200.298284 202.028011 
L 202.640795 202.447062 
L 204.983307 202.862135 
L 207.325818 203.229914 
L 209.66833 203.591125 
L 212.010841 204.232067 
L 214.353352 204.673016 
L 216.695864 205.107832 
L 219.038375 205.410304 
L 221.380886 205.655307 
L 223.723398 206.129973 
L 226.065909 206.583108 
L 228.40842 206.88741 
L 230.750932 207.347177 
L 233.093443 207.652928 
L 235.435955 208.121928 
L 237.778466 208.584664 
L 240.120977 209.160562 
L 242.463489 209.781005 
L 244.806 210.304146 
L 247.148511 210.893954 
L 249.491023 211.575047 
L 251.833534 212.243235 
L 254.176045 212.556202 
L 256.518557 213.069172 
L 258.861068 213.690902 
L 261.20358 214.268545 
L 263.546091 214.865925 
L 265.888602 215.436803 
L 268.231114 215.902853 
L 270.573625 216.379402 
L 272.916136 216.828526 
L 275.258648 217.404152 
L 277.601159 217.957878 
L 279.94367 218.543176 
L 282.286182 219.125595 
L 284.628693 219.489081 
" clip-path="url(#pf8d3106a7c)" style="fill: none; stroke: #77c8dc; stroke-opacity: 0.95; stroke-width: 3.5; stroke-linecap: square"/>
   </g>
   <g id="line2d_32">
    <path d="M 52.720068 175.409052 
L 55.06258 169.342473 
L 57.405091 167.199433 
L 59.747602 167.199433 
L 62.090114 168.930958 
L 64.432625 169.342473 
L 66.775136 169.259198 
L 69.117648 170.08747 
L 71.460159 170.3482 
L 73.80267 169.493231 
L 76.145182 170.198664 
L 78.487693 170.581765 
L 80.830205 170.496231 
L 83.172716 170.700925 
L 85.515227 171.090316 
L 87.857739 172.172376 
L 90.20025 173.316544 
L 92.542761 172.862965 
L 94.885273 173.595881 
L 97.227784 173.777848 
L 99.570295 173.944169 
L 101.912807 174.234931 
L 104.255318 174.234931 
L 106.59783 174.622807 
L 108.940341 175.107519 
L 111.282852 175.003761 
L 113.625364 175.43697 
L 115.967875 175.562624 
L 118.310386 176.166056 
L 120.652898 176.403641 
L 122.995409 176.62396 
L 125.33792 176.772753 
L 127.680432 176.878125 
L 130.022943 177.041732 
L 132.365455 177.288626 
L 134.707966 177.392417 
L 137.050477 177.450236 
L 139.392989 177.853322 
L 141.7355 179.010748 
L 144.078011 180.040903 
L 146.420523 179.970762 
L 148.763034 180.462937 
L 151.105545 180.931433 
L 153.448057 181.628937 
L 155.790568 182.149656 
L 158.13308 182.646783 
L 160.475591 183.198934 
L 162.818102 183.719101 
L 165.160614 184.11298 
L 167.503125 185.062173 
L 169.845636 185.210719 
L 172.188148 185.638758 
L 174.530659 185.910437 
L 176.87317 186.467838 
L 179.215682 186.85349 
L 181.558193 187.160215 
L 183.900705 187.830524 
L 186.243216 188.257507 
L 188.585727 188.722606 
L 190.928239 189.478169 
L 193.27075 190.13295 
L 195.613261 190.579194 
L 197.955773 191.20314 
L 200.298284 191.824766 
L 202.640795 192.244772 
L 204.983307 192.731826 
L 207.325818 193.018362 
L 209.66833 193.299191 
L 212.010841 194.269766 
L 214.353352 194.538149 
L 216.695864 194.95801 
L 219.038375 195.320362 
L 221.380886 195.888967 
L 223.723398 196.113605 
L 226.065909 196.527338 
L 228.40842 196.981821 
L 230.750932 197.460571 
L 233.093443 197.819983 
L 235.435955 198.300352 
L 237.778466 198.897005 
L 240.120977 199.467386 
L 242.463489 199.915095 
L 244.806 200.438936 
L 247.148511 201.00073 
L 249.491023 201.482332 
L 251.833534 201.960112 
L 254.176045 202.410936 
L 256.518557 202.887392 
L 258.861068 203.369624 
L 261.20358 203.892522 
L 263.546091 204.422911 
L 265.888602 205.041281 
L 268.231114 205.529856 
L 270.573625 205.962297 
L 272.916136 206.556052 
L 275.258648 206.952721 
L 277.601159 207.445241 
L 279.94367 207.985267 
L 282.286182 208.843919 
L 284.628693 209.538116 
" clip-path="url(#pf8d3106a7c)" style="fill: none; stroke-dasharray: 16,6; stroke-dashoffset: 0; stroke: #bdc7e3; stroke-opacity: 0.95; stroke-width: 2"/>
   </g>
   <g id="line2d_33">
    <path d="M 52.720068 162.527687 
L 55.06258 160.661061 
L 57.405091 165.954087 
L 59.747602 165.954977 
L 62.090114 166.791951 
L 64.432625 166.701086 
L 66.775136 166.222934 
L 69.117648 167.003874 
L 71.460159 166.791951 
L 73.80267 166.113973 
L 76.145182 165.954087 
L 78.487693 165.954977 
L 80.830205 164.961043 
L 83.172716 164.394314 
L 85.515227 164.830017 
L 87.857739 164.626523 
L 90.20025 165.299608 
L 92.542761 165.954977 
L 94.885273 166.190397 
L 97.227784 165.945366 
L 99.570295 165.874231 
L 101.912807 166.138381 
L 104.255318 166.416045 
L 106.59783 167.003874 
L 108.940341 167.203603 
L 111.282852 167.174526 
L 113.625364 167.655896 
L 115.967875 168.221111 
L 118.310386 168.628714 
L 120.652898 168.781757 
L 122.995409 168.907073 
L 125.33792 169.074824 
L 127.680432 169.316139 
L 130.022943 169.741577 
L 132.365455 169.919426 
L 134.707966 170.252404 
L 137.050477 170.42075 
L 139.392989 170.827057 
L 141.7355 171.082897 
L 144.078011 171.19228 
L 146.420523 171.518289 
L 148.763034 171.494211 
L 151.105545 171.890888 
L 153.448057 172.152857 
L 155.790568 172.277034 
L 158.13308 172.369129 
L 160.475591 172.307762 
L 162.818102 172.529085 
L 165.160614 172.752911 
L 167.503125 172.859318 
L 169.845636 172.91244 
L 172.188148 173.293974 
L 174.530659 173.46863 
L 176.87317 173.709836 
L 179.215682 174.03825 
L 181.558193 174.150119 
L 183.900705 174.170737 
L 186.243216 174.357681 
L 188.585727 174.748856 
L 190.928239 174.987542 
L 193.27075 175.164315 
L 195.613261 175.320259 
L 197.955773 175.329781 
L 200.298284 175.754437 
L 202.640795 176.022646 
L 204.983307 176.174541 
L 207.325818 176.327148 
L 209.66833 176.345915 
L 212.010841 176.564958 
L 214.353352 176.692245 
L 216.695864 176.775083 
L 219.038375 176.887052 
L 221.380886 177.035073 
L 223.723398 177.104778 
L 226.065909 177.150211 
L 228.40842 177.211988 
L 230.750932 177.323167 
L 233.093443 177.399725 
L 235.435955 177.438123 
L 237.778466 177.602077 
L 240.120977 177.823909 
L 242.463489 178.635097 
L 244.806 179.107201 
L 247.148511 179.507573 
L 249.491023 179.751601 
L 251.833534 179.940397 
L 254.176045 180.284114 
L 256.518557 180.584031 
L 258.861068 181.01795 
L 261.20358 181.332914 
L 263.546091 181.605027 
L 265.888602 182.002526 
L 268.231114 182.309537 
L 270.573625 182.578927 
L 272.916136 182.915842 
L 275.258648 183.199333 
L 277.601159 183.546627 
L 279.94367 183.87047 
L 282.286182 184.28782 
L 284.628693 184.843572 
" clip-path="url(#pf8d3106a7c)" style="fill: none; stroke-dasharray: 6,4; stroke-dashoffset: 0; stroke: #ecb0a3; stroke-opacity: 0.95; stroke-width: 2"/>
   </g>
   <g id="line2d_34">
    <path d="M 52.720068 178.585545 
L 55.06258 173.942261 
L 57.405091 175.21066 
L 59.747602 176.763256 
L 62.090114 175.256272 
L 64.432625 176.797668 
L 66.775136 176.797668 
L 69.117648 176.763256 
L 71.460159 177.229503 
L 73.80267 177.271927 
L 76.145182 178.389375 
L 78.487693 179.585166 
L 80.830205 179.416664 
L 83.172716 179.680616 
L 85.515227 180.119734 
L 87.857739 181.087796 
L 90.20025 181.958222 
L 92.542761 181.624134 
L 94.885273 182.469414 
L 97.227784 182.469414 
L 99.570295 182.192233 
L 101.912807 182.057655 
L 104.255318 181.970424 
L 106.59783 181.088228 
L 108.940341 181.121392 
L 111.282852 182.046956 
L 113.625364 182.403161 
L 115.967875 182.732452 
L 118.310386 182.758767 
L 120.652898 183.207238 
L 122.995409 182.870732 
L 125.33792 183.477915 
L 127.680432 183.184615 
L 130.022943 183.941363 
L 132.365455 184.660351 
L 134.707966 184.75191 
L 137.050477 184.674317 
L 139.392989 184.491197 
L 141.7355 185.021318 
L 144.078011 185.143787 
L 146.420523 185.37849 
L 148.763034 185.647462 
L 151.105545 185.699583 
L 153.448057 186.040011 
L 155.790568 186.876474 
L 158.13308 187.394729 
L 160.475591 187.356261 
L 162.818102 187.890076 
L 165.160614 187.907561 
L 167.503125 188.052839 
L 169.845636 188.230807 
L 172.188148 188.790718 
L 174.530659 189.091439 
L 176.87317 189.490466 
L 179.215682 189.623803 
L 181.558193 190.104172 
L 183.900705 190.293921 
L 186.243216 190.852099 
L 188.585727 191.089041 
L 190.928239 191.563737 
L 193.27075 191.896266 
L 195.613261 192.053857 
L 197.955773 192.303287 
L 200.298284 192.506673 
L 202.640795 192.616539 
L 204.983307 192.874582 
L 207.325818 192.953679 
L 209.66833 193.062326 
L 212.010841 193.161814 
L 214.353352 193.277577 
L 216.695864 193.552879 
L 219.038375 193.877042 
L 221.380886 194.15932 
L 223.723398 194.572881 
L 226.065909 194.759485 
L 228.40842 195.292113 
L 230.750932 195.403611 
L 233.093443 195.594594 
L 235.435955 195.953999 
L 237.778466 196.246548 
L 240.120977 196.676609 
L 242.463489 196.917901 
L 244.806 197.20943 
L 247.148511 197.840641 
L 249.491023 198.117138 
L 251.833534 198.270347 
L 254.176045 198.615381 
L 256.518557 198.887205 
L 258.861068 199.086091 
L 261.20358 199.508836 
L 263.546091 199.812676 
L 265.888602 200.080087 
L 268.231114 200.60963 
L 270.573625 200.940838 
L 272.916136 201.260517 
L 275.258648 201.645185 
L 277.601159 202.158049 
L 279.94367 202.695187 
L 282.286182 203.278054 
L 284.628693 203.969564 
" clip-path="url(#pf8d3106a7c)" style="fill: none; stroke-dasharray: 12.8,3.2,2,3.2; stroke-dashoffset: 0; stroke: #d7e6d5; stroke-opacity: 0.95; stroke-width: 2"/>
   </g>
   <g id="line2d_35">
    <path d="M 52.720068 131.069833 
L 55.06258 142.639836 
L 57.405091 142.639836 
L 59.747602 139.971838 
L 62.090114 142.179276 
L 64.432625 144.758493 
L 66.775136 144.175778 
L 69.117648 147.715537 
L 71.460159 149.216144 
L 73.80267 149.474185 
L 76.145182 149.474185 
L 78.487693 149.474185 
L 80.830205 150.533968 
L 83.172716 151.291828 
L 85.515227 150.177208 
L 87.857739 149.458597 
L 90.20025 149.489773 
L 92.542761 148.965392 
L 94.885273 148.986037 
L 97.227784 149.305161 
L 99.570295 148.969479 
L 101.912807 149.765291 
L 104.255318 149.512745 
L 106.59783 150.894544 
L 108.940341 151.261605 
L 111.282852 151.633035 
L 113.625364 151.664113 
L 115.967875 151.421171 
L 118.310386 151.693572 
L 120.652898 151.664808 
L 122.995409 151.827202 
L 125.33792 151.693572 
L 127.680432 151.664808 
L 130.022943 151.633436 
L 132.365455 151.633436 
L 134.707966 151.648974 
L 137.050477 151.614722 
L 139.392989 151.317548 
L 141.7355 151.664808 
L 144.078011 152.072445 
L 146.420523 152.350683 
L 148.763034 152.704748 
L 151.105545 152.909463 
L 153.448057 153.171481 
L 155.790568 153.406833 
L 158.13308 154.008738 
L 160.475591 154.13008 
L 162.818102 154.358325 
L 165.160614 154.642639 
L 167.503125 154.883352 
L 169.845636 155.045521 
L 172.188148 155.320006 
L 174.530659 155.436974 
L 176.87317 155.51145 
L 179.215682 156.315928 
L 181.558193 156.53806 
L 183.900705 157.131486 
L 186.243216 157.982723 
L 188.585727 158.401375 
L 190.928239 159.276772 
L 193.27075 159.853896 
L 195.613261 160.042727 
L 197.955773 160.211715 
L 200.298284 160.480947 
L 202.640795 160.647381 
L 204.983307 160.82717 
L 207.325818 161.11672 
L 209.66833 161.192891 
L 212.010841 161.554856 
L 214.353352 161.99524 
L 216.695864 162.595314 
L 219.038375 163.233995 
L 221.380886 163.233995 
L 223.723398 163.630665 
L 226.065909 163.98973 
L 228.40842 164.312103 
L 230.750932 164.94106 
L 233.093443 165.305018 
L 235.435955 165.890993 
L 237.778466 166.148558 
L 240.120977 166.576673 
L 242.463489 167.352672 
L 244.806 167.736605 
L 247.148511 168.231856 
L 249.491023 168.536024 
L 251.833534 168.753652 
L 254.176045 169.095636 
L 256.518557 169.634906 
L 258.861068 170.025686 
L 261.20358 170.245468 
L 263.546091 170.578471 
L 265.888602 171.049152 
L 268.231114 171.457989 
L 270.573625 171.649237 
L 272.916136 172.176775 
L 275.258648 172.421042 
L 277.601159 172.785652 
L 279.94367 173.125465 
L 282.286182 173.398247 
L 284.628693 173.962218 
" clip-path="url(#pf8d3106a7c)" style="fill: none; stroke-dasharray: 16,6,2,6,2,6; stroke-dashoffset: 0; stroke: #b4c7b0; stroke-opacity: 0.95; stroke-width: 2"/>
   </g>
   <g id="line2d_36">
    <path d="M 52.720068 63.20875 
L 55.06258 66.891461 
L 57.405091 80.000227 
L 59.747602 77.831618 
L 62.090114 84.861221 
L 64.432625 91.085011 
L 66.775136 88.656513 
L 69.117648 87.955689 
L 71.460159 86.992331 
L 73.80267 87.144558 
L 76.145182 89.23503 
L 78.487693 91.085011 
L 80.830205 93.723456 
L 83.172716 96.521379 
L 85.515227 97.526073 
L 87.857739 97.106231 
L 90.20025 98.43579 
L 92.542761 98.555782 
L 94.885273 98.315799 
L 97.227784 98.31102 
L 99.570295 100.965678 
L 101.912807 100.30553 
L 104.255318 100.274841 
L 106.59783 101.008465 
L 108.940341 97.526073 
L 111.282852 100.029139 
L 113.625364 100.244152 
L 115.967875 98.140104 
L 118.310386 97.633867 
L 120.652898 98.271365 
L 122.995409 98.555782 
L 125.33792 100.274841 
L 127.680432 101.196224 
L 130.022943 101.368699 
L 132.365455 101.362778 
L 134.707966 100.987072 
L 137.050477 101.356857 
L 139.392989 101.746295 
L 141.7355 101.934261 
L 144.078011 102.283728 
L 146.420523 102.915098 
L 148.763034 103.850807 
L 151.105545 104.413798 
L 153.448057 104.67819 
L 155.790568 104.804812 
L 158.13308 105.330409 
L 160.475591 105.308495 
L 162.818102 105.011374 
L 165.160614 104.783462 
L 167.503125 105.308495 
L 169.845636 105.330409 
L 172.188148 104.730495 
L 174.530659 105.227578 
L 176.87317 105.612756 
L 179.215682 105.739891 
L 181.558193 105.781521 
L 183.900705 105.910964 
L 186.243216 107.219026 
L 188.585727 107.281604 
L 190.928239 107.326294 
L 193.27075 107.303949 
L 195.613261 107.326294 
L 197.955773 107.281604 
L 200.298284 107.303949 
L 202.640795 106.61017 
L 204.983307 105.781521 
L 207.325818 105.849899 
L 209.66833 105.739891 
L 212.010841 106.369528 
L 214.353352 106.847286 
L 216.695864 105.792034 
L 219.038375 107.164737 
L 221.380886 107.167765 
L 223.723398 107.303949 
L 226.065909 107.433721 
L 228.40842 107.281604 
L 230.750932 107.862932 
L 233.093443 108.05805 
L 235.435955 108.05805 
L 237.778466 107.695168 
L 240.120977 107.732648 
L 242.463489 107.971381 
L 244.806 107.862932 
L 247.148511 107.695168 
L 249.491023 107.732648 
L 251.833534 107.695168 
L 254.176045 107.553828 
L 256.518557 107.545987 
L 258.861068 106.847286 
L 261.20358 107.011258 
L 263.546091 107.052729 
L 265.888602 107.052729 
L 268.231114 107.432987 
L 270.573625 107.754483 
L 272.916136 108.158662 
L 275.258648 108.753036 
L 277.601159 109.56934 
L 279.94367 110.43296 
L 282.286182 111.351572 
L 284.628693 112.390638 
" clip-path="url(#pf8d3106a7c)" style="fill: none; stroke-dasharray: 16,6; stroke-dashoffset: 0; stroke: #9e9e9e; stroke-opacity: 0.95; stroke-width: 2"/>
   </g>
   <g id="patch_3">
    <path d="M 38.665 266.6725 
L 38.665 53.52 
" style="fill: none; stroke: #000000; stroke-width: 0.8; stroke-linejoin: miter; stroke-linecap: square"/>
   </g>
   <g id="patch_4">
    <path d="M 296.34125 266.6725 
L 296.34125 53.52 
" style="fill: none; stroke: #000000; stroke-width: 0.8; stroke-linejoin: miter; stroke-linecap: square"/>
   </g>
   <g id="patch_5">
    <path d="M 38.665 266.6725 
L 296.34125 266.6725 
" style="fill: none; stroke: #000000; stroke-width: 0.8; stroke-linejoin: miter; stroke-linecap: square"/>
   </g>
   <g id="patch_6">
    <path d="M 38.665 53.52 
L 296.34125 53.52 
" style="fill: none; stroke: #000000; stroke-width: 0.8; stroke-linejoin: miter; stroke-linecap: square"/>
   </g>
   <g id="text_18">
    <text style="font-weight: 700; font-size: 9px; font-family: 'DejaVu Sans', 'Bitstream Vera Sans', 'Computer Modern Sans Serif', 'Lucida Grande', 'Verdana', 'Geneva', 'Lucid', 'Arial', 'Helvetica', 'Avant Garde', sans-serif; text-anchor: middle" x="167.503125" y="47.52" transform="rotate(-0 167.503125 47.52)">Lowest to highest expression</text>
   </g>
   <g id="legend_1">
    <g id="patch_7">
     <path d="M 43.565 263.1725 
L 189.530313 263.1725 
Q 190.930313 263.1725 190.930313 261.7725 
L 190.930313 200.824375 
Q 190.930313 199.424375 189.530313 199.424375 
L 43.565 199.424375 
Q 42.165 199.424375 42.165 200.824375 
L 42.165 261.7725 
Q 42.165 263.1725 43.565 263.1725 
z
" style="fill: #ffffff; opacity: 0.85; stroke: #cccccc; stroke-linejoin: miter"/>
    </g>
    <g id="line2d_37">
     <path d="M 44.965 205.093281 
L 51.965 205.093281 
L 58.965 205.093281 
" style="fill: none; stroke: #77c8dc; stroke-opacity: 0.95; stroke-width: 3.5; stroke-linecap: square"/>
    </g>
    <g id="text_19">
     <text style="font-size: 7px; font-family: 'DejaVu Sans', 'Bitstream Vera Sans', 'Computer Modern Sans Serif', 'Lucida Grande', 'Verdana', 'Geneva', 'Lucid', 'Arial', 'Helvetica', 'Avant Garde', sans-serif; text-anchor: start" x="64.565" y="207.543281" transform="rotate(-0 64.565 207.543281)">S1: NTVE (CV@50%=0.72)</text>
    </g>
    <g id="line2d_38">
     <path d="M 44.965 215.367969 
L 51.965 215.367969 
L 58.965 215.367969 
" style="fill: none; stroke-dasharray: 16,6; stroke-dashoffset: 0; stroke: #bdc7e3; stroke-opacity: 0.95; stroke-width: 2"/>
    </g>
    <g id="text_20">
     <text style="font-size: 7px; font-family: 'DejaVu Sans', 'Bitstream Vera Sans', 'Computer Modern Sans Serif', 'Lucida Grande', 'Verdana', 'Geneva', 'Lucid', 'Arial', 'Helvetica', 'Avant Garde', sans-serif; text-anchor: start" x="64.565" y="217.817969" transform="rotate(-0 64.565 217.817969)">S2: HIV-gag WT (CV@50%=0.81)</text>
    </g>
    <g id="line2d_39">
     <path d="M 44.965 225.642656 
L 51.965 225.642656 
L 58.965 225.642656 
" style="fill: none; stroke-dasharray: 6,4; stroke-dashoffset: 0; stroke: #ecb0a3; stroke-opacity: 0.95; stroke-width: 2"/>
    </g>
    <g id="text_21">
     <text style="font-size: 7px; font-family: 'DejaVu Sans', 'Bitstream Vera Sans', 'Computer Modern Sans Serif', 'Lucida Grande', 'Verdana', 'Geneva', 'Lucid', 'Arial', 'Helvetica', 'Avant Garde', sans-serif; text-anchor: start" x="64.565" y="228.092656" transform="rotate(-0 64.565 228.092656)">S3: TRACE-seq (CV@50%=0.90)</text>
    </g>
    <g id="line2d_40">
     <path d="M 44.965 235.917344 
L 51.965 235.917344 
L 58.965 235.917344 
" style="fill: none; stroke-dasharray: 12.8,3.2,2,3.2; stroke-dashoffset: 0; stroke: #d7e6d5; stroke-opacity: 0.95; stroke-width: 2"/>
    </g>
    <g id="text_22">
     <text style="font-size: 7px; font-family: 'DejaVu Sans', 'Bitstream Vera Sans', 'Computer Modern Sans Serif', 'Lucida Grande', 'Verdana', 'Geneva', 'Lucid', 'Arial', 'Helvetica', 'Avant Garde', sans-serif; text-anchor: start" x="64.565" y="238.367344" transform="rotate(-0 64.565 238.367344)">S4: MMLV-gag WT (CV@50%=0.79)</text>
    </g>
    <g id="line2d_41">
     <path d="M 44.965 246.192031 
L 51.965 246.192031 
L 58.965 246.192031 
" style="fill: none; stroke-dasharray: 16,6,2,6,2,6; stroke-dashoffset: 0; stroke: #b4c7b0; stroke-opacity: 0.95; stroke-width: 2"/>
    </g>
    <g id="text_23">
     <text style="font-size: 7px; font-family: 'DejaVu Sans', 'Bitstream Vera Sans', 'Computer Modern Sans Serif', 'Lucida Grande', 'Verdana', 'Geneva', 'Lucid', 'Arial', 'Helvetica', 'Avant Garde', sans-serif; text-anchor: start" x="64.565" y="248.642031" transform="rotate(-0 64.565 248.642031)">S5: HIV-gag:MCP (CV@50%=1.04)</text>
    </g>
    <g id="line2d_42">
     <path d="M 44.965 256.466719 
L 51.965 256.466719 
L 58.965 256.466719 
" style="fill: none; stroke-dasharray: 16,6; stroke-dashoffset: 0; stroke: #9e9e9e; stroke-opacity: 0.95; stroke-width: 2"/>
    </g>
    <g id="text_24">
     <text style="font-size: 7px; font-family: 'DejaVu Sans', 'Bitstream Vera Sans', 'Computer Modern Sans Serif', 'Lucida Grande', 'Verdana', 'Geneva', 'Lucid', 'Arial', 'Helvetica', 'Avant Garde', sans-serif; text-anchor: start" x="64.565" y="258.916719" transform="rotate(-0 64.565 258.916719)">S6: NLuc (CV@50%=1.41)</text>
    </g>
   </g>
  </g>
  <g id="axes_2">
   <g id="patch_8">
    <path d="M 308.48125 266.6725 
L 566.1575 266.6725 
L 566.1575 53.52 
L 308.48125 53.52 
z
" style="fill: #ffffff"/>
   </g>
   <g id="matplotlib.axis_3">
    <g id="xtick_7">
     <g id="line2d_43">
      <path d="M 320.193807 266.6725 
L 320.193807 53.52 
" clip-path="url(#p51ece07860)" style="fill: none; stroke: #b0b0b0; stroke-opacity: 0.2; stroke-width: 0.8; stroke-linecap: square"/>
     </g>
     <g id="line2d_44">
      <g>
       <use xlink:href="#m6b5f0a209b" x="320.193807" y="266.6725" style="stroke: #000000; stroke-width: 0.8"/>
      </g>
     </g>
     <g id="text_25">
      <text style="font-size: 8px; font-family: 'DejaVu Sans', 'Bitstream Vera Sans', 'Computer Modern Sans Serif', 'Lucida Grande', 'Verdana', 'Geneva', 'Lucid', 'Arial', 'Helvetica', 'Avant Garde', sans-serif; text-anchor: middle" x="320.193807" y="279.75125" transform="rotate(-0 320.193807 279.75125)">0</text>
     </g>
    </g>
    <g id="xtick_8">
     <g id="line2d_45">
      <path d="M 367.044034 266.6725 
L 367.044034 53.52 
" clip-path="url(#p51ece07860)" style="fill: none; stroke: #b0b0b0; stroke-opacity: 0.2; stroke-width: 0.8; stroke-linecap: square"/>
     </g>
     <g id="line2d_46">
      <g>
       <use xlink:href="#m6b5f0a209b" x="367.044034" y="266.6725" style="stroke: #000000; stroke-width: 0.8"/>
      </g>
     </g>
     <g id="text_26">
      <text style="font-size: 8px; font-family: 'DejaVu Sans', 'Bitstream Vera Sans', 'Computer Modern Sans Serif', 'Lucida Grande', 'Verdana', 'Geneva', 'Lucid', 'Arial', 'Helvetica', 'Avant Garde', sans-serif; text-anchor: middle" x="367.044034" y="279.75125" transform="rotate(-0 367.044034 279.75125)">20</text>
     </g>
    </g>
    <g id="xtick_9">
     <g id="line2d_47">
      <path d="M 413.894261 266.6725 
L 413.894261 53.52 
" clip-path="url(#p51ece07860)" style="fill: none; stroke: #b0b0b0; stroke-opacity: 0.2; stroke-width: 0.8; stroke-linecap: square"/>
     </g>
     <g id="line2d_48">
      <g>
       <use xlink:href="#m6b5f0a209b" x="413.894261" y="266.6725" style="stroke: #000000; stroke-width: 0.8"/>
      </g>
     </g>
     <g id="text_27">
      <text style="font-size: 8px; font-family: 'DejaVu Sans', 'Bitstream Vera Sans', 'Computer Modern Sans Serif', 'Lucida Grande', 'Verdana', 'Geneva', 'Lucid', 'Arial', 'Helvetica', 'Avant Garde', sans-serif; text-anchor: middle" x="413.894261" y="279.75125" transform="rotate(-0 413.894261 279.75125)">40</text>
     </g>
    </g>
    <g id="xtick_10">
     <g id="line2d_49">
      <path d="M 460.744489 266.6725 
L 460.744489 53.52 
" clip-path="url(#p51ece07860)" style="fill: none; stroke: #b0b0b0; stroke-opacity: 0.2; stroke-width: 0.8; stroke-linecap: square"/>
     </g>
     <g id="line2d_50">
      <g>
       <use xlink:href="#m6b5f0a209b" x="460.744489" y="266.6725" style="stroke: #000000; stroke-width: 0.8"/>
      </g>
     </g>
     <g id="text_28">
      <text style="font-size: 8px; font-family: 'DejaVu Sans', 'Bitstream Vera Sans', 'Computer Modern Sans Serif', 'Lucida Grande', 'Verdana', 'Geneva', 'Lucid', 'Arial', 'Helvetica', 'Avant Garde', sans-serif; text-anchor: middle" x="460.744489" y="279.75125" transform="rotate(-0 460.744489 279.75125)">60</text>
     </g>
    </g>
    <g id="xtick_11">
     <g id="line2d_51">
      <path d="M 507.594716 266.6725 
L 507.594716 53.52 
" clip-path="url(#p51ece07860)" style="fill: none; stroke: #b0b0b0; stroke-opacity: 0.2; stroke-width: 0.8; stroke-linecap: square"/>
     </g>
     <g id="line2d_52">
      <g>
       <use xlink:href="#m6b5f0a209b" x="507.594716" y="266.6725" style="stroke: #000000; stroke-width: 0.8"/>
      </g>
     </g>
     <g id="text_29">
      <text style="font-size: 8px; font-family: 'DejaVu Sans', 'Bitstream Vera Sans', 'Computer Modern Sans Serif', 'Lucida Grande', 'Verdana', 'Geneva', 'Lucid', 'Arial', 'Helvetica', 'Avant Garde', sans-serif; text-anchor: middle" x="507.594716" y="279.75125" transform="rotate(-0 507.594716 279.75125)">80</text>
     </g>
    </g>
    <g id="xtick_12">
     <g id="line2d_53">
      <path d="M 554.444943 266.6725 
L 554.444943 53.52 
" clip-path="url(#p51ece07860)" style="fill: none; stroke: #b0b0b0; stroke-opacity: 0.2; stroke-width: 0.8; stroke-linecap: square"/>
     </g>
     <g id="line2d_54">
      <g>
       <use xlink:href="#m6b5f0a209b" x="554.444943" y="266.6725" style="stroke: #000000; stroke-width: 0.8"/>
      </g>
     </g>
     <g id="text_30">
      <text style="font-size: 8px; font-family: 'DejaVu Sans', 'Bitstream Vera Sans', 'Computer Modern Sans Serif', 'Lucida Grande', 'Verdana', 'Geneva', 'Lucid', 'Arial', 'Helvetica', 'Avant Garde', sans-serif; text-anchor: middle" x="554.444943" y="279.75125" transform="rotate(-0 554.444943 279.75125)">100</text>
     </g>
    </g>
    <g id="text_31">
     <text style="font-weight: 700; font-size: 8px; font-family: 'DejaVu Sans', 'Bitstream Vera Sans', 'Computer Modern Sans Serif', 'Lucida Grande', 'Verdana', 'Geneva', 'Lucid', 'Arial', 'Helvetica', 'Avant Garde', sans-serif; text-anchor: middle" x="437.319375" y="291.49375" transform="rotate(-0 437.319375 291.49375)">Cumulative percentile of detected genes (%)</text>
    </g>
   </g>
   <g id="matplotlib.axis_4">
    <g id="ytick_10">
     <g id="line2d_55">
      <path d="M 308.48125 265.310226 
L 566.1575 265.310226 
" clip-path="url(#p51ece07860)" style="fill: none; stroke: #b0b0b0; stroke-opacity: 0.2; stroke-width: 0.8; stroke-linecap: square"/>
     </g>
     <g id="line2d_56">
      <g>
       <use xlink:href="#md273c5f642" x="308.48125" y="265.310226" style="stroke: #000000; stroke-width: 0.8"/>
      </g>
     </g>
    </g>
    <g id="ytick_11">
     <g id="line2d_57">
      <path d="M 308.48125 238.927096 
L 566.1575 238.927096 
" clip-path="url(#p51ece07860)" style="fill: none; stroke: #b0b0b0; stroke-opacity: 0.2; stroke-width: 0.8; stroke-linecap: square"/>
     </g>
     <g id="line2d_58">
      <g>
       <use xlink:href="#md273c5f642" x="308.48125" y="238.927096" style="stroke: #000000; stroke-width: 0.8"/>
      </g>
     </g>
    </g>
    <g id="ytick_12">
     <g id="line2d_59">
      <path d="M 308.48125 212.543966 
L 566.1575 212.543966 
" clip-path="url(#p51ece07860)" style="fill: none; stroke: #b0b0b0; stroke-opacity: 0.2; stroke-width: 0.8; stroke-linecap: square"/>
     </g>
     <g id="line2d_60">
      <g>
       <use xlink:href="#md273c5f642" x="308.48125" y="212.543966" style="stroke: #000000; stroke-width: 0.8"/>
      </g>
     </g>
    </g>
    <g id="ytick_13">
     <g id="line2d_61">
      <path d="M 308.48125 186.160837 
L 566.1575 186.160837 
" clip-path="url(#p51ece07860)" style="fill: none; stroke: #b0b0b0; stroke-opacity: 0.2; stroke-width: 0.8; stroke-linecap: square"/>
     </g>
     <g id="line2d_62">
      <g>
       <use xlink:href="#md273c5f642" x="308.48125" y="186.160837" style="stroke: #000000; stroke-width: 0.8"/>
      </g>
     </g>
    </g>
    <g id="ytick_14">
     <g id="line2d_63">
      <path d="M 308.48125 159.777707 
L 566.1575 159.777707 
" clip-path="url(#p51ece07860)" style="fill: none; stroke: #b0b0b0; stroke-opacity: 0.2; stroke-width: 0.8; stroke-linecap: square"/>
     </g>
     <g id="line2d_64">
      <g>
       <use xlink:href="#md273c5f642" x="308.48125" y="159.777707" style="stroke: #000000; stroke-width: 0.8"/>
      </g>
     </g>
    </g>
    <g id="ytick_15">
     <g id="line2d_65">
      <path d="M 308.48125 133.394577 
L 566.1575 133.394577 
" clip-path="url(#p51ece07860)" style="fill: none; stroke: #b0b0b0; stroke-opacity: 0.2; stroke-width: 0.8; stroke-linecap: square"/>
     </g>
     <g id="line2d_66">
      <g>
       <use xlink:href="#md273c5f642" x="308.48125" y="133.394577" style="stroke: #000000; stroke-width: 0.8"/>
      </g>
     </g>
    </g>
    <g id="ytick_16">
     <g id="line2d_67">
      <path d="M 308.48125 107.011448 
L 566.1575 107.011448 
" clip-path="url(#p51ece07860)" style="fill: none; stroke: #b0b0b0; stroke-opacity: 0.2; stroke-width: 0.8; stroke-linecap: square"/>
     </g>
     <g id="line2d_68">
      <g>
       <use xlink:href="#md273c5f642" x="308.48125" y="107.011448" style="stroke: #000000; stroke-width: 0.8"/>
      </g>
     </g>
    </g>
    <g id="ytick_17">
     <g id="line2d_69">
      <path d="M 308.48125 80.628318 
L 566.1575 80.628318 
" clip-path="url(#p51ece07860)" style="fill: none; stroke: #b0b0b0; stroke-opacity: 0.2; stroke-width: 0.8; stroke-linecap: square"/>
     </g>
     <g id="line2d_70">
      <g>
       <use xlink:href="#md273c5f642" x="308.48125" y="80.628318" style="stroke: #000000; stroke-width: 0.8"/>
      </g>
     </g>
    </g>
    <g id="ytick_18">
     <g id="line2d_71">
      <path d="M 308.48125 54.245188 
L 566.1575 54.245188 
" clip-path="url(#p51ece07860)" style="fill: none; stroke: #b0b0b0; stroke-opacity: 0.2; stroke-width: 0.8; stroke-linecap: square"/>
     </g>
     <g id="line2d_72">
      <g>
       <use xlink:href="#md273c5f642" x="308.48125" y="54.245188" style="stroke: #000000; stroke-width: 0.8"/>
      </g>
     </g>
    </g>
   </g>
   <g id="line2d_73">
    <path d="M 322.536318 255.558663 
L 324.87883 254.891611 
L 327.221341 255.995804 
L 329.563852 254.409699 
L 331.906364 253.512188 
L 334.248875 252.916642 
L 336.591386 252.219715 
L 338.933898 251.774112 
L 341.276409 251.34916 
L 343.61892 250.683653 
L 345.961432 250.218378 
L 348.303943 249.896988 
L 350.646455 249.551696 
L 352.988966 249.625267 
L 355.331477 249.606795 
L 357.673989 249.349862 
L 360.0165 248.816118 
L 362.359011 248.268491 
L 364.701523 248.018996 
L 367.044034 247.844615 
L 369.386545 247.701097 
L 371.729057 247.288679 
L 374.071568 246.982981 
L 376.41408 246.364061 
L 378.756591 245.923128 
L 381.099102 245.783483 
L 383.441614 245.474193 
L 385.784125 244.840209 
L 388.126636 244.62039 
L 390.469148 244.178007 
L 392.811659 243.843864 
L 395.15417 243.57381 
L 397.496682 243.167195 
L 399.839193 242.745439 
L 402.181705 242.493645 
L 404.524216 242.203233 
L 406.866727 241.983019 
L 409.209239 241.642656 
L 411.55175 241.279255 
L 413.894261 240.685216 
L 416.236773 240.26577 
L 418.579284 239.791658 
L 420.921795 239.432671 
L 423.264307 238.822059 
L 425.606818 238.406141 
L 427.94933 238.057601 
L 430.291841 237.260953 
L 432.634352 236.927759 
L 434.976864 236.633047 
L 437.319375 236.133479 
L 439.661886 235.707517 
L 442.004398 235.373297 
L 444.346909 234.900451 
L 446.68942 234.61315 
L 449.031932 234.273294 
L 451.374443 233.811783 
L 453.716955 233.428409 
L 456.059466 233.125028 
L 458.401977 232.7617 
L 460.744489 232.359674 
L 463.087 231.937507 
L 465.429511 231.728871 
L 467.772023 231.163733 
L 470.114534 230.725761 
L 472.457045 230.312498 
L 474.799557 230.155279 
L 477.142068 229.906777 
L 479.48458 229.608445 
L 481.827091 229.170416 
L 484.169602 228.94078 
L 486.512114 228.564216 
L 488.854625 228.214202 
L 491.197136 227.855364 
L 493.539648 227.587116 
L 495.882159 227.231995 
L 498.22467 226.767964 
L 500.567182 226.428612 
L 502.909693 226.110136 
L 505.252205 225.680066 
L 507.594716 225.352062 
L 509.937227 225.029885 
L 512.279739 224.635012 
L 514.62225 224.370421 
L 516.964761 224.101897 
L 519.307273 223.899919 
L 521.649784 223.639059 
L 523.992295 223.417336 
L 526.334807 223.089846 
L 528.677318 222.734801 
L 531.01983 222.54401 
L 533.362341 222.201266 
L 535.704852 221.851339 
L 538.047364 221.621885 
L 540.389875 221.273315 
L 542.732386 220.919001 
L 545.074898 220.624828 
L 547.417409 220.308797 
L 549.75992 220.038286 
L 552.102432 219.780447 
L 554.444943 219.489081 
" clip-path="url(#p51ece07860)" style="fill: none; stroke: #77c8dc; stroke-opacity: 0.95; stroke-width: 3.5; stroke-linecap: square"/>
   </g>
   <g id="line2d_74">
    <path d="M 322.536318 256.98375 
L 324.87883 254.342917 
L 327.221341 253.220972 
L 329.563852 251.56084 
L 331.906364 249.939429 
L 334.248875 248.08608 
L 336.591386 247.003929 
L 338.933898 246.029297 
L 341.276409 245.066307 
L 343.61892 244.540467 
L 345.961432 244.093077 
L 348.303943 243.827009 
L 350.646455 243.876148 
L 352.988966 243.488805 
L 355.331477 243.284012 
L 357.673989 243.005118 
L 360.0165 242.545788 
L 362.359011 241.708555 
L 364.701523 241.1129 
L 367.044034 240.560146 
L 369.386545 240.087285 
L 371.729057 239.59101 
L 374.071568 238.678225 
L 376.41408 238.200625 
L 378.756591 237.654366 
L 381.099102 237.368643 
L 383.441614 236.907799 
L 385.784125 236.620814 
L 388.126636 236.160703 
L 390.469148 235.632875 
L 392.811659 235.049737 
L 395.15417 234.812 
L 397.496682 234.210549 
L 399.839193 233.658403 
L 402.181705 233.001219 
L 404.524216 232.619578 
L 406.866727 232.062182 
L 409.209239 231.830869 
L 411.55175 231.310242 
L 413.894261 231.048063 
L 416.236773 230.591759 
L 418.579284 230.301288 
L 420.921795 229.953954 
L 423.264307 229.44703 
L 425.606818 229.207884 
L 427.94933 228.947028 
L 430.291841 228.452488 
L 432.634352 228.179511 
L 434.976864 227.782649 
L 437.319375 227.264423 
L 439.661886 227.174589 
L 442.004398 226.809148 
L 444.346909 226.373121 
L 446.68942 226.168672 
L 449.031932 225.876494 
L 451.374443 225.338721 
L 453.716955 224.969515 
L 456.059466 224.716275 
L 458.401977 224.196126 
L 460.744489 223.854333 
L 463.087 223.521924 
L 465.429511 223.133142 
L 467.772023 222.720973 
L 470.114534 222.259418 
L 472.457045 221.886652 
L 474.799557 221.631617 
L 477.142068 221.250102 
L 479.48458 220.947139 
L 481.827091 220.53581 
L 484.169602 220.205804 
L 486.512114 219.870789 
L 488.854625 219.533819 
L 491.197136 219.343022 
L 493.539648 218.897428 
L 495.882159 218.368922 
L 498.22467 218.149693 
L 500.567182 217.844597 
L 502.909693 217.516935 
L 505.252205 217.113918 
L 507.594716 216.864852 
L 509.937227 216.551631 
L 512.279739 216.222915 
L 514.62225 215.749654 
L 516.964761 215.552401 
L 519.307273 215.359364 
L 521.649784 215.008395 
L 523.992295 214.738099 
L 526.334807 214.262569 
L 528.677318 213.933591 
L 531.01983 213.500589 
L 533.362341 213.173906 
L 535.704852 212.787263 
L 538.047364 212.401603 
L 540.389875 212.096224 
L 542.732386 211.783846 
L 545.074898 211.355973 
L 547.417409 210.992802 
L 549.75992 210.424307 
L 552.102432 209.928158 
L 554.444943 209.538116 
" clip-path="url(#p51ece07860)" style="fill: none; stroke-dasharray: 16,6; stroke-dashoffset: 0; stroke: #bdc7e3; stroke-opacity: 0.95; stroke-width: 2"/>
   </g>
   <g id="line2d_75">
    <path d="M 322.536318 234.375942 
L 324.87883 226.416224 
L 327.221341 222.548791 
L 329.563852 222.192051 
L 331.906364 220.196346 
L 334.248875 218.270571 
L 336.591386 216.790747 
L 338.933898 216.019879 
L 341.276409 216.024453 
L 343.61892 215.649063 
L 345.961432 215.077779 
L 348.303943 214.94502 
L 350.646455 214.887593 
L 352.988966 214.999228 
L 355.331477 213.73747 
L 357.673989 213.053691 
L 360.0165 213.052136 
L 362.359011 212.799409 
L 364.701523 212.686101 
L 367.044034 211.803865 
L 369.386545 211.924352 
L 371.729057 211.348756 
L 374.071568 211.000089 
L 376.41408 210.489746 
L 378.756591 209.67052 
L 381.099102 208.734595 
L 383.441614 208.202814 
L 385.784125 208.203376 
L 388.126636 207.759974 
L 390.469148 207.74142 
L 392.811659 207.104517 
L 395.15417 206.713046 
L 397.496682 205.608982 
L 399.839193 205.254925 
L 402.181705 205.138465 
L 404.524216 204.922481 
L 406.866727 204.90718 
L 409.209239 204.08661 
L 411.55175 204.012893 
L 413.894261 203.223098 
L 416.236773 202.94544 
L 418.579284 202.704264 
L 420.921795 202.086163 
L 423.264307 201.447238 
L 425.606818 200.985917 
L 427.94933 200.731321 
L 430.291841 200.413242 
L 432.634352 200.102038 
L 434.976864 200.171406 
L 437.319375 199.612517 
L 439.661886 199.198264 
L 442.004398 198.690921 
L 444.346909 198.490259 
L 446.68942 197.805208 
L 449.031932 197.495999 
L 451.374443 197.23097 
L 453.716955 197.294784 
L 456.059466 197.052715 
L 458.401977 196.494828 
L 460.744489 196.384061 
L 463.087 195.858354 
L 465.429511 195.451841 
L 467.772023 195.204875 
L 470.114534 194.953455 
L 472.457045 194.739685 
L 474.799557 194.540186 
L 477.142068 194.310382 
L 479.48458 193.77836 
L 481.827091 193.540387 
L 484.169602 193.266083 
L 486.512114 192.996052 
L 488.854625 192.5846 
L 491.197136 192.359935 
L 493.539648 192.133479 
L 495.882159 191.915851 
L 498.22467 191.760533 
L 500.567182 191.385258 
L 502.909693 191.189942 
L 505.252205 191.035038 
L 507.594716 190.736025 
L 509.937227 190.261717 
L 512.279739 189.917065 
L 514.62225 189.715173 
L 516.964761 189.51091 
L 519.307273 189.053157 
L 521.649784 188.884956 
L 523.992295 188.397801 
L 526.334807 188.010269 
L 528.677318 187.766896 
L 531.01983 187.488668 
L 533.362341 187.121681 
L 535.704852 186.826896 
L 538.047364 186.556229 
L 540.389875 186.382619 
L 542.732386 186.07275 
L 545.074898 185.952969 
L 547.417409 185.543493 
L 549.75992 185.382916 
L 552.102432 185.191003 
L 554.444943 184.843572 
" clip-path="url(#p51ece07860)" style="fill: none; stroke-dasharray: 6,4; stroke-dashoffset: 0; stroke: #ecb0a3; stroke-opacity: 0.95; stroke-width: 2"/>
   </g>
   <g id="line2d_76">
    <path d="M 322.536318 249.837554 
L 324.87883 248.503318 
L 327.221341 247.126504 
L 329.563852 243.419185 
L 331.906364 240.698623 
L 334.248875 238.987639 
L 336.591386 237.930702 
L 338.933898 237.307038 
L 341.276409 235.897914 
L 343.61892 234.815679 
L 345.961432 233.737652 
L 348.303943 232.964433 
L 350.646455 231.874109 
L 352.988966 230.781003 
L 355.331477 229.41712 
L 357.673989 229.27992 
L 360.0165 229.27992 
L 362.359011 228.681275 
L 364.701523 228.550844 
L 367.044034 228.53553 
L 369.386545 228.104894 
L 371.729057 227.924917 
L 374.071568 227.253889 
L 376.41408 227.051851 
L 378.756591 226.816948 
L 381.099102 226.262426 
L 383.441614 226.075357 
L 385.784125 225.888449 
L 388.126636 225.353748 
L 390.469148 224.795198 
L 392.811659 224.077736 
L 395.15417 223.467812 
L 397.496682 223.18312 
L 399.839193 222.603888 
L 402.181705 222.277609 
L 404.524216 221.879571 
L 406.866727 221.265787 
L 409.209239 220.964534 
L 411.55175 220.677811 
L 413.894261 220.165448 
L 416.236773 220.057373 
L 418.579284 219.962534 
L 420.921795 219.911806 
L 423.264307 219.716459 
L 425.606818 219.666166 
L 427.94933 219.065049 
L 430.291841 218.732363 
L 432.634352 218.581814 
L 434.976864 218.419612 
L 437.319375 217.970929 
L 439.661886 217.652772 
L 442.004398 217.44501 
L 444.346909 217.279238 
L 446.68942 216.917949 
L 449.031932 216.645553 
L 451.374443 216.544667 
L 453.716955 216.197559 
L 456.059466 215.82474 
L 458.401977 215.433604 
L 460.744489 215.238449 
L 463.087 214.584342 
L 465.429511 214.166299 
L 467.772023 214.001046 
L 470.114534 213.552768 
L 472.457045 213.241875 
L 474.799557 212.993507 
L 477.142068 212.653998 
L 479.48458 212.393591 
L 481.827091 211.993666 
L 484.169602 211.584834 
L 486.512114 211.374188 
L 488.854625 211.055175 
L 491.197136 210.775422 
L 493.539648 210.660394 
L 495.882159 210.557216 
L 498.22467 210.325735 
L 500.567182 210.116514 
L 502.909693 209.770247 
L 505.252205 209.313982 
L 507.594716 208.726553 
L 509.937227 208.341008 
L 512.279739 208.203777 
L 514.62225 207.954588 
L 516.964761 207.815366 
L 519.307273 207.713133 
L 521.649784 207.616224 
L 523.992295 207.455346 
L 526.334807 207.313821 
L 528.677318 207.042757 
L 531.01983 206.870547 
L 533.362341 206.523317 
L 535.704852 206.251831 
L 538.047364 205.827924 
L 540.389875 205.544181 
L 542.732386 205.197001 
L 545.074898 205.049072 
L 547.417409 204.737124 
L 549.75992 204.447438 
L 552.102432 204.168816 
L 554.444943 203.969564 
" clip-path="url(#p51ece07860)" style="fill: none; stroke-dasharray: 12.8,3.2,2,3.2; stroke-dashoffset: 0; stroke: #d7e6d5; stroke-opacity: 0.95; stroke-width: 2"/>
   </g>
   <g id="line2d_77">
    <path d="M 322.536318 226.795478 
L 324.87883 224.82905 
L 327.221341 226.041267 
L 329.563852 224.82905 
L 331.906364 221.48211 
L 334.248875 222.022741 
L 336.591386 218.48959 
L 338.933898 218.177881 
L 341.276409 218.063177 
L 343.61892 217.288883 
L 345.961432 216.043612 
L 348.303943 215.969424 
L 350.646455 215.784461 
L 352.988966 214.849295 
L 355.331477 214.535494 
L 357.673989 213.057905 
L 360.0165 213.061126 
L 362.359011 212.257914 
L 364.701523 212.382057 
L 367.044034 210.929381 
L 369.386545 210.898682 
L 371.729057 210.117558 
L 374.071568 209.194851 
L 376.41408 208.960307 
L 378.756591 208.523146 
L 381.099102 208.064556 
L 383.441614 207.266763 
L 385.784125 206.923335 
L 388.126636 206.083912 
L 390.469148 205.761804 
L 392.811659 205.235298 
L 395.15417 204.832554 
L 397.496682 203.76807 
L 399.839193 203.556785 
L 402.181705 203.102331 
L 404.524216 201.847961 
L 406.866727 201.497776 
L 409.209239 200.374306 
L 411.55175 200.102885 
L 413.894261 199.700985 
L 416.236773 199.368442 
L 418.579284 198.714279 
L 420.921795 198.389876 
L 423.264307 197.75443 
L 425.606818 197.344867 
L 427.94933 196.830344 
L 430.291841 196.003926 
L 432.634352 195.047739 
L 434.976864 194.173367 
L 437.319375 193.676003 
L 439.661886 193.085866 
L 442.004398 192.591276 
L 444.346909 192.015208 
L 446.68942 191.62023 
L 449.031932 191.355138 
L 451.374443 190.943098 
L 453.716955 190.446214 
L 456.059466 190.115905 
L 458.401977 189.638647 
L 460.744489 189.059764 
L 463.087 188.740042 
L 465.429511 188.531007 
L 467.772023 187.752271 
L 470.114534 187.383773 
L 472.457045 186.316387 
L 474.799557 185.80468 
L 477.142068 185.116997 
L 479.48458 184.532374 
L 481.827091 184.105266 
L 484.169602 183.80542 
L 486.512114 183.251072 
L 488.854625 182.640971 
L 491.197136 181.926841 
L 493.539648 181.131341 
L 495.882159 180.893895 
L 498.22467 180.437607 
L 500.567182 180.094909 
L 502.909693 179.434439 
L 505.252205 179.27119 
L 507.594716 178.936628 
L 509.937227 178.280102 
L 512.279739 177.717191 
L 514.62225 177.450251 
L 516.964761 177.416482 
L 519.307273 177.268009 
L 521.649784 176.968088 
L 523.992295 176.759357 
L 526.334807 176.657008 
L 528.677318 176.448707 
L 531.01983 176.259143 
L 533.362341 176.026743 
L 535.704852 175.894211 
L 538.047364 175.821918 
L 540.389875 175.462086 
L 542.732386 175.299025 
L 545.074898 174.890341 
L 547.417409 174.679479 
L 549.75992 174.491073 
L 552.102432 174.320975 
L 554.444943 173.962218 
" clip-path="url(#p51ece07860)" style="fill: none; stroke-dasharray: 16,6,2,6,2,6; stroke-dashoffset: 0; stroke: #b4c7b0; stroke-opacity: 0.95; stroke-width: 2"/>
   </g>
   <g id="line2d_78">
    <path d="M 322.536318 172.806394 
L 324.87883 171.335302 
L 327.221341 165.214284 
L 329.563852 163.080363 
L 331.906364 160.615936 
L 334.248875 155.78713 
L 336.591386 156.124676 
L 338.933898 154.818666 
L 341.276409 152.641285 
L 343.61892 148.48324 
L 345.961432 147.139516 
L 348.303943 139.894404 
L 350.646455 138.062126 
L 352.988966 137.343903 
L 355.331477 135.729996 
L 357.673989 135.063151 
L 360.0165 130.869961 
L 362.359011 130.267252 
L 364.701523 130.088029 
L 367.044034 127.914231 
L 369.386545 126.289749 
L 371.729057 126.009595 
L 374.071568 125.865609 
L 376.41408 126.440814 
L 378.756591 125.84449 
L 381.099102 125.928589 
L 383.441614 125.886729 
L 385.784125 124.918123 
L 388.126636 125.61754 
L 390.469148 123.985098 
L 392.811659 123.839279 
L 395.15417 122.42563 
L 397.496682 121.978489 
L 399.839193 121.846109 
L 402.181705 121.187764 
L 404.524216 119.564708 
L 406.866727 119.547265 
L 409.209239 119.291327 
L 411.55175 119.273936 
L 413.894261 119.291327 
L 416.236773 119.256545 
L 418.579284 119.217747 
L 420.921795 119.582151 
L 423.264307 119.786227 
L 425.606818 119.727791 
L 427.94933 119.625753 
L 430.291841 119.838893 
L 432.634352 120.727366 
L 434.976864 119.81256 
L 437.319375 119.582151 
L 439.661886 119.727791 
L 442.004398 119.305121 
L 444.346909 119.256545 
L 446.68942 119.16334 
L 449.031932 119.16334 
L 451.374443 119.256545 
L 453.716955 119.318916 
L 456.059466 119.391077 
L 458.401977 119.547265 
L 460.744489 119.838893 
L 463.087 119.81256 
L 465.429511 119.838893 
L 467.772023 120.069696 
L 470.114534 119.584699 
L 472.457045 119.353918 
L 474.799557 119.291327 
L 477.142068 119.16334 
L 479.48458 119.305121 
L 481.827091 119.38892 
L 484.169602 119.305121 
L 486.512114 119.217747 
L 488.854625 118.909888 
L 491.197136 118.34785 
L 493.539648 117.917349 
L 495.882159 118.370629 
L 498.22467 116.518619 
L 500.567182 116.501832 
L 502.909693 116.260753 
L 505.252205 115.854591 
L 507.594716 116.00121 
L 509.937227 115.80515 
L 512.279739 115.539572 
L 514.62225 115.468432 
L 516.964761 115.62395 
L 519.307273 115.427745 
L 521.649784 115.468432 
L 523.992295 115.468432 
L 526.334807 115.427745 
L 528.677318 115.233929 
L 531.01983 115.403321 
L 533.362341 115.236217 
L 535.704852 114.956845 
L 538.047364 114.352436 
L 540.389875 113.839384 
L 542.732386 114.074665 
L 545.074898 114.000567 
L 547.417409 113.618615 
L 549.75992 113.780861 
L 552.102432 112.937834 
L 554.444943 112.390638 
" clip-path="url(#p51ece07860)" style="fill: none; stroke-dasharray: 16,6; stroke-dashoffset: 0; stroke: #9e9e9e; stroke-opacity: 0.95; stroke-width: 2"/>
   </g>
   <g id="patch_9">
    <path d="M 308.48125 266.6725 
L 308.48125 53.52 
" style="fill: none; stroke: #000000; stroke-width: 0.8; stroke-linejoin: miter; stroke-linecap: square"/>
   </g>
   <g id="patch_10">
    <path d="M 566.1575 266.6725 
L 566.1575 53.52 
" style="fill: none; stroke: #000000; stroke-width: 0.8; stroke-linejoin: miter; stroke-linecap: square"/>
   </g>
   <g id="patch_11">
    <path d="M 308.48125 266.6725 
L 566.1575 266.6725 
" style="fill: none; stroke: #000000; stroke-width: 0.8; stroke-linejoin: miter; stroke-linecap: square"/>
   </g>
   <g id="patch_12">
    <path d="M 308.48125 53.52 
L 566.1575 53.52 
" style="fill: none; stroke: #000000; stroke-width: 0.8; stroke-linejoin: miter; stroke-linecap: square"/>
   </g>
   <g id="text_32">
    <text style="font-weight: 700; font-size: 9px; font-family: 'DejaVu Sans', 'Bitstream Vera Sans', 'Computer Modern Sans Serif', 'Lucida Grande', 'Verdana', 'Geneva', 'Lucid', 'Arial', 'Helvetica', 'Avant Garde', sans-serif; text-anchor: middle" x="437.319375" y="47.52" transform="rotate(-0 437.319375 47.52)">Highest to lowest expression</text>
   </g>
   <g id="legend_2">
    <g id="patch_13">
     <path d="M 313.38125 120.768125 
L 459.346563 120.768125 
Q 460.746563 120.768125 460.746563 119.368125 
L 460.746563 58.42 
Q 460.746563 57.02 459.346563 57.02 
L 313.38125 57.02 
Q 311.98125 57.02 311.98125 58.42 
L 311.98125 119.368125 
Q 311.98125 120.768125 313.38125 120.768125 
z
" style="fill: #ffffff; opacity: 0.85; stroke: #cccccc; stroke-linejoin: miter"/>
    </g>
    <g id="line2d_79">
     <path d="M 314.78125 62.688906 
L 321.78125 62.688906 
L 328.78125 62.688906 
" style="fill: none; stroke: #77c8dc; stroke-opacity: 0.95; stroke-width: 3.5; stroke-linecap: square"/>
    </g>
    <g id="text_33">
     <text style="font-size: 7px; font-family: 'DejaVu Sans', 'Bitstream Vera Sans', 'Computer Modern Sans Serif', 'Lucida Grande', 'Verdana', 'Geneva', 'Lucid', 'Arial', 'Helvetica', 'Avant Garde', sans-serif; text-anchor: start" x="334.38125" y="65.138906" transform="rotate(-0 334.38125 65.138906)">S1: NTVE (CV@50%=0.42)</text>
    </g>
    <g id="line2d_80">
     <path d="M 314.78125 72.963594 
L 321.78125 72.963594 
L 328.78125 72.963594 
" style="fill: none; stroke-dasharray: 16,6; stroke-dashoffset: 0; stroke: #bdc7e3; stroke-opacity: 0.95; stroke-width: 2"/>
    </g>
    <g id="text_34">
     <text style="font-size: 7px; font-family: 'DejaVu Sans', 'Bitstream Vera Sans', 'Computer Modern Sans Serif', 'Lucida Grande', 'Verdana', 'Geneva', 'Lucid', 'Arial', 'Helvetica', 'Avant Garde', sans-serif; text-anchor: start" x="334.38125" y="75.413594" transform="rotate(-0 334.38125 75.413594)">S2: HIV-gag WT (CV@50%=0.49)</text>
    </g>
    <g id="line2d_81">
     <path d="M 314.78125 83.238281 
L 321.78125 83.238281 
L 328.78125 83.238281 
" style="fill: none; stroke-dasharray: 6,4; stroke-dashoffset: 0; stroke: #ecb0a3; stroke-opacity: 0.95; stroke-width: 2"/>
    </g>
    <g id="text_35">
     <text style="font-size: 7px; font-family: 'DejaVu Sans', 'Bitstream Vera Sans', 'Computer Modern Sans Serif', 'Lucida Grande', 'Verdana', 'Geneva', 'Lucid', 'Arial', 'Helvetica', 'Avant Garde', sans-serif; text-anchor: start" x="334.38125" y="85.688281" transform="rotate(-0 334.38125 85.688281)">S3: TRACE-seq (CV@50%=0.70)</text>
    </g>
    <g id="line2d_82">
     <path d="M 314.78125 93.512969 
L 321.78125 93.512969 
L 328.78125 93.512969 
" style="fill: none; stroke-dasharray: 12.8,3.2,2,3.2; stroke-dashoffset: 0; stroke: #d7e6d5; stroke-opacity: 0.95; stroke-width: 2"/>
    </g>
    <g id="text_36">
     <text style="font-size: 7px; font-family: 'DejaVu Sans', 'Bitstream Vera Sans', 'Computer Modern Sans Serif', 'Lucida Grande', 'Verdana', 'Geneva', 'Lucid', 'Arial', 'Helvetica', 'Avant Garde', sans-serif; text-anchor: start" x="334.38125" y="95.962969" transform="rotate(-0 334.38125 95.962969)">S4: MMLV-gag WT (CV@50%=0.56)</text>
    </g>
    <g id="line2d_83">
     <path d="M 314.78125 103.787656 
L 321.78125 103.787656 
L 328.78125 103.787656 
" style="fill: none; stroke-dasharray: 16,6,2,6,2,6; stroke-dashoffset: 0; stroke: #b4c7b0; stroke-opacity: 0.95; stroke-width: 2"/>
    </g>
    <g id="text_37">
     <text style="font-size: 7px; font-family: 'DejaVu Sans', 'Bitstream Vera Sans', 'Computer Modern Sans Serif', 'Lucida Grande', 'Verdana', 'Geneva', 'Lucid', 'Arial', 'Helvetica', 'Avant Garde', sans-serif; text-anchor: start" x="334.38125" y="106.237656" transform="rotate(-0 334.38125 106.237656)">S5: HIV-gag:MCP (CV@50%=0.74)</text>
    </g>
    <g id="line2d_84">
     <path d="M 314.78125 114.062344 
L 321.78125 114.062344 
L 328.78125 114.062344 
" style="fill: none; stroke-dasharray: 16,6; stroke-dashoffset: 0; stroke: #9e9e9e; stroke-opacity: 0.95; stroke-width: 2"/>
    </g>
    <g id="text_38">
     <text style="font-size: 7px; font-family: 'DejaVu Sans', 'Bitstream Vera Sans', 'Computer Modern Sans Serif', 'Lucida Grande', 'Verdana', 'Geneva', 'Lucid', 'Arial', 'Helvetica', 'Avant Garde', sans-serif; text-anchor: start" x="334.38125" y="116.512344" transform="rotate(-0 334.38125 116.512344)">S6: NLuc (CV@50%=1.30)</text>
    </g>
   </g>
  </g>
  <g id="text_39">
   <text style="font-weight: 700; font-size: 10px; font-family: 'DejaVu Sans', 'Bitstream Vera Sans', 'Computer Modern Sans Serif', 'Lucida Grande', 'Verdana', 'Geneva', 'Lucid', 'Arial', 'Helvetica', 'Avant Garde', sans-serif; text-anchor: middle" x="286.7975" y="14.798437" transform="rotate(-0 286.7975 14.798437)">Benchmarking comparison - coefficient of variation across cumulative expression percentiles</text>
  </g>
 </g>
 <defs>
  <clipPath id="pf8d3106a7c">
   <rect x="38.665" y="53.52" width="257.67625" height="213.1525"/>
  </clipPath>
  <clipPath id="p51ece07860">
   <rect x="308.48125" y="53.52" width="257.67625" height="213.1525"/>
  </clipPath>
 </defs>
</svg>
